
<svg width="188px" height="118px" viewBox="0 0 188 118" version="1.1" xmlns="http://www.w3.org/2000/svg" xmlns:xlink="http://www.w3.org/1999/xlink">
    <defs>
        <rect id="path-1" x="0" y="0" width="180" height="110"></rect>
        <filter x="-3.9%" y="-4.5%" width="107.8%" height="112.7%" filterUnits="objectBoundingBox" id="filter-2">
            <feOffset dx="0" dy="2" in="SourceAlpha" result="shadowOffsetOuter1"></feOffset>
            <feGaussianBlur stdDeviation="2" in="shadowOffsetOuter1" result="shadowBlurOuter1"></feGaussianBlur>
            <feColorMatrix values="0 0 0 0 0   0 0 0 0 0   0 0 0 0 0  0 0 0 0.135699728 0" type="matrix" in="shadowBlurOuter1"></feColorMatrix>
        </filter>
        <rect id="path-3" x="0" y="0" width="130" height="60"></rect>
    </defs>
    <g id="Page-1" stroke="none" stroke-width="1" fill="none" fill-rule="evenodd">
        <g id="4" transform="translate(-891.000000, -505.000000)">
            <g id="Basic-Copy" transform="translate(895.000000, 507.000000)">
                <g id="map-copy">
                    <g id="Rectangle-2-Copy-2">
                        <use fill="black" fill-opacity="1" filter="url(#filter-2)" xlink:href="#path-1"></use>
                        <use fill="#FFFFFF" fill-rule="evenodd" xlink:href="#path-1"></use>
                    </g>
                    <g id="Group-11" transform="translate(25.000000, 35.000000)">
                        <g id="Page-1">
                            <mask id="mask-4" fill="white">
                                <use xlink:href="#path-3"></use>
                            </mask>
                            <use id="Mask" fill-opacity="0" fill="#9E9E9E" xlink:href="#path-3"></use>
                            <g id="Group-20" mask="url(#mask-4)">
                                <g transform="translate(-1.000000, -34.000000)">
                                    <polygon id="Fill-2" fill="#D2D8DE" points="0.604189976 89.1019166 0.604189976 103.616119 32.2677143 103.616119 9.22635549 80.4229392"></polygon>
                                    <polygon id="Fill-4" fill="#D2D8DE" points="31.5382617 94.356259 40.2439024 103.384615 74.0487805 103.384615 48.8135044 76.967503"></polygon>
                                    <polygon id="Fill-6" fill="#919DA9" points="13.4611895 76.1597616 27.3036775 90.0934585 44.578608 72.7050169 30.73612 58.7710056"></polygon>
                                    <polygon id="Fill-8" fill="#D2D8DE" points="37.0588644 17.0809556 46.4279054 26.5117297 72.5932146 0.174330079 0.604346096 0.200730967 0.604346096 80.5766615 26.5011298 54.508928 19.8829137 47.8471041 24.1178102 43.5839893 36.590506 56.1391828 51.9910662 40.6371474 32.8239679 21.343756"></polygon>
                                    <polygon id="Fill-10" fill="#D2D8DE" points="113.832038 103.384615 56.225307 44.8997907 40.825059 60.4015118 83.1953329 103.384615"></polygon>
                                    <polygon id="Fill-12" fill="#D2D8DE" points="116.876593 0.196582256 84.7319085 0.180238849 100.812525 16.3664973"></polygon>
                                    <path d="M131.366352,0.203968218 L125.341078,0.200825256 L88.8715721,36.910945 L94.7535289,42.8316583 L90.0484006,47.5681033 L84.1664438,41.64739 L72.8153102,53.0733169 L82.3613906,62.6826114 C82.3630559,62.6840781 86.7971608,67.1473996 95.6637053,76.0725758 L102.639747,69.0505683 L106.874331,73.3133687 L99.898914,80.3350619 L123.076409,103.665589 L131.366352,103.669675 L131.366352,0.203968218 Z" id="Fill-16" fill="#D2D8DE"></path>
                                    <polygon id="Fill-18" fill="#D2D8DE" points="58.3407881 38.50361 58.3423493 38.5051815 58.3442228 38.5070673 68.5803512 48.8106422 96.5772539 20.6292663 78.6591113 2.59337426 50.6622086 30.7741216"></polygon>
                                </g>
                            </g>
                        </g>
                    </g>
                </g>
                <path d="M78.078125,23 L74.8847656,23 L74.8847656,14.5449219 L78.0898438,14.5449219 C79.5371094,14.5449219 80.515625,15.3886719 80.515625,16.6542969 C80.515625,17.5332031 79.8710938,18.3535156 79.0566406,18.5 L79.0566406,18.546875 C80.2050781,18.6933594 80.9433594,19.5019531 80.9433594,20.6269531 C80.9433594,22.1152344 79.8769531,23 78.078125,23 Z M75.9394531,15.4765625 L75.9394531,18.1894531 L77.5214844,18.1894531 C78.7695312,18.1894531 79.4492188,17.6914062 79.4492188,16.7773438 C79.4492188,15.9394531 78.875,15.4765625 77.8496094,15.4765625 L75.9394531,15.4765625 Z M75.9394531,22.0683594 L77.9199219,22.0683594 C79.1914062,22.0683594 79.859375,21.5527344 79.859375,20.5742188 C79.859375,19.5957031 79.1679688,19.0976562 77.8203125,19.0976562 L75.9394531,19.0976562 L75.9394531,22.0683594 Z M87.6347656,23 L86.7851562,20.5800781 L83.421875,20.5800781 L82.5722656,23 L81.4648438,23 L84.5820312,14.5449219 L85.625,14.5449219 L88.7421875,23 L87.6347656,23 Z M85.0859375,15.828125 L83.7324219,19.6835938 L86.4746094,19.6835938 L85.1210938,15.828125 L85.0859375,15.828125 Z M89.2988281,20.7324219 L90.3535156,20.7324219 C90.4765625,21.640625 91.3203125,22.1914062 92.5332031,22.1914062 C93.6816406,22.1914062 94.5136719,21.5878906 94.5136719,20.7558594 C94.5136719,20.046875 94.0449219,19.578125 92.8730469,19.3203125 L91.9355469,19.1152344 C90.2421875,18.7460938 89.5097656,17.9785156 89.5097656,16.7773438 C89.5097656,15.3828125 90.7402344,14.4042969 92.4921875,14.4042969 C94.1796875,14.4042969 95.3984375,15.4121094 95.4453125,16.8476562 L94.390625,16.8476562 C94.296875,15.921875 93.5644531,15.3535156 92.4628906,15.3535156 C91.4082031,15.3535156 90.59375,15.8691406 90.59375,16.7304688 C90.59375,17.3984375 91.0449219,17.8554688 92.1992188,18.1074219 L93.1367188,18.3125 C94.9003906,18.6992188 95.5976562,19.4023438 95.5976562,20.5976562 C95.5976562,22.1621094 94.3671875,23.140625 92.4746094,23.140625 C90.6289062,23.140625 89.3984375,22.1914062 89.2988281,20.7324219 Z M97.8828125,23 L96.828125,23 L96.828125,14.5449219 L97.8828125,14.5449219 L97.8828125,23 Z M103.003906,23.140625 C100.671875,23.140625 99.1953125,21.4472656 99.1953125,18.7695312 C99.1953125,16.1152344 100.689453,14.4042969 103.003906,14.4042969 C104.84375,14.4042969 106.244141,15.5234375 106.513672,17.2109375 L105.447266,17.2109375 C105.177734,16.1035156 104.210938,15.3769531 103.003906,15.3769531 C101.351562,15.3769531 100.279297,16.7128906 100.279297,18.7695312 C100.279297,20.84375 101.339844,22.1679688 103.009766,22.1679688 C104.251953,22.1679688 105.142578,21.5703125 105.447266,20.5390625 L106.513672,20.5390625 C106.126953,22.2089844 104.873047,23.140625 103.003906,23.140625 Z" id="BASIC" fill="#919DA9"></path>
            </g>
        </g>
    </g>
</svg>