
			<svg width="188" height="118" view-box="0 0 188 118" xmlns="http://www.w3.org/2000/svg">
				<defs>
					<filter
						id="a"
						width="107.8%"
						height="112.7%"
						x="-3.9%"
						y="-4.5%"
						filter-units="objectBoundingBox"
					>
						<feOffset dy="2" in="SourceAlpha" result="shadowOffsetOuter1" />
						<feGaussianBlur
							std-deviation="2"
							in="shadowOffsetOuter1"
							result="shadowBlurOuter1"
						/>
						<feColorMatrix
							values="0 0 0 0 0 0 0 0 0 0 0 0 0 0 0 0 0 0 0.135699728 0"
							in="shadowBlurOuter1"
						/>
					</filter>
					<filter
						id="e"
						width="120.3%"
						height="153.8%"
						x="-10.1%"
						y="-19.2%"
						filter-units="objectBoundingBox"
					>
						<feOffset dy="2" in="SourceAlpha" result="shadowOffsetOuter1" />
						<feGaussianBlur
							std-deviation="2"
							in="shadowOffsetOuter1"
							result="shadowBlurOuter1"
						/>
						<feColorMatrix
							values="0 0 0 0 0 0 0 0 0 0 0 0 0 0 0 0 0 0 0.180932971 0"
							in="shadowBlurOuter1"
							result="shadowMatrixOuter1"
						/>
						<feMerge>
							<feMergeNode in="shadowMatrixOuter1" />
							<feMergeNode in="SourceGraphic" />
						</feMerge>
					</filter>
				</defs>
				<g fill="none" fill-rule="evenodd">
					<g transform="translate(4 2)">
						<path fill="#000" filter="url(#a)" d="M0 0h180v110H0z" />
						<path fill="#FFF" d="M0 0h180v110H0z" />
					</g>
					<g transform="translate(24 22)">
						<mask id="d" fill="#fff">
							<path d="M0 0h140v70H0z" />
						</mask>
						<path fill="#D2D8DE" d="M0 0h140v70H0z" />
						<path
							fill="#717F8E"
							fill-rule="nonzero"
							d="M145.868 32.083l-9.612-4.69-3.204-1.563-3.754-1.832c-2.502-1.22-5.782-1.83-9.06-1.83-3.28 0-6.56.61-9.063 1.83l-3.754 1.832-3.204 1.563-9.61 4.69-3.205 1.564-9.61 4.69-3.205 1.563-9.612 4.69-3.204 1.563-1.603.782 49.66 24.232H171.5V44.59l-12.816-6.253-9.612-4.69-3.204-1.564z"
							mask="url(#d)"
						/>
						<path
							fill="#919DA9"
							fill-rule="nonzero"
							d="M66.722 47.396l-1.61-.767-6.445-3.07-6.445-3.066-6.444-3.067-3.775-1.797c-1.157-.55-2.48-.973-3.89-1.27-1.66-.35-3.442-.527-5.224-.527-1.783 0-3.565.177-5.224.527-1.41.297-2.734.72-3.89 1.27L20 37.427l-6.445 3.067-6.444 3.068L.668 46.63l-6.445 3.066-12.89 6.134v15.337H116.67L66.72 47.397z"
							mask="url(#d)"
						/>
					</g>
					<g fill="#FFF" filter="url(#e)" transform="translate(60 45)">
						<rect width="25" height="7" x="22" y="19" rx="3.5" />
						<path d="M8 7h54v5H8zM0 0h69v5H0z" />
					</g>
				</g>
			</svg>
