
			<svg width="188" height="118" view-box="0 0 188 118" xmlns="http://www.w3.org/2000/svg">
				<defs>
					<filter id="instagram-a" width="107.8%" height="112.7%" x="-3.9%" y="-4.5%" filter-units="objectBoundingBox">
						<feOffset dy="2" in="SourceAlpha" result="shadowOffsetOuter1" />
						<feGaussianBlur in="shadowOffsetOuter1" result="shadowBlurOuter1" std-deviation="2" />
						<feColorMatrix in="shadowBlurOuter1" values="0 0 0 0 0   0 0 0 0 0   0 0 0 0 0  0 0 0 0.135699728 0" />
					</filter>
				</defs>
				<g fill="none" fill-rule="evenodd" transform="translate(4 2)">
					<rect fill="#000" filter="url(#instagram-a)" width="180" height="110" />
					<rect fill="#FFF" width="180" height="110" />
					<g transform="translate(52 23)">
						<rect fill="#FFF" width="76" height="65" rx="2" />
						<rect width="78" height="67" x="-1" y="-1" stroke="#D2D8DE" stroke-width="2" rx="2" />
						<rect width="77" height="2" y="53" fill="#D2D8DE" />
						<path fill="#F5F5F5" d="M2,0 L74,0 L74,0 C75.1045695,-2.02906125e-16 76,0.8954305 76,2 L76,53 L0,53 L0,2 L0,2 C-1.3527075e-16,0.8954305 0.8954305,2.02906125e-16 2,0 Z" />
						<rect width="25" height="25" x="26" y="13" fill="#FFF" rx="5" />
						<g fill="#717F8E" transform="translate(25 13)">
							<circle cx="20" cy="6" r="2" />
							<path d="M5,0 L21,0 C23.7614237,-5.07265313e-16 26,2.23857625 26,5 L26,21 C26,23.7614237 23.7614237,26 21,26 L5,26 C2.23857625,26 3.38176876e-16,23.7614237 0,21 L0,5 L0,5 C-3.38176876e-16,2.23857625 2.23857625,5.07265313e-16 5,0 L5,0 Z M5.90243902,1.90243902 L5.90243902,1.90243902 C3.69330003,1.90243902 1.90243902,3.69330003 1.90243902,5.90243902 L1.90243902,5.90243902 L1.90243902,20.097561 C1.90243902,22.3067 3.69330003,24.097561 5.90243902,24.097561 L20.097561,24.097561 C22.3067,24.097561 24.097561,22.3067 24.097561,20.097561 L24.097561,5.90243902 C24.097561,3.69330003 22.3067,1.90243902 20.097561,1.90243902 L20.097561,1.90243902 L5.90243902,1.90243902 Z" />
							<path d="M13.5,19 C10.4624339,19 8,16.5375661 8,13.5 C8,10.4624339 10.4624339,8 13.5,8 C16.5375661,8 19,10.4624339 19,13.5 C19,16.5375661 16.5375661,19 13.5,19 Z M13.5,17 C15.4329966,17 17,15.4329966 17,13.5 C17,11.5670034 15.4329966,10 13.5,10 C11.5670034,10 10,11.5670034 10,13.5 C10,15.4329966 11.5670034,17 13.5,17 Z" />
						</g>
					</g>
				</g>
			</svg>
