
			<svg width="188" height="118" view-box="0 0 188 118" xmlns="http://www.w3.org/2000/svg">
				<defs>
					<filter
						x="-3.9%"
						y="-4.5%"
						width="107.8%"
						height="112.7%"
						filter-units="objectBoundingBox"
						id="a"
					>
						<feOffset
							dy="2"
							in="SourceAlpha"
							result="shadowOffsetOuter1"
						/>
						<feGaussianBlur
							std-deviation="2"
							in="shadowOffsetOuter1"
							result="shadowBlurOuter1"
						/>
						<feColorMatrix
							values="0 0 0 0 0 0 0 0 0 0 0 0 0 0 0 0 0 0 0.135699728 0"
							in="shadowBlurOuter1"
						/>
					</filter>
				</defs>
				<g fill="none" fill-rule="evenodd">
					<g transform="translate(4 2)">
						<path
							d="M0 0h180v110H0z"
							fill="#000"
							filter="url(#a)"
						/>
						<path d="M0 0h180v110H0z" fill="#FFF" />
					</g>
					<g transform="translate(19 24)">
						<mask id="d" fill="#fff">
							<path id="c" d="M0 0h28v28H0z" />
						</mask>
						<path fill="#D2D8DE" d="M0 0h28v28H0z" />
						<g mask="url(#d)">
							<path
								fill="#D8D8D8"
								d="M27.966 0h45.456v23H27.966z"
							/>
							<path
								stroke="#979797"
								d="M28.466.5h44.456v22H28.466z"
							/>
						</g>
						<path
							d="M10.898 13.39c.34.255.785.41 1.273.41.49 0 .935-.155 1.275-.41.4-.302.653-.742.653-1.233 0-.142-.022-.28-.06-.41-.215-.71-.97-1.233-1.867-1.233-.896 0-1.65.524-1.864 1.232-.04.132-.06.27-.06.41 0 .492.252.932.652 1.233z"
							fill="#FFF"
							fill-rule="nonzero"
							mask="url(#d)"
						/>
						<path
							d="M30.578 16.863l-2.39-1.433-.798-.477-.934-.56c-.623-.372-1.44-.56-2.255-.56s-1.63.188-2.253.56l-.934.56-.797.477-2.39 1.433-.798.477-2.392 1.432-.797.478-2.392 1.432-.797.478-.398.238 12.355 7.4h14.348v-8.116l-3.19-1.91-2.39-1.432-.797-.477z"
							fill="#717F8E"
							fill-rule="nonzero"
							mask="url(#d)"
						/>
						<path
							d="M12.883 21.672l-.404-.244-1.615-.976-1.614-.975L7.64 18.5l-.946-.57c-.29-.175-.62-.31-.974-.404-.416-.112-.862-.168-1.308-.168-.447 0-.893.056-1.308.168-.354.094-.685.23-.975.404l-.945.57-1.614.977-1.614.975-1.614.976-1.614.976-3.227 1.95v4.88h33.89L12.883 21.67z"
							fill="#919DA9"
							fill-rule="nonzero"
							mask="url(#d)"
						/>
					</g>
					<path
						fill="#D2D8DE"
						d="M51 40h38v2H51zM51 37h38v2H51zM51 43h38v2H51z"
					/>
					<path fill="#919DA9" d="M51 32h19v2H51z" />
					<g>
						<g transform="translate(19 62)">
							<mask id="g" fill="#fff">
								<path id="f" d="M0 0h28v28H0z" />
							</mask>
							<path fill="#D2D8DE" d="M0 0h28v28H0z" />
							<g mask="url(#g)">
								<path
									fill="#D8D8D8"
									d="M27.966 0h45.456v23H27.966z"
								/>
								<path
									stroke="#979797"
									d="M28.466.5h44.456v22H28.466z"
								/>
							</g>
							<path
								d="M10.898 13.39c.34.255.785.41 1.273.41.49 0 .935-.155 1.275-.41.4-.302.653-.742.653-1.233 0-.142-.022-.28-.06-.41-.215-.71-.97-1.233-1.867-1.233-.896 0-1.65.524-1.864 1.232-.04.132-.06.27-.06.41 0 .492.252.932.652 1.233z"
								fill="#FFF"
								fill-rule="nonzero"
								mask="url(#g)"
							/>
							<path
								d="M30.578 16.863l-2.39-1.433-.798-.477-.934-.56c-.623-.372-1.44-.56-2.255-.56s-1.63.188-2.253.56l-.934.56-.797.477-2.39 1.433-.798.477-2.392 1.432-.797.478-2.392 1.432-.797.478-.398.238 12.355 7.4h14.348v-8.116l-3.19-1.91-2.39-1.432-.797-.477z"
								fill="#717F8E"
								fill-rule="nonzero"
								mask="url(#g)"
							/>
							<path
								d="M12.883 21.672l-.404-.244-1.615-.976-1.614-.975L7.64 18.5l-.946-.57c-.29-.175-.62-.31-.974-.404-.416-.112-.862-.168-1.308-.168-.447 0-.893.056-1.308.168-.354.094-.685.23-.975.404l-.945.57-1.614.977-1.614.975-1.614.976-1.614.976-3.227 1.95v4.88h33.89L12.883 21.67z"
								fill="#919DA9"
								fill-rule="nonzero"
								mask="url(#g)"
							/>
						</g>
						<path
							fill="#D2D8DE"
							d="M51 78h38v2H51zM51 75h38v2H51zM51 81h38v2H51z"
						/>
						<path fill="#919DA9" d="M51 70h19v2H51z" />
					</g>
					<g>
						<g transform="translate(99 24)">
							<mask id="j" fill="#fff">
								<path id="i" d="M0 0h28v28H0z" />
							</mask>
							<path fill="#D2D8DE" d="M0 0h28v28H0z" />
							<g mask="url(#j)">
								<path
									fill="#D8D8D8"
									d="M27.966 0h45.456v23H27.966z"
								/>
								<path
									stroke="#979797"
									d="M28.466.5h44.456v22H28.466z"
								/>
							</g>
							<path
								d="M10.898 13.39c.34.255.785.41 1.273.41.49 0 .935-.155 1.275-.41.4-.302.653-.742.653-1.233 0-.142-.022-.28-.06-.41-.215-.71-.97-1.233-1.867-1.233-.896 0-1.65.524-1.864 1.232-.04.132-.06.27-.06.41 0 .492.252.932.652 1.233z"
								fill="#FFF"
								fill-rule="nonzero"
								mask="url(#j)"
							/>
							<path
								d="M30.578 16.863l-2.39-1.433-.798-.477-.934-.56c-.623-.372-1.44-.56-2.255-.56s-1.63.188-2.253.56l-.934.56-.797.477-2.39 1.433-.798.477-2.392 1.432-.797.478-2.392 1.432-.797.478-.398.238 12.355 7.4h14.348v-8.116l-3.19-1.91-2.39-1.432-.797-.477z"
								fill="#717F8E"
								fill-rule="nonzero"
								mask="url(#j)"
							/>
							<path
								d="M12.883 21.672l-.404-.244-1.615-.976-1.614-.975L7.64 18.5l-.946-.57c-.29-.175-.62-.31-.974-.404-.416-.112-.862-.168-1.308-.168-.447 0-.893.056-1.308.168-.354.094-.685.23-.975.404l-.945.57-1.614.977-1.614.975-1.614.976-1.614.976-3.227 1.95v4.88h33.89L12.883 21.67z"
								fill="#919DA9"
								fill-rule="nonzero"
								mask="url(#j)"
							/>
						</g>
						<path
							fill="#D2D8DE"
							d="M131 40h38v2h-38zM131 37h38v2h-38zM131 43h38v2h-38z"
						/>
						<path fill="#919DA9" d="M131 32h19v2h-19z" />
					</g>
					<g>
						<g transform="translate(99 62)">
							<mask id="m" fill="#fff">
								<path id="l" d="M0 0h28v28H0z" />
							</mask>
							<path
								fill="#D2D8DE"
								id="l"
								d="M0 0h28v28H0z"
							/>
							<g mask="url(#m)">
								<path
									id="n"
									d="M27.966 0h45.456v23H27.966z"
									fill="#D8D8D8"
								/>
								<path
									stroke="#979797"
									d="M28.466.5h44.456v22H28.466z"
								/>
							</g>
							<path
								d="M10.898 13.39c.34.255.785.41 1.273.41.49 0 .935-.155 1.275-.41.4-.302.653-.742.653-1.233 0-.142-.022-.28-.06-.41-.215-.71-.97-1.233-1.867-1.233-.896 0-1.65.524-1.864 1.232-.04.132-.06.27-.06.41 0 .492.252.932.652 1.233z"
								fill="#FFF"
								fill-rule="nonzero"
								mask="url(#m)"
							/>
							<path
								d="M30.578 16.863l-2.39-1.433-.798-.477-.934-.56c-.623-.372-1.44-.56-2.255-.56s-1.63.188-2.253.56l-.934.56-.797.477-2.39 1.433-.798.477-2.392 1.432-.797.478-2.392 1.432-.797.478-.398.238 12.355 7.4h14.348v-8.116l-3.19-1.91-2.39-1.432-.797-.477z"
								fill="#717F8E"
								fill-rule="nonzero"
								mask="url(#m)"
							/>
							<path
								d="M12.883 21.672l-.404-.244-1.615-.976-1.614-.975L7.64 18.5l-.946-.57c-.29-.175-.62-.31-.974-.404-.416-.112-.862-.168-1.308-.168-.447 0-.893.056-1.308.168-.354.094-.685.23-.975.404l-.945.57-1.614.977-1.614.975-1.614.976-1.614.976-3.227 1.95v4.88h33.89L12.883 21.67z"
								fill="#919DA9"
								fill-rule="nonzero"
								mask="url(#m)"
							/>
						</g>
						<path
							fill="#D2D8DE"
							d="M131 78h38v2h-38zM131 75h38v2h-38zM131 81h38v2h-38z"
						/>
						<path fill="#919DA9" d="M131 70h19v2h-19z" />
					</g>
				</g>
			</svg>
