
			<svg width="188" height="118" view-box="0 0 188 118" xmlns="http://www.w3.org/2000/svg">
				<defs>
					<filter
						x="-3.9%"
						y="-4.5%"
						width="107.8%"
						height="112.7%"
						filter-units="objectBoundingBox"
						id="a"
					>
						<feOffset
							dy="2"
							in="SourceAlpha"
							result="shadowOffsetOuter1"
						/>
						<feGaussianBlur
							std-deviation="2"
							in="shadowOffsetOuter1"
							result="shadowBlurOuter1"
						/>
						<feColorMatrix
							values="0 0 0 0 0 0 0 0 0 0 0 0 0 0 0 0 0 0 0.135699728 0"
							in="shadowBlurOuter1"
						/>
					</filter>
				</defs>
				<g fill="none" fill-rule="evenodd">
					<g transform="translate(4 2)">
						<path
							d="M0 0h180v110H0z"
							fill="#000"
							filter="url(#a)"
						/>
						<path fill="#FFF" d="M0 0h180v110H0z" />
					</g>
					<path
						fill="#D2D8DE"
						d="M45 38h39v2H45zM45 35h39v2H45zM45 41h39v2H45z"
					/>
					<path
						fill="#919DA9"
						d="M45 30h19v2H45zM30.177 42.833l-2.068 1.06c-.493.25-1.096.056-1.347-.436-.1-.194-.133-.415-.095-.63l.363-2.062c.234-1.32-.21-2.672-1.184-3.595l-1.535-1.457c-.4-.38-.417-1.013-.036-1.414.155-.165.36-.27.585-.303l2.235-.316c1.294-.182 2.417-.986 3.007-2.15l1.006-1.985c.25-.492.85-.69 1.344-.44.19.097.344.25.44.44l1.005 1.984c.59 1.164 1.714 1.968 3.008 2.15l2.236.317c.548.078.928.584.85 1.13-.03.224-.137.43-.3.586l-1.536 1.457c-.973.923-1.418 2.274-1.186 3.595l.364 2.063c.096.544-.268 1.062-.812 1.158-.214.038-.435.005-.63-.094l-2.068-1.06c-1.144-.585-2.5-.585-3.645 0z"
					/>
					<g>
						<path
							fill="#D2D8DE"
							d="M45 73h39v2H45zM45 70h39v2H45zM45 76h39v2H45z"
						/>
						<path
							fill="#919DA9"
							d="M45 65h19v2H45zM30.177 77.833l-2.068 1.06c-.493.25-1.096.056-1.347-.436-.1-.194-.133-.415-.095-.63l.363-2.062c.234-1.32-.21-2.672-1.184-3.595l-1.535-1.457c-.4-.38-.417-1.013-.036-1.414.155-.165.36-.27.585-.303l2.235-.316c1.294-.182 2.417-.986 3.007-2.15l1.006-1.985c.25-.492.85-.69 1.344-.44.19.097.344.25.44.44l1.005 1.984c.59 1.164 1.714 1.968 3.008 2.15l2.236.317c.548.078.928.584.85 1.13-.03.224-.137.43-.3.586l-1.536 1.457c-.973.923-1.418 2.274-1.186 3.595l.364 2.063c.096.544-.268 1.062-.812 1.158-.214.038-.435.005-.63-.094l-2.068-1.06c-1.144-.585-2.5-.585-3.645 0z"
						/>
					</g>
					<g>
						<path
							fill="#D2D8DE"
							d="M125 38h39v2h-39zM125 35h39v2h-39zM125 41h39v2h-39z"
						/>
						<path
							fill="#919DA9"
							d="M125 30h19v2h-19zM110.177 42.833l-2.068 1.06c-.493.25-1.096.056-1.347-.436-.1-.194-.133-.415-.095-.63l.363-2.062c.234-1.32-.21-2.672-1.184-3.595l-1.535-1.457c-.4-.38-.417-1.013-.036-1.414.155-.165.36-.27.585-.303l2.235-.316c1.294-.182 2.417-.986 3.007-2.15l1.006-1.985c.25-.492.85-.69 1.344-.44.19.097.344.25.44.44l1.005 1.984c.59 1.164 1.714 1.968 3.008 2.15l2.236.317c.548.078.928.584.85 1.13-.03.224-.137.43-.3.586l-1.536 1.457c-.973.923-1.418 2.274-1.186 3.595l.364 2.063c.096.544-.268 1.062-.812 1.158-.214.038-.435.005-.63-.094l-2.068-1.06c-1.144-.585-2.5-.585-3.645 0z"
						/>
					</g>
					<g>
						<path
							fill="#D2D8DE"
							d="M125 73h39v2h-39zM125 70h39v2h-39zM125 76h39v2h-39z"
						/>
						<path
							fill="#919DA9"
							d="M125 65h19v2h-19zM110.177 77.833l-2.068 1.06c-.493.25-1.096.056-1.347-.436-.1-.194-.133-.415-.095-.63l.363-2.062c.234-1.32-.21-2.672-1.184-3.595l-1.535-1.457c-.4-.38-.417-1.013-.036-1.414.155-.165.36-.27.585-.303l2.235-.316c1.294-.182 2.417-.986 3.007-2.15l1.006-1.985c.25-.492.85-.69 1.344-.44.19.097.344.25.44.44l1.005 1.984c.59 1.164 1.714 1.968 3.008 2.15l2.236.317c.548.078.928.584.85 1.13-.03.224-.137.43-.3.586l-1.536 1.457c-.973.923-1.418 2.274-1.186 3.595l.364 2.063c.096.544-.268 1.062-.812 1.158-.214.038-.435.005-.63-.094l-2.068-1.06c-1.144-.585-2.5-.585-3.645 0z"
						/>
					</g>
				</g>
			</svg>
