
			<svg width="188" height="118" view-box="0 0 188 118" xmlns="http://www.w3.org/2000/svg">
				<defs>
					<filter
						x="-3.9%"
						y="-4.5%"
						width="107.8%"
						height="112.7%"
						filter-units="objectBoundingBox"
						id="a"
					>
						<feOffset
							dy="2"
							in="SourceAlpha"
							result="shadowOffsetOuter1"
						/>
						<feGaussianBlur
							std-deviation="2"
							in="shadowOffsetOuter1"
							result="shadowBlurOuter1"
						/>
						<feColorMatrix
							values="0 0 0 0 0 0 0 0 0 0 0 0 0 0 0 0 0 0 0.135699728 0"
							in="shadowBlurOuter1"
						/>
					</filter>
				</defs>
				<g fill="none" fill-rule="evenodd">
					<g transform="translate(4 2)">
						<path
							d="M0 0h180v110H0z"
							fill="#000"
							filter="url(#a)"
						/>
						<path d="M0 0h180v110H0z" fill="#FFF" />
					</g>
					<g fill="#919DA9">
						<text
							font-family="SanFranciscoDisplay-Bold, San Francisco Display"
							font-size="12"
							font-weight="bold"
							transform="translate(43 38)"
						>
							<tspan x="48" y="20">
								JOOMLA
							</tspan>
							<tspan x="48" y="32">
								MODULES
							</tspan>
						</text>
						<path d="M77.034 65.956c.717-2.788-.03-5.866-2.238-8.048l-.742-.736.742-.73c2.298-2.265 3.01-5.51 2.14-8.388 2.3-.51 4.016-2.54 4.016-4.964 0-2.812-2.31-5.09-5.158-5.09-2.564 0-4.695 1.85-5.092 4.266-2.78-.64-5.825.106-7.998 2.247l-.704.653-.71-.653c-2.167-2.14-5.212-2.888-7.998-2.247C52.894 39.846 50.77 38 48.206 38c-2.853 0-5.158 2.278-5.158 5.09 0 2.425 1.716 4.454 4.015 4.964-.874 2.878-.157 6.123 2.14 8.39l.736.728-.736.736c-2.214 2.182-2.96 5.26-2.238 8.048-2.274.53-3.966 2.552-3.966 4.954 0 2.812 2.31 5.09 5.158 5.09 2.45 0 4.502-1.686 5.03-3.945 2.812.688 5.91-.053 8.108-2.22l.704-.7.704.7C64.9 72.01 68 72.744 70.81 72.056c.53 2.26 2.584 3.945 5.032 3.945C78.69 76 81 73.722 81 70.916c0-2.408-1.692-4.425-3.966-4.96zm-10.41-17.2c1.002-1.008 2.62-1.008 3.624 0 1.004 1.01 1 2.648.005 3.655l-.585.59L66 49.344l.624-.59zm-12.87 0c1-1.008 2.624-1.008 3.622 0l.624.588L54.33 53l-.58-.59c-1-1.006-1-2.644.004-3.655zm3.656 16.49c-1.006 1.006-2.642 1.006-3.654-.004-1.008-1.003-1.008-2.635 0-3.645L54.35 61 58 64.66l-.59.587zM63.003 61L58 56.948 62.943 53v.043l.06-.043.054.043V53L68 56.948 63.003 61zm7.242 4.243c-1.01 1.01-2.65 1.01-3.656.005L66 64.66 69.65 61l.595.6c1.007 1.01 1.007 2.635 0 3.643z" />
					</g>
				</g>
			</svg>
