
			<svg width="188" height="118" view-box="0 0 188 118" xmlns="http://www.w3.org/2000/svg">
				<defs>
					<filter
						x="-3.9%"
						y="-4.5%"
						width="107.8%"
						height="112.7%"
						filter-units="objectBoundingBox"
						id="a"
					>
						<feOffset
							dy="2"
							in="SourceAlpha"
							result="shadowOffsetOuter1"
						/>
						<feGaussianBlur
							std-deviation="2"
							in="shadowOffsetOuter1"
							result="shadowBlurOuter1"
						/>
						<feColorMatrix
							values="0 0 0 0 0 0 0 0 0 0 0 0 0 0 0 0 0 0 0.135699728 0"
							in="shadowBlurOuter1"
						/>
					</filter>
				</defs>
				<g fill="none" fill-rule="evenodd">
					<g transform="translate(4 2)">
						<path
							fill="#000"
							filter="url(#a)"
							d="M0 0h180v110H0z"
						/>
						<path fill="#FFF" d="M0 0h180v110H0z" />
					</g>
					<g fill="#919DA9">
						<path d="M108.497 31.03v12.616c0 .57-.457 1.03-1.02 1.03h-4.21c-.562 0-1.02-.46-1.02-1.03v-4.24c0-.57-.455-1.03-1.018-1.03h-4.21c-.564 0-1.02.46-1.02 1.03v4.26c0 .57.456 1.032 1.02 1.032h4.21c.562 0 1.018.462 1.018 1.03v4.24c0 .57.457 1.032 1.02 1.032H113.9c.563 0 1.02-.46 1.02-1.03v-4.26c0-.57.455-1.033 1.018-1.033h6.043c.564 0 1.02-.46 1.02-1.03V31.03c0-.568-.456-1.03-1.02-1.03h-12.464c-.563 0-1.02.462-1.02 1.03zM78.104 58h10.792c.61 0 1.104-.438 1.104-.978v-4.044c0-.54-.494-.978-1.104-.978H78.104c-.61 0-1.104.438-1.104.978v4.044c0 .54.494.978 1.104.978zM93.867 30H85.13c-.623 0-1.13.438-1.13.978v4.044c0 .54.507.978 1.13.978h8.737c.625 0 1.133-.438 1.133-.978v-4.044c0-.54-.508-.978-1.133-.978zM102 70.022v-4.044c0-.54-.438-.978-.978-.978h-4.044c-.54 0-.978.438-.978.978v4.044c0 .54.438.978.978.978h4.044c.54 0 .978-.438.978-.978zM115.333 64.332v-5.3c0-.57-.45-1.032-1.008-1.032h-10.317c-.557 0-1.008.462-1.008 1.032V63.3c0 .57.45 1.032 1.008 1.032h3.628c.557 0 1.008.462 1.008 1.032v17.604c0 .57.453 1.032 1.01 1.032h12.337c.56 0 1.01-.462 1.01-1.032V70.334c0-.57-.45-1.033-1.01-1.033h-5.648c-.557 0-1.01-.46-1.01-1.03V64.33zM115 52.978v4.044c0 .54.438.978.978.978h4.044c.54 0 .978-.438.978-.978v-4.044c0-.54-.438-.978-.978-.978h-4.044c-.54 0-.978.438-.978.978zM73.014 64.332h2.222c.543 0 .983-.462.983-1.033V59.03c0-.57-.44-1.032-.984-1.032H71.17c-.542 0-.982.462-.982 1.032v2.905c0 .57-.442 1.032-.985 1.032h-2.22c-.543 0-.983.46-.983 1.03v18.966c0 .57.44 1.034.983 1.034h12.034c.543 0 .983-.464.983-1.034V70.334c0-.57-.44-1.033-.983-1.033h-6.003c-.543 0-.983-.46-.983-1.03v-2.905c0-.57.44-1.033.984-1.033z" />
						<path d="M93.017 71.164v-5.372c0-.578.472-1.046 1.053-1.046.58 0 1.052-.47 1.052-1.047v-4.236c0-.577.47-1.046 1.052-1.046h4.13c.58 0 1.052-.468 1.052-1.046v-4.326c0-.578-.47-1.046-1.052-1.046h-4.347c-.582 0-1.053.468-1.053 1.046v4.235c0 .58-.47 1.048-1.052 1.048h-4.13c-.58 0-1.052.468-1.052 1.046V63.7c0 .577-.47 1.046-1.052 1.046h-4.565c-.58 0-1.053.468-1.053 1.046v4.325c0 .578.472 1.047 1.053 1.047h2.46c.58 0 1.052.47 1.052 1.047v4.326c0 .577.472 1.046 1.053 1.046h4.305c.58 0 1.05.468 1.05 1.048v4.324c0 .577.474 1.046 1.055 1.046h10.92c.58 0 1.052-.47 1.052-1.046V78.63c0-.58-.472-1.048-1.053-1.048H94.07c-.58 0-1.052-.47-1.052-1.046v-5.372zM96 49.022v-4.044c0-.54-.438-.978-.978-.978H90.98c-.54 0-.98.438-.98.978v4.044c0 .54.44.978.98.978h4.042c.54 0 .978-.438.978-.978zM71.163 51h4.058c.544 0 .983-.46.983-1.03v-4.262c0-.57.44-1.03.982-1.03h7.833c.543 0 .982-.462.982-1.033v-4.26c0-.57-.44-1.03-.982-1.03H80.96c-.54 0-.982-.462-.982-1.03V31.03c0-.568-.44-1.03-.98-1.03H66.98c-.542 0-.982.462-.982 1.03v12.616c0 .57.44 1.03.982 1.03h2.216c.542 0 .983.463.983 1.032v4.26c0 .57.44 1.032.983 1.032z" />
					</g>
				</g>
			</svg>
