
			<svg width="188" height="118" view-box="0 0 188 118" xmlns="http://www.w3.org/2000/svg">
				<defs>
					<filter
						x="-3.9%"
						y="-4.5%"
						width="107.8%"
						height="112.7%"
						filter-units="objectBoundingBox"
						id="a"
					>
						<feOffset
							dy="2"
							in="SourceAlpha"
							result="shadowOffsetOuter1"
						/>
						<feGaussianBlur
							std-deviation="2"
							in="shadowOffsetOuter1"
							result="shadowBlurOuter1"
						/>
						<feColorMatrix
							values="0 0 0 0 0 0 0 0 0 0 0 0 0 0 0 0 0 0 0.135699728 0"
							in="shadowBlurOuter1"
						/>
					</filter>
				</defs>
				<g fill="none" fill-rule="evenodd">
					<g transform="translate(4 2)">
						<path
							fill="#000"
							filter="url(#a)"
							d="M0 0h180v110H0z"
						/>
						<path fill="#FFF" d="M0 0h180v110H0z" />
					</g>
					<path fill="#D2D8DE" d="M25 50h138v40H25z" />
					<path stroke="#919DA9" d="M25 46v-3h138v3" />
					<path
						d="M59.353 36v-3.13h3.17V31.52h-3.17v-2.133h3.474v-1.383h-5.174V36h1.7zm10.955-6.234h-1.653v3.662c0 .85-.51 1.277-1.16 1.277-.568 0-1.137-.264-1.137-1.26v-3.68h-1.646v4.114c0 1.47.85 2.214 2.115 2.214 1.037 0 1.61-.54 1.8-1.02h.075V36h1.606v-6.234zM72.83 36h1.653v-8.42H72.83V36zm4.224 0h1.652v-8.42h-1.652V36zm7.138-2.297c.024 1.13.786 2.45 3.14 2.45 1.98 0 3.206-.967 3.206-2.538 0-1.453-.99-2.02-2.162-2.273l-1.213-.27c-.715-.146-1.09-.457-1.09-.92 0-.615.51-1.002 1.33-1.002.926 0 1.39.522 1.43 1.084h1.582c-.018-1.412-1.22-2.396-3.006-2.396-1.694 0-3.03.873-3.03 2.443 0 1.36.937 1.993 2.062 2.234l1.202.275c.808.18 1.218.444 1.218.99 0 .62-.504 1.042-1.447 1.042-1.014 0-1.547-.527-1.594-1.12h-1.628zm11.125 2.408c-1.804 0-2.882-1.09-2.882-2.975v-.487c0-1.886 1.12-2.994 2.8-2.994 1.764 0 2.784 1.184 2.784 2.99v.585H94.05v.21c0 .79.45 1.417 1.26 1.417.68 0 1.054-.35 1.113-.773h1.54c-.075.867-.79 2.027-2.648 2.027zm-1.265-3.89h2.38v-.01c0-.78-.447-1.337-1.185-1.337-.732 0-1.195.563-1.195 1.336v.01zm5.863.915c0 1.845 1.06 2.976 2.807 2.976 1.523 0 2.607-.825 2.636-2.19h-1.51c-.072.463-.36.88-1.074.88-.76 0-1.2-.67-1.2-1.677v-.52c0-.95.404-1.66 1.2-1.66.645 0 1.008.498 1.05.96h1.51c-.01-1.24-.966-2.25-2.606-2.25-1.788 0-2.813 1.226-2.813 2.93v.552zm7.938-3.293h-.926v1.26h.89v3.128c0 1.284.55 1.8 2.116 1.8.334 0 .615-.03.744-.053v-1.213c-.07.01-.205.01-.34.01-.62 0-.885-.186-.885-.784v-2.888h1.2v-1.26h-1.2v-1.547h-1.6v1.547zm5.09 6.158h1.646v-6.234h-1.648V36zm-.13-7.805c0 .475.37.815.944.815.592 0 .955-.34.955-.815 0-.468-.37-.808-.955-.808-.574 0-.944.34-.944.808zm6.97 1.46c1.894 0 2.878 1.236 2.878 3.005v.41c0 1.87-.983 3.04-2.876 3.04-1.904 0-2.894-1.16-2.894-3.034v-.41c0-1.734.99-3.012 2.894-3.012zm-.005 1.26c-.955 0-1.224.872-1.224 1.77v.39c0 .88.258 1.77 1.224 1.77.967 0 1.213-.884 1.213-1.77v-.39c0-.904-.257-1.77-1.212-1.77zM124.856 36h1.647v-3.58c0-.908.475-1.354 1.172-1.354.656 0 1.142.352 1.142 1.32V36h1.647v-4.096c0-1.47-.897-2.232-2.133-2.232-1 0-1.6.545-1.798 1.02h-.07v-.926h-1.606V36z"
						fill="#717F8E"
					/>
				</g>
			</svg>
