
			<svg width="188" height="118" view-box="0 0 188 118" xmlns="http://www.w3.org/2000/svg">
				<defs>
					<filter
						x="-3.9%"
						y="-4.5%"
						width="107.8%"
						height="112.7%"
						filter-units="objectBoundingBox"
						id="a"
					>
						<feOffset
							dy="2"
							in="SourceAlpha"
							result="shadowOffsetOuter1"
						/>
						<feGaussianBlur
							std-deviation="2"
							in="shadowOffsetOuter1"
							result="shadowBlurOuter1"
						/>
						<feColorMatrix
							values="0 0 0 0 0 0 0 0 0 0 0 0 0 0 0 0 0 0 0.135699728 0"
							in="shadowBlurOuter1"
						/>
					</filter>
				</defs>
				<g fill="none" fill-rule="evenodd">
					<g transform="translate(4 2)">
						<path
							d="M0 0h180v110H0z"
							fill="#000"
							filter="url(#a)"
						/>
						<path fill="#FFF" d="M0 0h180v110H0z" />
					</g>
					<path
						d="M58.77 52.556c-.168 0-.305.134-.326.32l-.768 6.996.768 6.842c.02.18.158.315.325.315.163 0 .297-.132.323-.316l.87-6.842-.87-7c-.027-.185-.16-.316-.324-.316zm-2.885 2.682c-.164 0-.292.125-.313.303L55 59.873l.572 4.253c.02.178.15.303.313.303.158 0 .286-.125.312-.303l.674-4.253-.673-4.33c-.026-.18-.154-.304-.312-.304zm5.946-4.054c-.204 0-.368.16-.39.384l-.726 8.304.727 7.996c.022.224.186.384.39.384.203 0 .367-.16.395-.38l.825-8-.825-8.304c-.028-.223-.192-.384-.394-.384zm3.09-.29c-.24 0-.438.192-.456.448l-.688 8.53.688 8.253c.018.256.215.45.456.45.242 0 .438-.195.46-.45l.78-8.253-.78-8.533c-.022-.254-.218-.447-.46-.447zm3.638 1.06c-.018-.29-.244-.51-.522-.51-.283 0-.506.22-.524.517l-.65 7.912.65 8.32c.018.295.242.52.524.52.278 0 .504-.225.522-.52l.74-8.32-.74-7.917zm2.62-5.538c-.317 0-.576.256-.59.587l-.612 12.875.61 8.318c.016.324.275.583.59.583.31 0 .57-.26.59-.588v.004l.688-8.318L71.766 47c-.02-.327-.28-.584-.59-.584zm3.114-2.967c-.354 0-.643.288-.658.65l-.57 15.822.57 8.268c.015.36.304.648.658.648.35 0 .64-.288.656-.65v.002l.646-8.268-.646-15.82c-.015-.364-.307-.653-.656-.653zm3.24-1.43c-.394 0-.713.316-.725.72l-.533 17.14.533 8.18c.012.4.33.716.724.716.388 0 .707-.316.722-.717v.005l.598-8.185-.598-17.14c-.015-.404-.334-.72-.72-.72zm4.003.144c-.015-.44-.36-.786-.79-.786-.432 0-.78.345-.79.786l-.494 17.717.496 8.134c.005.432.357.78.79.78.428 0 .774-.344.79-.785l.553-8.13-.555-17.716zm0 25.844v.006-.006zm2.45-26.243c-.47 0-.847.375-.856.85l-.454 17.265.453 8.057c.008.473.386.85.854.85.467 0 .843-.377.858-.855v.008l.506-8.06-.506-17.264c-.016-.476-.39-.85-.858-.85zm3.264.565c-.508 0-.913.405-.925.92l-.41 16.633.413 8.003c.01.51.414.914.92.914s.915-.405.924-.92v.007l.464-8.003-.464-16.636c-.003-.507-.416-.917-.923-.918zm3.836-3.06c-.162-.107-.35-.165-.545-.166-.196 0-.38.06-.536.16-.28.183-.45.492-.453.825l-.005.186-.37 19.604.376 7.955v.033c.013.223.096.428.233.59.186.226.464.36.757.36.268 0 .513-.113.69-.292.18-.18.293-.423.3-.694l.04-.79.376-7.16-.417-19.793c-.007-.33-.172-.635-.444-.82zm.444 28.566v-.004.004-.006.006zm2.823-30.44c-.378-.232-.863-.196-1.203.09-.243.198-.386.494-.39.81l-.003.11-.43 21.48.22 3.97.214 3.867c.007.57.48 1.045 1.055 1.045.576 0 1.05-.474 1.058-1.054v.01l.467-7.838-.467-21.59c-.007-.37-.203-.71-.52-.9zm29.053 12.27c-1.314 0-2.568.265-3.71.745C118.93 41.775 111.68 35 102.838 35c-2.1.002-4.18.39-6.14 1.143-.725.28-.915.568-.924 1.128v30.42c.01.586.464 1.042 1.036 1.098.024.003 26.595 0 26.595 0 5.3 0 9.593-4.24 9.593-9.535s-4.294-9.586-9.594-9.586zM62.66 74.557c-1.124-.265-1.428-.408-1.428-.85 0-.314.253-.638 1.013-.638.65 0 1.156.26 1.612.73l1.025-.992c-.67-.7-1.48-1.116-2.586-1.116-1.397 0-2.532.79-2.532 2.077 0 1.396.91 1.813 2.22 2.113 1.337.303 1.578.51 1.578.964 0 .536-.396.77-1.236.77-.68 0-1.317-.234-1.814-.812l-1.022.91c.536.79 1.57 1.287 2.756 1.287 1.933 0 2.788-.91 2.788-2.257 0-1.54-1.25-1.922-2.375-2.188zm6.527-2.866c-1.934 0-3.078 1.5-3.078 3.655 0 2.158 1.143 3.655 3.077 3.655 1.936 0 3.08-1.497 3.08-3.655 0-2.155-1.144-3.655-3.08-3.655zm0 5.905c-1.145 0-1.62-.985-1.62-2.25 0-1.265.475-2.247 1.62-2.247 1.146 0 1.623.983 1.623 2.247 0 1.264-.477 2.25-1.623 2.25zm8.806-1.813c0 1.13-.557 1.833-1.457 1.833-.902 0-1.45-.72-1.45-1.854v-3.958h-1.42v3.98c0 2.065 1.157 3.217 2.87 3.217 1.803 0 2.875-1.186 2.875-3.24v-3.958h-1.417v3.98zm7.54-.982c0 .393.017 1.286.017 1.548-.09-.182-.32-.536-.495-.8l-2.514-3.744h-1.357v7.085h1.4v-3.12c0-.395-.02-1.285-.02-1.547.09.18.323.536.493.8l2.607 3.866h1.266v-7.086H85.53V74.8zm5.44-2.997h-2.217v7.086h2.115c1.825 0 3.63-1.054 3.63-3.546 0-2.59-1.502-3.54-3.527-3.54zm-.102 5.708h-.698v-4.33h.753c1.5 0 2.12.718 2.12 2.165-.002 1.297-.684 2.166-2.174 2.166zM98.89 73.1c.638 0 1.043.285 1.3.767l1.313-.604c-.446-.92-1.253-1.57-2.59-1.57-1.856 0-3.152 1.5-3.152 3.654 0 2.24 1.244 3.656 3.1 3.656 1.288 0 2.136-.596 2.625-1.602l-1.198-.71c-.375.63-.748.907-1.388.907-1.064 0-1.684-.977-1.684-2.25 0-1.316.61-2.247 1.675-2.247zm5.26-1.295h-1.417v7.086h4.266v-1.397h-2.848v-5.69zm6.582-.113c-1.934 0-3.08 1.5-3.08 3.655 0 2.158 1.146 3.655 3.08 3.655 1.936 0 3.083-1.497 3.083-3.655 0-2.155-1.147-3.655-3.083-3.655zm0 5.905c-1.144 0-1.62-.985-1.62-2.25 0-1.265.476-2.247 1.62-2.247 1.147 0 1.62.983 1.62 2.247 0 1.264-.473 2.25-1.62 2.25zm8.807-1.813c0 1.13-.555 1.833-1.457 1.833-.903 0-1.45-.72-1.45-1.854v-3.958h-1.42v3.98c0 2.065 1.157 3.217 2.87 3.217 1.802 0 2.878-1.186 2.878-3.24v-3.958h-1.42v3.98zm5.412-3.98h-2.22v7.087h2.114c1.83 0 3.63-1.054 3.63-3.546 0-2.59-1.496-3.54-3.525-3.54zm-.106 5.71h-.696v-4.33h.75c1.498 0 2.114.716 2.114 2.163 0 1.297-.674 2.166-2.168 2.166z"
						fill-rule="nonzero"
						fill="#717F8E"
					/>
				</g>
			</svg>
