
			<svg width="188" height="118" view-box="0 0 188 118" xmlns="http://www.w3.org/2000/svg">
				<defs>
					<filter
						x="-3.9%"
						y="-4.5%"
						width="107.8%"
						height="112.7%"
						filter-units="objectBoundingBox"
						id="a"
					>
						<feOffset
							dy="2"
							in="SourceAlpha"
							result="shadowOffsetOuter1"
						/>
						<feGaussianBlur
							std-deviation="2"
							in="shadowOffsetOuter1"
							result="shadowBlurOuter1"
						/>
						<feColorMatrix
							values="0 0 0 0 0 0 0 0 0 0 0 0 0 0 0 0 0 0 0.135699728 0"
							in="shadowBlurOuter1"
						/>
					</filter>
				</defs>
				<g fill="none" fill-rule="evenodd">
					<g transform="translate(4 2)">
						<path
							fill="#000"
							filter="url(#a)"
							d="M0 0h180v110H0z"
						/>
						<path fill="#FFF" d="M0 0h180v110H0z" />
					</g>
					<path fill="#D2D8DE" d="M27 83h25v3H27z" />
					<path
						fill="#919DA9"
						d="M19 55h40v3H19zM19 73h40v3H19zM19 49h40v3H19zM19 67h40v3H19zM19 61h40v3H19z"
					/>
					<g transform="translate(29 19)">
						<mask id="d" fill="#fff">
							<rect width="20" height="20" rx="10" />
						</mask>
						<rect
							fill="#D2D8DE"
							width="20"
							height="20"
							rx="10"
						/>
						<g mask="url(#d)">
							<path fill="#D8D8D8" d="M20 0h33v17H20z" />
							<path
								stroke="#979797"
								d="M20.5.5h32v16h-32z"
							/>
						</g>
						<path
							d="M7.508 7.625c.265.233.612.375.992.375s.727-.142.992-.375C9.802 7.35 10 6.948 10 6.5c0-.13-.016-.255-.047-.375C9.786 5.478 9.2 5 8.5 5c-.7 0-1.286.478-1.453 1.125-.03.12-.047.246-.047.375 0 .448.197.85.508 1.125z"
							fill="#FFF"
							fill-rule="nonzero"
							mask="url(#d)"
						/>
						<path
							d="M21.463 11.63l-1.702-1.243-.566-.415-.664-.486C18.087 9.162 17.506 9 16.925 9c-.58 0-1.16.162-1.604.486l-.663.486-.567.415-1.702 1.244-.567.416-1.7 1.244-.568.415-1.7 1.244-.568.414L7 15.57 15.79 22H26v-7.05l-2.27-1.66-1.7-1.244-.567-.415z"
							fill="#717F8E"
							fill-rule="nonzero"
							mask="url(#d)"
						/>
						<path
							d="M10.143 14.27l-.286-.185-1.143-.74-1.143-.74-1.14-.74-.67-.432c-.206-.133-.44-.234-.69-.306-.295-.084-.61-.127-.927-.127-.316 0-.632.043-.926.127-.25.072-.485.173-.69.306l-.67.433-1.143.74-1.143.74-1.14.74-1.144.738L-5 16.304V20h24l-8.857-5.73z"
							fill="#919DA9"
							fill-rule="nonzero"
							mask="url(#d)"
						/>
					</g>
					<g>
						<path fill="#D2D8DE" d="M82 83h25v3H82z" />
						<path
							fill="#919DA9"
							d="M74 55h40v3H74zM74 73h40v3H74zM74 49h40v3H74zM74 67h40v3H74zM74 61h40v3H74z"
						/>
						<g transform="translate(84 19)">
							<mask id="g" fill="#fff">
								<rect width="20" height="20" rx="10" />
							</mask>
							<rect
								fill="#D2D8DE"
								width="20"
								height="20"
								rx="10"
							/>
							<g mask="url(#g)">
								<path
									fill="#D8D8D8"
									d="M20 0h33v17H20z"
								/>
								<path
									stroke="#979797"
									d="M20.5.5h32v16h-32z"
								/>
							</g>
							<path
								d="M7.508 7.625c.265.233.612.375.992.375s.727-.142.992-.375C9.802 7.35 10 6.948 10 6.5c0-.13-.016-.255-.047-.375C9.786 5.478 9.2 5 8.5 5c-.7 0-1.286.478-1.453 1.125-.03.12-.047.246-.047.375 0 .448.197.85.508 1.125z"
								fill="#FFF"
								fill-rule="nonzero"
								mask="url(#g)"
							/>
							<path
								d="M21.463 11.63l-1.702-1.243-.566-.415-.664-.486C18.087 9.162 17.506 9 16.925 9c-.58 0-1.16.162-1.604.486l-.663.486-.567.415-1.702 1.244-.567.416-1.7 1.244-.568.415-1.7 1.244-.568.414L7 15.57 15.79 22H26v-7.05l-2.27-1.66-1.7-1.244-.567-.415z"
								fill="#717F8E"
								fill-rule="nonzero"
								mask="url(#g)"
							/>
							<path
								d="M10.143 14.27l-.286-.185-1.143-.74-1.143-.74-1.14-.74-.67-.432c-.206-.133-.44-.234-.69-.306-.295-.084-.61-.127-.927-.127-.316 0-.632.043-.926.127-.25.072-.485.173-.69.306l-.67.433-1.143.74-1.143.74-1.14.74-1.144.738L-5 16.304V20h24l-8.857-5.73z"
								fill="#919DA9"
								fill-rule="nonzero"
								mask="url(#g)"
							/>
						</g>
					</g>
					<g>
						<path fill="#D2D8DE" d="M137 83h25v3h-25z" />
						<path
							fill="#919DA9"
							d="M129 55h40v3h-40zM129 73h40v3h-40zM129 49h40v3h-40zM129 67h40v3h-40zM129 61h40v3h-40z"
						/>
						<g transform="translate(139 19)">
							<mask id="j" fill="#fff">
								<rect width="20" height="20" rx="10" />
							</mask>
							<rect
								fill="#D2D8DE"
								width="20"
								height="20"
								rx="10"
							/>
							<g mask="url(#j)">
								<path
									fill="#D8D8D8"
									d="M20 0h33v17H20z"
								/>
								<path
									stroke="#979797"
									d="M20.5.5h32v16h-32z"
								/>
							</g>
							<path
								d="M7.508 7.625c.265.233.612.375.992.375s.727-.142.992-.375C9.802 7.35 10 6.948 10 6.5c0-.13-.016-.255-.047-.375C9.786 5.478 9.2 5 8.5 5c-.7 0-1.286.478-1.453 1.125-.03.12-.047.246-.047.375 0 .448.197.85.508 1.125z"
								fill="#FFF"
								fill-rule="nonzero"
								mask="url(#j)"
							/>
							<path
								d="M21.463 11.63l-1.702-1.243-.566-.415-.664-.486C18.087 9.162 17.506 9 16.925 9c-.58 0-1.16.162-1.604.486l-.663.486-.567.415-1.702 1.244-.567.416-1.7 1.244-.568.415-1.7 1.244-.568.414L7 15.57 15.79 22H26v-7.05l-2.27-1.66-1.7-1.244-.567-.415z"
								fill="#717F8E"
								fill-rule="nonzero"
								mask="url(#j)"
							/>
							<path
								d="M10.143 14.27l-.286-.185-1.143-.74-1.143-.74-1.14-.74-.67-.432c-.206-.133-.44-.234-.69-.306-.295-.084-.61-.127-.927-.127-.316 0-.632.043-.926.127-.25.072-.485.173-.69.306l-.67.433-1.143.74-1.143.74-1.14.74-1.144.738L-5 16.304V20h24l-8.857-5.73z"
								fill="#919DA9"
								fill-rule="nonzero"
								mask="url(#j)"
							/>
						</g>
					</g>
				</g>
			</svg>
