
			<svg width="188" height="118" view-box="0 0 188 118" xmlns="http://www.w3.org/2000/svg">
				<defs>
					<filter
						x="-3.9%"
						y="-4.5%"
						width="107.8%"
						height="112.7%"
						filter-units="objectBoundingBox"
						id="a"
					>
						<feOffset
							dy="2"
							in="SourceAlpha"
							result="shadowOffsetOuter1"
						/>
						<feGaussianBlur
							std-deviation="2"
							in="shadowOffsetOuter1"
							result="shadowBlurOuter1"
						/>
						<feColorMatrix
							values="0 0 0 0 0 0 0 0 0 0 0 0 0 0 0 0 0 0 0.135699728 0"
							in="shadowBlurOuter1"
						/>
					</filter>
				</defs>
				<g fill="none" fill-rule="evenodd">
					<g transform="translate(4 2)">
						<path
							d="M0 0h180v110H0z"
							fill="#000"
							filter="url(#a)"
						/>
						<path d="M0 0h180v110H0z" fill="#FFF"/>
					</g>
					<path
						fill="#D2D8DE"
						d="M19 83.532h45v3.387H19zM23.5 78.45h36v3.388h-36zM23.5 88.612h36V92h-36z"
					/>
					<path
						fill="#919DA9"
						d="M29.125 71.677H55v3.387H29.125z"
					/>
					<g transform="translate(19 22)">
						<mask id="d" fill="#fff">
							<path d="M0 0h45v45.16H0z"/>
						</mask>
						<path d="M0 0h45v45.16H0z" fill="#D2D8DE"/>
						<path
							d="M11.128 15.762c.522.474 1.207.763 1.958.763.75 0 1.435-.29 1.957-.763.615-.56 1.003-1.377 1.003-2.29 0-.262-.032-.518-.093-.762-.33-1.316-1.488-2.288-2.867-2.288-1.38 0-2.54.972-2.868 2.288-.06.244-.093.5-.093.763 0 .912.388 1.73 1.003 2.29z"
							fill="#FFF"
							fill-rule="nonzero"
							mask="url(#d)"
						/>
						<path
							d="M40.542 27.773l-3.18-2.182-1.062-.726-1.242-.852c-.828-.568-1.914-.852-3-.852-1.085 0-2.17.284-3 .852l-1.24.852-1.062.727-3.18 2.183-1.062.727-3.18 2.182-1.062.727-3.18 2.18-1.062.728-.53.364 16.438 11.272h19.088V33.59l-4.242-2.908-3.18-2.182-1.062-.727z"
							fill="#717F8E"
							fill-rule="nonzero"
							mask="url(#d)"
						/>
						<path
							d="M20.518 34.248l-.536-.365-2.143-1.46-2.144-1.46-2.142-1.46-1.256-.856c-.384-.262-.824-.463-1.293-.605-.552-.167-1.144-.25-1.737-.25-.593 0-1.185.084-1.737.25-.468.142-.908.343-1.292.605l-1.256.855-2.143 1.46-2.144 1.46-2.142 1.46-2.143 1.46-4.285 2.92v7.302h45L20.518 34.248z"
							fill="#919DA9"
							fill-rule="nonzero"
							mask="url(#d)"
						/>
					</g>
					<g>
						<path
							fill="#D2D8DE"
							d="M71.5 83.532h45v3.387h-45zM76 78.45h36v3.388H76zM76 88.612h36V92H76z"
						/>
						<path
							fill="#919DA9"
							d="M81.625 71.677H107.5v3.387H81.625z"
						/>
						<g transform="translate(71.5 22)">
							<mask id="f" fill="#fff">
								<path id="e" d="M0 0h45v45.16H0z"/>
							</mask>
							<path
								id="e"
								d="M0 0h45v45.16H0z"
								fill="#D2D8DE"
							/>
							<path
								d="M11.128 15.762c.522.474 1.207.763 1.958.763.75 0 1.435-.29 1.957-.763.615-.56 1.003-1.377 1.003-2.29 0-.262-.032-.518-.093-.762-.33-1.316-1.488-2.288-2.867-2.288-1.38 0-2.54.972-2.868 2.288-.06.244-.093.5-.093.763 0 .912.388 1.73 1.003 2.29z"
								fill="#FFF"
								fill-rule="nonzero"
								mask="url(#f)"
							/>
							<path
								d="M40.542 27.773l-3.18-2.182-1.062-.726-1.242-.852c-.828-.568-1.914-.852-3-.852-1.085 0-2.17.284-3 .852l-1.24.852-1.062.727-3.18 2.183-1.062.727-3.18 2.182-1.062.727-3.18 2.18-1.062.728-.53.364 16.438 11.272h19.088V33.59l-4.242-2.908-3.18-2.182-1.062-.727z"
								fill="#717F8E"
								fill-rule="nonzero"
								mask="url(#f)"
							/>
							<path
								d="M20.518 34.248l-.536-.365-2.143-1.46-2.144-1.46-2.142-1.46-1.256-.856c-.384-.262-.824-.463-1.293-.605-.552-.167-1.144-.25-1.737-.25-.593 0-1.185.084-1.737.25-.468.142-.908.343-1.292.605l-1.256.855-2.143 1.46-2.144 1.46-2.142 1.46-2.143 1.46-4.285 2.92v7.302h45L20.518 34.248z"
								fill="#919DA9"
								fill-rule="nonzero"
								mask="url(#f)"
							/>
						</g>
					</g>
					<g>
						<path
							fill="#D2D8DE"
							d="M124 83.532h45v3.387h-45zM128.5 78.45h36v3.388h-36zM128.5 88.612h36V92h-36z"
						/>
						<path
							fill="#919DA9"
							d="M134.125 71.677H160v3.387h-25.875z"
						/>
						<g transform="translate(124 22)">
							<mask id="h" fill="#fff">
								<path id="g" d="M0 0h45v45.16H0z"/>
							</mask>
							<path
								id="g"
								d="M0 0h45v45.16H0z"
								fill="#D2D8DE"
							/>
							<path
								d="M11.128 15.762c.522.474 1.207.763 1.958.763.75 0 1.435-.29 1.957-.763.615-.56 1.003-1.377 1.003-2.29 0-.262-.032-.518-.093-.762-.33-1.316-1.488-2.288-2.867-2.288-1.38 0-2.54.972-2.868 2.288-.06.244-.093.5-.093.763 0 .912.388 1.73 1.003 2.29z"
								fill="#FFF"
								fill-rule="nonzero"
								mask="url(#h)"
							/>
							<path
								d="M40.542 27.773l-3.18-2.182-1.062-.726-1.242-.852c-.828-.568-1.914-.852-3-.852-1.085 0-2.17.284-3 .852l-1.24.852-1.062.727-3.18 2.183-1.062.727-3.18 2.182-1.062.727-3.18 2.18-1.062.728-.53.364 16.438 11.272h19.088V33.59l-4.242-2.908-3.18-2.182-1.062-.727z"
								fill="#717F8E"
								fill-rule="nonzero"
								mask="url(#h)"
							/>
							<path
								d="M20.518 34.248l-.536-.365-2.143-1.46-2.144-1.46-2.142-1.46-1.256-.856c-.384-.262-.824-.463-1.293-.605-.552-.167-1.144-.25-1.737-.25-.593 0-1.185.084-1.737.25-.468.142-.908.343-1.292.605l-1.256.855-2.143 1.46-2.144 1.46-2.142 1.46-2.143 1.46-4.285 2.92v7.302h45L20.518 34.248z"
								fill="#919DA9"
								fill-rule="nonzero"
								mask="url(#h)"
							/>
						</g>
					</g>
				</g>
			</svg>
