
			<svg width="188" height="118" view-box="0 0 188 118" xmlns="http://www.w3.org/2000/svg">
				<defs>
					<filter
						x="-3.9%"
						y="-4.5%"
						width="107.8%"
						height="112.7%"
						filter-units="objectBoundingBox"
						id="a"
					>
						<feOffset
							dy="2"
							in="SourceAlpha"
							result="shadowOffsetOuter1"
						/>
						<feGaussianBlur
							std-deviation="2"
							in="shadowOffsetOuter1"
							result="shadowBlurOuter1"
						/>
						<feColorMatrix
							values="0 0 0 0 0 0 0 0 0 0 0 0 0 0 0 0 0 0 0.135699728 0"
							in="shadowBlurOuter1"
						/>
					</filter>
				</defs>
				<g fill="none">
					<path
						fill="#000"
						filter="url(#a)"
						d="M0 0h180v110H0z"
						transform="translate(4 2)"
					/>
					<path fill="#FFF" d="M4 2h180v110H4z" />
					<path
						fill="#919DA9"
						d="M29 54.5h140v5H29zM29 70.75h140v5H29zM29 87h140v5H29zM29 38.25h140v5H29zM29 22h140v5H29z"
					/>
					<path
						d="M169 48.875H19M169 32.625H19M169 65.125H19M169 81.375H19"
						stroke="#919DA9"
					/>
					<path
						fill="#919DA9"
						d="M21 26.5l-2.5-4h5M21 42.75l-2.5-4h5M21 59l-2.5-4h5M21 75.25l-2.5-4h5M21 91.5l-2.5-4h5"
					/>
				</g>
			</svg>
