
			<svg width="188" height="118" view-box="0 0 188 118" xmlns="http://www.w3.org/2000/svg">
				<defs>
					<filter
						x="-3.9%"
						y="-4.5%"
						width="107.8%"
						height="112.7%"
						filter-units="objectBoundingBox"
						id="a"
					>
						<feOffset
							dy="2"
							in="SourceAlpha"
							result="shadowOffsetOuter1"
						/>
						<feGaussianBlur
							std-deviation="2"
							in="shadowOffsetOuter1"
							result="shadowBlurOuter1"
						/>
						<feColorMatrix
							values="0 0 0 0 0 0 0 0 0 0 0 0 0 0 0 0 0 0 0.135699728 0"
							in="shadowBlurOuter1"
						/>
					</filter>
				</defs>
				<g fill="none" fill-rule="evenodd">
					<g transform="translate(4 2)">
						<path
							fill="#000"
							filter="url(#a)"
							d="M0 0h180v110H0z"
						/>
						<path fill="#FFF" d="M0 0h180v110H0z" />
					</g>
					<path fill="#E9EAEC" d="M25 49h138v40H25z" />
					<path fill="#D2D8DE" d="M31 55h126v28H31z" />
					<path stroke="#919DA9" d="M31 45v-3h126v3" />
					<path
						d="M77.738 35v-7.998h3.405c1.423 0 2.396.72 2.396 1.963 0 1.025-.64 1.582-1.39 1.752v.076c.96.088 1.788.75 1.788 1.945 0 1.47-1.225 2.262-2.784 2.262h-3.416zm1.682-6.756V30.3h1.008c.972 0 1.447-.368 1.447-1.042 0-.668-.47-1.014-1.137-1.014H79.42zm0 3.205v2.302h1.13c1.02 0 1.665-.305 1.665-1.13 0-.75-.516-1.173-1.383-1.173H79.42zM86.115 35h1.653v-8.42h-1.653V35zm6.79-6.346c1.892 0 2.876 1.237 2.876 3.006v.41c0 1.87-.983 3.04-2.876 3.04-1.904 0-2.894-1.16-2.894-3.034v-.41c0-1.734.99-3.012 2.894-3.012zm-.007 1.26c-.955 0-1.224.873-1.224 1.77v.392c0 .88.258 1.77 1.224 1.77.967 0 1.213-.885 1.213-1.77v-.392c0-.903-.256-1.77-1.212-1.77zm4.797 2.22c0 1.846 1.06 2.977 2.807 2.977 1.523 0 2.607-.825 2.637-2.19h-1.513c-.07.463-.357.88-1.072.88-.762 0-1.2-.67-1.2-1.677v-.52c0-.95.403-1.66 1.2-1.66.644 0 1.007.498 1.05.96h1.51c-.01-1.24-.967-2.25-2.607-2.25-1.787 0-2.813 1.226-2.813 2.93v.552zm9.227.72l.422-.467L109.072 35h1.922l-2.39-3.545 2.232-2.69h-1.852l-1.986 2.56h-.076V26.58h-1.647V35h1.647v-2.145z"
						fill="#717F8E"
					/>
					<path
						d="M30.5 94.038V47M19 54.5h149.69M19 82.5h149.69M156.5 94.038V47"
						stroke="#919DA9"
						strokeDasharray="4"
					/>
				</g>
			</svg>
