
			<svg width="188" height="118" view-box="0 0 188 118" xmlns="http://www.w3.org/2000/svg">
				<defs>
					<filter
						x="-3.9%"
						y="-4.5%"
						width="107.8%"
						height="112.7%"
						filter-units="objectBoundingBox"
						id="a"
					>
						<feOffset
							dy="2"
							in="SourceAlpha"
							result="shadowOffsetOuter1"
						/>
						<feGaussianBlur
							std-deviation="2"
							in="shadowOffsetOuter1"
							result="shadowBlurOuter1"
						/>
						<feColorMatrix
							values="0 0 0 0 0 0 0 0 0 0 0 0 0 0 0 0 0 0 0.135699728 0"
							in="shadowBlurOuter1"
						/>
					</filter>
				</defs>
				<g
					transform="translate(4 2)"
					fill="none"
					fill-rule="evenodd"
				>
					<path
						d="M0 0h180v110H0z"
						fill="#000"
						filter="url(#a)"
					/>
					<path d="M0 0h180v110H0z" fill="#FFF" />
					<g transform="translate(78 54)">
						<mask id="d" fill="#fff">
							<path id="c" d="M0 0h24v24H0z" />
						</mask>
						<path fill="#D2D8DE" d="M0 0h24v24H0z" />
						<path
							d="M19.933 24.23H4c.428-4.174 1.785-6.772 4.07-7.795 1.01.947 2.378 1.534 3.897 1.534 1.518 0 2.887-.588 3.896-1.535 2.342 1.023 3.7 3.62 4.07 7.794zM16.747 12.6c0 2.54-2.14 4.602-4.78 4.602s-4.78-2.06-4.78-4.6c0-2.54 2.14-4.602 4.78-4.602s4.78 2.06 4.78 4.6z"
							fill="#FFF"
							mask="url(#d)"
						/>
					</g>
					<g transform="translate(106 54)">
						<mask id="f" fill="#fff">
							<path id="e" d="M0 0h24v24H0z" />
						</mask>
						<path fill="#D2D8DE" d="M0 0h24v24H0z" />
						<path
							d="M19.933 24.23H4c.428-4.174 1.785-6.772 4.07-7.795 1.01.947 2.378 1.534 3.897 1.534 1.518 0 2.887-.588 3.896-1.535 2.342 1.023 3.7 3.62 4.07 7.794zM16.747 12.6c0 2.54-2.14 4.602-4.78 4.602s-4.78-2.06-4.78-4.6c0-2.54 2.14-4.602 4.78-4.602s4.78 2.06 4.78 4.6z"
							fill="#FFF"
							mask="url(#f)"
						/>
					</g>
					<g transform="translate(50 54)">
						<mask id="h" fill="#fff">
							<path id="g" d="M0 0h24v24H0z" />
						</mask>
						<path fill="#D2D8DE" id="g" d="M0 0h24v24H0z" />
						<path
							d="M19.933 24.23H4c.428-4.174 1.785-6.772 4.07-7.795 1.01.947 2.378 1.534 3.897 1.534 1.518 0 2.887-.588 3.896-1.535 2.342 1.023 3.7 3.62 4.07 7.794zM16.747 12.6c0 2.54-2.14 4.602-4.78 4.602s-4.78-2.06-4.78-4.6c0-2.54 2.14-4.602 4.78-4.602s4.78 2.06 4.78 4.6z"
							fill="#FFF"
							mask="url(#h)"
						/>
					</g>
					<g transform="translate(50 34)">
						<rect
							fill="#717F8E"
							width="44"
							height="16"
							rx="2"
						/>
						<g fill="#FFF">
							<path d="M25.506 9.936h-2.322V5.423H22v5.5h3.506v-.987zm.624.987h1.146V6.636H26.13v4.287zm-.09-5.367c0 .326.257.56.657.56.412 0 .665-.234.665-.56 0-.322-.257-.556-.665-.556-.4 0-.657.234-.657.556zm3.35 3.893l.294-.324 1.204 1.797h1.338L30.56 8.486l1.556-1.85h-1.29l-1.383 1.76h-.053V5.134h-1.147v5.79h1.147V9.45zM34.258 11C33 11 32.25 10.25 32.25 8.953V8.62c0-1.3.78-2.06 1.95-2.06 1.23 0 1.94.813 1.94 2.055v.402h-2.763v.146c0 .544.314.975.877.975.474 0 .735-.242.776-.532h1.073c-.053.596-.55 1.394-1.845 1.394zm-.88-2.676h1.656v-.008c0-.536-.31-.918-.825-.918-.51 0-.833.386-.833.918v.008zM9.447 9.786c0-.196-.164-.357-.362-.357-.203 0-.362.16-.362.356 0 .2.16.357.362.357.198 0 .362-.156.362-.357zm.904-2.857v3.57c0 .195-.163.357-.36.357H8.36c-.198 0-.362-.162-.362-.357V6.93c0-.197.164-.36.362-.36H9.99c.197 0 .36.163.36.36zm6.693 0c0-.582-.498-1.073-1.085-1.073h-1.566c.045-.178.102-.234.164-.357.153-.29.317-.614.317-1.07 0-.43 0-1.43-1.266-1.43-.097 0-.187.04-.255.106-.243.234-.31.58-.373.91-.07.323-.13.658-.35.876-.176.173-.37.413-.572.67-.25.323-.79.987-1 1.004-.187.017-.345.173-.345.357V10.5c0 .195.17.352.362.357.197.006.536.123.893.246.61.206 1.373.468 2.18.468h.73c.498-.004.87-.15 1.114-.434.214-.25.31-.59.277-1.01.14-.134.247-.318.304-.524.062-.224.062-.447 0-.653.17-.225.254-.487.243-.766 0-.078-.023-.245-.085-.424.192-.218.31-.536.31-.83z" />
						</g>
					</g>
					<rect
						fill="#717F8E"
						x="97"
						y="34"
						width="33.224"
						height="16"
						rx="2"
					/>
					<path
						d="M103 43.286c.017.79.557 1.714 2.226 1.714 1.404 0 2.272-.677 2.272-1.776 0-1.017-.702-1.415-1.532-1.59l-.86-.19c-.507-.102-.773-.32-.773-.644 0-.43.362-.7.943-.7.656 0 .985.364 1.014.758h1.12c-.01-.99-.863-1.678-2.13-1.678-1.2 0-2.147.612-2.147 1.71 0 .952.664 1.395 1.462 1.563l.85.193c.575.127.865.312.865.693 0 .434-.357.73-1.025.73-.72 0-1.097-.37-1.13-.784H103zm5.204 1.607h1.167V42.4c0-.636.354-.96.85-.96.472 0 .81.308.81.956v2.497h1.17V42.12c0-1.033-.61-1.656-1.545-1.656-.735 0-1.113.41-1.23.714h-.054V39h-1.166v5.893zm7.285-.55c-.167.317-.537.616-1.19.616-.86 0-1.453-.5-1.453-1.322 0-.787.553-1.3 1.575-1.3h1.063v-.422c0-.398-.253-.582-.68-.582-.446 0-.666.22-.695.55h-1.1c.028-.735.49-1.42 1.82-1.42 1.05 0 1.81.41 1.81 1.485v2.943h-1.1v-.55h-.05zm-.803-.212c.44 0 .798-.287.798-.684v-.43h-.785c-.46 0-.694.22-.694.54 0 .386.333.575.68.575zm2.862.763h1.2V42.44c0-.586.248-.992.955-.992.178 0 .36.017.448.046V40.5c-.083-.02-.2-.032-.36-.032-.666 0-.927.386-1.023.665h-.05v-.603h-1.17v4.363zm4.875.078c-1.28 0-2.044-.762-2.044-2.082v-.34c0-1.32.795-2.096 1.987-2.096 1.25 0 1.973.828 1.973 2.09v.412h-2.812v.147c0 .555.32.994.893.994.482 0 .748-.246.79-.542h1.092c-.054.607-.56 1.42-1.877 1.42zm-.897-2.722h1.686v-.008c0-.546-.316-.935-.84-.935-.518 0-.846.394-.846.935v.008z"
						fill="#FFF"
					/>
				</g>
			</svg>
