
<svg width="188px" height="118px" viewBox="0 0 188 118" version="1.1" xmlns="http://www.w3.org/2000/svg" xmlns:xlink="http://www.w3.org/1999/xlink">
    <defs>
        <rect id="path-1" x="0" y="0" width="180" height="110"></rect>
        <filter x="-3.9%" y="-4.5%" width="107.8%" height="112.7%" filterUnits="objectBoundingBox" id="filter-2">
            <feOffset dx="0" dy="2" in="SourceAlpha" result="shadowOffsetOuter1"></feOffset>
            <feGaussianBlur stdDeviation="2" in="shadowOffsetOuter1" result="shadowBlurOuter1"></feGaussianBlur>
            <feColorMatrix values="0 0 0 0 0   0 0 0 0 0   0 0 0 0 0  0 0 0 0.135699728 0" type="matrix" in="shadowBlurOuter1"></feColorMatrix>
        </filter>
        <rect id="path-3" x="0" y="0" width="130" height="60"></rect>
        <polygon id="path-5" points="18.8442396 0.0410327273 18.8442396 24.96 0 24.96 0 0.0410327273 18.8440813 0.0410327273 3.95833333e-05 0.0410138182 3.95833333e-05 24.9599811 18.8440813 24.9599811 18.8440813 0.0410327273"></polygon>
    </defs>
    <g id="Page-1" stroke="none" stroke-width="1" fill="none" fill-rule="evenodd">
        <g id="4" transform="translate(-1090.000000, -505.000000)">
            <g id="ADVANCED-map" transform="translate(1094.000000, 507.000000)">
                <g id="map">
                    <g id="Rectangle-2-Copy-2">
                        <use fill="black" fill-opacity="1" filter="url(#filter-2)" xlink:href="#path-1"></use>
                        <use fill="#FFFFFF" fill-rule="evenodd" xlink:href="#path-1"></use>
                    </g>
                    <g id="Group-11" transform="translate(25.000000, 35.000000)">
                        <g id="Page-1">
                            <mask id="mask-4" fill="white">
                                <use xlink:href="#path-3"></use>
                            </mask>
                            <use id="Mask" fill-opacity="0" fill="#9E9E9E" xlink:href="#path-3"></use>
                            <g id="Group-20" mask="url(#mask-4)">
                                <g transform="translate(-1.000000, -34.000000)">
                                    <polygon id="Fill-2" fill="#D2D8DE" points="0.604189976 89.1019166 0.604189976 103.616119 32.2677143 103.616119 9.22635549 80.4229392"></polygon>
                                    <polygon id="Fill-4" fill="#D2D8DE" points="31.5382617 94.356259 40.2439024 103.384615 74.0487805 103.384615 48.8135044 76.967503"></polygon>
                                    <polygon id="Fill-6" fill="#919DA9" points="13.4611895 76.1597616 27.3036775 90.0934585 44.578608 72.7050169 30.73612 58.7710056"></polygon>
                                    <polygon id="Fill-8" fill="#D2D8DE" points="37.0588644 17.0809556 46.4279054 26.5117297 72.5932146 0.174330079 0.604346096 0.200730967 0.604346096 80.5766615 26.5011298 54.508928 19.8829137 47.8471041 24.1178102 43.5839893 36.590506 56.1391828 51.9910662 40.6371474 32.8239679 21.343756"></polygon>
                                    <polygon id="Fill-10" fill="#D2D8DE" points="113.832038 103.384615 56.225307 44.8997907 40.825059 60.4015118 83.1953329 103.384615"></polygon>
                                    <polygon id="Fill-12" fill="#D2D8DE" points="116.876593 0.196582256 84.7319085 0.180238849 100.812525 16.3664973"></polygon>
                                    <path d="M131.366352,0.203968218 L125.341078,0.200825256 L88.8715721,36.910945 L94.7535289,42.8316583 L90.0484006,47.5681033 L84.1664438,41.64739 L72.8153102,53.0733169 L82.3613906,62.6826114 C82.3630559,62.6840781 86.7971608,67.1473996 95.6637053,76.0725758 L102.639747,69.0505683 L106.874331,73.3133687 L99.898914,80.3350619 L123.076409,103.665589 L131.366352,103.669675 L131.366352,0.203968218 Z" id="Fill-16" fill="#D2D8DE"></path>
                                    <polygon id="Fill-18" fill="#D2D8DE" points="58.3407881 38.50361 58.3423493 38.5051815 58.3442228 38.5070673 68.5803512 48.8106422 96.5772539 20.6292663 78.6591113 2.59337426 50.6622086 30.7741216"></polygon>
                                </g>
                            </g>
                        </g>
                        <g id="Page-1" transform="translate(15.000000, 10.000000)">
                            <g id="Group-5" transform="translate(0.000000, 5.000000)">
                                <mask id="mask-6" fill="white">
                                    <use xlink:href="#path-5"></use>
                                </mask>
                                <g id="Clip-4"></g>
                                <path d="M9.42206042,0.0410138182 C4.22674792,0.0410138182 3.95833333e-05,4.07923927 3.95833333e-05,9.04287564 C3.95833333e-05,11.0795738 1.3444875,14.0354429 4.11057083,18.0795302 C6.0446125,20.9070065 7.94916458,23.1951956 8.02932083,23.2912538 L9.42206042,24.9599811 L10.8148,23.2912538 C10.8949563,23.1951956 12.7997063,20.9070065 14.73355,18.0795302 C17.4996333,14.0354429 18.8440813,11.0795738 18.8440813,9.04287564 C18.8440813,4.07923927 14.6173729,0.0410138182 9.42206042,0.0410138182 M9.42206042,1.742832 C13.6420396,1.742832 17.0628313,5.01126836 17.0628313,9.04287564 C17.0628313,13.074672 9.42206042,22.2302647 9.42206042,22.2302647 C9.42206042,22.2302647 1.78128958,13.074672 1.78128958,9.04287564 C1.78128958,5.01126836 5.20208125,1.742832 9.42206042,1.742832" id="Fill-3" fill="#FFFFFF" mask="url(#mask-6)"></path>
                            </g>
                            <g id="Group-10" transform="translate(3.000000, 0.000000)">
                                <path d="M5.79100925,22.4480366 L5.7902315,22.4470731 C5.51978614,22.1118002 5.1049416,21.5814679 4.57795206,20.8800527 C3.72016929,19.7383566 2.86087136,18.5321206 2.05065754,17.307948 C-0.620970574,13.2713017 -2,10.1910902 -2,7.89848832 C-2,2.43287051 2.48984193,-2 8,-2 C13.5101581,-2 18,2.43287051 18,7.89848832 C18,10.1910902 16.6209706,13.2713017 13.9492879,17.3080304 C13.1389627,18.5322445 12.2795704,19.7385795 11.4219551,20.8800527 C10.8942159,21.5824658 10.4629414,22.1337705 10.2089797,22.4478205 L8.00022112,25.1833433 L5.79100925,22.4480366 Z" id="Fill-1" stroke="#FFFFFF" stroke-width="4" fill="#717F8E"></path>
                                <path d="M8,11 C6.34578723,11 5,9.65421277 5,8 C5,6.34578723 6.34578723,5 8,5 C9.65421277,5 11,6.34578723 11,8 C11,9.65421277 9.65421277,11 8,11" id="Fill-6" fill="#FFFFFF"></path>
                            </g>
                        </g>
                    </g>
                </g>
                <path d="M65.6914062,23 L64.8417969,20.5800781 L61.4785156,20.5800781 L60.6289062,23 L59.5214844,23 L62.6386719,14.5449219 L63.6816406,14.5449219 L66.7988281,23 L65.6914062,23 Z M63.1425781,15.828125 L61.7890625,19.6835938 L64.53125,19.6835938 L63.1777344,15.828125 L63.1425781,15.828125 Z M67.765625,14.5449219 L70.6074219,14.5449219 C73.1152344,14.5449219 74.5976562,16.109375 74.5976562,18.7695312 C74.5976562,21.4355469 73.1210938,23 70.6074219,23 L67.765625,23 L67.765625,14.5449219 Z M68.8203125,15.4941406 L68.8203125,22.0507812 L70.5371094,22.0507812 C72.453125,22.0507812 73.5195312,20.8789062 73.5195312,18.78125 C73.5195312,16.6660156 72.4589844,15.4941406 70.5371094,15.4941406 L68.8203125,15.4941406 Z M79.3964844,23 L78.3535156,23 L75.2363281,14.5449219 L76.34375,14.5449219 L78.8574219,21.7167969 L78.8925781,21.7167969 L81.40625,14.5449219 L82.5136719,14.5449219 L79.3964844,23 Z M88.9765625,23 L88.1269531,20.5800781 L84.7636719,20.5800781 L83.9140625,23 L82.8066406,23 L85.9238281,14.5449219 L86.9667969,14.5449219 L90.0839844,23 L88.9765625,23 Z M86.4277344,15.828125 L85.0742188,19.6835938 L87.8164062,19.6835938 L86.4628906,15.828125 L86.4277344,15.828125 Z M92.09375,23 L91.0507812,23 L91.0507812,14.5449219 L92.0761719,14.5449219 L96.7050781,21.1835938 L96.7578125,21.1835938 L96.7578125,14.5449219 L97.8007812,14.5449219 L97.8007812,23 L96.7753906,23 L92.1464844,16.3847656 L92.09375,16.3847656 L92.09375,23 Z M102.921875,23.140625 C100.589844,23.140625 99.1132812,21.4472656 99.1132812,18.7695312 C99.1132812,16.1152344 100.607422,14.4042969 102.921875,14.4042969 C104.761719,14.4042969 106.162109,15.5234375 106.431641,17.2109375 L105.365234,17.2109375 C105.095703,16.1035156 104.128906,15.3769531 102.921875,15.3769531 C101.269531,15.3769531 100.197266,16.7128906 100.197266,18.7695312 C100.197266,20.84375 101.257812,22.1679688 102.927734,22.1679688 C104.169922,22.1679688 105.060547,21.5703125 105.365234,20.5390625 L106.431641,20.5390625 C106.044922,22.2089844 104.791016,23.140625 102.921875,23.140625 Z M112.912109,22.0507812 L112.912109,23 L107.673828,23 L107.673828,14.5449219 L112.912109,14.5449219 L112.912109,15.4941406 L108.728516,15.4941406 L108.728516,18.2070312 L112.695312,18.2070312 L112.695312,19.1445312 L108.728516,19.1445312 L108.728516,22.0507812 L112.912109,22.0507812 Z M114.300781,14.5449219 L117.142578,14.5449219 C119.650391,14.5449219 121.132812,16.109375 121.132812,18.7695312 C121.132812,21.4355469 119.65625,23 117.142578,23 L114.300781,23 L114.300781,14.5449219 Z M115.355469,15.4941406 L115.355469,22.0507812 L117.072266,22.0507812 C118.988281,22.0507812 120.054688,20.8789062 120.054688,18.78125 C120.054688,16.6660156 118.994141,15.4941406 117.072266,15.4941406 L115.355469,15.4941406 Z" id="ADVANCED" fill="#919DA9"></path>
            </g>
        </g>
    </g>
</svg>