
			<svg width="188" height="118" view-box="0 0 188 118" xmlns="http://www.w3.org/2000/svg">
				<defs>
					<filter
						x="-3.9%"
						y="-4.5%"
						width="107.8%"
						height="112.7%"
						filter-units="objectBoundingBox"
						id="a"
					>
						<feOffset
							dy="2"
							in="SourceAlpha"
							result="shadowOffsetOuter1"
						/>
						<feGaussianBlur
							std-deviation="2"
							in="shadowOffsetOuter1"
							result="shadowBlurOuter1"
						/>
						<feColorMatrix
							values="0 0 0 0 0 0 0 0 0 0 0 0 0 0 0 0 0 0 0.135699728 0"
							in="shadowBlurOuter1"
						/>
					</filter>
				</defs>
				<g fill="none" fill-rule="evenodd">
					<g transform="translate(4 2)">
						<path
							fill="#000"
							filter="url(#a)"
							d="M0 0h180v110H0z"
						/>
						<path fill="#FFF" d="M0 0h180v110H0z" />
					</g>
					<path
						d="M84.116 62v-9.356h1.936v3.567h3.656v-3.566h1.943V62H89.71v-4.177h-3.656V62h-1.936zm10.787-5.218c-.23.263-.375.618-.434 1.067h2.81c-.03-.48-.174-.842-.434-1.09-.26-.248-.583-.37-.968-.37-.42 0-.744.13-.975.392zm2.53-1.56c.46.215.842.555 1.142 1.02.27.41.447.887.527 1.43.047.316.066.773.057 1.37h-4.736c.025.694.243 1.18.654 1.46.25.173.55.26.9.26.374 0 .676-.106.91-.317.126-.114.238-.273.335-.476h1.848c-.046.41-.26.826-.64 1.25-.593.672-1.422 1.01-2.49 1.01-.88 0-1.656-.285-2.328-.852-.673-.567-1.01-1.49-1.01-2.768 0-1.197.304-2.116.91-2.755.608-.64 1.397-.958 2.366-.958.575 0 1.094.108 1.555.324zm6.537 3.414c-.114.072-.23.13-.346.174-.116.045-.276.086-.48.124l-.405.076c-.382.068-.655.15-.82.248-.28.165-.42.42-.42.768 0 .31.087.532.258.67.172.137.38.206.625.206.39 0 .748-.114 1.076-.343.327-.23.498-.646.51-1.25v-.674zm-1.098-.844c.334-.043.574-.096.717-.16.258-.11.387-.28.387-.513 0-.285-.1-.48-.296-.59-.195-.106-.484-.16-.865-.16-.427 0-.73.105-.908.317-.127.157-.21.368-.254.635h-1.745c.038-.605.207-1.103.508-1.492.478-.61 1.3-.914 2.462-.914.758 0 1.43.15 2.02.45.587.3.88.868.88 1.702v3.174c0 .22.006.486.014.8.013.236.05.397.108.482.06.085.148.154.267.21V62H104.2c-.056-.14-.094-.27-.115-.394-.022-.122-.04-.262-.05-.42-.25.272-.54.503-.865.693-.39.224-.83.336-1.32.336-.626 0-1.143-.18-1.552-.537-.408-.358-.612-.865-.612-1.52 0-.85.328-1.467.983-1.848.36-.207.888-.355 1.586-.444l.616-.076zm7.96-2.6c.325.184.59.44.793.765v-3.3h1.834V62h-1.76v-.958c-.257.41-.55.708-.88.895-.33.186-.742.28-1.233.28-.808 0-1.488-.328-2.04-.982-.553-.654-.83-1.493-.83-2.517 0-1.18.273-2.11.817-2.786.544-.677 1.27-1.016 2.18-1.016.42 0 .792.092 1.117.276zm.444 4.93c.266-.382.4-.875.4-1.48 0-.846-.214-1.45-.64-1.815-.264-.22-.57-.33-.916-.33-.53 0-.917.2-1.164.6-.248.4-.372.896-.372 1.488 0 .64.126 1.15.378 1.533s.634.574 1.146.574c.512 0 .9-.19 1.168-.57zm5.464-5.866h-1.834v-1.67h1.834v1.67zm-1.834.825h1.834V62h-1.834v-6.92zm8.953.398c.454.374.68.995.68 1.863V62h-1.853v-4.208c0-.364-.048-.644-.146-.838-.176-.356-.515-.534-1.014-.534-.614 0-1.035.26-1.263.78-.12.276-.178.627-.178 1.055V62h-1.803v-6.906h1.746v1.01c.233-.356.453-.612.66-.77.372-.278.844-.418 1.415-.418.716 0 1.3.187 1.756.562zm6.17 4.557c.293-.32.44-.828.44-1.526 0-.657-.14-1.156-.417-1.5-.277-.342-.648-.513-1.114-.513-.636 0-1.074.298-1.315.895-.127.317-.19.708-.19 1.174 0 .402.068.76.203 1.073.245.583.685.875 1.32.875.423 0 .78-.16 1.073-.48zm-.615-4.96c.44.182.796.516 1.067 1.003v-.997h1.758v6.565c0 .892-.15 1.565-.45 2.018-.517.78-1.507 1.168-2.97 1.168-.886 0-1.607-.172-2.166-.52-.56-.346-.867-.865-.927-1.555h1.968c.05.212.133.364.248.457.194.165.522.248.983.248.652 0 1.088-.218 1.308-.654.144-.28.216-.75.216-1.41v-.443c-.174.296-.36.518-.56.666-.358.274-.826.412-1.4.412-.89 0-1.6-.312-2.13-.937-.532-.624-.798-1.47-.798-2.535 0-1.03.256-1.893.768-2.593s1.238-1.05 2.178-1.05c.347 0 .65.052.907.158z"
						fill="#717F8E"
					/>
					<path
						fill="#D2D8DE"
						d="M62.5 61.145l-4.017 2.09.767-4.426L56 55.672l4.49-.645L62.5 51l2.01 4.028 4.49.645-3.25 3.136.767 4.425"
					/>
				</g>
			</svg>
