
			<svg width="188" height="118" view-box="0 0 188 118" xmlns="http://www.w3.org/2000/svg">
				<defs>
					<filter
						x="-3.9%"
						y="-4.5%"
						width="107.8%"
						height="112.7%"
						filter-units="objectBoundingBox"
						id="a"
					>
						<feOffset
							dy="2"
							in="SourceAlpha"
							result="shadowOffsetOuter1"
						/>
						<feGaussianBlur
							std-deviation="2"
							in="shadowOffsetOuter1"
							result="shadowBlurOuter1"
						/>
						<feColorMatrix
							values="0 0 0 0 0 0 0 0 0 0 0 0 0 0 0 0 0 0 0.135699728 0"
							in="shadowBlurOuter1"
						/>
					</filter>
				</defs>
				<g fill="none" fill-rule="evenodd">
					<g transform="translate(4 2)">
						<path
							d="M0 0h180v110H0z"
							fill="#000"
							filter="url(#a)"
						/>
						<path fill="#FFF" d="M0 0h180v110H0z" />
					</g>
					<path stroke="#D2D8DE" d="M74.5 31.5h39v54h-39z" />
					<path
						d="M92.177 52.833l-2.068 1.06c-.493.25-1.096.056-1.347-.436-.1-.194-.133-.415-.095-.63l.363-2.062c.234-1.32-.21-2.672-1.184-3.595l-1.535-1.457c-.4-.38-.417-1.013-.036-1.414.155-.165.36-.27.585-.303l2.235-.316c1.294-.182 2.417-.986 3.007-2.15l1.006-1.985c.25-.492.85-.69 1.344-.44.19.097.344.25.44.44l1.005 1.984c.59 1.164 1.714 1.968 3.008 2.15l2.236.317c.548.078.928.584.85 1.13-.03.224-.137.43-.3.586l-1.536 1.457c-.973.923-1.418 2.274-1.186 3.595l.364 2.063c.096.544-.268 1.062-.812 1.158-.214.038-.435.005-.63-.094l-2.068-1.06c-1.144-.585-2.5-.585-3.645 0z"
						fill="#919DA9"
					/>
					<path
						fill="#D2D8DE"
						d="M79 73h30v2H79zM83 70h22v2H83zM83 76h22v2H83z"
					/>
					<path fill="#919DA9" d="M86 63h17v3H86z" />
					<g>
						<path
							stroke="#D2D8DE"
							d="M124.5 31.5h39v54h-39z"
						/>
						<path
							d="M142.177 52.833l-2.068 1.06c-.493.25-1.096.056-1.347-.436-.1-.194-.133-.415-.095-.63l.363-2.062c.234-1.32-.21-2.672-1.184-3.595l-1.535-1.457c-.4-.38-.417-1.013-.036-1.414.155-.165.36-.27.585-.303l2.235-.316c1.294-.182 2.417-.986 3.007-2.15l1.006-1.985c.25-.492.85-.69 1.344-.44.19.097.344.25.44.44l1.005 1.984c.59 1.164 1.714 1.968 3.008 2.15l2.236.317c.548.078.928.584.85 1.13-.03.224-.137.43-.3.586l-1.536 1.457c-.973.923-1.418 2.274-1.186 3.595l.364 2.063c.096.544-.268 1.062-.812 1.158-.214.038-.435.005-.63-.094l-2.068-1.06c-1.144-.585-2.5-.585-3.645 0z"
							fill="#919DA9"
						/>
						<path
							fill="#D2D8DE"
							d="M129 73h30v2h-30zM133 70h22v2h-22zM133 76h22v2h-22z"
						/>
						<path fill="#919DA9" d="M136 63h17v3h-17z" />
					</g>
					<g>
						<path
							stroke="#D2D8DE"
							d="M24.5 31.5h39v54h-39z"
						/>
						<path
							d="M42.177 52.833l-2.068 1.06c-.493.25-1.096.056-1.347-.436-.1-.194-.133-.415-.095-.63l.363-2.062c.234-1.32-.21-2.672-1.184-3.595l-1.535-1.457c-.4-.38-.417-1.013-.036-1.414.155-.165.36-.27.585-.303l2.235-.316c1.294-.182 2.417-.986 3.007-2.15l1.006-1.985c.25-.492.85-.69 1.344-.44.19.097.344.25.44.44l1.005 1.984c.59 1.164 1.714 1.968 3.008 2.15l2.236.317c.548.078.928.584.85 1.13-.03.224-.137.43-.3.586l-1.536 1.457c-.973.923-1.418 2.274-1.186 3.595l.364 2.063c.096.544-.268 1.062-.812 1.158-.214.038-.435.005-.63-.094l-2.068-1.06c-1.144-.585-2.5-.585-3.645 0z"
							fill="#919DA9"
						/>
						<path
							fill="#D2D8DE"
							d="M29 73h30v2H29zM33 70h22v2H33zM33 76h22v2H33z"
						/>
						<path fill="#919DA9" d="M36 63h17v3H36z" />
					</g>
				</g>
			</svg>
