
			<svg width="188" height="118" view-box="0 0 188 118" xmlns="http://www.w3.org/2000/svg">
				<defs>
					<filter
						x="-3.9%"
						y="-4.5%"
						width="107.8%"
						height="112.7%"
						filter-units="objectBoundingBox"
						id="a"
					>
						<feOffset
							dy="2"
							in="SourceAlpha"
							result="shadowOffsetOuter1"
						/>
						<feGaussianBlur
							std-deviation="2"
							in="shadowOffsetOuter1"
							result="shadowBlurOuter1"
						/>
						<feColorMatrix
							values="0 0 0 0 0 0 0 0 0 0 0 0 0 0 0 0 0 0 0.135699728 0"
							in="shadowBlurOuter1"
						/>
					</filter>
				</defs>
				<g fill="none">
					<path
						fill="#000"
						filter="url(#a)"
						d="M0 0h180v110H0z"
						transform="translate(4 2)"
					/>
					<path fill="#FFF" d="M4 2h180v110H4z" />
					<path
						fill="#919DA9"
						d="M29 54.5h140v5H29zM29 65.75h140v5H29zM29 77h140v5H29zM29 43.25h140v5H29zM29 32h140v5H29z"
					/>
					<text
						fill="#919DA9"
						transform="translate(4 2)"
						font-size="10"
					>
						<tspan x="15" y="79">
							5.
								</tspan>
					</text>
					<text
						fill="#919DA9"
						transform="translate(4 2)"
						font-size="10"
					>
						<tspan x="15" y="68">
							4.
								</tspan>
					</text>
					<text
						fill="#919DA9"
						transform="translate(4 2)"
						font-size="10"
					>
						<tspan x="15" y="57">
							3.
								</tspan>
					</text>
					<text
						fill="#919DA9"
						transform="translate(4 2)"
						font-size="10"
					>
						<tspan x="15" y="46">
							2.
								</tspan>
					</text>
					<text
						fill="#919DA9"
						transform="translate(4 2)"
						font-size="10"
					>
						<tspan x="15" y="35">
							1.
								</tspan>
					</text>
				</g>
			</svg>
