
			<svg width="188" height="118" view-box="0 0 188 118" xmlns="http://www.w3.org/2000/svg">
				<defs>
					<filter
						x="-3.9%"
						y="-4.5%"
						width="107.8%"
						height="112.7%"
						filter-units="objectBoundingBox"
						id="a"
					>
						<feOffset
							dy="2"
							in="SourceAlpha"
							result="shadowOffsetOuter1"
						/>
						<feGaussianBlur
							std-deviation="2"
							in="shadowOffsetOuter1"
							result="shadowBlurOuter1"
						/>
						<feColorMatrix
							values="0 0 0 0 0 0 0 0 0 0 0 0 0 0 0 0 0 0 0.135699728 0"
							in="shadowBlurOuter1"
						/>
					</filter>
				</defs>
				<g fill="none" fill-rule="evenodd">
					<g transform="translate(4 2)">
						<path
							fill="#000"
							filter="url(#a)"
							d="M0 0h180v110H0z"
						/>
						<path fill="#FFF" d="M0 0h180v110H0z" />
					</g>
					<path fill="#919DA9" d="M99 62h70v35H99z" />
					<mask id="h" fill="#fff">
						<rect width="9" height="9" rx="4.5" />
					</mask>
					<g transform="translate(130 66)">
						<rect
							fill="#FFF"
							width="9"
							height="9"
							rx="4.5"
						/>
						<path
							d="M2.754 3.313c.132.116.306.187.496.187s.364-.07.496-.187c.156-.138.254-.34.254-.563 0-.065-.008-.128-.024-.187C3.893 2.24 3.6 2 3.25 2c-.35 0-.643.24-.726.563-.016.06-.024.122-.024.187 0 .224.098.425.254.563z"
							fill="#D2D8DE"
							fill-rule="nonzero"
							mask="url(#h)"
						/>
						<path
							d="M8.09 5.214l-.717-.574-.24-.19-.278-.226C6.668 4.074 6.425 4 6.18 4c-.245 0-.49.075-.676.224l-.28.225-.24.19-.715.574-.24.192-.717.574-.238.19-.717.576-.24.19L2 7.034 5.7 10H10V6.746l-.955-.766-.717-.574-.238-.192z"
							fill="#717F8E"
							fill-rule="nonzero"
							mask="url(#h)"
						/>
						<path
							d="M4.68 6.453l-.11-.082-.427-.328-.43-.328-.427-.33-.25-.19c-.078-.06-.166-.106-.26-.138C2.666 5.02 2.546 5 2.43 5c-.12 0-.238.02-.35.056-.093.032-.18.078-.257.137l-.252.192-.427.33-.43.327-.427.33-.43.328-.856.657V9h9L4.68 6.453z"
							fill="#D2D8DE"
							fill-rule="nonzero"
							mask="url(#h)"
						/>
					</g>
					<path
						fill="#FFF"
						d="M107 84h54v3h-54zM110 79h49v3h-49zM110 89h49v3h-49z"
					/>
					<g>
						<path fill="#919DA9" d="M19 62h70v35H19z" />
						<g transform="translate(50 66)">
							<rect
								fill="#FFF"
								width="9"
								height="9"
								rx="4.5"
							/>
							<path
								d="M2.754 3.313c.132.116.306.187.496.187s.364-.07.496-.187c.156-.138.254-.34.254-.563 0-.065-.008-.128-.024-.187C3.893 2.24 3.6 2 3.25 2c-.35 0-.643.24-.726.563-.016.06-.024.122-.024.187 0 .224.098.425.254.563z"
								fill="#D2D8DE"
								fill-rule="nonzero"
								mask="url(#h)"
							/>
							<path
								d="M8.09 5.214l-.717-.574-.24-.19-.278-.226C6.668 4.074 6.425 4 6.18 4c-.245 0-.49.075-.676.224l-.28.225-.24.19-.715.574-.24.192-.717.574-.238.19-.717.576-.24.19L2 7.034 5.7 10H10V6.746l-.955-.766-.717-.574-.238-.192z"
								fill="#717F8E"
								fill-rule="nonzero"
								mask="url(#h)"
							/>
							<path
								d="M4.68 6.453l-.11-.082-.427-.328-.43-.328-.427-.33-.25-.19c-.078-.06-.166-.106-.26-.138C2.666 5.02 2.546 5 2.43 5c-.12 0-.238.02-.35.056-.093.032-.18.078-.257.137l-.252.192-.427.33-.43.327-.427.33-.43.328-.856.657V9h9L4.68 6.453z"
								fill="#D2D8DE"
								fill-rule="nonzero"
								mask="url(#h)"
							/>
						</g>
						<path
							fill="#FFF"
							d="M27 84h54v3H27zM30 79h49v3H30zM30 89h49v3H30z"
						/>
					</g>
					<g>
						<path fill="#919DA9" d="M99 17h70v35H99z" />
						<g transform="translate(130 21)">
							<rect
								fill="#FFF"
								width="9"
								height="9"
								rx="4.5"
							/>
							<path
								d="M2.754 3.313c.132.116.306.187.496.187s.364-.07.496-.187c.156-.138.254-.34.254-.563 0-.065-.008-.128-.024-.187C3.893 2.24 3.6 2 3.25 2c-.35 0-.643.24-.726.563-.016.06-.024.122-.024.187 0 .224.098.425.254.563z"
								fill="#D2D8DE"
								fill-rule="nonzero"
								mask="url(#h)"
							/>
							<path
								d="M8.09 5.214l-.717-.574-.24-.19-.278-.226C6.668 4.074 6.425 4 6.18 4c-.245 0-.49.075-.676.224l-.28.225-.24.19-.715.574-.24.192-.717.574-.238.19-.717.576-.24.19L2 7.034 5.7 10H10V6.746l-.955-.766-.717-.574-.238-.192z"
								fill="#717F8E"
								fill-rule="nonzero"
								mask="url(#h)"
							/>
							<path
								d="M4.68 6.453l-.11-.082-.427-.328-.43-.328-.427-.33-.25-.19c-.078-.06-.166-.106-.26-.138C2.666 5.02 2.546 5 2.43 5c-.12 0-.238.02-.35.056-.093.032-.18.078-.257.137l-.252.192-.427.33-.43.327-.427.33-.43.328-.856.657V9h9L4.68 6.453z"
								fill="#D2D8DE"
								fill-rule="nonzero"
								mask="url(#h)"
							/>
						</g>
						<path
							fill="#FFF"
							d="M107 39h54v3h-54zM110 34h49v3h-49zM110 44h49v3h-49z"
						/>
					</g>
					<g>
						<path fill="#919DA9" d="M19 17h70v35H19z" />
						<g transform="translate(50 21)">
							<rect
								fill="#FFF"
								width="9"
								height="9"
								rx="4.5"
							/>
							<path
								d="M2.754 3.313c.132.116.306.187.496.187s.364-.07.496-.187c.156-.138.254-.34.254-.563 0-.065-.008-.128-.024-.187C3.893 2.24 3.6 2 3.25 2c-.35 0-.643.24-.726.563-.016.06-.024.122-.024.187 0 .224.098.425.254.563z"
								fill="#D2D8DE"
								fill-rule="nonzero"
								mask="url(#h)"
							/>
							<path
								d="M8.09 5.214l-.717-.574-.24-.19-.278-.226C6.668 4.074 6.425 4 6.18 4c-.245 0-.49.075-.676.224l-.28.225-.24.19-.715.574-.24.192-.717.574-.238.19-.717.576-.24.19L2 7.034 5.7 10H10V6.746l-.955-.766-.717-.574-.238-.192z"
								fill="#717F8E"
								fill-rule="nonzero"
								mask="url(#h)"
							/>
							<path
								d="M4.68 6.453l-.11-.082-.427-.328-.43-.328-.427-.33-.25-.19c-.078-.06-.166-.106-.26-.138C2.666 5.02 2.546 5 2.43 5c-.12 0-.238.02-.35.056-.093.032-.18.078-.257.137l-.252.192-.427.33-.43.327-.427.33-.43.328-.856.657V9h9L4.68 6.453z"
								fill="#D2D8DE"
								fill-rule="nonzero"
								mask="url(#h)"
							/>
						</g>
						<path
							fill="#FFF"
							d="M27 39h54v3H27zM30 34h49v3H30zM30 44h49v3H30z"
						/>
					</g>
				</g>
			</svg>
