
			<svg width="188" height="118" view-box="0 0 188 118" xmlns="http://www.w3.org/2000/svg">
				<defs>
					<filter
						x="-3.9%"
						y="-4.5%"
						width="107.8%"
						height="112.7%"
						filter-units="objectBoundingBox"
						id="a"
					>
						<feOffset
							dy="2"
							in="SourceAlpha"
							result="shadowOffsetOuter1"
						/>
						<feGaussianBlur
							std-deviation="2"
							in="shadowOffsetOuter1"
							result="shadowBlurOuter1"
						/>
						<feColorMatrix
							values="0 0 0 0 0 0 0 0 0 0 0 0 0 0 0 0 0 0 0.135699728 0"
							in="shadowBlurOuter1"
						/>
					</filter>
				</defs>
				<g fill="none" fill-rule="evenodd">
					<g transform="translate(4 2)">
						<path
							fill="#000"
							filter="url(#a)"
							d="M0 0h180v110H0z"
						/>
						<path fill="#FFF" d="M0 0h180v110H0z" />
					</g>
					<path
						fill="#D2D8DE"
						d="M24 50h67v40H24zM96 50h67v40H96z"
					/>
					<path
						d="M53.21 36v-7.998h-1.642c-.31.164-1.63 1.02-1.927 1.236v1.56c.276-.194 1.618-1.073 1.83-1.19h.063V36h1.676zm3.32 1.693l2.69-10.113H57.74l-2.695 10.113h1.482zm5.728-7.27c0-.02-.006-.066-.006-.1 0-.598.428-1.126 1.148-1.126.65 0 1.137.446 1.137 1.067 0 .644-.47 1.142-.89 1.593l-2.883 3.094V36h5.59v-1.365H63.06v-.053l1.74-1.94c.68-.744 1.413-1.423 1.413-2.542 0-1.278-1.096-2.25-2.777-2.25-1.9 0-2.784 1.265-2.784 2.484v.088h1.606zM125.21 36v-7.998h-1.642c-.31.164-1.63 1.02-1.927 1.236v1.56c.276-.194 1.618-1.073 1.83-1.19h.063V36h1.676zm3.32 1.693l2.69-10.113h-1.478l-2.695 10.113h1.482zm5.728-7.27c0-.02-.006-.066-.006-.1 0-.598.428-1.126 1.148-1.126.65 0 1.137.446 1.137 1.067 0 .644-.47 1.142-.89 1.593l-2.883 3.094V36h5.59v-1.365h-3.293v-.053l1.74-1.94c.68-.744 1.413-1.423 1.413-2.542 0-1.278-1.096-2.25-2.777-2.25-1.9 0-2.784 1.265-2.784 2.484v.088h1.606z"
						fill="#717F8E"
					/>
					<path
						stroke="#919DA9"
						d="M24 46v-3h67v3M96 46v-3h67v3"
					/>
				</g>
			</svg>
