
			<svg width="188" height="118" view-box="0 0 188 118" xmlns="http://www.w3.org/2000/svg">
				<defs>
					<filter
						x="-3.9%"
						y="-4.5%"
						width="107.8%"
						height="112.7%"
						filter-units="objectBoundingBox"
						id="a"
					>
						<feOffset
							dy="2"
							in="SourceAlpha"
							result="shadowOffsetOuter1"
						/>
						<feGaussianBlur
							std-deviation="2"
							in="shadowOffsetOuter1"
							result="shadowBlurOuter1"
						/>
						<feColorMatrix
							values="0 0 0 0 0 0 0 0 0 0 0 0 0 0 0 0 0 0 0.135699728 0"
							in="shadowBlurOuter1"
						/>
					</filter>
				</defs>
				<g fill="none" fill-rule="evenodd">
					<g transform="translate(4 2)">
						<path
							d="M0 0h180v110H0z"
							fill="#000"
							filter="url(#a)"
						/>
						<path d="M0 0h180v110H0z" fill="#FFF"/>
					</g>
					<path
						fill="#D2D8DE"
						d="M42.906 54.4H64v4.2H42.906z"
					/>
					<path
						fill="#919DA9"
						d="M42.906 47.4h11.25v4.2h-11.25zM42.906 61.4H59.78v4.2H42.907z"
					/>
					<g transform="translate(19 46)">
						<mask id="d" fill="#fff">
							<path d="M0 0h21.094v21H0z"/>
						</mask>
						<path fill="#D2D8DE" d="M0 0h21.094v21H0z"/>
						<path
							d="M4.934 6.475c.37.327.86.525 1.394.525.535 0 1.023-.2 1.395-.525.438-.385.715-.948.715-1.575 0-.18-.024-.357-.067-.525C8.138 3.47 7.31 2.8 6.33 2.8c-.983 0-1.81.67-2.043 1.575-.043.168-.066.344-.066.525 0 .627.275 1.19.714 1.575z"
							fill="#FFF"
							fill-rule="nonzero"
							mask="url(#d)"
						/>
						<path
							d="M9.09 15.65l-.25-.17-1.005-.69-1.005-.69-1.004-.69-.59-.406c-.18-.124-.385-.22-.605-.286-.258-.078-.535-.118-.813-.118-.278 0-.555.04-.814.118-.22.067-.426.162-.606.286l-.59.405-1.003.69-1.005.69-1.005.69-1.005.69-2.01 1.38V21h21.094L9.09 15.65z"
							fill="#919DA9"
							fill-rule="nonzero"
							mask="url(#d)"
						/>
					</g>
					<g>
						<path
							fill="#D2D8DE"
							d="M95.906 54.4H117v4.2H95.906z"
						/>
						<path
							fill="#919DA9"
							d="M95.906 47.4h11.25v4.2h-11.25zM95.906 61.4h16.875v4.2H95.907z"
						/>
						<g transform="translate(72 46)">
							<mask id="f" fill="#fff">
								<path d="M0 0h21.094v21H0z"/>
							</mask>
							<path
								fill="#D2D8DE"
								d="M0 0h21.094v21H0z"
							/>
							<path
								d="M4.934 6.475c.37.327.86.525 1.394.525.535 0 1.023-.2 1.395-.525.438-.385.715-.948.715-1.575 0-.18-.024-.357-.067-.525C8.138 3.47 7.31 2.8 6.33 2.8c-.983 0-1.81.67-2.043 1.575-.043.168-.066.344-.066.525 0 .627.275 1.19.714 1.575z"
								fill="#FFF"
								fill-rule="nonzero"
								mask="url(#f)"
							/>
							<path
								d="M9.09 15.65l-.25-.17-1.005-.69-1.005-.69-1.004-.69-.59-.406c-.18-.124-.385-.22-.605-.286-.258-.078-.535-.118-.813-.118-.278 0-.555.04-.814.118-.22.067-.426.162-.606.286l-.59.405-1.003.69-1.005.69-1.005.69-1.005.69-2.01 1.38V21h21.094L9.09 15.65z"
								fill="#919DA9"
								fill-rule="nonzero"
								mask="url(#f)"
							/>
						</g>
					</g>
					<g>
						<path
							fill="#D2D8DE"
							d="M147.906 54.4H169v4.2h-21.094z"
						/>
						<path
							fill="#919DA9"
							d="M147.906 47.4h11.25v4.2h-11.25zM147.906 61.4h16.875v4.2h-16.874z"
						/>
						<g transform="translate(124 46)">
							<mask id="h" fill="#fff">
								<path d="M0 0h21.094v21H0z"/>
							</mask>
							<path
								fill="#D2D8DE"
								d="M0 0h21.094v21H0z"
							/>
							<path
								d="M4.934 6.475c.37.327.86.525 1.394.525.535 0 1.023-.2 1.395-.525.438-.385.715-.948.715-1.575 0-.18-.024-.357-.067-.525C8.138 3.47 7.31 2.8 6.33 2.8c-.983 0-1.81.67-2.043 1.575-.043.168-.066.344-.066.525 0 .627.275 1.19.714 1.575z"
								fill="#FFF"
								fill-rule="nonzero"
								mask="url(#h)"
							/>
							<path
								d="M9.09 15.65l-.25-.17-1.005-.69-1.005-.69-1.004-.69-.59-.406c-.18-.124-.385-.22-.605-.286-.258-.078-.535-.118-.813-.118-.278 0-.555.04-.814.118-.22.067-.426.162-.606.286l-.59.405-1.003.69-1.005.69-1.005.69-1.005.69-2.01 1.38V21h21.094L9.09 15.65z"
								fill="#919DA9"
								fill-rule="nonzero"
								mask="url(#h)"
							/>
						</g>
					</g>
				</g>
			</svg>
