
			<svg width="188" height="118" view-box="0 0 188 118" xmlns="http://www.w3.org/2000/svg">
				<defs>
					<filter
						x="-3.9%"
						y="-4.5%"
						width="107.8%"
						height="112.7%"
						filter-units="objectBoundingBox"
						id="a"
					>
						<feOffset
							dy="2"
							in="SourceAlpha"
							result="shadowOffsetOuter1"
						/>
						<feGaussianBlur
							std-deviation="2"
							in="shadowOffsetOuter1"
							result="shadowBlurOuter1"
						/>
						<feColorMatrix
							values="0 0 0 0 0 0 0 0 0 0 0 0 0 0 0 0 0 0 0.135699728 0"
							in="shadowBlurOuter1"
						/>
					</filter>
				</defs>
				<g fill="none" fill-rule="evenodd">
					<g transform="translate(4 2)">
						<path
							d="M0 0h180v110H0z"
							fill="#000"
							filter="url(#a)"
						/>
						<path d="M0 0h180v110H0z" fill="#FFF" />
					</g>
					<g transform="translate(4 2)">
						<rect
							fill="#FFF"
							x="52"
							y="20"
							width="76"
							height="71"
							rx="1"
						/>
						<rect
							stroke="#D2D8DE"
							stroke-width="2"
							x="51"
							y="19"
							width="78"
							height="73"
							rx="1"
						/>
					</g>
					<path
						fill="#D2D8DE"
						d="M59 88h70v2H59zM73 80h22v2H73zM124 74h5v5h-5z"
					/>
					<path fill="#919DA9" d="M73 76h32v2H73z" />
					<g transform="translate(59 56)">
						<mask id="e" fill="#fff">
							<path id="d" d="M0 0h9v9H0z" />
						</mask>
						<path fill="#D2D8DE" d="M0 0h9v9H0z" />
						<path
							d="M7 9H2c.134-.94.56-1.606 1.277-2 .317.364.746.59 1.223.59.477 0 .906-.226 1.223-.59.735.394 1.16 1.06 1.277 2zM6 5.5C6 6.328 5.328 7 4.5 7S3 6.328 3 5.5 3.672 4 4.5 4 6 4.672 6 5.5z"
							fill="#FFF"
							mask="url(#e)"
						/>
					</g>
					<g transform="translate(71 56)">
						<mask id="g" fill="#fff">
							<path id="f" d="M0 0h9v9H0z" />
						</mask>
						<path fill="#D2D8DE" d="M0 0h9v9H0z" />
						<path
							d="M7 9H2c.134-.94.56-1.606 1.277-2 .317.364.746.59 1.223.59.477 0 .906-.226 1.223-.59.735.394 1.16 1.06 1.277 2zM6 5.5C6 6.328 5.328 7 4.5 7S3 6.328 3 5.5 3.672 4 4.5 4 6 4.672 6 5.5z"
							fill="#FFF"
							mask="url(#g)"
						/>
					</g>
					<g transform="translate(83 56)">
						<mask id="i" fill="#fff">
							<path id="h" d="M0 0h9v9H0z" />
						</mask>
						<path fill="#D2D8DE" d="M0 0h9v9H0z" />
						<path
							d="M7 9H2c.134-.94.56-1.606 1.277-2 .317.364.746.59 1.223.59.477 0 .906-.226 1.223-.59.735.394 1.16 1.06 1.277 2zM6 5.5C6 6.328 5.328 7 4.5 7S3 6.328 3 5.5 3.672 4 4.5 4 6 4.672 6 5.5z"
							fill="#FFF"
							mask="url(#i)"
						/>
					</g>
					<g transform="translate(96 56)">
						<mask id="k" fill="#fff">
							<path id="j" d="M0 0h9v9H0z" />
						</mask>
						<path fill="#D2D8DE" d="M0 0h9v9H0z" />
						<path
							d="M7 9H2c.134-.94.56-1.606 1.277-2 .317.364.746.59 1.223.59.477 0 .906-.226 1.223-.59.735.394 1.16 1.06 1.277 2zM6 5.5C6 6.328 5.328 7 4.5 7S3 6.328 3 5.5 3.672 4 4.5 4 6 4.672 6 5.5z"
							fill="#FFF"
							mask="url(#k)"
						/>
					</g>
					<g transform="translate(108 56)">
						<mask id="m" fill="#fff">
							<path id="l" d="M0 0h9v9H0z" />
						</mask>
						<path fill="#D2D8DE" d="M0 0h9v9H0z" />
						<path
							d="M7 9H2c.134-.94.56-1.606 1.277-2 .317.364.746.59 1.223.59.477 0 .906-.226 1.223-.59.735.394 1.16 1.06 1.277 2zM6 5.5C6 6.328 5.328 7 4.5 7S3 6.328 3 5.5 3.672 4 4.5 4 6 4.672 6 5.5z"
							fill="#FFF"
							mask="url(#m)"
						/>
					</g>
					<g transform="translate(120 56)">
						<mask id="o" fill="#fff">
							<path id="n" d="M0 0h9v9H0z" />
						</mask>
						<path fill="#D2D8DE" d="M0 0h9v9H0z" />
						<path
							d="M7 9H2c.134-.94.56-1.606 1.277-2 .317.364.746.59 1.223.59.477 0 .906-.226 1.223-.59.735.394 1.16 1.06 1.277 2zM6 5.5C6 6.328 5.328 7 4.5 7S3 6.328 3 5.5 3.672 4 4.5 4 6 4.672 6 5.5z"
							fill="#FFF"
							mask="url(#o)"
						/>
					</g>
					<g transform="translate(4 2)">
						<path
							fill="#FFF"
							d="M53 20h74c.552 0 1 .448 1 1v28H52V21c0-.552.448-1 1-1z"
							id="p"
						/>
						<path
							stroke="#D2D8DE"
							stroke-width="2"
							d="M53 19h74c1.105 0 2 .895 2 2v29H51V21c0-1.105.895-2 2-2z"
						/>
					</g>
					<g transform="translate(85 31)">
						<rect
							fill="#717F8E"
							width="44"
							height="16"
							rx="2"
						/>
						<g fill="#FFF">
							<path d="M25.506 9.936h-2.322V5.423H22v5.5h3.506v-.987zm.624.987h1.146V6.636H26.13v4.287zm-.09-5.367c0 .326.257.56.657.56.412 0 .665-.234.665-.56 0-.322-.257-.556-.665-.556-.4 0-.657.234-.657.556zm3.35 3.893l.294-.324 1.204 1.797h1.338L30.56 8.486l1.556-1.85h-1.29l-1.383 1.76h-.053V5.134h-1.147v5.79h1.147V9.45zM34.258 11C33 11 32.25 10.25 32.25 8.953V8.62c0-1.3.78-2.06 1.95-2.06 1.23 0 1.94.813 1.94 2.055v.402h-2.763v.146c0 .544.314.975.877.975.474 0 .735-.242.776-.532h1.073c-.053.596-.55 1.394-1.845 1.394zm-.88-2.676h1.656v-.008c0-.536-.31-.918-.825-.918-.51 0-.833.386-.833.918v.008zM9.447 9.786c0-.196-.164-.357-.362-.357-.203 0-.362.16-.362.356 0 .2.16.357.362.357.198 0 .362-.156.362-.357zm.904-2.857v3.57c0 .195-.163.357-.36.357H8.36c-.198 0-.362-.162-.362-.357V6.93c0-.197.164-.36.362-.36H9.99c.197 0 .36.163.36.36zm6.693 0c0-.582-.498-1.073-1.085-1.073h-1.566c.045-.178.102-.234.164-.357.153-.29.317-.614.317-1.07 0-.43 0-1.43-1.266-1.43-.097 0-.187.04-.255.106-.243.234-.31.58-.373.91-.07.323-.13.658-.35.876-.176.173-.37.413-.572.67-.25.323-.79.987-1 1.004-.187.017-.345.173-.345.357V10.5c0 .195.17.352.362.357.197.006.536.123.893.246.61.206 1.373.468 2.18.468h.73c.498-.004.87-.15 1.114-.434.214-.25.31-.59.277-1.01.14-.134.247-.318.304-.524.062-.224.062-.447 0-.653.17-.225.254-.487.243-.766 0-.078-.023-.245-.085-.424.192-.218.31-.536.31-.83z" />
						</g>
					</g>
					<path fill="#919DA9" d="M85 26h44v2H85z" />
					<g transform="translate(59 26)">
						<mask id="r" fill="#fff">
							<path id="q" d="M0 0h21v21H0z" />
						</mask>
						<path fill="#919DA9" d="M0 0h21v21H0z" />
						<path
							d="M5.842 17V9.245h2.653l.397-3.022h-3.05v-1.93c0-.874.247-1.47 1.527-1.47H9V.118C8.718.08 7.75 0 6.623 0 4.27 0 2.66 1.408 2.66 3.995v2.228H0v3.022h2.66V17h3.182z"
							transform="translate(8 4)"
							mask="url(#r)"
							fill-rule="nonzero"
							fill="#FFF"
						/>
						<g mask="url(#r)">
							<path fill="#D8D8D8" d="M21 0h34v16H21z" />
							<path
								stroke="#979797"
								d="M21.5.5h33v15h-33z"
							/>
						</g>
					</g>
					<g transform="translate(59 74)">
						<mask id="u" fill="#fff">
							<path id="t" d="M0 0h11v11H0z" />
						</mask>
						<path fill="#D2D8DE" d="M0 0h11v11H0z" />
						<g mask="url(#u)">
							<path fill="#D8D8D8" d="M11 0h18v8H11z" />
							<path
								stroke="#979797"
								d="M11.5.5h17v7h-17z"
							/>
						</g>
						<path
							d="M3.508 5.625c.265.233.612.375.992.375s.727-.142.992-.375C5.802 5.35 6 4.948 6 4.5c0-.13-.016-.255-.047-.375C5.786 3.478 5.2 3 4.5 3c-.7 0-1.286.478-1.453 1.125-.03.12-.047.246-.047.375 0 .448.197.85.508 1.125z"
							fill="#FFF"
							fill-rule="nonzero"
							mask="url(#u)"
						/>
						<path
							d="M11.612 7.214l-.896-.574-.298-.19-.35-.226C9.835 6.074 9.528 6 9.224 6c-.306 0-.61.075-.844.224l-.35.225-.3.19-.894.574-.3.192-.894.574-.3.19-.894.576-.3.19L4 9.034 8.627 12H14V8.746l-1.194-.766-.896-.574-.298-.192z"
							fill="#717F8E"
							fill-rule="nonzero"
							mask="url(#u)"
						/>
						<path
							d="M5.833 8.453l-.166-.082L5 8.043l-.667-.328-.666-.33-.39-.19c-.12-.06-.257-.106-.403-.138C2.702 7.02 2.518 7 2.334 7c-.185 0-.37.02-.54.056-.147.032-.284.078-.403.137L1 7.385l-.667.33-.666.327-.667.33-.667.328L-3 9.357V11h14L5.833 8.453z"
							fill="#919DA9"
							fill-rule="nonzero"
							mask="url(#u)"
						/>
					</g>
					<path fill="#D2D8DE" d="M56 68h77v2H56z" />
				</g>
			</svg>
