
			<svg width="188" height="118" view-box="0 0 188 118" xmlns="http://www.w3.org/2000/svg">
				<defs>
					<filter
						id="a"
						width="107.8%"
						height="112.7%"
						x="-3.9%"
						y="-4.5%"
						filter-units="objectBoundingBox"
					>
						<feOffset dy="2" in="SourceAlpha" result="shadowOffsetOuter1" />
						<feGaussianBlur
							std-deviation="2"
							in="shadowOffsetOuter1"
							result="shadowBlurOuter1"
						/>
						<feColorMatrix
							values="0 0 0 0 0 0 0 0 0 0 0 0 0 0 0 0 0 0 0.135699728 0"
							in="shadowBlurOuter1"
						/>
					</filter>
				</defs>
				<g fill="none" fill-rule="evenodd">
					<g transform="translate(4 2)">
						<path fill="#000" filter="url(#a)" d="M0 0h180v110H0z" />
						<path fill="#FFF" d="M0 0h180v110H0z" />
					</g>
					<path fill="#D2D8DE" d="M24 47h90v21H24z" />
					<path fill="#FFF" d="M34 55h60v5H34z" />
					<path fill="#717F8E" d="M114 47h50v21h-50z" />
					<path fill="#FFF" d="M134 55h20v5h-20z" />
					<g fill="#FFF" fill-rule="nonzero">
						<path d="M130.328 56.453c-.088.054-.355.213-.8.477-.446.265-.787.47-1.024.61l-.166.103c-.085.053-.155.095-.21.128-.057.033-.125.07-.204.11-.08.04-.154.07-.225.09-.07.02-.136.03-.196.03h-.008c-.06 0-.125-.01-.195-.03-.07-.02-.145-.05-.224-.09-.08-.04-.147-.077-.203-.11-.056-.032-.126-.074-.21-.127l-.167-.102c-.24-.14-.85-.504-1.828-1.087-.19-.114-.35-.25-.477-.412-.126-.16-.19-.328-.19-.504 0-.148.062-.274.186-.38.123-.104.27-.156.44-.156h5.75c.2 0 .354.058.462.174.108.116.162.26.162.435 0 .14-.072.292-.215.456-.143.165-.295.293-.457.387z" />
						<path d="M124.39 57.274c.855.465 1.503.827 1.946 1.084.148.09.27.157.36.206.094.05.217.1.37.15.154.053.297.078.43.078h.008c.133 0 .276-.025.43-.077.153-.05.276-.1.37-.15.09-.05.212-.118.36-.207.352-.207 1-.57 1.94-1.084.15-.08.28-.17.396-.274v2.497c0 .138-.06.257-.184.355-.122.1-.27.148-.44.148h-5.75c-.173 0-.32-.05-.442-.148-.123-.098-.184-.217-.184-.355V57c.112.1.242.192.39.274z" />
					</g>
				</g>
			</svg>
