
			<svg width="188" height="118" view-box="0 0 188 118" xmlns="http://www.w3.org/2000/svg">
				<defs>
					<path id="b" d="M0 0h180v110H0z" />
					<filter
						x="-3.9%"
						y="-4.5%"
						width="107.8%"
						height="112.7%"
						filter-units="objectBoundingBox"
						id="a"
					>
						<feOffset
							dy="2"
							in="SourceAlpha"
							result="shadowOffsetOuter1"
						/>
						<feGaussianBlur
							std-deviation="2"
							in="shadowOffsetOuter1"
							result="shadowBlurOuter1"
						/>
						<feColorMatrix
							values="0 0 0 0 0 0 0 0 0 0 0 0 0 0 0 0 0 0 0.135699728 0"
							in="shadowBlurOuter1"
						/>
					</filter>
				</defs>
				<g fill="none" fill-rule="evenodd">
					<g transform="translate(4 2)">
						<path
							fill="#000"
							filter="url(#a)"
							d="M0 0h180v110H0z"
						/>
						<path fill="#FFF" d="M0 0h180v110H0z" />>
							</g>
					<g fill="#717F8E">
						<path d="M69.99 56.702c-.08 1.8-1.303 4.266-3.67 7.395C63.873 67.367 61.802 69 60.11 69c-1.05 0-1.94-.995-2.664-2.986l-1.452-5.475c-.54-1.99-1.117-2.987-1.734-2.987-.135 0-.606.292-1.413.872L52 57.303c.888-.802 1.765-1.604 2.627-2.407 1.184-1.052 2.074-1.605 2.667-1.66 1.4-.14 2.263.845 2.587 2.95.35 2.274.592 3.687.728 4.24.404 1.886.848 2.828 1.334 2.828.376 0 .942-.612 1.697-1.835.753-1.224 1.157-2.155 1.21-2.794.108-1.056-.296-1.585-1.21-1.585-.432 0-.876.103-1.333.305.884-2.978 2.575-4.424 5.07-4.342 1.85.056 2.72 1.29 2.614 3.7" />
						<path d="M78.34 47.135c-.028.712-.38 1.395-1.052 2.05-.758.74-1.655 1.11-2.693 1.11-1.598 0-2.37-.71-2.314-2.135.028-.74.456-1.452 1.284-2.135C74.39 45.342 75.31 45 76.32 45c.59 0 1.08.236 1.473.705.392.47.574.947.547 1.43zM82 62.397c-.786 1.515-1.865 2.887-3.24 4.116C76.88 68.17 75.002 69 73.123 69c-.87 0-1.536-.286-2-.858-.46-.572-.678-1.314-.65-2.23.027-.943.315-2.402.862-4.375.547-1.972.82-3.03.82-3.174 0-.742-.252-1.115-.756-1.115-.17 0-.647.3-1.432.9L69 56.99l2.692-2.488c1.206-1.088 2.104-1.66 2.694-1.717.925-.086 1.605.192 2.04.834.434.64.595 1.474.484 2.5-.365 1.74-.758 3.948-1.18 6.626-.027 1.227.408 1.84 1.306 1.84.392 0 1.092-.423 2.103-1.27.84-.706 1.527-1.37 2.06-1.992l.8 1.073z" />
						<path d="M110 62.487c-.805 1.494-1.912 2.847-3.32 4.06C104.75 68.182 102.825 69 100.9 69c-1.87 0-2.774-1.014-2.717-3.046.028-.903.208-1.988.54-3.257.33-1.27.51-2.257.538-2.962.03-1.07-.3-1.608-.995-1.608-.75 0-1.643.876-2.68 2.625-1.098 1.835-1.69 3.613-1.776 5.333-.06 1.215.062 2.147.362 2.795-2.006.057-3.412-.268-4.213-.974-.72-.62-1.048-1.65-.99-3.09.027-.903.168-1.806.423-2.71.253-.902.394-1.706.423-2.413.058-1.044-.33-1.566-1.165-1.566-.72 0-1.498.805-2.332 2.414-.834 1.61-1.296 3.29-1.38 5.038-.06 1.58.044 2.68.307 3.302-1.973.057-3.375-.35-4.204-1.225-.687-.73-1-1.842-.943-3.334.028-.73.16-1.75.396-3.06.237-1.308.37-2.328.397-3.06.056-.506-.073-.76-.388-.76-.173 0-.662.286-1.467.857L78 57.154c.144-.112 1.048-.93 2.717-2.455 1.207-1.1 2.027-1.665 2.458-1.693.747-.057 1.35.246 1.81.91.46.662.69 1.432.69 2.306 0 .282-.028.55-.084.804.432-.648.934-1.213 1.51-1.693 1.322-1.128 2.803-1.764 4.442-1.905 1.41-.114 2.415.21 3.02.972.487.62.717 1.51.69 2.667l.647-.55c.66-.763 1.306-1.37 1.938-1.82 1.064-.763 2.172-1.186 3.32-1.27 1.38-.114 2.373.21 2.977.968.516.62.747 1.505.69 2.657-.03.787-.223 1.933-.582 3.437-.36 1.505-.54 2.368-.54 2.593-.028.592.03 1 .173 1.224.144.224.488.335 1.035.335.403 0 1.12-.417 2.157-1.253.862-.695 1.567-1.35 2.114-1.963l.82 1.057" />
						<path d="M115.817 57.52c.027-.78-.283-1.173-.934-1.173-.848 0-1.71.6-2.586 1.803-.876 1.2-1.33 2.35-1.357 3.45-.016 0-.016.19 0 .566 1.385-.52 2.587-1.316 3.605-2.388.82-.926 1.243-1.68 1.272-2.26zm9.64 4.557c-.82 1.395-2.434 2.79-4.84 4.183-3.002 1.773-6.046 2.658-9.132 2.658-2.294 0-3.937-.785-4.927-2.355-.708-1.077-1.048-2.356-1.02-3.84.028-2.357 1.048-4.596 3.06-6.72 2.207-2.328 4.812-3.492 7.813-3.492 2.777 0 4.25 1.163 4.42 3.484.11 1.48-.682 3.004-2.38 4.57-1.813 1.714-4.093 2.802-6.838 3.266.51.726 1.273 1.09 2.293 1.09 2.038 0 4.26-.533 6.67-1.6 1.726-.748 3.085-1.526 4.076-2.333l.808 1.09z" />
						<path d="M132.188 58.986c.03-.787-.078-1.51-.32-2.164-.24-.656-.587-.985-1.04-.985-1.444 0-2.633.802-3.566 2.406-.794 1.312-1.22 2.71-1.275 4.197-.028.73.1 1.37.382 1.925.31.642.75.96 1.316.96 1.274 0 2.365-.77 3.27-2.316.765-1.284 1.175-2.625 1.232-4.024zm4.8.165c-.114 2.674-1.076 4.984-2.89 6.93-1.81 1.947-4.062 2.92-6.752 2.92-2.236 0-3.935-.74-5.096-2.223-.85-1.104-1.317-2.484-1.4-4.14-.144-2.498.734-4.794 2.632-6.885 2.04-2.324 4.6-3.486 7.687-3.486 1.98 0 3.48.684 4.5 2.048.964 1.25 1.402 2.862 1.318 4.837z" />
					</g>
				</g>
			</svg>
