
			<svg width="188" height="118" xmlns="http://www.w3.org/2000/svg">
				<defs>
					<path id="b" d="M0 0h180v110H0z" />
					<filter
						x="-3.9%"
						y="-4.5%"
						width="107.8%"
						height="112.7%"
						filter-units="objectBoundingBox"
						id="a"
					>
						<feOffset dy="2" in="SourceAlpha" result="shadowOffsetOuter1" />
						<feGaussianBlur
							std-deviation="2"
							in="shadowOffsetOuter1"
							result="shadowBlurOuter1"
						/>
						<feColorMatrix
							values="0 0 0 0 0 0 0 0 0 0 0 0 0 0 0 0 0 0 0.135699728 0"
							in="shadowBlurOuter1"
						/>
					</filter>
				</defs>
				<g fill="none" fill-rule="evenodd">
					<g transform="translate(4 2)">
						<path fill="#000" filter="url(#a)" d="M0 0h180v110H0z" />
						<path fill="#FFF" d="M0 0h180v110H0z" />
					</g>
					<path fill="#D2D8DE" d="M83 47h55v20H83zM24 47h55v20H24z" />
					<path fill="#FFF" d="M89 55h38v5H89zM31 55h38v5H31z" />
					<path fill="#717F8E" d="M143 47h21v20h-21z" />
					<g fill-rule="nonzero" fill="#FFF">
						<path d="M156.328 56.453c-.088.054-.355.213-.8.477a199.474 199.474 0 0 0-1.19.713 4.208 4.208 0 0 1-.414.236c-.08.04-.154.07-.225.09a.712.712 0 0 1-.195.031h-.008a.713.713 0 0 1-.195-.03c-.07-.02-.146-.05-.225-.09a4.283 4.283 0 0 1-.414-.237l-.166-.102-1.828-1.088a1.745 1.745 0 0 1-.477-.412.802.802 0 0 1-.191-.505.48.48 0 0 1 .186-.379.658.658 0 0 1 .439-.157h5.75c.2 0 .355.058.463.174a.614.614 0 0 1 .162.435c0 .141-.072.293-.215.457a1.834 1.834 0 0 1-.457.387z" />
						<path d="M150.39 57.274c.855.465 1.503.827 1.946 1.084.148.089.269.157.361.206.093.05.216.1.37.151.153.052.296.077.429.077h.008c.133 0 .276-.025.43-.077.153-.051.276-.101.369-.15a80.916 80.916 0 0 1 2.303-1.29c.148-.081.28-.172.394-.275v2.497a.443.443 0 0 1-.184.355.682.682 0 0 1-.441.148h-5.75a.682.682 0 0 1-.441-.148.443.443 0 0 1-.184-.355V57c.112.1.242.192.39.274z" />
					</g>
				</g>
			</svg>
