
			<svg
				width="188px"
				height="118px"
				view-box="0 0 188 118"
				version="1.1"
			 xmlns="http://www.w3.org/2000/svg">
				<defs>
					<filter
						x="-3.9%"
						y="-4.5%"
						width="107.8%"
						height="112.7%"
						filter-units="objectBoundingBox"
						id="filter-2"
					>
						<feOffset
							dx="0"
							dy="2"
							in="SourceAlpha"
							result="shadowOffsetOuter1"
						/>
						<feGaussianBlur
							std-deviation="2"
							in="shadowOffsetOuter1"
							result="shadowBlurOuter1"
						/>
						<feColorMatrix
							values="0 0 0 0 0   0 0 0 0 0   0 0 0 0 0  0 0 0 0.135699728 0"
							type="matrix"
							in="shadowBlurOuter1"
						/>
					</filter>
				</defs>
				<g
					id="Page-1"
					stroke="none"
					stroke-width="1"
					fill="none"
					fill-rule="evenodd"
				>
					<g
						id="2"
						transform="translate(-624.000000, -478.000000)"
					>
						<g
							id="Progress-Bar"
							transform="translate(628.000000, 90.000000)"
						>
							<g
								id="Progress-bar-4"
								transform="translate(0.000000, 390.000000)"
							>
								<g id="Rectangle-2">
									<rect
										x="0"
										y="0"
										width="180"
										height="110"
										fill="black"
										fillOpacity="1"
										filter="url(#filter-2)"
									/>
									<rect
										x="0"
										y="0"
										width="180"
										height="110"
										fill="#FFFFFF"
										fill-rule="evenodd"
									/>
								</g>
								<g
									id="3"
									transform="translate(120.000000, 35.000000)"
								>
									<circle
										id="Oval-4"
										stroke="#D2D8DE"
										stroke-width="2"
										cx="20"
										cy="20"
										r="21"
									/>
									<path
										d="M20.6666667,21.4444444 L20.6666667,-1.01743924 L21.7488857,-0.928157991 C32.5917057,-0.0336435891 41,9.05332874 41,20 C41,31.5979797 31.5979797,41 20,41 C9.35729072,41 0.431770886,33.0408921 -0.844771191,22.5654096 L-0.981371977,21.4444444 L20.6666667,21.4444444 Z"
										id="Combined-Shape"
										stroke="#919DA9"
										stroke-width="2"
									/>
									<circle
										id="Oval-4"
										fill="#FFFFFF"
										cx="20"
										cy="20"
										r="20"
									/>
									<rect
										id="Rectangle-11"
										fill="#919DA9"
										x="8"
										y="18"
										width="25"
										height="5"
									/>
									<rect
										id="Rectangle-11-Copy"
										fill="#919DA9"
										x="7.5"
										y="18"
										width="25"
										height="5"
									/>
								</g>
								<g
									id="2"
									transform="translate(70.000000, 35.000000)"
								>
									<ellipse
										id="Oval-4"
										stroke="#D2D8DE"
										stroke-width="2"
										cx="19.8197078"
										cy="19.8990774"
										rx="20.8197078"
										ry="20.8990774"
									/>
									<path
										d="M18.3107203,40.7440582 C7.46064367,39.9634192 -1,30.8763299 -1,19.8990774 C-1,8.92182484 7.46064367,-0.165264444 18.3107203,-0.945903465 L19.3824826,-1.02301439 L19.3824826,40.8211692 L18.3107203,40.7440582 Z"
										id="Combined-Shape"
										stroke="#919DA9"
										stroke-width="2"
									/>
									<ellipse
										id="Oval-4"
										fill="#FFFFFF"
										cx="19.8197078"
										cy="19.8990774"
										rx="19.8197078"
										ry="19.8990774"
									/>
									<polygon
										id="Star"
										fill="#919DA9"
										points="19.8200073 25.2979362 14.530744 28.0786665 15.5409034 22.1889852 11.2617995 18.0178898 17.1753757 17.1585968 19.8200073 11.7999878 22.464639 17.1585968 28.3782152 18.0178898 24.0991112 22.1889852 25.1092707 28.0786665"
									/>
								</g>
								<g
									id="1"
									transform="translate(20.000000, 35.000000)"
								>
									<circle
										id="Oval-4"
										stroke="#D2D8DE"
										stroke-width="2"
										cx="20"
										cy="20"
										r="21"
									/>
									<path
										d="M19,21.4444444 L40.981372,21.4444444 L40.8447712,22.5654096 C39.5682291,33.0408921 30.6427093,41 20,41 C8.40202025,41 -1,31.5979797 -1,20 C-1,9.18355676 7.2146614,0.164667338 17.9011997,-0.896356799 L19,-1.00545233 L19,21.4444444 Z"
										id="Combined-Shape"
										stroke="#919DA9"
										stroke-width="2"
									/>
									<circle
										id="Oval-4"
										fill="#FFFFFF"
										cx="20"
										cy="20"
										r="20"
									/>
									<rect
										id="Rectangle-7"
										fill="#919DA9"
										x="11"
										y="14"
										width="18"
										height="12"
									/>
								</g>
							</g>
						</g>
					</g>
				</g>
			</svg>
