
			<svg width="188" height="118" view-box="0 0 188 118" xmlns="http://www.w3.org/2000/svg">
				<defs>
					<filter
						x="-3.9%"
						y="-4.5%"
						width="107.8%"
						height="112.7%"
						filter-units="objectBoundingBox"
						id="a"
					>
						<feOffset
							dy="2"
							in="SourceAlpha"
							result="shadowOffsetOuter1"
						/>
						<feGaussianBlur
							std-deviation="2"
							in="shadowOffsetOuter1"
							result="shadowBlurOuter1"
						/>
						<feColorMatrix
							values="0 0 0 0 0 0 0 0 0 0 0 0 0 0 0 0 0 0 0.135699728 0"
							in="shadowBlurOuter1"
						/>
					</filter>
					<rect id="c" width="12" height="12" rx="6" />
					<path id="e" d="M12 0h20v10H12z" />
					<rect id="f" width="12" height="12" rx="6" />
					<path id="h" d="M12 0h20v10H12z" />
					<rect id="i" width="12" height="12" rx="6" />
					<path id="k" d="M12 0h20v10H12z" />
				</defs>
				<g fill="none" fill-rule="evenodd">
					<g>
						<path
							fill="#000"
							filter="url(#a)"
							d="M0 0h180v110H0z"
						/>
						<path fill="#FFF" d="M0 0h180v110H0z" />
					</g>
					<path
						fill="#919DA9"
						d="M19 58h40v3H19zM19 79h40v3H19zM19 86h25v3H19zM19 51h40v3H19zM19 44h40v3H19zM19 72h40v3H19zM19 65h40v3H19zM34 27h20v3H34z"
					/>
					<path fill="#D2D8DE" d="M34 32h15v3H34z" />
					<mask id="mask-11" fill="white">
						<rect
							x="0"
							y="0"
							width="12"
							height="12"
							rx="6"
						/>
					</mask>
					<g transform="translate(19 25)">
						<rect
							fill="#D2D8DE"
							x="0"
							y="0"
							width="12"
							height="12"
							rx="6"
						/>
						<g mask="url(#mask-11)">
							<rect
								fill="#D8D8D8"
								x="12"
								y="0"
								width="20"
								height="10"
							/>
							<rect
								stroke="#979797"
								stroke-width="1"
								x="12.5"
								y="0.5"
								width="19"
								height="9"
							/>
						</g>
						<path
							d="M4.33890956,4.75000732 C4.51516128,4.90548736 4.74646237,5 5,5 C5.25353763,5 5.48480942,4.90545806 5.66109044,4.75000732 C5.86880731,4.56675358 6,4.29877245 6,4 C6,3.91369056 5.98907216,3.82990068 5.96850555,3.75000732 C5.85749861,3.31869452 5.46597135,3 5,3 C4.53402865,3 4.14253069,3.31869452 4.03149445,3.75000732 C4.01092784,3.82990068 4,3.91369056 4,4 C4,4.29877245 4.13119269,4.56675358 4.33890956,4.75000732 Z"
							id="Shape"
							fill="#FFFFFF"
							fill-rule="nonzero"
							mask="url(#mask-11)"
						/>
						<path
							d="M12.3731246,6.61904121 L11.3880511,5.85332496 L11.0597061,5.59809618 L10.6749887,5.29904809 C10.4185233,5.09966276 10.082367,5 9.74628761,5 C9.41016976,5 9.07401344,5.09966276 8.8175865,5.29904809 L8.43286913,5.59809618 L8.10448565,5.85332496 L7.11941217,6.61904121 L6.79106717,6.87426999 L5.8059937,7.63998624 L5.4776487,7.89521502 L4.49257522,8.66093127 L4.16419174,8.91618996 L4,9.04381931 L9.08955913,13 L15,13 L15,8.66096118 L13.6865815,7.64001615 L12.701508,6.8742999 L12.3731246,6.61904121 Z"
							id="Shape"
							fill="#717F8E"
							fill-rule="nonzero"
							mask="url(#mask-11)"
						/>
						<path
							d="M5.83332031,8.81636563 L5.66664063,8.71365921 L5,8.30285758 L4.33332031,7.89205596 L3.66667969,7.4812784 L3.27613281,7.24062717 C3.15648438,7.16690095 3.01964844,7.11033659 2.87363281,7.07047678 C2.70199219,7.02361261 2.51773438,7 2.33335938,7 C2.14898438,7 1.9646875,7.02363668 1.79308594,7.07047678 C1.64707031,7.11031252 1.51023438,7.16687688 1.39058594,7.24062717 L1,7.4812784 L0.333320313,7.89208003 L-0.333359375,8.30288165 L-1,8.71365921 L-1.66667969,9.12446083 L-3,9.94604001 L-3,12 L5.23808594,12 L11,12 L5.83332031,8.81636563 Z"
							id="Shape"
							fill="#919DA9"
							fill-rule="nonzero"
							mask="url(#mask-11)"
						/>
					</g>
					<g>
						<path
							fill="#919DA9"
							d="M74 58h40v3H74zM74 79h40v3H74zM74 86h25v3H74zM74 51h40v3H74zM74 44h40v3H74zM74 72h40v3H74zM74 65h40v3H74zM89 27h20v3H89z"
						/>
						<path fill="#D2D8DE" d="M89 32h15v3H89z" />
						<g transform="translate(74 25)">
							<rect
								fill="#D2D8DE"
								x="0"
								y="0"
								width="12"
								height="12"
								rx="6"
							/>
							<g mask="url(#mask-11)">
								<rect
									fill="#D8D8D8"
									x="12"
									y="0"
									width="20"
									height="10"
								/>
								<rect
									stroke="#979797"
									stroke-width="1"
									x="12.5"
									y="0.5"
									width="19"
									height="9"
								/>
							</g>
							<path
								d="M4.33890956,4.75000732 C4.51516128,4.90548736 4.74646237,5 5,5 C5.25353763,5 5.48480942,4.90545806 5.66109044,4.75000732 C5.86880731,4.56675358 6,4.29877245 6,4 C6,3.91369056 5.98907216,3.82990068 5.96850555,3.75000732 C5.85749861,3.31869452 5.46597135,3 5,3 C4.53402865,3 4.14253069,3.31869452 4.03149445,3.75000732 C4.01092784,3.82990068 4,3.91369056 4,4 C4,4.29877245 4.13119269,4.56675358 4.33890956,4.75000732 Z"
								id="Shape"
								fill="#FFFFFF"
								fill-rule="nonzero"
								mask="url(#mask-11)"
							/>
							<path
								d="M12.3731246,6.61904121 L11.3880511,5.85332496 L11.0597061,5.59809618 L10.6749887,5.29904809 C10.4185233,5.09966276 10.082367,5 9.74628761,5 C9.41016976,5 9.07401344,5.09966276 8.8175865,5.29904809 L8.43286913,5.59809618 L8.10448565,5.85332496 L7.11941217,6.61904121 L6.79106717,6.87426999 L5.8059937,7.63998624 L5.4776487,7.89521502 L4.49257522,8.66093127 L4.16419174,8.91618996 L4,9.04381931 L9.08955913,13 L15,13 L15,8.66096118 L13.6865815,7.64001615 L12.701508,6.8742999 L12.3731246,6.61904121 Z"
								id="Shape"
								fill="#717F8E"
								fill-rule="nonzero"
								mask="url(#mask-11)"
							/>
							<path
								d="M5.83332031,8.81636563 L5.66664063,8.71365921 L5,8.30285758 L4.33332031,7.89205596 L3.66667969,7.4812784 L3.27613281,7.24062717 C3.15648438,7.16690095 3.01964844,7.11033659 2.87363281,7.07047678 C2.70199219,7.02361261 2.51773438,7 2.33335938,7 C2.14898438,7 1.9646875,7.02363668 1.79308594,7.07047678 C1.64707031,7.11031252 1.51023438,7.16687688 1.39058594,7.24062717 L1,7.4812784 L0.333320313,7.89208003 L-0.333359375,8.30288165 L-1,8.71365921 L-1.66667969,9.12446083 L-3,9.94604001 L-3,12 L5.23808594,12 L11,12 L5.83332031,8.81636563 Z"
								id="Shape"
								fill="#919DA9"
								fill-rule="nonzero"
								mask="url(#mask-11)"
							/>
						</g>
					</g>
					<g>
						<path
							fill="#919DA9"
							d="M129 58h40v3h-40zM129 79h40v3h-40zM129 86h25v3h-25zM129 51h40v3h-40zM129 44h40v3h-40zM129 72h40v3h-40zM129 65h40v3h-40zM144 27h20v3h-20z"
						/>
						<path fill="#D2D8DE" d="M144 32h15v3h-15z" />
						<g transform="translate(129 25)">
							<rect
								fill="#D2D8DE"
								x="0"
								y="0"
								width="12"
								height="12"
								rx="6"
							/>
							<g mask="url(#mask-11)">
								<rect
									fill="#D8D8D8"
									x="12"
									y="0"
									width="20"
									height="10"
								/>
								<rect
									stroke="#979797"
									stroke-width="1"
									x="12.5"
									y="0.5"
									width="19"
									height="9"
								/>
							</g>
							<path
								d="M4.33890956,4.75000732 C4.51516128,4.90548736 4.74646237,5 5,5 C5.25353763,5 5.48480942,4.90545806 5.66109044,4.75000732 C5.86880731,4.56675358 6,4.29877245 6,4 C6,3.91369056 5.98907216,3.82990068 5.96850555,3.75000732 C5.85749861,3.31869452 5.46597135,3 5,3 C4.53402865,3 4.14253069,3.31869452 4.03149445,3.75000732 C4.01092784,3.82990068 4,3.91369056 4,4 C4,4.29877245 4.13119269,4.56675358 4.33890956,4.75000732 Z"
								id="Shape"
								fill="#FFFFFF"
								fill-rule="nonzero"
								mask="url(#mask-11)"
							/>
							<path
								d="M12.3731246,6.61904121 L11.3880511,5.85332496 L11.0597061,5.59809618 L10.6749887,5.29904809 C10.4185233,5.09966276 10.082367,5 9.74628761,5 C9.41016976,5 9.07401344,5.09966276 8.8175865,5.29904809 L8.43286913,5.59809618 L8.10448565,5.85332496 L7.11941217,6.61904121 L6.79106717,6.87426999 L5.8059937,7.63998624 L5.4776487,7.89521502 L4.49257522,8.66093127 L4.16419174,8.91618996 L4,9.04381931 L9.08955913,13 L15,13 L15,8.66096118 L13.6865815,7.64001615 L12.701508,6.8742999 L12.3731246,6.61904121 Z"
								id="Shape"
								fill="#717F8E"
								fill-rule="nonzero"
								mask="url(#mask-11)"
							/>
							<path
								d="M5.83332031,8.81636563 L5.66664063,8.71365921 L5,8.30285758 L4.33332031,7.89205596 L3.66667969,7.4812784 L3.27613281,7.24062717 C3.15648438,7.16690095 3.01964844,7.11033659 2.87363281,7.07047678 C2.70199219,7.02361261 2.51773438,7 2.33335938,7 C2.14898438,7 1.9646875,7.02363668 1.79308594,7.07047678 C1.64707031,7.11031252 1.51023438,7.16687688 1.39058594,7.24062717 L1,7.4812784 L0.333320313,7.89208003 L-0.333359375,8.30288165 L-1,8.71365921 L-1.66667969,9.12446083 L-3,9.94604001 L-3,12 L5.23808594,12 L11,12 L5.83332031,8.81636563 Z"
								id="Shape"
								fill="#919DA9"
								fill-rule="nonzero"
								mask="url(#mask-11)"
							/>
						</g>
					</g>
				</g>
			</svg>
