
			<svg width="188" height="118" view-box="0 0 188 118" xmlns="http://www.w3.org/2000/svg">
				<defs>
					<filter
						x="-3.9%"
						y="-4.5%"
						width="107.8%"
						height="112.7%"
						filter-units="objectBoundingBox"
						id="a"
					>
						<feOffset
							dy="2"
							in="SourceAlpha"
							result="shadowOffsetOuter1"
						/>
						<feGaussianBlur
							std-deviation="2"
							in="shadowOffsetOuter1"
							result="shadowBlurOuter1"
						/>
						<feColorMatrix
							values="0 0 0 0 0 0 0 0 0 0 0 0 0 0 0 0 0 0 0.135699728 0"
							in="shadowBlurOuter1"
						/>
					</filter>
				</defs>
				<g fill="none" fill-rule="evenodd">
					<g transform="translate(4 2)">
						<path
							d="M0 0h180v110H0z"
							fill="#000"
							filter="url(#a)"
						/>
						<path d="M0 0h180v110H0z" fill="#FFF" />
					</g>
					<g transform="translate(56 22)">
						<rect
							fill="#FFF"
							width="76"
							height="71"
							rx="1"
						/>
						<rect
							stroke="#D2D8DE"
							stroke-width="2"
							x="-1"
							y="-1"
							width="78"
							height="73"
							rx="1"
						/>
						<path fill="#717F8E" d="M4 9h13v2H4z" />
						<rect
							fill="#717F8E"
							x="24"
							y="3"
							width="49"
							height="14"
							rx="1"
						/>
						<path
							fill="#FFF"
							d="M0 23h76v46c0 1.105-.895 2-2 2H2c-1.105 0-2-.895-2-2V23z"
							id="d"
						/>
						<path
							stroke="#D2D8DE"
							stroke-width="2"
							d="M-1 22h78v47c0 1.657-1.343 3-3 3H2c-1.657 0-3-1.343-3-3V22z"
						/>
						<path
							fill="#F5F5F5"
							d="M0 62h76v7c0 1.105-.895 2-2 2H2c-1.105 0-2-.895-2-2v-7z"
							id="e"
						/>
						<path
							stroke="#D2D8DE"
							stroke-width="2"
							d="M-1 61h78v8c0 1.657-1.343 3-3 3H2c-1.657 0-3-1.343-3-3v-8z"
						/>
						<g>
							<path
								fill="#D2D8DE"
								d="M18 32h22v2H18zM2 42h70v2H2zM2 46h59v2H2zM2 50h70v2H2zM2 54h59v2H2z"
							/>
							<path
								fill="#919DA9"
								d="M18 28h32v2H18zM64 28h8v2h-8z"
							/>
						</g>
						<g fill="#FFF">
							<path d="M42.187 13.913v-2.68h2.73v-.957h-2.73V8.323h2.99v-.977H41v6.567h1.187zm5.718-5.176c1.56 0 2.33 1 2.33 2.44v.365c0 1.486-.77 2.458-2.33 2.458s-2.335-.962-2.335-2.458v-.36c0-1.4.775-2.445 2.335-2.445zm0 .895c-.903 0-1.172.765-1.172 1.587v.293c0 .818.264 1.583 1.172 1.583.902 0 1.157-.76 1.157-1.583v-.294c0-.828-.26-1.588-1.157-1.588zm3.295 4.28h1.157V7H51.2v6.913zm2.402 0h1.158V7h-1.158v6.913zm4.458-5.175c1.56 0 2.33 1 2.33 2.44v.365c0 1.486-.77 2.458-2.33 2.458s-2.335-.962-2.335-2.458v-.36c0-1.4.775-2.445 2.335-2.445zm0 .895c-.903 0-1.172.765-1.172 1.587v.293c0 .818.264 1.583 1.172 1.583.902 0 1.157-.76 1.157-1.583v-.294c0-.828-.26-1.588-1.157-1.588zm9.94-.81h-1.152l-.824 3.836h-.05l-1.05-3.835h-1.088l-1.02 3.835h-.05l-.803-3.835h-1.24l1.412 5.09h1.196l1.036-3.714h.034l1.055 3.713h1.187L68 8.823zM38 7.83c-.33.138-.69.236-1.062.275.382-.22.674-.564.81-.974-.353.204-.753.35-1.17.428C36.24 7.213 35.76 7 35.23 7c-1.022 0-1.844.793-1.844 1.766 0 .137.017.274.045.405-1.53-.075-2.894-.775-3.802-1.847-.16.262-.25.563-.25.89 0 .614.324 1.155.82 1.472-.3-.01-.587-.093-.833-.224v.023c0 .858.634 1.57 1.48 1.733-.155.04-.32.06-.486.06-.12 0-.235-.01-.35-.027.235.7.914 1.208 1.725 1.224-.633.476-1.427.755-2.29.755-.154 0-.297-.007-.445-.023.817.503 1.787.793 2.832.793 3.393 0 5.25-2.69 5.25-5.026 0-.076 0-.153-.007-.23.36-.25.674-.563.925-.913z" />
						</g>
						<g transform="translate(2 25)">
							<mask id="g" fill="#fff">
								<path id="f" d="M0 0h13v13H0z" />
							</mask>
							<path
								fill="#D2D8DE"
								id="f"
								d="M0 0h13v13H0z"
							/>
							<path
								d="M4.508 6.625c.265.233.612.375.992.375s.727-.142.992-.375C6.802 6.35 7 5.948 7 5.5c0-.13-.016-.255-.047-.375C6.786 4.478 6.2 4 5.5 4c-.7 0-1.286.478-1.453 1.125-.03.12-.047.246-.047.375 0 .448.197.85.508 1.125z"
								fill="#FFF"
								fill-rule="nonzero"
								mask="url(#g)"
							/>
						</g>
					</g>
				</g>
			</svg>
