
			<svg width="188" height="118" view-box="0 0 188 118" xmlns="http://www.w3.org/2000/svg">
				<defs>
					<filter
						x="-3.9%"
						y="-4.5%"
						width="107.8%"
						height="112.7%"
						filter-units="objectBoundingBox"
						id="a"
					>
						<feOffset
							dy="2"
							in="SourceAlpha"
							result="shadowOffsetOuter1"
						/>
						<feGaussianBlur
							std-deviation="2"
							in="shadowOffsetOuter1"
							result="shadowBlurOuter1"
						/>
						<feColorMatrix
							values="0 0 0 0 0 0 0 0 0 0 0 0 0 0 0 0 0 0 0.135699728 0"
							in="shadowBlurOuter1"
						/>
					</filter>
				</defs>
				<g fill="none" fill-rule="evenodd">
					<g transform="translate(4 2)">
						<path
							fill="#000"
							filter="url(#a)"
							d="M0 0h180v110H0z"
						/>
						<path fill="#FFF" d="M0 0h180v110H0z" />
					</g>
					<g transform="translate(88 40)">
						<mask id="d" fill="#fff">
							<path
								id="c"
								d="M23.996.165H47.92V34H.073V.165z"
							/>
						</mask>
						<path
							d="M47.442 7.464S46.975 4.15 45.54 2.69C43.72.773 41.68.763 40.746.65 34.05.165 24.006.165 24.006.165h-.02s-10.044 0-16.74.487C6.312.764 4.273.774 2.453 2.69 1.017 4.15.552 7.463.552 7.463S.07 11.357.07 15.25v3.65c0 3.893.48 7.785.48 7.785S1.016 30 2.45 31.46c1.82 1.917 4.21 1.856 5.276 2.057 3.828.37 16.268.483 16.268.483s10.055-.015 16.75-.5c.935-.114 2.975-.123 4.794-2.04 1.435-1.46 1.902-4.775 1.902-4.775s.48-3.892.48-7.785v-3.65c0-3.893-.48-7.786-.48-7.786"
							fill="#717F8E"
							mask="url(#d)"
						/>
					</g>
					<path
						d="M85 66.763h-3.227v-1.825C80.55 66.308 79.513 67 78.383 67c-.992 0-1.68-.457-2.025-1.283-.21-.503-.358-1.287-.358-2.44V50h3.226v13.61c.075.465.278.636.688.636.618 0 1.176-.524 1.86-1.466V50H85v16.763zM70.833 61.786c.167 1.643-.35 2.458-1.334 2.458-.984 0-1.5-.815-1.333-2.458v-6.572C68 53.57 68.517 52.8 69.5 52.8s1.5.77 1.335 2.414l-.002 6.572zM74 55.543c0-1.773-.362-3.105-1-3.943-.844-1.135-2.167-1.6-3.5-1.6-1.51 0-2.658.465-3.5 1.6-.65.838-.997 2.184-.997 3.957l-.003 5.9c0 1.764.31 2.982.958 3.812C66.8 66.4 68.168 67 69.5 67c1.333 0 2.723-.6 3.567-1.73.638-.83.933-2.05.933-3.812v-5.915zM61.715 58.037V67h-3.43v-8.963S54.733 47.047 54 45h3.6l2.406 8.584L62.4 45H66l-4.285 13.037z"
						fill="#919DA9"
					/>
					<path
						d="M126.107 54.7c0-1.546.42-1.968 1.408-1.968.98 0 1.372.46 1.372 1.99v1.805l-2.78.003V54.7zM132 59.01v-3.383c0-1.767-.344-3.06-.964-3.897-.83-1.13-2.008-1.73-3.493-1.73-1.512 0-2.69.6-3.547 1.73-.63.837-.996 2.203-.996 3.97v5.792c0 1.757.403 2.987 1.032 3.814.856 1.13 2.035 1.694 3.584 1.694 1.547 0 2.762-.592 3.58-1.793.36-.53.593-1.13.693-1.794.026-.3.104-.984.104-1.95v-.468h-3.107c0 1.202.006 1.917-.022 2.08-.17.8-.594 1.202-1.322 1.202-1.017 0-1.446-.77-1.436-2.296v-2.97H132zM118.833 62.074c0 1.627-.393 2.25-1.263 2.25-.497 0-1.07-.25-1.574-.742L116 53.72c.504-.486 1.073-.74 1.57-.74.87 0 1.263.476 1.263 2.102v6.992zm.35-11.806c-1.11 0-2.212.666-3.187 1.837L116 45h-3v21.79h3l.004-1.637c1.008 1.217 2.108 1.847 3.18 1.847 1.202 0 2.08-.628 2.483-1.836.2-.69.333-1.75.333-3.252v-6.504c0-1.54-.202-2.592-.404-3.246-.402-1.216-1.21-1.894-2.412-1.894zM110 66.775h-3.226V65.04c-1.223 1.302-2.26 1.96-3.39 1.96-.992 0-1.68-.434-2.026-1.22-.21-.477-.358-1.223-.358-2.318V51h3.227v12.778c.075.442.277.604.688.604.617 0 1.176-.498 1.86-1.393V51H110v15.775z"
						fill="#FEFEFE"
					/>
					<path
						fill="#FEFEFE"
						d="M98.508 67h-3.175V48.978H92v-2.974L102 46v2.978h-3.492"
					/>
				</g>
			</svg>
