
			<svg width="188" height="118" view-box="0 0 188 118" xmlns="http://www.w3.org/2000/svg">
				<defs>
					<filter
						x="-3.9%"
						y="-4.5%"
						width="107.8%"
						height="112.7%"
						filter-units="objectBoundingBox"
						id="a"
					>
						<feOffset
							dy="2"
							in="SourceAlpha"
							result="shadowOffsetOuter1"
						/>
						<feGaussianBlur
							std-deviation="2"
							in="shadowOffsetOuter1"
							result="shadowBlurOuter1"
						/>
						<feColorMatrix
							values="0 0 0 0 0 0 0 0 0 0 0 0 0 0 0 0 0 0 0.135699728 0"
							in="shadowBlurOuter1"
						/>
					</filter>
				</defs>
				<g fill="none" fill-rule="evenodd">
					<g transform="translate(4 2)">
						<path
							fill="#000"
							filter="url(#a)"
							d="M0 0h180v110H0z"
						/>
						<path fill="#FFF" d="M0 0h180v110H0z" />
					</g>
					<path fill="#D2D8DE" d="M25 50h31v40H25z" />
					<path
						stroke="#919DA9"
						d="M25 46v-3h30v3M61 46v-3h30v3M97 46v-3h30v3M133 46v-3h30v3"
					/>
					<path
						fill="#D2D8DE"
						d="M61 50h31v40H61zM97 50h31v40H97zM133 50h30v40h-30z"
					/>
					<path
						d="M35.02 36v-7.998h-1.642c-.31.164-1.63 1.02-1.928 1.236v1.56c.276-.194 1.617-1.073 1.828-1.19h.065V36h1.676zm3.32 1.693l2.688-10.113h-1.476l-2.696 10.113h1.483zm7.016-9.69h2.42v5.196h.96v1.353h-.96V36h-1.588v-1.447H42.32v-1.36c.92-1.746 2.01-3.48 3.036-5.19zm-1.523 5.196h2.355v-3.944h-.064c-.78 1.248-1.594 2.59-2.29 3.926v.017zM71.02 36v-7.998h-1.642c-.31.164-1.63 1.02-1.928 1.236v1.56c.276-.194 1.617-1.073 1.828-1.19h.065V36h1.676zm3.32 1.693l2.688-10.113h-1.476l-2.696 10.113h1.483zm7.016-9.69h2.42v5.196h.96v1.353h-.96V36h-1.588v-1.447H78.32v-1.36c.92-1.746 2.01-3.48 3.036-5.19zm-1.523 5.196h2.355v-3.944h-.064c-.78 1.248-1.594 2.59-2.29 3.926v.017zM107.02 36v-7.998h-1.642c-.31.164-1.63 1.02-1.928 1.236v1.56c.276-.194 1.617-1.073 1.828-1.19h.065V36h1.676zm3.32 1.693l2.688-10.113h-1.476l-2.696 10.113h1.483zm7.016-9.69h2.42v5.196h.96v1.353h-.96V36h-1.588v-1.447h-3.867v-1.36c.92-1.746 2.01-3.48 3.036-5.19zm-1.523 5.196h2.355v-3.944h-.064c-.78 1.248-1.594 2.59-2.29 3.926v.017zM143.02 36v-7.998h-1.642c-.31.164-1.63 1.02-1.928 1.236v1.56c.276-.194 1.617-1.073 1.828-1.19h.065V36h1.676zm3.32 1.693l2.688-10.113h-1.476l-2.696 10.113h1.483zm7.016-9.69h2.42v5.196h.96v1.353h-.96V36h-1.588v-1.447h-3.867v-1.36c.92-1.746 2.01-3.48 3.036-5.19zm-1.523 5.196h2.355v-3.944h-.064c-.78 1.248-1.594 2.59-2.29 3.926v.017z"
						fill="#717F8E"
					/>
				</g>
			</svg>
