
			<svg width="188" height="118" view-box="0 0 188 118" xmlns="http://www.w3.org/2000/svg">
				<defs>
					<filter
						x="-3.9%"
						y="-4.5%"
						width="107.8%"
						height="112.7%"
						filter-units="objectBoundingBox"
						id="a"
					>
						<feOffset
							dy="2"
							in="SourceAlpha"
							result="shadowOffsetOuter1"
						/>
						<feGaussianBlur
							std-deviation="2"
							in="shadowOffsetOuter1"
							result="shadowBlurOuter1"
						/>
						<feColorMatrix
							values="0 0 0 0 0 0 0 0 0 0 0 0 0 0 0 0 0 0 0.135699728 0"
							in="shadowBlurOuter1"
						/>
					</filter>
				</defs>
				<g fill="none" fill-rule="evenodd">
					<g transform="translate(4 2)">
						<path
							fill="#000"
							filter="url(#a)"
							d="M0 0h180v110H0z"
						/>
						<path fill="#FFF" d="M0 0h180v110H0z" />
					</g>
					<path
						d="M67.004 62v-9.356h1.936v3.567h3.656v-3.566h1.943V62h-1.944v-4.177H68.94V62h-1.936zm20.32-7.7h-4.95v1.987h4.543v1.625h-4.544v2.406h5.18V62h-7.09v-9.356h6.86V54.3zm8.31 4.164h2.374l-1.168-3.68-1.206 3.68zm.12-5.82h2.21L101.276 62h-2.12l-.603-1.923h-3.447L94.46 62h-2.044l3.338-9.356zm12.608 1.625v6.105h1.803c.922 0 1.565-.455 1.93-1.365.198-.5.298-1.094.298-1.783 0-.953-.15-1.684-.448-2.194-.298-.51-.892-.764-1.78-.764h-1.803zm3.58-1.423c.656.216 1.187.61 1.593 1.187.326.465.548.97.667 1.51.118.542.177 1.058.177 1.55 0 1.243-.25 2.297-.75 3.16-.677 1.164-1.722 1.746-3.135 1.746h-4.03v-9.356h4.03c.58.008 1.062.076 1.447.203zm9.7 9.153H119.7v-9.356h1.942V62zm5.79-9.356h2.05l3.726 6.53v-6.53h1.822V62h-1.955l-3.82-6.646V62h-1.823v-9.356zm19.71 2.92c-.148-.64-.51-1.086-1.085-1.34-.32-.14-.68-.21-1.073-.21-.753 0-1.372.285-1.856.854-.485.57-.727 1.425-.727 2.568 0 1.15.263 1.966.788 2.444s1.12.717 1.79.717c.656 0 1.193-.19 1.612-.568.42-.38.677-.876.775-1.49H145.2v-1.56h3.898V62h-1.295l-.197-1.168c-.377.444-.715.758-1.016.94-.516.317-1.15.476-1.904.476-1.24 0-2.255-.43-3.047-1.29-.826-.862-1.24-2.043-1.24-3.54 0-1.516.418-2.73 1.252-3.645.834-.914 1.936-1.37 3.307-1.37 1.188 0 2.143.3 2.865.904.72.603 1.135 1.355 1.24 2.256h-1.922z"
						fill="#717F8E"
					/>
					<path
						fill="#D2D8DE"
						d="M50.5 59.145l-4.017 2.09.767-4.426L44 53.672l4.49-.645L50.5 49l2.01 4.028 4.49.645-3.25 3.136.767 4.425"
					/>
				</g>
			</svg>
