
			<svg width="188" height="118" view-box="0 0 188 118" xmlns="http://www.w3.org/2000/svg">
				<defs>
					<filter
						x="-3.9%"
						y="-4.5%"
						width="107.8%"
						height="112.7%"
						filter-units="objectBoundingBox"
						id="a"
					>
						<feOffset
							dy="2"
							in="SourceAlpha"
							result="shadowOffsetOuter1"
						/>
						<feGaussianBlur
							std-deviation="2"
							in="shadowOffsetOuter1"
							result="shadowBlurOuter1"
						/>
						<feColorMatrix
							values="0 0 0 0 0 0 0 0 0 0 0 0 0 0 0 0 0 0 0.135699728 0"
							in="shadowBlurOuter1"
						/>
					</filter>
					<rect id="c" width="36" height="35" rx="17.5" />
					<rect id="e" width="36" height="35" rx="17.5" />
					<rect id="g" width="36" height="35" rx="17.5" />
				</defs>
				<g fill="none" fill-rule="evenodd">
					<g transform="translate(4 2)">
						<path
							d="M0 0h180v110H0z"
							fill="#000"
							filter="url(#a)"
						/>
						<path d="M0 0h180v110H0z" fill="#FFF" />
					</g>
					<path
						fill="#D2D8DE"
						d="M24 75h40v2H24zM29 72h30v2H29zM29 78h30v2H29z"
					/>
					<path fill="#919DA9" d="M33 65h23v3H33z" />
					<g transform="translate(26 25)">
						<mask id="b" fill="#fff">
							<rect width="36" height="35" rx="17.5" />
						</mask>
						<rect
							fill="#D2D8DE"
							width="36"
							height="35"
							rx="17.5"
						/>
						<path
							d="M12.847 20.375c.44.39 1.02.625 1.653.625.634 0 1.212-.236 1.653-.625.52-.458.847-1.128.847-1.875 0-.216-.027-.425-.08-.625C16.645 16.797 15.666 16 14.5 16s-2.144.797-2.42 1.875c-.053.2-.08.41-.08.625 0 .747.328 1.417.847 1.875z"
							fill="#FFF"
							fill-rule="nonzero"
							mask="url(#b)"
						/>
						<path
							d="M34.313 23.833l-2.507-1.34-.836-.446-.98-.524c-.652-.35-1.508-.523-2.363-.523-.856 0-1.71.174-2.364.523l-.98.524-.835.446-2.508 1.34-.835.447-2.508 1.34-.836.447-2.506 1.34-.836.446-.418.224L25.955 35H41v-7.593l-3.343-1.787-2.508-1.34-.837-.447z"
							fill="#717F8E"
							fill-rule="nonzero"
							mask="url(#b)"
						/>
						<path
							d="M15.758 28.333l-.423-.228-1.692-.913-1.692-.913-1.692-.914-.99-.534c-.305-.164-.652-.29-1.023-.378-.436-.105-.903-.157-1.37-.157-.47 0-.937.052-1.373.157-.37.088-.718.214-1.022.378l-.99.534-1.693.913-1.693.912-1.692.913-1.692.912-3.385 1.826v4.564h35.539l-13.116-7.074z"
							fill="#919DA9"
							fill-rule="nonzero"
							mask="url(#b)"
						/>
					</g>
					<g>
						<path
							fill="#D2D8DE"
							d="M74 75h40v2H74zM79 72h30v2H79zM79 78h30v2H79z"
						/>
						<path fill="#919DA9" d="M83 65h23v3H83z" />
						<g transform="translate(76 25)">
							<mask id="b" fill="#fff">
								<rect
									width="36"
									height="35"
									rx="17.5"
								/>
							</mask>
							<rect
								fill="#D2D8DE"
								width="36"
								height="35"
								rx="17.5"
							/>
							<path
								d="M12.847 20.375c.44.39 1.02.625 1.653.625.634 0 1.212-.236 1.653-.625.52-.458.847-1.128.847-1.875 0-.216-.027-.425-.08-.625C16.645 16.797 15.666 16 14.5 16s-2.144.797-2.42 1.875c-.053.2-.08.41-.08.625 0 .747.328 1.417.847 1.875z"
								fill="#FFF"
								fill-rule="nonzero"
								mask="url(#b)"
							/>
							<path
								d="M34.313 23.833l-2.507-1.34-.836-.446-.98-.524c-.652-.35-1.508-.523-2.363-.523-.856 0-1.71.174-2.364.523l-.98.524-.835.446-2.508 1.34-.835.447-2.508 1.34-.836.447-2.506 1.34-.836.446-.418.224L25.955 35H41v-7.593l-3.343-1.787-2.508-1.34-.837-.447z"
								fill="#717F8E"
								fill-rule="nonzero"
								mask="url(#b)"
							/>
							<path
								d="M15.758 28.333l-.423-.228-1.692-.913-1.692-.913-1.692-.914-.99-.534c-.305-.164-.652-.29-1.023-.378-.436-.105-.903-.157-1.37-.157-.47 0-.937.052-1.373.157-.37.088-.718.214-1.022.378l-.99.534-1.693.913-1.693.912-1.692.913-1.692.912-3.385 1.826v4.564h35.539l-13.116-7.074z"
								fill="#919DA9"
								fill-rule="nonzero"
								mask="url(#b)"
							/>
						</g>
					</g>
					<g>
						<path
							fill="#D2D8DE"
							d="M124 75h40v2h-40zM129 72h30v2h-30zM129 78h30v2h-30z"
						/>
						<path fill="#919DA9" d="M133 65h23v3h-23z" />
						<g transform="translate(126 25)">
							<mask id="b" fill="#fff">
								<rect
									width="36"
									height="35"
									rx="17.5"
								/>
							</mask>
							<rect
								fill="#D2D8DE"
								width="36"
								height="35"
								rx="17.5"
							/>
							<path
								d="M12.847 20.375c.44.39 1.02.625 1.653.625.634 0 1.212-.236 1.653-.625.52-.458.847-1.128.847-1.875 0-.216-.027-.425-.08-.625C16.645 16.797 15.666 16 14.5 16s-2.144.797-2.42 1.875c-.053.2-.08.41-.08.625 0 .747.328 1.417.847 1.875z"
								fill="#FFF"
								fill-rule="nonzero"
								mask="url(#b)"
							/>
							<path
								d="M34.313 23.833l-2.507-1.34-.836-.446-.98-.524c-.652-.35-1.508-.523-2.363-.523-.856 0-1.71.174-2.364.523l-.98.524-.835.446-2.508 1.34-.835.447-2.508 1.34-.836.447-2.506 1.34-.836.446-.418.224L25.955 35H41v-7.593l-3.343-1.787-2.508-1.34-.837-.447z"
								fill="#717F8E"
								fill-rule="nonzero"
								mask="url(#b)"
							/>
							<path
								d="M15.758 28.333l-.423-.228-1.692-.913-1.692-.913-1.692-.914-.99-.534c-.305-.164-.652-.29-1.023-.378-.436-.105-.903-.157-1.37-.157-.47 0-.937.052-1.373.157-.37.088-.718.214-1.022.378l-.99.534-1.693.913-1.693.912-1.692.913-1.692.912-3.385 1.826v4.564h35.539l-13.116-7.074z"
								fill="#919DA9"
								fill-rule="nonzero"
								mask="url(#b)"
							/>
						</g>
					</g>
				</g>
			</svg>
