<svg width="188px" height="118px" viewBox="0 0 188 118" version="1.1" xmlns="http://www.w3.org/2000/svg" xmlns:xlink="http://www.w3.org/1999/xlink">
    <defs>
        <rect id="path-1" x="0" y="0" width="180" height="110"></rect>
        <filter x="-3.9%" y="-4.5%" width="107.8%" height="112.7%" filterUnits="objectBoundingBox" id="filter-2">
            <feOffset dx="0" dy="2" in="SourceAlpha" result="shadowOffsetOuter1"></feOffset>
            <feGaussianBlur stdDeviation="2" in="shadowOffsetOuter1" result="shadowBlurOuter1"></feGaussianBlur>
            <feColorMatrix values="0 0 0 0 0   0 0 0 0 0   0 0 0 0 0  0 0 0 0.135699728 0" type="matrix" in="shadowBlurOuter1"></feColorMatrix>
        </filter>
        <filter x="-75.0%" y="-28.6%" width="250.0%" height="185.7%" filterUnits="objectBoundingBox" id="filter-3">
            <feOffset dx="0" dy="1" in="SourceAlpha" result="shadowOffsetOuter1"></feOffset>
            <feGaussianBlur stdDeviation="0.5" in="shadowOffsetOuter1" result="shadowBlurOuter1"></feGaussianBlur>
            <feColorMatrix values="0 0 0 0 0   0 0 0 0 0   0 0 0 0 0  0 0 0 0.220137002 0" type="matrix" in="shadowBlurOuter1" result="shadowMatrixOuter1"></feColorMatrix>
            <feMerge>
                <feMergeNode in="shadowMatrixOuter1"></feMergeNode>
                <feMergeNode in="SourceGraphic"></feMergeNode>
            </feMerge>
        </filter>
        <filter x="-75.0%" y="-28.6%" width="250.0%" height="185.7%" filterUnits="objectBoundingBox" id="filter-4">
            <feOffset dx="0" dy="1" in="SourceAlpha" result="shadowOffsetOuter1"></feOffset>
            <feGaussianBlur stdDeviation="0.5" in="shadowOffsetOuter1" result="shadowBlurOuter1"></feGaussianBlur>
            <feColorMatrix values="0 0 0 0 0   0 0 0 0 0   0 0 0 0 0  0 0 0 0.220137002 0" type="matrix" in="shadowBlurOuter1" result="shadowMatrixOuter1"></feColorMatrix>
            <feMerge>
                <feMergeNode in="shadowMatrixOuter1"></feMergeNode>
                <feMergeNode in="SourceGraphic"></feMergeNode>
            </feMerge>
        </filter>
    </defs>
    <g id="Page-1" stroke="none" stroke-width="1" fill="none" fill-rule="evenodd">
        <g id="5" transform="translate(-696.000000, -909.000000)">
            <g id="Slider" transform="translate(510.000000, 874.000000)">
                <g id="Slider-3" transform="translate(190.000000, 37.000000)">
                    <g id="Rectangle-2-Copy-2">
                        <use fill="black" fill-opacity="1" filter="url(#filter-2)" xlink:href="#path-1"></use>
                        <use fill="#FFFFFF" fill-rule="evenodd" xlink:href="#path-1"></use>
                    </g>
                    <g id="Img" transform="translate(20.000000, 32.000000)">
                        <g id="3" transform="translate(95.000000, 0.000000)">
                            <rect id="Rectangle-3" fill="#D2D8DE" x="0" y="0" width="45" height="40"></rect>
                            <path d="M16.6945478,15.7500366 C17.5758064,16.5274368 18.7323118,17 20,17 C21.2676882,17 22.4240471,16.5272903 23.3054522,15.7500366 C24.3440366,14.8337679 25,13.4938622 25,12 C25,11.5684528 24.9453608,11.1495034 24.8425278,10.7500366 C24.287493,8.59347259 22.3298567,7 20,7 C17.6701433,7 15.7126534,8.59347259 15.1574722,10.7500366 C15.0546392,11.1495034 15,11.5684528 15,12 C15,13.4938622 15.6559634,14.8337679 16.6945478,15.7500366 Z" id="Shape" fill="#FFFFFF" fill-rule="nonzero"></path>
                            <path d="M39.0147142,23.5989173 L36.770243,21.6307843 L36.0221151,20.9747656 L35.1455439,20.2061174 C34.5611923,19.6936341 33.7952665,19.4374692 33.0295161,19.4374692 C32.2636779,19.4374692 31.4977521,19.6936341 30.9134882,20.2061174 L30.036917,20.9747656 L29.2887015,21.6307843 L27.0442303,23.5989173 L26.2961024,24.254936 L24.0516312,26.223069 L23.3035034,26.8790877 L21.0590321,28.8472207 L20.3108166,29.5033163 L19.9367089,29.8313641 L31.5331727,40 L45,40 L45,28.8472976 L42.0074009,26.2231459 L39.7629297,24.2550129 L39.0147142,23.5989173 Z" id="Shape" fill="#717F8E" fill-rule="nonzero"></path>
                            <path d="M20.4859553,29.704873 L20.0993971,29.3727445 L18.5533454,28.0443083 L17.0072031,26.7158722 L15.4611514,25.3875139 L14.5554075,24.6093042 C14.2779226,24.3708909 13.9605771,24.1879751 13.6219423,24.0590778 C13.2238788,23.90753 12.796554,23.8311724 12.3689573,23.8311724 C11.9413607,23.8311724 11.5139452,23.9076079 11.1159724,24.0590778 C10.7773376,24.1878972 10.459992,24.3708131 10.1825072,24.6093042 L9.27667269,25.3875139 L7.73053038,26.71595 L6.18438807,28.0443862 L4.63833635,29.3727445 L3.09219403,30.7011806 L0,33.357975 L0,40 L19.1055067,40 L32.4683544,40 L20.4859553,29.704873 Z" id="Shape" fill="#919DA9" fill-rule="nonzero"></path>
                        </g>
                        <g id="2" transform="translate(47.500000, 0.000000)">
                            <rect id="Rectangle-3" fill="#D2D8DE" x="0" y="0" width="45" height="40"></rect>
                            <path d="M16.1945478,15.7500366 C17.0758064,16.5274368 18.2323118,17 19.5,17 C20.7676882,17 21.9240471,16.5272903 22.8054522,15.7500366 C23.8440366,14.8337679 24.5,13.4938622 24.5,12 C24.5,11.5684528 24.4453608,11.1495034 24.3425278,10.7500366 C23.787493,8.59347259 21.8298567,7 19.5,7 C17.1701433,7 15.2126534,8.59347259 14.6574722,10.7500366 C14.5546392,11.1495034 14.5,11.5684528 14.5,12 C14.5,13.4938622 15.1559634,14.8337679 16.1945478,15.7500366 Z" id="Shape" fill="#FFFFFF" fill-rule="nonzero"></path>
                            <path d="M39.0147142,23.5989173 L36.770243,21.6307843 L36.0221151,20.9747656 L35.1455439,20.2061174 C34.5611923,19.6936341 33.7952665,19.4374692 33.0295161,19.4374692 C32.2636779,19.4374692 31.4977521,19.6936341 30.9134882,20.2061174 L30.036917,20.9747656 L29.2887015,21.6307843 L27.0442303,23.5989173 L26.2961024,24.254936 L24.0516312,26.223069 L23.3035034,26.8790877 L21.0590321,28.8472207 L20.3108166,29.5033163 L19.9367089,29.8313641 L31.5331727,40 L45,40 L45,28.8472976 L42.0074009,26.2231459 L39.7629297,24.2550129 L39.0147142,23.5989173 Z" id="Shape" fill="#717F8E" fill-rule="nonzero"></path>
                            <path d="M20.4859553,29.704873 L20.0993971,29.3727445 L18.5533454,28.0443083 L17.0072031,26.7158722 L15.4611514,25.3875139 L14.5554075,24.6093042 C14.2779226,24.3708909 13.9605771,24.1879751 13.6219423,24.0590778 C13.2238788,23.90753 12.796554,23.8311724 12.3689573,23.8311724 C11.9413607,23.8311724 11.5139452,23.9076079 11.1159724,24.0590778 C10.7773376,24.1878972 10.459992,24.3708131 10.1825072,24.6093042 L9.27667269,25.3875139 L7.73053038,26.71595 L6.18438807,28.0443862 L4.63833635,29.3727445 L3.09219403,30.7011806 L0,33.357975 L0,40 L19.1055067,40 L32.4683544,40 L20.4859553,29.704873 Z" id="Shape" fill="#919DA9" fill-rule="nonzero"></path>
                        </g>
                        <g id="1">
                            <rect id="Rectangle-3" fill="#D2D8DE" x="0" y="0" width="45" height="40"></rect>
                            <path d="M15.6945478,15.7500366 C16.5758064,16.5274368 17.7323118,17 19,17 C20.2676882,17 21.4240471,16.5272903 22.3054522,15.7500366 C23.3440366,14.8337679 24,13.4938622 24,12 C24,11.5684528 23.9453608,11.1495034 23.8425278,10.7500366 C23.287493,8.59347259 21.3298567,7 19,7 C16.6701433,7 14.7126534,8.59347259 14.1574722,10.7500366 C14.0546392,11.1495034 14,11.5684528 14,12 C14,13.4938622 14.6559634,14.8337679 15.6945478,15.7500366 Z" id="Shape" fill="#FFFFFF" fill-rule="nonzero"></path>
                            <path d="M39.0147142,23.5989173 L36.770243,21.6307843 L36.0221151,20.9747656 L35.1455439,20.2061174 C34.5611923,19.6936341 33.7952665,19.4374692 33.0295161,19.4374692 C32.2636779,19.4374692 31.4977521,19.6936341 30.9134882,20.2061174 L30.036917,20.9747656 L29.2887015,21.6307843 L27.0442303,23.5989173 L26.2961024,24.254936 L24.0516312,26.223069 L23.3035034,26.8790877 L21.0590321,28.8472207 L20.3108166,29.5033163 L19.9367089,29.8313641 L31.5331727,40 L45,40 L45,28.8472976 L42.0074009,26.2231459 L39.7629297,24.2550129 L39.0147142,23.5989173 Z" id="Shape" fill="#717F8E" fill-rule="nonzero"></path>
                            <path d="M20.4859553,29.704873 L20.0993971,29.3727445 L18.5533454,28.0443083 L17.0072031,26.7158722 L15.4611514,25.3875139 L14.5554075,24.6093042 C14.2779226,24.3708909 13.9605771,24.1879751 13.6219423,24.0590778 C13.2238788,23.90753 12.796554,23.8311724 12.3689573,23.8311724 C11.9413607,23.8311724 11.5139452,23.9076079 11.1159724,24.0590778 C10.7773376,24.1878972 10.459992,24.3708131 10.1825072,24.6093042 L9.27667269,25.3875139 L7.73053038,26.71595 L6.18438807,28.0443862 L4.63833635,29.3727445 L3.09219403,30.7011806 L0,33.357975 L0,40 L19.1055067,40 L32.4683544,40 L20.4859553,29.704873 Z" id="Shape" fill="#919DA9" fill-rule="nonzero"></path>
                        </g>
                    </g>
                    <g id="Nav" transform="translate(25.000000, 49.000000)">
                        <g id="Dot" transform="translate(60.000000, 29.000000)" fill="#919DA9">
                            <circle id="Oval-3" cx="1" cy="1" r="1"></circle>
                            <circle id="Oval-3-Copy" cx="5" cy="1" r="1"></circle>
                            <circle id="Oval-3-Copy-2" cx="9" cy="1" r="1"></circle>
                        </g>
                        <g id="Arrow-left" filter="url(#filter-3)" stroke="#FFFFFF" stroke-linecap="square">
                            <path d="M0.5,3.5 L3.04950976,0.950490243" id="Line"></path>
                            <path d="M0.5,6.5 L3.04950976,3.95049024" id="Line-Copy" transform="translate(2.000000, 5.000000) scale(1, -1) translate(-2.000000, -5.000000) "></path>
                        </g>
                        <g id="Arrow-right" filter="url(#filter-4)" transform="translate(128.000000, 3.500000) scale(-1, 1) translate(-128.000000, -3.500000) translate(126.000000, 0.000000)" stroke="#FFFFFF" stroke-linecap="square">
                            <path d="M0.5,3.5 L3.04950976,0.950490243" id="Line"></path>
                            <path d="M0.5,6.5 L3.04950976,3.95049024" id="Line-Copy" transform="translate(2.000000, 5.000000) scale(1, -1) translate(-2.000000, -5.000000) "></path>
                        </g>
                    </g>
                </g>
            </g>
        </g>
    </g>
</svg>