
			<svg
				width="188"
				height="118"
				view-box="0 0 188 118"
			 xmlns="http://www.w3.org/2000/svg">
				<defs>
					<filter
						x="-3.9%"
						y="-4.5%"
						width="107.8%"
						height="112.7%"
						filter-units="objectBoundingBox"
						id="a"
					>
						<feOffset
							dy="2"
							in="SourceAlpha"
							result="shadowOffsetOuter1"
						/>
						<feGaussianBlur
							std-deviation="2"
							in="shadowOffsetOuter1"
							result="shadowBlurOuter1"
						/>
						<feColorMatrix
							values="0 0 0 0 0 0 0 0 0 0 0 0 0 0 0 0 0 0 0.135699728 0"
							in="shadowBlurOuter1"
						/>
					</filter>
				</defs>
				<g fill="none" fill-rule="evenodd">
					<path
						fill="#000"
						filter="url(#a)"
						d="M0 0h180v110H0z"
						transform="translate(4 2)"
					/>
					<path fill="#FFF" d="M4 2h180v110H4z" />
					<g transform="translate(19 24) scale(.8)">
						<mask id="b" fill="#fff">
							<rect width="36" height="35" rx="17.5" />
						</mask>
						<rect
							fill="#D2D8DE"
							width="36"
							height="35"
							rx="17.5"
						/>
						<path
							d="M12.847 20.375c.44.39 1.02.625 1.653.625.634 0 1.212-.236 1.653-.625.52-.458.847-1.128.847-1.875 0-.216-.027-.425-.08-.625C16.645 16.797 15.666 16 14.5 16s-2.144.797-2.42 1.875c-.053.2-.08.41-.08.625 0 .747.328 1.417.847 1.875z"
							fill="#FFF"
							fill-rule="nonzero"
							mask="url(#b)"
						/>
						<path
							d="M34.313 23.833l-2.507-1.34-.836-.446-.98-.524c-.652-.35-1.508-.523-2.363-.523-.856 0-1.71.174-2.364.523l-.98.524-.835.446-2.508 1.34-.835.447-2.508 1.34-.836.447-2.506 1.34-.836.446-.418.224L25.955 35H41v-7.593l-3.343-1.787-2.508-1.34-.837-.447z"
							fill="#717F8E"
							fill-rule="nonzero"
							mask="url(#b)"
						/>
						<path
							d="M15.758 28.333l-.423-.228-1.692-.913-1.692-.913-1.692-.914-.99-.534c-.305-.164-.652-.29-1.023-.378-.436-.105-.903-.157-1.37-.157-.47 0-.937.052-1.373.157-.37.088-.718.214-1.022.378l-.99.534-1.693.913-1.693.912-1.692.913-1.692.912-3.385 1.826v4.564h35.539l-13.116-7.074z"
							fill="#919DA9"
							fill-rule="nonzero"
							mask="url(#b)"
						/>
					</g>
					<path
						fill="#D2D8DE"
						d="M51 40h38v2H51zM51 37h38v2H51zM51 43h38v2H51z"
					/>
					<path fill="#919DA9" d="M51 32h19v2H51z" />
					<g>
						<g transform="translate(19 62) scale(.8)">
							<mask id="b" fill="#fff">
								<rect
									width="36"
									height="35"
									rx="17.5"
								/>
							</mask>
							<rect
								fill="#D2D8DE"
								width="36"
								height="35"
								rx="17.5"
							/>
							<path
								d="M12.847 20.375c.44.39 1.02.625 1.653.625.634 0 1.212-.236 1.653-.625.52-.458.847-1.128.847-1.875 0-.216-.027-.425-.08-.625C16.645 16.797 15.666 16 14.5 16s-2.144.797-2.42 1.875c-.053.2-.08.41-.08.625 0 .747.328 1.417.847 1.875z"
								fill="#FFF"
								fill-rule="nonzero"
								mask="url(#b)"
							/>
							<path
								d="M34.313 23.833l-2.507-1.34-.836-.446-.98-.524c-.652-.35-1.508-.523-2.363-.523-.856 0-1.71.174-2.364.523l-.98.524-.835.446-2.508 1.34-.835.447-2.508 1.34-.836.447-2.506 1.34-.836.446-.418.224L25.955 35H41v-7.593l-3.343-1.787-2.508-1.34-.837-.447z"
								fill="#717F8E"
								fill-rule="nonzero"
								mask="url(#b)"
							/>
							<path
								d="M15.758 28.333l-.423-.228-1.692-.913-1.692-.913-1.692-.914-.99-.534c-.305-.164-.652-.29-1.023-.378-.436-.105-.903-.157-1.37-.157-.47 0-.937.052-1.373.157-.37.088-.718.214-1.022.378l-.99.534-1.693.913-1.693.912-1.692.913-1.692.912-3.385 1.826v4.564h35.539l-13.116-7.074z"
								fill="#919DA9"
								fill-rule="nonzero"
								mask="url(#b)"
							/>
						</g>
						<path
							fill="#D2D8DE"
							d="M51 78h38v2H51zM51 75h38v2H51zM51 81h38v2H51z"
						/>
						<path fill="#919DA9" d="M51 70h19v2H51z" />
					</g>
					<g>
						<g transform="translate(99 24) scale(.8)">
							<mask id="b" fill="#fff">
								<rect
									width="36"
									height="35"
									rx="17.5"
								/>
							</mask>
							<rect
								fill="#D2D8DE"
								width="36"
								height="35"
								rx="17.5"
							/>
							<path
								d="M12.847 20.375c.44.39 1.02.625 1.653.625.634 0 1.212-.236 1.653-.625.52-.458.847-1.128.847-1.875 0-.216-.027-.425-.08-.625C16.645 16.797 15.666 16 14.5 16s-2.144.797-2.42 1.875c-.053.2-.08.41-.08.625 0 .747.328 1.417.847 1.875z"
								fill="#FFF"
								fill-rule="nonzero"
								mask="url(#b)"
							/>
							<path
								d="M34.313 23.833l-2.507-1.34-.836-.446-.98-.524c-.652-.35-1.508-.523-2.363-.523-.856 0-1.71.174-2.364.523l-.98.524-.835.446-2.508 1.34-.835.447-2.508 1.34-.836.447-2.506 1.34-.836.446-.418.224L25.955 35H41v-7.593l-3.343-1.787-2.508-1.34-.837-.447z"
								fill="#717F8E"
								fill-rule="nonzero"
								mask="url(#b)"
							/>
							<path
								d="M15.758 28.333l-.423-.228-1.692-.913-1.692-.913-1.692-.914-.99-.534c-.305-.164-.652-.29-1.023-.378-.436-.105-.903-.157-1.37-.157-.47 0-.937.052-1.373.157-.37.088-.718.214-1.022.378l-.99.534-1.693.913-1.693.912-1.692.913-1.692.912-3.385 1.826v4.564h35.539l-13.116-7.074z"
								fill="#919DA9"
								fill-rule="nonzero"
								mask="url(#b)"
							/>
						</g>
						<path
							fill="#D2D8DE"
							d="M131 40h38v2h-38zM131 37h38v2h-38zM131 43h38v2h-38z"
						/>
						<path fill="#919DA9" d="M131 32h19v2h-19z" />
					</g>
					<g>
						<g transform="translate(99 62) scale(.8)">
							<mask id="b" fill="#fff">
								<rect
									width="36"
									height="35"
									rx="17.5"
								/>
							</mask>
							<rect
								fill="#D2D8DE"
								width="36"
								height="35"
								rx="17.5"
							/>
							<path
								d="M12.847 20.375c.44.39 1.02.625 1.653.625.634 0 1.212-.236 1.653-.625.52-.458.847-1.128.847-1.875 0-.216-.027-.425-.08-.625C16.645 16.797 15.666 16 14.5 16s-2.144.797-2.42 1.875c-.053.2-.08.41-.08.625 0 .747.328 1.417.847 1.875z"
								fill="#FFF"
								fill-rule="nonzero"
								mask="url(#b)"
							/>
							<path
								d="M34.313 23.833l-2.507-1.34-.836-.446-.98-.524c-.652-.35-1.508-.523-2.363-.523-.856 0-1.71.174-2.364.523l-.98.524-.835.446-2.508 1.34-.835.447-2.508 1.34-.836.447-2.506 1.34-.836.446-.418.224L25.955 35H41v-7.593l-3.343-1.787-2.508-1.34-.837-.447z"
								fill="#717F8E"
								fill-rule="nonzero"
								mask="url(#b)"
							/>
							<path
								d="M15.758 28.333l-.423-.228-1.692-.913-1.692-.913-1.692-.914-.99-.534c-.305-.164-.652-.29-1.023-.378-.436-.105-.903-.157-1.37-.157-.47 0-.937.052-1.373.157-.37.088-.718.214-1.022.378l-.99.534-1.693.913-1.693.912-1.692.913-1.692.912-3.385 1.826v4.564h35.539l-13.116-7.074z"
								fill="#919DA9"
								fill-rule="nonzero"
								mask="url(#b)"
							/>
						</g>
						<path
							fill="#D2D8DE"
							d="M131 78h38v2h-38zM131 75h38v2h-38zM131 81h38v2h-38z"
						/>
						<path fill="#919DA9" d="M131 70h19v2h-19z" />
					</g>
				</g>
			</svg>
