
			<svg width="188" height="118" view-box="0 0 188 118" xmlns="http://www.w3.org/2000/svg">
				<defs>
					<filter
						x="-3.9%"
						y="-4.5%"
						width="107.8%"
						height="112.7%"
						filter-units="objectBoundingBox"
						id="a"
					>
						<feOffset
							dy="2"
							in="SourceAlpha"
							result="shadowOffsetOuter1"
						/>
						<feGaussianBlur
							std-deviation="2"
							in="shadowOffsetOuter1"
							result="shadowBlurOuter1"
						/>
						<feColorMatrix
							values="0 0 0 0 0 0 0 0 0 0 0 0 0 0 0 0 0 0 0.135699728 0"
							in="shadowBlurOuter1"
						/>
					</filter>
				</defs>
				<g fill="none" fill-rule="evenodd">
					<g transform="translate(4 2)">
						<path
							fill="#000"
							filter="url(#a)"
							d="M0 0h180v110H0z"
						/>
						<path fill="#FFF" d="M0 0h180v110H0z" />
					</g>
					<path fill="#D2D8DE" d="M24 50h43v40H24z" />
					<path
						d="M40.64 36v-7.998h-1.642c-.31.164-1.63 1.02-1.928 1.236v1.56c.276-.194 1.617-1.073 1.828-1.19h.065V36h1.676zm3.32 1.693l2.688-10.113h-1.476l-2.695 10.113h1.482zm6.073-5.168h.867c.903 0 1.4.487 1.407 1.143.005.668-.516 1.172-1.39 1.172-.83 0-1.34-.475-1.4-1.096H47.96c.028 1.29.954 2.414 2.917 2.414 1.705 0 3.135-.943 3.117-2.402-.012-1.277-.95-1.87-1.693-1.928v-.064c.604-.082 1.46-.692 1.442-1.828-.017-1.22-1.195-2.086-2.8-2.086-1.805 0-2.8 1.037-2.842 2.36h1.582c.023-.51.416-1.065 1.2-1.065.716 0 1.196.433 1.202 1.02 0 .626-.486 1.07-1.225 1.07h-.827v1.29z"
						fill="#717F8E"
					/>
					<path stroke="#919DA9" d="M24 46v-3h43v3" />
					<g>
						<path fill="#D2D8DE" d="M73 50h91v40H73z" />
						<path
							d="M111.33 30.422c0-.018-.007-.065-.007-.1 0-.597.428-1.125 1.15-1.125.65 0 1.135.446 1.135 1.067 0 .644-.468 1.142-.89 1.593l-2.883 3.094V36h5.59v-1.365h-3.293v-.053l1.74-1.94c.68-.744 1.412-1.423 1.412-2.542 0-1.278-1.096-2.25-2.777-2.25-1.9 0-2.783 1.265-2.783 2.484v.088h1.605zm7.01 7.27l2.69-10.112h-1.476l-2.696 10.113h1.483zm6.075-5.167h.867c.903 0 1.4.487 1.406 1.143.006.668-.515 1.172-1.388 1.172-.832 0-1.342-.475-1.4-1.096h-1.56c.03 1.29.956 2.414 2.92 2.414 1.704 0 3.134-.943 3.116-2.402-.012-1.277-.95-1.87-1.693-1.928v-.064c.603-.082 1.46-.692 1.44-1.828-.017-1.22-1.194-2.086-2.8-2.086-1.804 0-2.8 1.037-2.842 2.36h1.583c.024-.51.416-1.065 1.202-1.065.714 0 1.195.433 1.2 1.02 0 .626-.486 1.07-1.224 1.07h-.825v1.29z"
							fill="#717F8E"
						/>
						<path stroke="#919DA9" d="M73 46v-3h91v3" />
					</g>
				</g>
			</svg>
