<svg height="118" viewBox="0 0 188 118" width="188" xmlns="http://www.w3.org/2000/svg" xmlns:xlink="http://www.w3.org/1999/xlink"><defs><path id="a" d="m0 0h180v110h-180z"/><filter id="b" height="112.7%" width="107.8%" x="-3.9%" y="-4.5%"><feOffset dx="0" dy="2" in="SourceAlpha" result="shadowOffsetOuter1"/><feGaussianBlur in="shadowOffsetOuter1" result="shadowBlurOuter1" stdDeviation="2"/><feColorMatrix in="shadowBlurOuter1" type="matrix" values="0 0 0 0 0   0 0 0 0 0   0 0 0 0 0  0 0 0 0.135699728 0"/></filter><filter id="c" height="135%" width="120.6%" x="-10.3%" y="-12.5%"><feOffset dx="0" dy="1" in="SourceAlpha" result="shadowOffsetOuter1"/><feGaussianBlur in="shadowOffsetOuter1" result="shadowBlurOuter1" stdDeviation="1"/><feColorMatrix in="shadowBlurOuter1" result="shadowMatrixOuter1" type="matrix" values="0 0 0 0 0   0 0 0 0 0   0 0 0 0 0  0 0 0 0.1 0"/><feMerge><feMergeNode in="shadowMatrixOuter1"/><feMergeNode in="SourceGraphic"/></feMerge></filter><filter id="d" height="135%" width="120.6%" x="-10.3%" y="-12.5%"><feOffset dx="0" dy="1" in="SourceAlpha" result="shadowOffsetOuter1"/><feGaussianBlur in="shadowOffsetOuter1" result="shadowBlurOuter1" stdDeviation="1"/><feColorMatrix in="shadowBlurOuter1" result="shadowMatrixOuter1" type="matrix" values="0 0 0 0 0   0 0 0 0 0   0 0 0 0 0  0 0 0 0.1 0"/><feMerge><feMergeNode in="shadowMatrixOuter1"/><feMergeNode in="SourceGraphic"/></feMerge></filter><filter id="e" height="135%" width="120.6%" x="-10.3%" y="-12.5%"><feOffset dx="0" dy="1" in="SourceAlpha" result="shadowOffsetOuter1"/><feGaussianBlur in="shadowOffsetOuter1" result="shadowBlurOuter1" stdDeviation="1"/><feColorMatrix in="shadowBlurOuter1" result="shadowMatrixOuter1" type="matrix" values="0 0 0 0 0   0 0 0 0 0   0 0 0 0 0  0 0 0 0.1 0"/><feMerge><feMergeNode in="shadowMatrixOuter1"/><feMergeNode in="SourceGraphic"/></feMerge></filter><filter id="f" height="185.7%" width="250%" x="-75%" y="-28.6%"><feOffset dx="0" dy="1" in="SourceAlpha" result="shadowOffsetOuter1"/><feGaussianBlur in="shadowOffsetOuter1" result="shadowBlurOuter1" stdDeviation=".5"/><feColorMatrix in="shadowBlurOuter1" result="shadowMatrixOuter1" type="matrix" values="0 0 0 0 0   0 0 0 0 0   0 0 0 0 0  0 0 0 0.220137002 0"/><feMerge><feMergeNode in="shadowMatrixOuter1"/><feMergeNode in="SourceGraphic"/></feMerge></filter><filter id="g" height="185.7%" width="250%" x="-75%" y="-28.6%"><feOffset dx="0" dy="1" in="SourceAlpha" result="shadowOffsetOuter1"/><feGaussianBlur in="shadowOffsetOuter1" result="shadowBlurOuter1" stdDeviation=".5"/><feColorMatrix in="shadowBlurOuter1" result="shadowMatrixOuter1" type="matrix" values="0 0 0 0 0   0 0 0 0 0   0 0 0 0 0  0 0 0 0.220137002 0"/><feMerge><feMergeNode in="shadowMatrixOuter1"/><feMergeNode in="SourceGraphic"/></feMerge></filter></defs><g fill="none" fill-rule="evenodd"><g transform="translate(4 2)"><use fill="#000" filter="url(#b)" xlink:href="#a"/><use fill="#fff" fill-rule="evenodd" xlink:href="#a"/></g><g transform="translate(24 34)"><path d="m.5.5h44v39h-44z" stroke="#ccc"/><g fill="#919da9" filter="url(#c)" transform="translate(6 10)"><rect height="5" rx="2.5" width="9" x="12" y="15"/><path d="m7 6h19v4h-19z"/><path d="m0 0h34v4h-34z"/></g></g><g transform="translate(72 34)"><path d="m.5.5h44v39h-44z" stroke="#ccc"/><g fill="#919da9" filter="url(#d)" transform="translate(6 10)"><rect height="5" rx="2.5" width="9" x="12" y="15"/><path d="m7 6h19v4h-19z"/><path d="m0 0h34v4h-34z"/></g></g><g transform="translate(120 34)"><path d="m.5.5h44v39h-44z" stroke="#ccc"/><g fill="#919da9" filter="url(#e)" transform="translate(6 10)"><rect height="5" rx="2.5" width="9" x="12" y="15"/><path d="m7 6h19v4h-19z"/><path d="m0 0h34v4h-34z"/></g></g><g transform="translate(29 51)"><g fill="#919da9"><circle cx="61" cy="30" r="1"/><circle cx="65" cy="30" r="1"/><circle cx="69" cy="30" r="1"/></g><g stroke="#717f8e" stroke-linecap="square"><g filter="url(#f)"><path d="m.5 3.5 2.54950976-2.54950976"/><path d="m.5 6.5 2.54950976-2.54950976" transform="matrix(1 0 0 -1 0 10)"/></g><g filter="url(#g)" transform="matrix(-1 0 0 1 132 0)"><path d="m.5 3.5 2.54950976-2.54950976"/><path d="m.5 6.5 2.54950976-2.54950976" transform="matrix(1 0 0 -1 0 10)"/></g></g></g></g></svg>