
			<svg width="188" height="118" view-box="0 0 188 118" xmlns="http://www.w3.org/2000/svg">
				<defs>
					<filter
						x="-3.9%"
						y="-4.5%"
						width="107.8%"
						height="112.7%"
						filter-units="objectBoundingBox"
						id="a"
					>
						<feOffset
							dy="2"
							in="SourceAlpha"
							result="shadowOffsetOuter1"
						/>
						<feGaussianBlur
							std-deviation="2"
							in="shadowOffsetOuter1"
							result="shadowBlurOuter1"
						/>
						<feColorMatrix
							values="0 0 0 0 0 0 0 0 0 0 0 0 0 0 0 0 0 0 0.135699728 0"
							in="shadowBlurOuter1"
						/>
					</filter>
				</defs>
				<g fill="none" fill-rule="evenodd">
					<g transform="translate(4 2)">
						<path
							fill="#000"
							filter="url(#a)"
							d="M0 0h180v110H0z"
						/>
						<path fill="#FFF" d="M0 0h180v110H0z" />
					</g>
					<path
						d="M54.004 52v-9.356h1.936v3.567h3.656v-3.566h1.943V52h-1.944v-4.177H55.94V52h-1.936zm20.32-7.7h-4.95v1.987h4.543v1.625h-4.544v2.406h5.18V52h-7.09v-9.356h6.86V44.3zm8.31 4.164h2.374l-1.168-3.68-1.206 3.68zm.12-5.82h2.21L88.276 52h-2.12l-.603-1.923h-3.447L81.46 52h-2.044l3.338-9.356zm12.608 1.625v6.105h1.803c.922 0 1.565-.455 1.93-1.365.198-.5.298-1.094.298-1.783 0-.953-.15-1.684-.448-2.194-.298-.51-.892-.764-1.78-.764h-1.803zm3.58-1.423c.656.216 1.187.61 1.593 1.187.326.465.548.97.667 1.51.118.542.177 1.058.177 1.55 0 1.243-.25 2.297-.75 3.16C99.953 51.418 98.908 52 97.495 52h-4.03v-9.356h4.03c.58.008 1.062.076 1.447.203zm9.7 9.153H106.7v-9.356h1.942V52zm5.79-9.356h2.05l3.726 6.53v-6.53h1.822V52h-1.955l-3.82-6.646V52h-1.823v-9.356zm19.71 2.92c-.148-.64-.51-1.086-1.085-1.34-.32-.14-.68-.21-1.073-.21-.753 0-1.372.285-1.856.854-.485.57-.727 1.425-.727 2.568 0 1.15.263 1.966.788 2.444s1.12.717 1.79.717c.656 0 1.193-.19 1.612-.568.42-.38.677-.876.775-1.49H132.2v-1.56h3.898V52h-1.295l-.197-1.168c-.377.444-.715.758-1.016.94-.516.317-1.15.476-1.904.476-1.24 0-2.255-.43-3.047-1.29-.826-.862-1.24-2.043-1.24-3.54 0-1.516.418-2.73 1.252-3.645.834-.914 1.936-1.37 3.307-1.37 1.188 0 2.143.3 2.865.904.72.603 1.135 1.355 1.24 2.256h-1.922zM48.15 64.393v1.025h-2.9V73h-1.183v-7.582h-2.9v-1.025h6.984zm.927-.03h1.055v3.21c.25-.315.474-.538.674-.667.34-.222.763-.334 1.27-.334.91 0 1.528.32 1.853.955.174.348.262.83.262 1.448V73h-1.084v-3.955c0-.46-.058-.8-.175-1.014-.192-.343-.55-.514-1.08-.514-.436 0-.832.15-1.188.45-.355.302-.533.87-.533 1.706V73h-1.055v-8.637zm6.674 2.39h1.073V73H55.75v-6.246zm0-2.36h1.073v1.195H55.75v-1.195zm3.294 6.638c.03.353.12.622.264.81.265.34.726.51 1.382.51.39 0 .735-.085 1.032-.255.297-.17.445-.433.445-.788 0-.27-.12-.475-.357-.616-.153-.085-.454-.184-.903-.297l-.838-.21c-.536-.134-.93-.283-1.184-.447-.453-.285-.68-.68-.68-1.183 0-.594.214-1.074.642-1.442.427-.366 1.003-.55 1.725-.55.946 0 1.627.278 2.045.833.262.35.39.73.38 1.136h-.995c-.02-.24-.104-.456-.252-.65-.24-.278-.66-.417-1.26-.417-.397 0-.7.076-.904.228-.205.154-.308.355-.308.605 0 .273.135.492.405.656.156.1.386.185.69.26l.698.17c.76.183 1.267.36 1.525.532.41.27.615.693.615 1.272 0 .558-.212 1.04-.636 1.447-.424.407-1.07.61-1.936.61-.934 0-1.595-.212-1.984-.636-.388-.423-.596-.948-.624-1.573h1.014zm8.707-4.276h1.073V73H67.75v-6.246zm0-2.36h1.073v1.194H67.75v-1.195zm3.294 6.637c.03.353.12.622.264.81.265.34.726.51 1.382.51.39 0 .735-.085 1.032-.255.297-.17.445-.433.445-.788 0-.27-.12-.475-.357-.616-.153-.085-.454-.184-.903-.297l-.838-.21c-.536-.134-.93-.283-1.184-.447-.453-.285-.68-.68-.68-1.183 0-.594.214-1.074.642-1.442.427-.366 1.003-.55 1.725-.55.946 0 1.627.278 2.045.833.262.35.39.73.38 1.136h-.995c-.02-.24-.104-.456-.252-.65-.24-.278-.66-.417-1.26-.417-.397 0-.7.076-.904.228-.205.154-.308.355-.308.605 0 .273.135.492.405.656.156.1.386.185.69.26l.698.17c.76.183 1.267.36 1.525.532.41.27.615.693.615 1.272 0 .558-.212 1.04-.636 1.447-.424.407-1.07.61-1.936.61-.934 0-1.595-.212-1.984-.636-.388-.423-.596-.948-.624-1.573h1.014zm9.61-.807c.027.488.142.884.345 1.19.386.57 1.067.855 2.044.855.437 0 .836-.063 1.195-.188.695-.242 1.042-.676 1.042-1.3 0-.47-.146-.803-.44-1.003-.296-.195-.76-.365-1.394-.51l-1.166-.263c-.76-.172-1.3-.36-1.617-.568-.547-.36-.82-.897-.82-1.612 0-.773.267-1.408.802-1.904.536-.496 1.293-.744 2.274-.744.903 0 1.67.218 2.3.653.632.435.947 1.13.947 2.088H85.07c-.057-.46-.182-.814-.374-1.06-.355-.45-.96-.674-1.81-.674-.688 0-1.182.144-1.483.433-.3.29-.45.625-.45 1.008 0 .422.175.73.526.926.23.126.75.282 1.564.47l1.207.275c.583.133 1.032.314 1.35.545.546.402.82.986.82 1.752 0 .953-.348 1.635-1.04 2.045-.694.41-1.5.615-2.418.615-1.07 0-1.908-.273-2.514-.82-.605-.543-.902-1.28-.89-2.21h1.095zm8.156-3.498v4.166c0 .32.05.583.152.786.187.375.537.562 1.05.562.733 0 1.233-.328 1.5-.984.143-.352.216-.834.216-1.447v-3.082h1.054V73h-.996l.012-.926c-.137.24-.307.44-.51.604-.402.328-.89.492-1.465.492-.894 0-1.504-.3-1.828-.897-.176-.32-.264-.748-.264-1.283v-4.265h1.08zm5.537-2.362h1.025v3.123c.23-.3.506-.53.826-.688.32-.158.668-.237 1.043-.237.782 0 1.416.27 1.903.806.486.537.73 1.33.73 2.376 0 .992-.24 1.817-.722 2.473-.48.656-1.145.984-1.997.984-.476 0-.88-.116-1.207-.346-.195-.137-.404-.356-.627-.657V73h-.973v-8.637zm4.022 7.225c.282-.453.424-1.05.424-1.793 0-.66-.142-1.207-.425-1.64-.284-.434-.7-.65-1.252-.65-.48 0-.9.177-1.263.532-.36.356-.542.942-.542 1.758 0 .59.075 1.068.223 1.435.277.692.795 1.038 1.553 1.038.57 0 .996-.227 1.28-.68zm2.457-2.473h2.942V70.2h-2.943v-1.085zm4.442-4.722h1.176v3.556h4.477v-3.557h1.178V73h-1.177v-4.025h-4.477V73h-1.177v-8.607zm12.403 2.504c.418.21.736.48.955.812.21.315.35.685.422 1.106.062.29.094.75.094 1.383h-4.6c.02.636.17 1.147.45 1.53.282.386.718.58 1.308.58.55 0 .99-.183 1.318-.546.188-.21.32-.455.4-.733h1.036c-.028.232-.118.49-.273.772-.154.283-.327.514-.518.694-.32.313-.717.524-1.19.633-.254.06-.54.093-.86.093-.782 0-1.444-.285-1.987-.853-.543-.568-.815-1.364-.815-2.388 0-1.007.274-1.826.82-2.455.547-.63 1.262-.943 2.145-.943.445 0 .877.104 1.295.313zm.387 2.464c-.043-.456-.143-.82-.3-1.094-.288-.508-.77-.762-1.447-.762-.484 0-.89.175-1.218.524-.328.35-.502.794-.522 1.333h3.487zm3.52 2.69c.224.177.487.264.792.264.37 0 .73-.085 1.078-.257.586-.286.88-.752.88-1.4v-.85c-.13.082-.296.15-.5.205-.202.054-.4.093-.597.117l-.638.08c-.383.052-.67.132-.862.24-.324.185-.486.478-.486.88 0 .305.11.545.334.72zm2.222-2.853c.242-.03.404-.133.486-.304.047-.094.07-.23.07-.405 0-.36-.128-.62-.383-.782-.256-.162-.622-.243-1.1-.243-.55 0-.94.148-1.17.445-.13.164-.214.408-.253.733h-.984c.02-.773.27-1.31.753-1.614.483-.302 1.043-.454 1.68-.454.738 0 1.337.14 1.798.422.457.28.686.72.686 1.313v3.615c0 .11.022.197.067.264.046.066.14.1.285.1.047 0 .1-.004.16-.01.057-.005.12-.014.186-.026v.78c-.163.046-.288.075-.374.087-.086.012-.203.018-.352.018-.363 0-.626-.13-.79-.387-.086-.137-.147-.33-.182-.58-.215.28-.524.525-.926.732-.402.207-.846.31-1.33.31-.582 0-1.058-.176-1.427-.53-.37-.353-.554-.795-.554-1.326 0-.583.18-1.034.544-1.354.364-.32.84-.518 1.43-.592l1.682-.21zm4.406 2.426c.285.453.742.68 1.37.68.49 0 .89-.21 1.205-.63.315-.42.472-1.023.472-1.808 0-.793-.162-1.38-.486-1.76-.326-.38-.726-.572-1.203-.572-.53 0-.962.203-1.292.61-.33.406-.495 1.003-.495 1.793 0 .67.143 1.234.428 1.687zm2.367-4.705c.188.117.4.322.64.615v-3.17h1.013V73h-.95v-.873c-.246.387-.537.666-.873.838-.336.172-.72.258-1.154.258-.698 0-1.304-.294-1.815-.882-.512-.587-.768-1.37-.768-2.346 0-.914.233-1.706.7-2.376.467-.67 1.134-1.005 2-1.005.482 0 .884.102 1.208.305zm3.21-.164h1.073V73h-1.072v-6.246zm0-2.36h1.073v1.194h-1.072v-1.195zm2.667 2.33h1.002v.89c.297-.366.61-.63.943-.79.332-.16.702-.24 1.108-.24.89 0 1.492.31 1.805.932.17.34.257.826.257 1.46V73h-1.072v-3.955c0-.383-.057-.69-.17-.926-.187-.39-.527-.587-1.02-.587-.25 0-.454.026-.615.076-.29.085-.543.257-.76.515-.177.207-.29.42-.344.642-.053.22-.08.536-.08.946V73h-1.054v-6.275zm10.178.253c.2.136.402.335.61.597v-.79h.972v5.706c0 .797-.117 1.426-.352 1.887-.437.852-1.263 1.277-2.478 1.277-.676 0-1.244-.15-1.705-.454-.46-.303-.72-.776-.774-1.42h1.073c.05.28.152.497.304.65.24.234.614.35 1.125.35.81 0 1.338-.284 1.588-.854.15-.336.217-.936.205-1.8-.21.32-.465.56-.76.716-.298.156-.69.234-1.18.234-.68 0-1.274-.24-1.783-.723-.51-.483-.765-1.28-.765-2.394 0-1.052.257-1.872.77-2.462.514-.59 1.134-.885 1.86-.885.493 0 .923.12 1.29.364zm.13 1.13c-.322-.375-.73-.562-1.226-.562-.742 0-1.25.348-1.523 1.043-.144.37-.216.857-.216 1.46 0 .706.143 1.244.43 1.613.288.37.673.555 1.158.555.758 0 1.29-.342 1.6-1.026.17-.387.257-.838.257-1.354 0-.777-.16-1.354-.48-1.73z"
						fill="#717F8E"
					/>
				</g>
			</svg>
