
			<svg width="188" height="118" view-box="0 0 188 118" xmlns="http://www.w3.org/2000/svg">
				<defs>
					<filter
						x="-3.9%"
						y="-4.5%"
						width="107.8%"
						height="112.7%"
						filter-units="objectBoundingBox"
						id="a"
					>
						<feOffset
							dy="2"
							in="SourceAlpha"
							result="shadowOffsetOuter1"
						/>
						<feGaussianBlur
							std-deviation="2"
							in="shadowOffsetOuter1"
							result="shadowBlurOuter1"
						/>
						<feColorMatrix
							values="0 0 0 0 0 0 0 0 0 0 0 0 0 0 0 0 0 0 0.135699728 0"
							in="shadowBlurOuter1"
						/>
					</filter>
				</defs>
				<g fill="none" fill-rule="evenodd">
					<g transform="translate(4 2)">
						<path
							fill="#000"
							filter="url(#a)"
							d="M0 0h180v110H0z"
						/>
						<path fill="#FFF" d="M0 0h180v110H0z" />
					</g>
					<path fill="#D2D8DE" d="M133 47h31v40h-31z" />
					<path
						d="M143.52 33v-7.998h-1.642c-.31.164-1.63 1.02-1.928 1.236v1.56c.276-.194 1.617-1.073 1.828-1.19h.065V33h1.676zm3.32 1.693l2.688-10.113h-1.476l-2.696 10.113h1.483zm7.016-9.69h2.42v5.196h.96v1.353h-.96V33h-1.588v-1.447h-3.867v-1.36c.92-1.746 2.01-3.48 3.036-5.19zm-1.523 5.196h2.355v-3.944h-.064c-.78 1.248-1.594 2.59-2.29 3.926v.017z"
						fill="#717F8E"
					/>
					<path stroke="#919DA9" d="M134 43v-3h29v3" />
					<g>
						<path fill="#D2D8DE" d="M25 47h102v40H25z" />
						<path
							d="M67.984 29.525h.868c.902 0 1.4.487 1.406 1.143.006.668-.516 1.172-1.39 1.172-.83 0-1.34-.475-1.4-1.096H65.91c.03 1.29.955 2.414 2.918 2.414 1.705 0 3.135-.943 3.117-2.402-.01-1.277-.95-1.87-1.693-1.928v-.064c.603-.082 1.46-.692 1.44-1.828-.016-1.22-1.194-2.086-2.8-2.086-1.804 0-2.8 1.037-2.84 2.36h1.58c.024-.51.417-1.065 1.202-1.065.715 0 1.195.433 1.2 1.02 0 .626-.485 1.07-1.223 1.07h-.826v1.29zm6.807 5.168l2.69-10.113h-1.476L73.31 34.693h1.48zm7.02-9.69h2.42v5.196h.96v1.353h-.96V33h-1.59v-1.447h-3.867v-1.36c.92-1.746 2.01-3.48 3.036-5.19zm-1.525 5.196h2.356v-3.944h-.064c-.78 1.248-1.594 2.59-2.29 3.926v.017z"
							fill="#717F8E"
						/>
						<path stroke="#919DA9" d="M25 43v-3h102v3" />
					</g>
				</g>
			</svg>
