<svg xmlns="http://www.w3.org/2000/svg" xmlns:xlink="http://www.w3.org/1999/xlink" viewBox="0 0 1000 878.75"><defs><style>.cls-1{fill:#fff;}.cls-2{isolation:isolate;}.cls-3{fill:#f8faff;}.cls-4{fill:#dce8ff;}.cls-5,.cls-6{fill:#1c2260;}.cls-6{stroke:#fff;stroke-miterlimit:10;}.cls-7{fill:#2d3d8e;}.cls-8{fill:#ffc23f;}.cls-9{fill:#feda8c;}.cls-10{clip-path:url(#clip-path);}.cls-11{opacity:0.2;mix-blend-mode:multiply;}.cls-12{fill:#ffe9bd;}</style><clipPath id="clip-path"><path class="cls-1" d="M432,539.89c6.84-27.65,9.31-57.25,36.24-99.25,21.52-33.56,70.2-23.83,82.54-9.4,44.14,51.59,92.53,255.85,66.51,332.22-2.9,8.51-48.32,8.74-59.91,2.36-7-3.84-14.73-24.58-21.74-28.36-9.21-5-34.77-2.12-44.45,1.89-7.83,3.25-13,17.57-20.53,21.51-11.36,6-43.94,14.86-51.94,5C386.61,726.14,418.38,594.82,432,539.89Z"/></clipPath></defs><title>Bearie</title><g class="cls-2"><g id="Layer_1" data-name="Layer 1"><path class="cls-3" d="M92.59,683.44C112.34,668.6,145.77,614,158,592.5s38.26-64.33,83.18-64.33c69.14,0,211.1,54.39,254.8,69a182.86,182.86,0,0,0,25.88,6.59c45.63,8.13,106,54.28,222.86,3.17C862,555.62,990,722.65,994.29,779.93c3.33,44.36-38.82,75.42-205.18,79.86-173,4.61-322.79,5.47-438.09,2.22C193.52,857.57,22.7,871.65,5,781-8.2,713.72,53.38,712.92,92.59,683.44Z"/><path class="cls-1" d="M506.69,864.71q-85.74,0-155.7-2c-23.51-.66-47.58-.91-70.87-1.16-134.06-1.41-260.68-2.73-275.87-80.4C-5.36,732,24.67,717.81,56.46,702.77,68.68,697,81.31,691,92.15,682.86c23.22-17.45,63.54-87.74,65.24-90.72,7.37-12.89,16.63-27.78,29.48-40.38,16.43-16.13,34.72-24.31,54.34-24.31,58.7,0,169.3,39,228.72,59.88,10.54,3.71,19.64,6.92,26.31,9.14A182.78,182.78,0,0,0,522,603c10.14,1.81,20.73,5.39,33,9.53,21.45,7.25,45.76,15.47,76.5,17.08,35.77,1.86,72.71-5.79,112.95-23.39a116.39,116.39,0,0,1,64.95-8.3c20.21,3,41.09,11,62,23.59,31,18.64,61.61,47.33,86.29,80.79,21.61,29.3,35.89,59,37.28,77.56,1.1,14.72-2.82,26.81-12,37-11.74,13-32,22.78-61.91,29.91-32.49,7.75-75.66,12.25-132,13.75C684.57,863.31,590.12,864.71,506.69,864.71ZM93,684h0c-11,8.24-23.66,14.25-35.94,20.06-16,7.57-31.13,14.73-41.18,26.06C4.64,742.84,1.4,759,5.69,780.9c15,76.49,141,77.82,274.45,79.21,23.29.24,47.37.5,70.89,1.16,114.51,3.23,261.89,2.48,438.05-2.22,56.21-1.5,99.29-6,131.68-13.71,29.63-7.07,49.63-16.71,61.17-29.47,8.9-9.85,12.7-21.59,11.63-35.89-1.37-18.28-15.55-47.71-37-76.8-24.57-33.31-55.06-61.87-85.87-80.41-20.79-12.51-41.48-20.38-61.51-23.4a114.94,114.94,0,0,0-64.15,8.2c-40.47,17.71-74.28,23.74-103,23.74-36.07,0-64.17-9.5-87.48-17.38-12.2-4.13-22.74-7.69-32.78-9.48a184.26,184.26,0,0,1-26-6.62c-6.69-2.23-15.79-5.44-26.33-9.15-59.34-20.9-169.79-59.8-228.23-59.8-19.23,0-37.17,8-53.32,23.89-12.72,12.48-21.91,27.26-29.23,40.07C157,595.85,116.49,666.4,93,684Z"/><path class="cls-4" d="M379.63,724.18c32.43,3,56.35,11.45,111.57,1.81,35.22-6.15,57.9-14.08,128.53-24.81,74.13-11.26,159,40.82,161.3,77.76,1.81,28.61-81.83,44.23-168.5,30.64-113.13-17.75-116.46-10-180.78,4.44-45.53,10.2-184.51,17.2-157.49-35.49C296.45,735.27,351.22,721.53,379.63,724.18Z"/><path class="cls-5" d="M496.53,230.88a290.69,290.69,0,0,1,64,.67s4.36-20.72,25.71-20.41c11.5.17,18.33,11.5,22.67,27.5,9,33.37,24,137.33,24,137.33S668.7,535.65,667.7,639.65c-.44,45.72,4.42,122-27,133.6-20.22,7.48-80,6.26-88.42.89s-10.84-20.62-17.4-24.61c-9.06-5.52-33.63-4.3-43,.67-6.14,3.25-11.7,17.24-17.64,20.81-10.89,6.53-67,13.86-86.07,2-25.43-15.8-31.75-51-36-110.08S362,544.8,362,544.8,412.53,331.65,448.87,234c2.37-6.37,9.38-22.49,28.5-22.83C483.32,211,492.87,215.65,496.53,230.88Z"/><path class="cls-6" d="M327.27,339.76c-4.67-7.11-15.59-23.09-24.08-19.42-7.59,3.28-6.19,22.61-1.33,39.31,9.39,32.32,19.42,46.61,30.71,60.71a258.27,258.27,0,0,0,48.2,46c3.16-14.19,19-73.31,19-73.31C361.43,385.24,344.46,365.91,327.27,339.76Z"/><path class="cls-6" d="M716.72,344.66c5.47-6.69,18.18-21.71,26.68-17.34,7.61,3.9,4.48,23-2,39.28-12.54,31.42-24.18,44.83-37.12,57.94a267.7,267.7,0,0,1-54,41.79c-2.06-14.4-13.41-74.64-13.41-74.64C677.31,387.13,696.61,369.28,716.72,344.66Z"/><path class="cls-1" d="M502.83,288c9.24-5.27,32-10.18,49.22-1,16.33,8.71,14.69,20.21,12.81,27.39-1.79,6.83-6.63,14.27-15.81,21.38-13.69,10.6-26.33,10.52-36.14,5.87-8.59-4.08-17.27-10.48-21.53-27.54C486.86,296,495.6,292.08,502.83,288Z"/><path class="cls-1" d="M527.38,344.79a30.68,30.68,0,0,1-14.63-3c-8.27-3.92-17.3-10.28-21.66-27.67s3.56-21.79,10.53-25.72l1-.59h0c10-5.72,32.71-10,49.57-1,15.66,8.36,15.13,19.13,12.92,27.59-2,7.53-7.47,15-15.88,21.49C541.19,342.11,533.78,344.5,527.38,344.79ZM503,288.12l-1,.59c-6.83,3.85-14.58,8.22-10.3,25.3,4.31,17.24,13.24,23.53,21.41,27.41,8,3.79,20.68,5.86,35.77-5.83,8.34-6.46,13.78-13.82,15.73-21.27,2.18-8.34,2.71-19-12.7-27.18-16.62-8.87-39-4.65-48.87,1Z"/><path class="cls-5" d="M510.42,294.07c6-2.47,27.81-3.18,35.53-.71,5.69,1.82-1.21,16.7-16.4,18.09S504.48,296.51,510.42,294.07Z"/><path class="cls-1" d="M528.53,311.72a21,21,0,0,1-19.29-11.34c-1.43-3.14-1-5.62,1-6.47h0c5.9-2.42,27.92-3.24,35.79-.72,1.85.59,2.56,2.5,1.89,5.09-1.28,5-7.83,12.41-18.38,13.37Zm-18-17.48c-1.83.75-2.12,3-.77,6a20.4,20.4,0,0,0,19.74,11c10.26-.94,16.64-8.19,17.88-13,.62-2.41,0-4.16-1.58-4.67-7.76-2.49-29.46-1.68-35.27.7Z"/><path class="cls-7" d="M513.14,295.72c4.8-1.16,22-1.79,28.06-.83,4.46.71-1.2,7.26-13.21,8.08S508.42,296.87,513.14,295.72Z"/><path class="cls-8" d="M475.84,307.32c-3.63,9-8,15.15-23,12.67s-20.91-9.83-20.27-21.64,9.8-17.26,24.81-14.78S479.76,297.63,475.84,307.32Z"/><path class="cls-8" d="M616.41,301.44c.48,10.78-3.33,15.72-19.44,17.31s-24.47-2.2-25-13,6.74-19.56,22.85-21.14S615.93,290.66,616.41,301.44Z"/><path class="cls-9" d="M475,301.47c-.35,3.79-4,10.19-19.1,8.93s-22.59-5-22.39-12.43,8.76-14,20.26-12.59C468.84,287.22,475.72,294.16,475,301.47Z"/><path class="cls-9" d="M613.77,305.73c-.36,3.46-4,9.31-18.75,8.26s-22.13-4.44-21.92-11.18S581.73,290,593,291.22C607.73,292.8,614.45,299.08,613.77,305.73Z"/><path class="cls-1" d="M467.18,234.25l12.18-1.34c1.68-.19,2.83-1.42,2.57-2.77-.65-3.33-2.55-8.82-8-8.34a11.61,11.61,0,0,0-10.09,9C463.37,232.75,464.78,234.52,467.18,234.25Z"/><path class="cls-1" d="M577.37,233.65l12.42,2.45a2.62,2.62,0,0,0,3.05-2.7c.07-5.6-1.71-9.74-7.25-10.59-4.13-.63-8.43,2.63-9.88,7C575.13,231.47,575.6,233.3,577.37,233.65Z"/><path class="cls-1" d="M504,266.78c-1,4.1-4.95-1.38-9.09.37s-4.46,6-6.87,4.42c-2-1.33.11-7.78,5.37-9.5C498.28,260.48,504.95,262.9,504,266.78Z"/><path class="cls-1" d="M561.37,271.31c-2.88.46-1.6-3.64-6.08-4.67s-6.79,3.3-8.92,1.25,3.94-7.09,9.5-5.92C562.2,263.31,565,270.73,561.37,271.31Z"/><line class="cls-5" x1="528.23" y1="307.24" x2="528.26" y2="325.92"/><path class="cls-5" d="M527.5,307.43l0,18.68c0,.27,1.45.05,1.45-.39L529,307c0-.27-1.45-.05-1.45.39Z"/><polygon class="cls-5" points="528.89 325.91 527.63 325.94 527.59 307.25 528.86 307.22 528.89 325.91"/><path class="cls-5" d="M529.17,325.48c-1,0-.69.27-.82,0a5.58,5.58,0,0,1,0-1.8v-6.47l0-10.08-1,.52c1,0,.69-.27.82,0a5.58,5.58,0,0,1,0,1.8v6.47l0,10.08c0,.63,1.45.34,1.45-.17l0-18.68c0-.24-.22-.35-.45-.35l-1.26,0c-.24,0-1,.13-1,.52l0,18.68c0,.24.22.35.45.35l1.26,0C529.18,326.33,530.14,325.45,529.17,325.48Z"/><path class="cls-5" d="M526,327q-1,0-2-.05c-8.9-.45-15.78-9.54-16.07-9.93l1.32-.58c.07.09,6.77,8.93,14.85,9.34,9.65.49,16.86-2.54,23.38-9.82l1.26.66C542.39,323.69,535.13,327,526,327Z"/><path class="cls-5" d="M526.7,326.61a20.41,20.41,0,0,1-13.38-5.35,16.45,16.45,0,0,1-3.59-3.6c-.61-1.07-1.28-.5.11-1.11l-1.7.19c4.92,6.37,11.54,10,19.62,9.43,8.31-.56,15.15-4.36,20.76-10.4l-2.1.56c2.23,1.17-2.77,4.4-4.19,5.43a26.68,26.68,0,0,1-15.53,4.84c-.42,0-2.43.84-1.43.82a33,33,0,0,0,24.49-11,.1.1,0,0,0,0-.15l-1.26-.66a2.37,2.37,0,0,0-2.1.56c-6.49,7-16.94,12.15-26.4,7.93a26.37,26.37,0,0,1-9.67-7.94c-.29-.38-1.37,0-1.7.19l-1.32.58s-.57.26-.47.39c4.52,5.94,10.91,10,18.46,10.1C525.7,327.44,527.72,326.63,526.7,326.61Z"/><path class="cls-1" d="M432,539.89c6.84-27.65,9.31-57.25,36.24-99.25,21.52-33.56,70.2-23.83,82.54-9.4,44.14,51.59,92.53,255.85,66.51,332.22-2.9,8.51-48.32,8.74-59.91,2.36-7-3.84-14.73-24.58-21.74-28.36-9.21-5-34.77-2.12-44.45,1.89-7.83,3.25-13,17.57-20.53,21.51-11.36,6-43.94,14.86-51.94,5C386.61,726.14,418.38,594.82,432,539.89Z"/><g class="cls-10"><path class="cls-1" d="M716,570.89c6.33-28.1,9.67-56.66,36.6-98.66,21.52-33.56,70.2-23.83,82.54-9.4,44.14,51.59,92.53,255.85,66.51,332.22-2.9,8.51-48.32,8.74-59.91,2.36-7-3.84-14.73-24.58-21.74-28.36-9.21-5-34.77-2.12-44.45,1.89-7.83,3.25-13,17.57-20.53,21.51-11.36,6-43.94,14.86-51.94,5C671,757.73,703.53,626.09,716,570.89Z"/><path class="cls-1" d="M587.44,771.08c-12.15,0-24.51-1.55-29.84-4.48-3.53-1.94-7.28-8.18-10.9-14.22s-7.37-12.27-10.84-14.14c-4.06-2.19-12.05-3.06-21.93-2.4-8.69.59-17.46,2.27-22.33,4.3-4,1.67-7.41,6.4-10.69,11-3,4.24-6.18,8.62-9.82,10.53-12,6.33-44.26,14.75-52.22,4.91-13.08-16.18-16.85-49.79-11.21-99.89,4.72-41.92,15-86.83,21.75-116.55.83-3.66,1.62-7.1,2.34-10.28l.22,0-.22,0c.82-3.65,1.61-7.38,2.37-11,5.31-25.15,10.8-51.16,34.25-87.73,11-17.19,27.94-21.8,40.19-22.64,19.26-1.33,36.38,5.82,42.71,13.22,21.07,24.63,44.47,86.22,59.61,156.91,16.13,75.31,18.72,140.93,6.94,175.52-.48,1.42-2.09,2.67-4.77,3.71C607.39,770,597.48,771.08,587.44,771.08Zm-74.2-352.34q-2.29,0-4.64.16c-12.15.84-28.93,5.41-39.85,22.44-23.41,36.51-28.89,62.48-34.19,87.59-.76,3.61-1.55,7.35-2.38,11-.72,3.18-1.5,6.62-2.34,10.28-6.78,29.71-17,74.6-21.75,116.5-5.63,50-1.89,83.47,11.11,99.56,7.81,9.66,39.72,1.26,51.66-5,3.55-1.86,6.66-6.2,9.67-10.39,3.32-4.62,6.75-9.41,10.89-11.12,9.19-3.81,35.1-7,44.64-1.88,3.57,1.93,7.35,8.22,11,14.31s7.31,12.17,10.74,14.06c9.67,5.32,42.62,6,55.09,1.2,2.55-1,4.07-2.14,4.51-3.44,11.76-34.52,9.16-100-7-175.28C595.33,518.07,572,456.55,550.94,432,545.2,425.26,530.42,418.75,513.24,418.75Z"/></g><path class="cls-5" d="M732.19,311.84c12.93,1.54,34.55,6.22,31.63,24-.31,1.89,2.58,2.7,2.89.8,1.27-7.76-2.27-15-8.36-19.79-7.38-5.82-17.14-7-26.16-8.05-1.91-.23-1.9,2.77,0,3Z"/><path class="cls-5" d="M740.3,305.64a156.58,156.58,0,0,1,16.92,2c2.73.53,14.79,2.75,14.06,6.92-.33,1.89,2.56,2.7,2.89.8.84-4.78-4.79-7.21-8.46-8.58-8-3-17-3.43-25.41-4.12-1.92-.16-1.91,2.84,0,3Z"/><g class="cls-11"><path class="cls-6" d="M38.11,96C63.26,67.74,172.06,62.39,242.73,64.6,352.16,68,374,81,387.45,112.49c8.71,20.43.2,38.54.34,83.47,0,7,17.65,34.68,13.58,39.65-3.56,4.34-33.51-6-48.88-4.84-33.64,2.63-50.4,4.94-100.37,6.1C201.8,238,87.76,239.33,48.18,217.62,27,206,16.71,120.1,38.11,96Z"/></g><path class="cls-6" d="M34.24,90.64C59.39,62.35,168.18,57,238.86,59.21c109.43,3.42,131.28,16.37,144.71,47.89,8.71,20.43.12,42,.26,86.91,0,7,15.59,34.62,13.33,37.87-1.65,2.37-33.18-7.7-48.55-6.5-33.46,2.61-50.37,4.94-100.37,6.1-50.31,1.17-164.36,2.46-203.94-19.25C23.15,200.64,12.84,114.72,34.24,90.64Z"/><path class="cls-1" d="M83.46,95l-.16,10.45q0,3.13.12,9.33a27.85,27.85,0,0,0,3.27.16q2,0,3.66-.11t2.11-.11a1.4,1.4,0,0,1,.87.33,1.14,1.14,0,0,1,0,1.77,1.8,1.8,0,0,1-1.13.33L87.52,117l-5,.16a1.62,1.62,0,0,1-1.15-.4,1.53,1.53,0,0,1-.43-1.18l.16-10.11L80.91,95a1.8,1.8,0,0,1,.34-1.15,1.21,1.21,0,0,1,1.86,0A1.81,1.81,0,0,1,83.46,95Z"/><path class="cls-1" d="M103.35,101a5.88,5.88,0,0,1,4.06,1.4A4.63,4.63,0,0,1,109,106a3.73,3.73,0,0,1-1.94,3.4,9.1,9.1,0,0,1-4.76,1.16,20.64,20.64,0,0,1-3.94-.47,6.14,6.14,0,0,0,1.63,3.74,4.3,4.3,0,0,0,3.21,1.57,6.25,6.25,0,0,0,2-.29,5,5,0,0,0,1.36-.64,4.12,4.12,0,0,1,1.63-1,.84.84,0,0,1,.62.23.78.78,0,0,1,.23.57q0,.87-1.78,2a7.14,7.14,0,0,1-3.86,1.12,6.32,6.32,0,0,1-5.12-2.26,8.94,8.94,0,0,1-2-5.46q-1.64-.5-1.64-1.61a1,1,0,0,1,.26-.73.87.87,0,0,1,.64-.26,2.19,2.19,0,0,1,.93.28,9.12,9.12,0,0,1,2.59-4.59A6.23,6.23,0,0,1,103.35,101Zm-1.18,7.63a6.76,6.76,0,0,0,3.35-.71,2.15,2.15,0,0,0,1.26-1.92,3,3,0,0,0-.82-2.09,3,3,0,0,0-2.34-.88,4.47,4.47,0,0,0-3.44,1.53,7.33,7.33,0,0,0-1.8,3.58A13.56,13.56,0,0,0,102.17,108.65Z"/><path class="cls-1" d="M116.17,103.38l-.06,7.35a18,18,0,0,0,.23,3.69,1.12,1.12,0,0,0,1.22.87,2.69,2.69,0,0,0,1.13-.33,2.73,2.73,0,0,1,.88-.33.57.57,0,0,1,.65.64q0,.64-1.15,1.33a4.34,4.34,0,0,1-2.26.7q-2.7,0-2.7-4l0-10q-1,.09-1.43.09-1.55,0-1.55-1t1.55-1l1.36.06L114,98q0-1.55,1.18-1.55T116.32,98l-.09,3.5,2.51-.12q1.55,0,1.55,1.05t-1.55,1Z"/><path class="cls-1" d="M123.58,98.54l-.19-2.26a2.15,2.15,0,0,1,.42-1.27,1.3,1.3,0,0,1,1.12-.59,1.19,1.19,0,0,1,1,.48,1.81,1.81,0,0,1,.34,1.07,8.83,8.83,0,0,1-1.1,4.2q-1.1,2.06-2.16,2.06a.62.62,0,0,1-.43-.17.52.52,0,0,1-.19-.39,4.11,4.11,0,0,1,.57-1.19A3.8,3.8,0,0,0,123.58,98.54Z"/><path class="cls-1" d="M140.23,112.52a4.16,4.16,0,0,1-1.72,3.44,6.53,6.53,0,0,1-4.12,1.33,7.73,7.73,0,0,1-4.17-1.1q-1.77-1.1-1.77-2.19a1.06,1.06,0,0,1,.28-.76.85.85,0,0,1,.64-.29,1.05,1.05,0,0,1,.57.14,3.53,3.53,0,0,1,.59.54q.37.4.67.68a3.9,3.9,0,0,0,1.21.62,4.86,4.86,0,0,0,1.69.34,5.16,5.16,0,0,0,2.81-.7,2.26,2.26,0,0,0,1.1-2q0-1.61-3.1-2.7-1.27-.43-2.56-.95a6.37,6.37,0,0,1-2.19-1.41,2.92,2.92,0,0,1-.9-2.14,3.72,3.72,0,0,1,1.52-2.93,5.64,5.64,0,0,1,3.72-1.26,6.85,6.85,0,0,1,3.49.76q1.29.76,1.29,1.6,0,1-1.09,1a1.57,1.57,0,0,1-.93-.34,4.9,4.9,0,0,0-2.79-1,3.62,3.62,0,0,0-2.17.6,1.72,1.72,0,0,0-.84,1.4,1.6,1.6,0,0,0,.9,1.35,11.69,11.69,0,0,0,2.19,1q1.29.47,2.59,1a6.33,6.33,0,0,1,2.2,1.58A3.41,3.41,0,0,1,140.23,112.52Z"/><path class="cls-1" d="M161.72,112.52A4.16,4.16,0,0,1,160,116a6.53,6.53,0,0,1-4.12,1.33,7.73,7.73,0,0,1-4.17-1.1q-1.77-1.1-1.77-2.19a1.06,1.06,0,0,1,.28-.76.86.86,0,0,1,.64-.29,1.05,1.05,0,0,1,.57.14,3.53,3.53,0,0,1,.59.54q.37.4.67.68a3.9,3.9,0,0,0,1.21.62,4.86,4.86,0,0,0,1.69.34,5.16,5.16,0,0,0,2.81-.7,2.26,2.26,0,0,0,1.1-2q0-1.61-3.1-2.7-1.27-.43-2.56-.95a6.38,6.38,0,0,1-2.19-1.41,2.92,2.92,0,0,1-.9-2.14,3.72,3.72,0,0,1,1.52-2.93,5.64,5.64,0,0,1,3.72-1.26,6.85,6.85,0,0,1,3.49.76q1.29.76,1.29,1.6,0,1-1.08,1a1.57,1.57,0,0,1-.93-.34,4.9,4.9,0,0,0-2.79-1,3.62,3.62,0,0,0-2.17.6,1.72,1.72,0,0,0-.84,1.4,1.6,1.6,0,0,0,.9,1.35,11.7,11.7,0,0,0,2.19,1q1.29.47,2.59,1a6.33,6.33,0,0,1,2.2,1.58A3.41,3.41,0,0,1,161.72,112.52Z"/><path class="cls-1" d="M168.6,103.38l-.06,7.35a18,18,0,0,0,.23,3.69,1.12,1.12,0,0,0,1.22.87,2.69,2.69,0,0,0,1.13-.33,2.74,2.74,0,0,1,.88-.33.57.57,0,0,1,.65.64q0,.64-1.15,1.33a4.34,4.34,0,0,1-2.26.7q-2.7,0-2.7-4l0-10q-1,.09-1.43.09-1.55,0-1.55-1t1.55-1l1.36.06L166.4,98q0-1.55,1.18-1.55T168.76,98l-.09,3.5,2.51-.12q1.55,0,1.55,1.05t-1.55,1Z"/><path class="cls-1" d="M187.86,109.48a17.32,17.32,0,0,0,.34,3.8q.34,1.47.81,1.66a1.35,1.35,0,0,0,.45.12,1.08,1.08,0,0,1,.37.09.26.26,0,0,1,.11.25,2,2,0,0,1-.45,1.36,1.68,1.68,0,0,1-1.35.53q-.9,0-1.4-1.15a7.47,7.47,0,0,1-.5-2.95,7.57,7.57,0,0,1-2.28,2.91,5.34,5.34,0,0,1-3.38,1.18,4.65,4.65,0,0,1-3.24-1.24,8.33,8.33,0,0,1-2.48-6.48,9.32,9.32,0,0,1,2-5.89,6.09,6.09,0,0,1,5-2.51,5.73,5.73,0,0,1,4,1.58q0-1.58,1.18-1.58,1.43,0,1.43,2.19A42.18,42.18,0,0,1,187.86,109.48Zm-1.8.28L185.9,105a5.58,5.58,0,0,0-3.89-1.8,4.34,4.34,0,0,0-3.49,1.83,6.82,6.82,0,0,0-1.46,4.39,8.43,8.43,0,0,0,.95,4.22,3,3,0,0,0,2.68,1.66,4.24,4.24,0,0,0,3.16-1.55A10.49,10.49,0,0,0,186.06,109.76Z"/><path class="cls-1" d="M195.7,109.89l.09,5.83q0,1.58-1.18,1.58-1.43,0-1.43-2.19a42.12,42.12,0,0,1,.62-6.12,32.67,32.67,0,0,0-.26-3.57q-.26-2.26-.26-2.82a1.61,1.61,0,0,1,.33-1,1.12,1.12,0,0,1,1.77,0,1.54,1.54,0,0,1,.33.95q0,.51,0,1.3t0,1.32a7.45,7.45,0,0,1,1.94-2.79,4,4,0,0,1,2.71-1.21,3.52,3.52,0,0,1,2.15.57,1.58,1.58,0,0,1,.76,1.22,1.46,1.46,0,0,1-.34,1,1.14,1.14,0,0,1-.88.37,1.84,1.84,0,0,1-1.18-.57,1.79,1.79,0,0,0-1-.57q-1,0-2.39,2.2A12.22,12.22,0,0,0,195.7,109.89Z"/><path class="cls-1" d="M209.41,103.38l-.06,7.35a18,18,0,0,0,.23,3.69,1.12,1.12,0,0,0,1.23.87,2.69,2.69,0,0,0,1.13-.33,2.74,2.74,0,0,1,.88-.33.57.57,0,0,1,.65.64q0,.64-1.15,1.33a4.34,4.34,0,0,1-2.26.7q-2.7,0-2.7-4l0-10q-1,.09-1.43.09-1.55,0-1.55-1t1.55-1l1.36.06L207.2,98q0-1.55,1.18-1.55T209.56,98l-.09,3.5,2.51-.12q1.55,0,1.55,1.05t-1.55,1Z"/><path class="cls-1" d="M235.39,113.79q.77,0,.78.82t-1.8,1.83a7.63,7.63,0,0,1-3.78,1,7,7,0,0,1-5.43-2.4,8.85,8.85,0,0,1,0-11.63,7.41,7.41,0,0,1,5.75-2.4,6.7,6.7,0,0,1,3.46.88q1.5.88,1.5,1.81a1.14,1.14,0,0,1-.31.82,1,1,0,0,1-.71.33,1.51,1.51,0,0,1-.93-.47,5.07,5.07,0,0,0-3.29-1.36,4.86,4.86,0,0,0-3.74,1.8,6.35,6.35,0,0,0-1.6,4.37,6.43,6.43,0,0,0,1.61,4.4,5.12,5.12,0,0,0,4,1.83,6.07,6.07,0,0,0,3.57-1.24A1.86,1.86,0,0,1,235.39,113.79Z"/><path class="cls-1" d="M242,109.89l.09,5.83q0,1.58-1.18,1.58-1.43,0-1.43-2.19a42.12,42.12,0,0,1,.62-6.12,32.67,32.67,0,0,0-.26-3.57q-.26-2.26-.26-2.82a1.61,1.61,0,0,1,.33-1,1.12,1.12,0,0,1,1.77,0,1.54,1.54,0,0,1,.33.95q0,.51,0,1.3t0,1.32a7.45,7.45,0,0,1,1.94-2.79,4,4,0,0,1,2.71-1.21,3.52,3.52,0,0,1,2.15.57,1.58,1.58,0,0,1,.76,1.22,1.46,1.46,0,0,1-.34,1,1.14,1.14,0,0,1-.88.37,1.84,1.84,0,0,1-1.18-.57,1.79,1.79,0,0,0-1-.57q-1,0-2.39,2.2A12.22,12.22,0,0,0,242,109.89Z"/><path class="cls-1" d="M258.63,101a5.88,5.88,0,0,1,4.06,1.4,4.63,4.63,0,0,1,1.57,3.63,3.73,3.73,0,0,1-1.94,3.4,9.1,9.1,0,0,1-4.76,1.16,20.64,20.64,0,0,1-3.94-.47,6.13,6.13,0,0,0,1.63,3.74,4.29,4.29,0,0,0,3.21,1.57,6.25,6.25,0,0,0,2-.29,5,5,0,0,0,1.36-.64,4.12,4.12,0,0,1,1.63-1,.84.84,0,0,1,.62.23.78.78,0,0,1,.23.57q0,.87-1.78,2a7.14,7.14,0,0,1-3.86,1.12,6.32,6.32,0,0,1-5.12-2.26,8.94,8.94,0,0,1-2-5.46q-1.64-.5-1.64-1.61a1,1,0,0,1,.26-.73.87.87,0,0,1,.64-.26,2.19,2.19,0,0,1,.93.28,9.12,9.12,0,0,1,2.59-4.59A6.23,6.23,0,0,1,258.63,101Zm-1.18,7.63a6.76,6.76,0,0,0,3.35-.71,2.15,2.15,0,0,0,1.26-1.92,3,3,0,0,0-.82-2.09,3,3,0,0,0-2.34-.88,4.47,4.47,0,0,0-3.44,1.53,7.33,7.33,0,0,0-1.8,3.58A13.57,13.57,0,0,0,257.45,108.65Z"/><path class="cls-1" d="M280.25,109.48a17.32,17.32,0,0,0,.34,3.8q.34,1.47.81,1.66a1.35,1.35,0,0,0,.45.12,1.08,1.08,0,0,1,.37.09.26.26,0,0,1,.11.25,2,2,0,0,1-.45,1.36,1.68,1.68,0,0,1-1.35.53q-.9,0-1.4-1.15a7.47,7.47,0,0,1-.5-2.95,7.57,7.57,0,0,1-2.28,2.91A5.34,5.34,0,0,1,273,117.3a4.65,4.65,0,0,1-3.24-1.24,8.33,8.33,0,0,1-2.48-6.48,9.32,9.32,0,0,1,2-5.89,6.09,6.09,0,0,1,5-2.51,5.73,5.73,0,0,1,4,1.58q0-1.58,1.18-1.58,1.43,0,1.43,2.19A42.18,42.18,0,0,1,280.25,109.48Zm-1.8.28L278.3,105a5.58,5.58,0,0,0-3.89-1.8,4.34,4.34,0,0,0-3.49,1.83,6.82,6.82,0,0,0-1.46,4.39,8.43,8.43,0,0,0,.95,4.22,3,3,0,0,0,2.68,1.66,4.24,4.24,0,0,0,3.16-1.55A10.49,10.49,0,0,0,278.46,109.76Z"/><path class="cls-1" d="M289.15,103.38l-.06,7.35a18,18,0,0,0,.23,3.69,1.12,1.12,0,0,0,1.23.87,2.69,2.69,0,0,0,1.13-.33,2.74,2.74,0,0,1,.88-.33.57.57,0,0,1,.65.64q0,.64-1.15,1.33a4.34,4.34,0,0,1-2.26.7q-2.7,0-2.7-4l0-10q-1,.09-1.43.09-1.55,0-1.55-1t1.55-1l1.36.06L287,98q0-1.55,1.18-1.55T289.31,98l-.09,3.5,2.51-.12q1.55,0,1.55,1.05t-1.55,1Z"/><path class="cls-1" d="M297.56,94.51a1.12,1.12,0,0,1,1,.42,1.73,1.73,0,0,1,.31,1.05,2.24,2.24,0,0,1-.43,1.27,1.28,1.28,0,0,1-1.08.64,1.14,1.14,0,0,1-1-.43,1.86,1.86,0,0,1-.33-1.15,1.91,1.91,0,0,1,.45-1.26A1.38,1.38,0,0,1,297.56,94.51Zm.87,14.73.15,6.51q0,1.55-1.18,1.55t-1.18-1.55l.16-6.51-.16-6.51q0-1.55,1.18-1.55t1.18,1.55Z"/><path class="cls-1" d="M316.25,107.22l-.15,4.87q0,.87,0,1.32a3.09,3.09,0,0,0,.19.93.94.94,0,0,0,.42.59,1.77,1.77,0,0,0,.51.14,1.08,1.08,0,0,1,.37.09.26.26,0,0,1,.11.25,1.89,1.89,0,0,1-.51,1.35,1.59,1.59,0,0,1-1.19.54,1.65,1.65,0,0,1-1.63-.93,6.48,6.48,0,0,1-.45-2.73l.12-5.71a5.89,5.89,0,0,0-.9-3.41,2.87,2.87,0,0,0-2.5-1.3,4.13,4.13,0,0,0-3.08,1.77,10.15,10.15,0,0,0-2.08,4l.09,6.73q0,1.58-1.18,1.58-1.43,0-1.43-2.19a42.12,42.12,0,0,1,.62-6.12,33.52,33.52,0,0,0-.26-3.6q-.26-2.29-.26-2.84a1.52,1.52,0,0,1,.33-1,1.14,1.14,0,0,1,1.77,0,1.5,1.5,0,0,1,.33.95q0,.53,0,1.29t0,1.29q2.26-3.94,5.58-3.94a4.58,4.58,0,0,1,3.84,1.77A6.8,6.8,0,0,1,316.25,107.22Z"/><path class="cls-1" d="M331.42,102.63q.06-1.46,1.18-1.46,1.43,0,1.43,2.19a42.18,42.18,0,0,1-.62,6.12q.37,3.78.37,5.64a10.38,10.38,0,0,1-1.91,6.53,6.37,6.37,0,0,1-5.35,2.47,8.52,8.52,0,0,1-3.63-.79q-1.71-.79-1.71-1.58t.71-.79a6.74,6.74,0,0,1,1.6.57,7.51,7.51,0,0,0,3,.57,4.66,4.66,0,0,0,3.91-1.86,7.68,7.68,0,0,0,1.43-4.81,14.92,14.92,0,0,0-.16-2.23,7,7,0,0,1-2.22,2.88,5.06,5.06,0,0,1-3.16,1.21,5.15,5.15,0,0,1-2.78-.71,5.71,5.71,0,0,1-1.86-1.86,10.31,10.31,0,0,1-1.4-5.41,8.59,8.59,0,0,1,2.09-5.61,6.46,6.46,0,0,1,5.16-2.53A5.88,5.88,0,0,1,331.42,102.63Zm.06,7.1V105a5.12,5.12,0,0,0-3.77-1.8,4.57,4.57,0,0,0-3.6,1.85,6.62,6.62,0,0,0-1.53,4.37,8.34,8.34,0,0,0,1,4.2,2.94,2.94,0,0,0,2.65,1.67,4.17,4.17,0,0,0,3.12-1.58A10.49,10.49,0,0,0,331.48,109.73Z"/><path class="cls-1" d="M67.38,144.43l-.16,4.87q0,.87,0,1.32a3.09,3.09,0,0,0,.19.93.94.94,0,0,0,.42.59,1.77,1.77,0,0,0,.51.14,1.08,1.08,0,0,1,.37.09.26.26,0,0,1,.11.25,1.89,1.89,0,0,1-.51,1.35,1.59,1.59,0,0,1-1.19.54,1.65,1.65,0,0,1-1.63-.93,6.48,6.48,0,0,1-.45-2.73l.12-5.71a5.89,5.89,0,0,0-.9-3.41,2.87,2.87,0,0,0-2.5-1.3,4.13,4.13,0,0,0-3.09,1.77,10.15,10.15,0,0,0-2.08,4l.09,6.73q0,1.58-1.18,1.58-1.43,0-1.43-2.19a42.12,42.12,0,0,1,.62-6.12,33.63,33.63,0,0,0-.26-3.6q-.26-2.29-.26-2.84a1.52,1.52,0,0,1,.33-1,1.14,1.14,0,0,1,1.77,0,1.5,1.5,0,0,1,.33.95q0,.53,0,1.29t0,1.29q2.26-3.94,5.58-3.94A4.58,4.58,0,0,1,66,140.15,6.8,6.8,0,0,1,67.38,144.43Z"/><path class="cls-1" d="M79.52,138.23a5.88,5.88,0,0,1,4.06,1.4,4.63,4.63,0,0,1,1.57,3.63,3.73,3.73,0,0,1-1.94,3.4,9.1,9.1,0,0,1-4.76,1.16,20.64,20.64,0,0,1-3.94-.47,6.14,6.14,0,0,0,1.63,3.74,4.3,4.3,0,0,0,3.21,1.57,6.25,6.25,0,0,0,2-.29,5,5,0,0,0,1.36-.64,4.12,4.12,0,0,1,1.63-1,.84.84,0,0,1,.62.23.78.78,0,0,1,.23.57q0,.87-1.78,2a7.14,7.14,0,0,1-3.86,1.12,6.32,6.32,0,0,1-5.12-2.26,8.94,8.94,0,0,1-2-5.46q-1.64-.5-1.64-1.61a1,1,0,0,1,.26-.73.87.87,0,0,1,.64-.26,2.19,2.19,0,0,1,.93.28A9.12,9.12,0,0,1,75.12,140,6.23,6.23,0,0,1,79.52,138.23Zm-1.18,7.63a6.76,6.76,0,0,0,3.35-.71,2.15,2.15,0,0,0,1.26-1.92,3,3,0,0,0-.82-2.09,3,3,0,0,0-2.34-.88,4.47,4.47,0,0,0-3.44,1.53,7.33,7.33,0,0,0-1.8,3.58A13.56,13.56,0,0,0,78.34,145.86Z"/><path class="cls-1" d="M93.77,151.72q.28,0,2-5.89t1.92-6.33a1.46,1.46,0,0,1,1.38-1.12,1.36,1.36,0,0,1,1.32,1.08q.34,1.05.93,3.26t.87,3.16q1.71,5.83,2,5.83t2-5.8q.4-1.33,1-3.63t.74-2.7q.37-1.21,1.15-1.21a1.17,1.17,0,0,1,.79.28.85.85,0,0,1,.33.67,3.08,3.08,0,0,1-.08.71q-.08.33-.28.93t-.42,1.29q-.22.68-.64,1.91t-1.44,4.45q-1,3.22-1.61,4.71a1.7,1.7,0,0,1-1.71,1.18q-1.24,0-1.8-1.61-1.12-3.22-2.14-6.81t-1.27-3.58q-.22,0-.57,1.22l-.56,1.92q-.2.7-.26.95a54.22,54.22,0,0,1-2.23,6.82,1.77,1.77,0,0,1-1.71,1.09q-1.18,0-1.77-1.71-.22-.62-.88-2.67t-1.09-3.3q-.42-1.26-.84-2.43l-.67-1.86q-.25-.68-.47-1.33a6.41,6.41,0,0,1-.4-1.71,1.06,1.06,0,0,1,.33-.81,1.1,1.1,0,0,1,.79-.31q.9,0,1.24,1.08.12.37.82,2.71t1,3.29l.6,1.94q.31,1,.51,1.61t.45,1.33Q93.61,151.72,93.77,151.72Z"/><path class="cls-1" d="M121,148.31l0-1.18v-.5a37.5,37.5,0,0,0-.28-3.81q-.28-2.51-.28-3.05a1.52,1.52,0,0,1,.33-1,1.14,1.14,0,0,1,1.77,0,1.5,1.5,0,0,1,.33.95q0,.53,0,1.32t0,1.32a9.86,9.86,0,0,1,2.29-2.95,5,5,0,0,1,3.29-1.05,5,5,0,0,1,3.47,1.3,7.39,7.39,0,0,1,2.08,3,9.92,9.92,0,0,1,.62,3.41,9,9,0,0,1-2,5.89,6.46,6.46,0,0,1-5.24,2.51,7.33,7.33,0,0,1-4.4-1.52q-.06,3.75-.06,5.57a5.17,5.17,0,0,1-.31,2.29,1.06,1.06,0,0,1-1,.48,1.3,1.3,0,0,1-1.07-.54,2.52,2.52,0,0,1-.42-1.57q0-1,.12-2.43t.37-3.72q.25-2.31.4-4.17Zm9.81,2.36a6.56,6.56,0,0,0,1.5-4.29,7.85,7.85,0,0,0-1.09-4.22,3.32,3.32,0,0,0-2.95-1.75q-3.26,0-5.36,5.36v4.93a6.12,6.12,0,0,0,4.4,1.8A4.43,4.43,0,0,0,130.83,150.66Z"/><path class="cls-1" d="M150.57,146.69a17.32,17.32,0,0,0,.34,3.8q.34,1.47.81,1.66a1.35,1.35,0,0,0,.45.12,1.08,1.08,0,0,1,.37.09.26.26,0,0,1,.11.25,2,2,0,0,1-.45,1.36,1.67,1.67,0,0,1-1.35.53q-.9,0-1.4-1.15a7.48,7.48,0,0,1-.5-2.95,7.57,7.57,0,0,1-2.28,2.91,5.34,5.34,0,0,1-3.38,1.18,4.65,4.65,0,0,1-3.24-1.24,8.33,8.33,0,0,1-2.48-6.48,9.32,9.32,0,0,1,2-5.89,6.09,6.09,0,0,1,5-2.51,5.73,5.73,0,0,1,4,1.58q0-1.58,1.18-1.58,1.43,0,1.43,2.19A42.11,42.11,0,0,1,150.57,146.69Zm-1.8.28-.15-4.77a5.58,5.58,0,0,0-3.89-1.8,4.34,4.34,0,0,0-3.49,1.83,6.82,6.82,0,0,0-1.46,4.39,8.43,8.43,0,0,0,.95,4.22,3,3,0,0,0,2.68,1.66,4.24,4.24,0,0,0,3.16-1.55A10.5,10.5,0,0,0,148.77,147Z"/><path class="cls-1" d="M166.26,139.84q.06-1.46,1.18-1.46,1.43,0,1.43,2.19a42.18,42.18,0,0,1-.62,6.12q.37,3.78.37,5.64a10.38,10.38,0,0,1-1.91,6.53,6.37,6.37,0,0,1-5.35,2.47,8.51,8.51,0,0,1-3.63-.79Q156,159.75,156,159t.71-.79a6.73,6.73,0,0,1,1.6.57,7.51,7.51,0,0,0,3,.57,4.66,4.66,0,0,0,3.91-1.86,7.68,7.68,0,0,0,1.43-4.81,14.92,14.92,0,0,0-.16-2.23,7,7,0,0,1-2.22,2.88,5.06,5.06,0,0,1-3.16,1.21,5.15,5.15,0,0,1-2.78-.71,5.7,5.7,0,0,1-1.86-1.86,10.31,10.31,0,0,1-1.4-5.41,8.59,8.59,0,0,1,2.09-5.61,6.46,6.46,0,0,1,5.16-2.53A5.88,5.88,0,0,1,166.26,139.84Zm.06,7.1V142.2a5.12,5.12,0,0,0-3.77-1.8,4.57,4.57,0,0,0-3.6,1.85,6.62,6.62,0,0,0-1.53,4.37,8.34,8.34,0,0,0,1,4.2,2.94,2.94,0,0,0,2.65,1.67,4.17,4.17,0,0,0,3.12-1.58A10.5,10.5,0,0,0,166.32,146.94Z"/><path class="cls-1" d="M180.54,138.23a5.88,5.88,0,0,1,4.06,1.4,4.63,4.63,0,0,1,1.57,3.63,3.73,3.73,0,0,1-1.94,3.4,9.1,9.1,0,0,1-4.76,1.16,20.64,20.64,0,0,1-3.94-.47,6.13,6.13,0,0,0,1.63,3.74,4.29,4.29,0,0,0,3.21,1.57,6.25,6.25,0,0,0,2-.29,5,5,0,0,0,1.36-.64,4.12,4.12,0,0,1,1.63-1,.84.84,0,0,1,.62.23.78.78,0,0,1,.23.57q0,.87-1.78,2a7.14,7.14,0,0,1-3.86,1.12,6.32,6.32,0,0,1-5.12-2.26,8.94,8.94,0,0,1-2-5.46q-1.64-.5-1.64-1.61a1,1,0,0,1,.26-.73.87.87,0,0,1,.64-.26,2.19,2.19,0,0,1,.93.28,9.12,9.12,0,0,1,2.59-4.59A6.23,6.23,0,0,1,180.54,138.23Zm-1.18,7.63a6.76,6.76,0,0,0,3.35-.71,2.15,2.15,0,0,0,1.26-1.92,3,3,0,0,0-.82-2.09,3,3,0,0,0-2.34-.88,4.47,4.47,0,0,0-3.44,1.53,7.33,7.33,0,0,0-1.8,3.58A13.57,13.57,0,0,0,179.36,145.86Z"/><path class="cls-1" d="M210.72,146.1a9.32,9.32,0,0,1-2,5.89,6.09,6.09,0,0,1-5,2.51,5.73,5.73,0,0,1-4-1.58q0,1.58-1.18,1.58-1.43,0-1.43-2.19a42.12,42.12,0,0,1,.62-6.12q0-2.11-.28-8t-.28-6.31a1.42,1.42,0,0,1,.33-.88,1.14,1.14,0,0,1,1.77,0,1.8,1.8,0,0,1,.33,1.13V142a7.36,7.36,0,0,1,2.25-2.59,5.41,5.41,0,0,1,3.23-1,4.47,4.47,0,0,1,3.15,1.24A8.28,8.28,0,0,1,210.72,146.1Zm-7.15,6.39a4.34,4.34,0,0,0,3.49-1.83,6.82,6.82,0,0,0,1.46-4.39,8.43,8.43,0,0,0-.95-4.22,3,3,0,0,0-2.68-1.66,4.24,4.24,0,0,0-3.16,1.55,10.49,10.49,0,0,0-2.2,4l.16,4.77A5.58,5.58,0,0,0,203.58,152.49Z"/><path class="cls-1" d="M225.17,146.69l-.09-6.73q0-1.58,1.18-1.58,1.43,0,1.43,2.33a44,44,0,0,1-.65,6q.37,3.78.37,5.64a10.1,10.1,0,0,1-2,6.53,6.76,6.76,0,0,1-5.58,2.47,8.52,8.52,0,0,1-3.63-.79q-1.71-.79-1.71-1.58t.71-.79a7.45,7.45,0,0,1,1.72.57,7.63,7.63,0,0,0,2.9.57,5,5,0,0,0,4.12-1.86,7.36,7.36,0,0,0,1.52-4.81q0-1.09-.09-2.11-2.29,4-5.77,4a4.5,4.5,0,0,1-3.85-1.84,7.38,7.38,0,0,1-1.36-4.51l.19-4.68a10.21,10.21,0,0,0-.25-2.31,7.81,7.81,0,0,1-.25-1.53,1.21,1.21,0,0,1,.37-.85,1.27,1.27,0,0,1,1-.39q1.43,0,1.43,2.54l-.25,6.82a6,6,0,0,0,.9,3.43,2.86,2.86,0,0,0,2.5,1.32,4.13,4.13,0,0,0,3.09-1.78A10.29,10.29,0,0,0,225.17,146.69Z"/><path class="cls-1" d="M251,151q.77,0,.78.82t-1.8,1.83a7.63,7.63,0,0,1-3.78,1,7,7,0,0,1-5.43-2.4,8.85,8.85,0,0,1,0-11.63,7.41,7.41,0,0,1,5.75-2.4,6.7,6.7,0,0,1,3.46.88q1.5.88,1.5,1.81a1.14,1.14,0,0,1-.31.82,1,1,0,0,1-.71.33,1.51,1.51,0,0,1-.93-.47,5.07,5.07,0,0,0-3.29-1.36,4.86,4.86,0,0,0-3.74,1.8,6.35,6.35,0,0,0-1.6,4.37,6.43,6.43,0,0,0,1.61,4.4,5.12,5.12,0,0,0,4,1.83,6.07,6.07,0,0,0,3.57-1.24A1.86,1.86,0,0,1,251,151Z"/><path class="cls-1" d="M268.27,144.43l-.15,4.87q0,.87,0,1.32a3.09,3.09,0,0,0,.19.93.94.94,0,0,0,.42.59,1.77,1.77,0,0,0,.51.14,1.08,1.08,0,0,1,.37.09.26.26,0,0,1,.11.25,1.89,1.89,0,0,1-.51,1.35,1.59,1.59,0,0,1-1.19.54,1.65,1.65,0,0,1-1.63-.93,6.48,6.48,0,0,1-.45-2.73l.12-5.71a5.89,5.89,0,0,0-.9-3.41,2.87,2.87,0,0,0-2.5-1.3,4.13,4.13,0,0,0-3.08,1.77,10.15,10.15,0,0,0-2.08,4l.09,6.73q0,1.58-1.18,1.58-1.43,0-1.43-2.19a42.12,42.12,0,0,1,.62-6.12q0-2.11-.28-8t-.28-6.31a1.42,1.42,0,0,1,.33-.88,1.14,1.14,0,0,1,1.77,0,1.8,1.8,0,0,1,.33,1.13v10.14q2.26-3.94,5.58-3.94a4.58,4.58,0,0,1,3.84,1.77A6.8,6.8,0,0,1,268.27,144.43Z"/><path class="cls-1" d="M279.57,138.23a6.59,6.59,0,0,1,5.22,2.37,9.27,9.27,0,0,1,0,11.66,6.91,6.91,0,0,1-10.45,0,9.3,9.3,0,0,1,0-11.66A6.6,6.6,0,0,1,279.57,138.23Zm3.57,12.59a7.27,7.27,0,0,0,.06-8.77,4.42,4.42,0,0,0-3.58-1.8,4.56,4.56,0,0,0-3.64,1.83,7.27,7.27,0,0,0-.06,8.77,4.42,4.42,0,0,0,3.58,1.8A4.56,4.56,0,0,0,283.14,150.82Z"/><path class="cls-1" d="M297,138.23a6.59,6.59,0,0,1,5.22,2.37,9.27,9.27,0,0,1,0,11.66,6.91,6.91,0,0,1-10.45,0,9.3,9.3,0,0,1,0-11.66A6.6,6.6,0,0,1,297,138.23Zm3.57,12.59a7.27,7.27,0,0,0,.06-8.77,4.42,4.42,0,0,0-3.58-1.8,4.56,4.56,0,0,0-3.64,1.83,7.27,7.27,0,0,0-.06,8.77,4.42,4.42,0,0,0,3.58,1.8A4.56,4.56,0,0,0,300.56,150.82Z"/><path class="cls-1" d="M318.59,149.73a4.16,4.16,0,0,1-1.72,3.44,6.53,6.53,0,0,1-4.12,1.33,7.73,7.73,0,0,1-4.17-1.1q-1.77-1.1-1.77-2.19a1.06,1.06,0,0,1,.28-.76.85.85,0,0,1,.64-.29,1,1,0,0,1,.57.14,3.53,3.53,0,0,1,.59.54q.37.4.67.68a3.9,3.9,0,0,0,1.21.62,4.86,4.86,0,0,0,1.69.34,5.16,5.16,0,0,0,2.81-.7,2.26,2.26,0,0,0,1.1-2q0-1.61-3.1-2.7-1.27-.43-2.56-.95a6.37,6.37,0,0,1-2.19-1.41,2.92,2.92,0,0,1-.9-2.14,3.72,3.72,0,0,1,1.52-2.93,5.65,5.65,0,0,1,3.72-1.26,6.85,6.85,0,0,1,3.49.76q1.29.76,1.29,1.6,0,1-1.08,1a1.57,1.57,0,0,1-.93-.34,4.9,4.9,0,0,0-2.79-1,3.62,3.62,0,0,0-2.17.6,1.72,1.72,0,0,0-.84,1.4,1.6,1.6,0,0,0,.9,1.35,11.7,11.7,0,0,0,2.19,1q1.29.47,2.59,1a6.33,6.33,0,0,1,2.2,1.58A3.41,3.41,0,0,1,318.59,149.73Z"/><path class="cls-1" d="M323.43,131.72a1.12,1.12,0,0,1,1,.42,1.73,1.73,0,0,1,.31,1.05,2.24,2.24,0,0,1-.43,1.27,1.28,1.28,0,0,1-1.08.64,1.14,1.14,0,0,1-1-.43,1.86,1.86,0,0,1-.33-1.15,1.91,1.91,0,0,1,.45-1.26A1.38,1.38,0,0,1,323.43,131.72Zm.87,14.73.15,6.51q0,1.55-1.18,1.55T322.1,153l.16-6.51-.16-6.51q0-1.55,1.18-1.55t1.18,1.55Z"/><path class="cls-1" d="M342.13,144.43,342,149.3q0,.87,0,1.32a3.09,3.09,0,0,0,.19.93.94.94,0,0,0,.42.59,1.77,1.77,0,0,0,.51.14,1.08,1.08,0,0,1,.37.09.26.26,0,0,1,.11.25,1.89,1.89,0,0,1-.51,1.35,1.59,1.59,0,0,1-1.19.54,1.65,1.65,0,0,1-1.63-.93,6.48,6.48,0,0,1-.45-2.73l.12-5.71a5.89,5.89,0,0,0-.9-3.41,2.87,2.87,0,0,0-2.5-1.3,4.13,4.13,0,0,0-3.08,1.77,10.15,10.15,0,0,0-2.08,4l.09,6.73q0,1.58-1.18,1.58-1.43,0-1.43-2.19a42.12,42.12,0,0,1,.62-6.12,33.52,33.52,0,0,0-.26-3.6q-.26-2.29-.26-2.84a1.52,1.52,0,0,1,.33-1,1.14,1.14,0,0,1,1.77,0,1.5,1.5,0,0,1,.33.95q0,.53,0,1.29t0,1.29q2.26-3.94,5.58-3.94a4.58,4.58,0,0,1,3.84,1.77A6.8,6.8,0,0,1,342.13,144.43Z"/><path class="cls-1" d="M357.29,139.84q.06-1.46,1.18-1.46,1.43,0,1.43,2.19a42.18,42.18,0,0,1-.62,6.12q.37,3.78.37,5.64a10.38,10.38,0,0,1-1.91,6.53,6.37,6.37,0,0,1-5.35,2.47,8.52,8.52,0,0,1-3.63-.79q-1.71-.79-1.71-1.58t.71-.79a6.74,6.74,0,0,1,1.6.57,7.51,7.51,0,0,0,3,.57,4.66,4.66,0,0,0,3.91-1.86,7.68,7.68,0,0,0,1.43-4.81,14.92,14.92,0,0,0-.16-2.23,7,7,0,0,1-2.22,2.88,5.06,5.06,0,0,1-3.16,1.21,5.15,5.15,0,0,1-2.78-.71,5.71,5.71,0,0,1-1.86-1.86,10.31,10.31,0,0,1-1.4-5.41,8.59,8.59,0,0,1,2.09-5.61,6.46,6.46,0,0,1,5.16-2.53A5.88,5.88,0,0,1,357.29,139.84Zm.06,7.1V142.2a5.12,5.12,0,0,0-3.77-1.8,4.57,4.57,0,0,0-3.6,1.85,6.62,6.62,0,0,0-1.53,4.37,8.34,8.34,0,0,0,1,4.2,2.94,2.94,0,0,0,2.65,1.67,4.17,4.17,0,0,0,3.12-1.58A10.49,10.49,0,0,0,357.35,146.94Z"/><path class="cls-1" d="M72.33,183.9a17.32,17.32,0,0,0,.34,3.8q.34,1.47.81,1.66a1.35,1.35,0,0,0,.45.12,1.08,1.08,0,0,1,.37.09.26.26,0,0,1,.11.25,2,2,0,0,1-.45,1.36,1.67,1.67,0,0,1-1.35.53q-.9,0-1.4-1.15a7.47,7.47,0,0,1-.5-2.95,7.57,7.57,0,0,1-2.28,2.91,5.34,5.34,0,0,1-3.38,1.18,4.65,4.65,0,0,1-3.24-1.24A8.33,8.33,0,0,1,59.33,184a9.32,9.32,0,0,1,2-5.89,6.09,6.09,0,0,1,5-2.51,5.73,5.73,0,0,1,4,1.58q0-1.58,1.18-1.58,1.43,0,1.43,2.19A42.14,42.14,0,0,1,72.33,183.9Zm-1.8.28-.16-4.77a5.58,5.58,0,0,0-3.89-1.8A4.34,4.34,0,0,0,63,179.44a6.82,6.82,0,0,0-1.46,4.39,8.43,8.43,0,0,0,.95,4.22,3,3,0,0,0,2.68,1.66,4.24,4.24,0,0,0,3.16-1.55A10.5,10.5,0,0,0,70.53,184.18Z"/><path class="cls-1" d="M88.6,177.79l-.06,7.35a18,18,0,0,0,.23,3.69,1.12,1.12,0,0,0,1.22.87,2.69,2.69,0,0,0,1.13-.33A2.73,2.73,0,0,1,92,189a.57.57,0,0,1,.65.64q0,.64-1.15,1.33a4.34,4.34,0,0,1-2.26.7q-2.7,0-2.7-4l0-10q-1,.09-1.43.09-1.55,0-1.55-1t1.55-1l1.36.06-.06-3.47q0-1.55,1.18-1.55t1.18,1.55l-.09,3.5,2.51-.12q1.55,0,1.55,1.05t-1.55,1Z"/><path class="cls-1" d="M102.6,175.44a5.88,5.88,0,0,1,4.06,1.4,4.63,4.63,0,0,1,1.57,3.63,3.73,3.73,0,0,1-1.94,3.4,9.1,9.1,0,0,1-4.76,1.16,20.64,20.64,0,0,1-3.94-.47,6.14,6.14,0,0,0,1.63,3.74,4.3,4.3,0,0,0,3.21,1.57,6.25,6.25,0,0,0,2-.29,5,5,0,0,0,1.36-.64,4.12,4.12,0,0,1,1.63-1,.84.84,0,0,1,.62.23.78.78,0,0,1,.23.57q0,.87-1.78,2a7.14,7.14,0,0,1-3.86,1.12,6.32,6.32,0,0,1-5.12-2.26,8.94,8.94,0,0,1-2-5.46q-1.64-.5-1.64-1.61a1,1,0,0,1,.26-.73.87.87,0,0,1,.64-.26,2.19,2.19,0,0,1,.93.28,9.12,9.12,0,0,1,2.59-4.59A6.23,6.23,0,0,1,102.6,175.44Zm-1.18,7.63a6.76,6.76,0,0,0,3.35-.71,2.15,2.15,0,0,0,1.26-1.92,3,3,0,0,0-.82-2.09,3,3,0,0,0-2.34-.88A4.47,4.47,0,0,0,99.43,179a7.33,7.33,0,0,0-1.8,3.58A13.56,13.56,0,0,0,101.43,183.06Z"/><path class="cls-1" d="M134.37,181.64l-.16,4.87q0,.87,0,1.32a3.09,3.09,0,0,0,.19.93.94.94,0,0,0,.42.59,1.77,1.77,0,0,0,.51.14,1.08,1.08,0,0,1,.37.09.26.26,0,0,1,.11.25,1.89,1.89,0,0,1-.51,1.35,1.59,1.59,0,0,1-1.19.54,1.65,1.65,0,0,1-1.63-.93,6.48,6.48,0,0,1-.45-2.73l.12-5.71a6.32,6.32,0,0,0-.82-3.41,2.58,2.58,0,0,0-2.29-1.3,3.81,3.81,0,0,0-2.87,1.77,10.47,10.47,0,0,0-2,4l.09,6.73q0,1.58-1.18,1.58-1.43,0-1.43-2.19a42.08,42.08,0,0,1,.62-6.12q0-5.77-3.16-5.77a3.8,3.8,0,0,0-2.85,1.77,10.48,10.48,0,0,0-2,4l.09,6.73q0,1.58-1.18,1.58-1.43,0-1.43-2.19a42.12,42.12,0,0,1,.62-6.12,33.63,33.63,0,0,0-.26-3.6Q112,177.51,112,177a1.52,1.52,0,0,1,.33-1,1.14,1.14,0,0,1,1.77,0,1.5,1.5,0,0,1,.33.95q0,.53,0,1.29t0,1.29q2.11-3.94,5.27-3.94a4.25,4.25,0,0,1,3,1.07,5.55,5.55,0,0,1,1.6,2.87q2.11-3.94,5.27-3.94a4.21,4.21,0,0,1,3.61,1.77A7.08,7.08,0,0,1,134.37,181.64Z"/><path class="cls-1" d="M139.55,185.51l0-1.18v-.5a37.5,37.5,0,0,0-.28-3.81Q139,177.51,139,177a1.52,1.52,0,0,1,.33-1,1.14,1.14,0,0,1,1.77,0,1.5,1.5,0,0,1,.33.95q0,.53,0,1.32t0,1.32a9.86,9.86,0,0,1,2.29-2.95,5,5,0,0,1,3.29-1.05,5,5,0,0,1,3.47,1.3,7.4,7.4,0,0,1,2.08,3,9.92,9.92,0,0,1,.62,3.41,9,9,0,0,1-2,5.89,6.46,6.46,0,0,1-5.24,2.51,7.33,7.33,0,0,1-4.4-1.52q-.06,3.75-.06,5.57a5.17,5.17,0,0,1-.31,2.29,1.06,1.06,0,0,1-1,.48,1.3,1.3,0,0,1-1.07-.54,2.52,2.52,0,0,1-.42-1.57q0-1,.12-2.43t.37-3.72q.25-2.31.4-4.17Zm9.81,2.36a6.56,6.56,0,0,0,1.5-4.29,7.86,7.86,0,0,0-1.08-4.22,3.32,3.32,0,0,0-2.95-1.75q-3.26,0-5.36,5.36v4.93a6.12,6.12,0,0,0,4.4,1.8A4.43,4.43,0,0,0,149.36,187.87Z"/><path class="cls-1" d="M159.11,179.78l.16,10.39q0,1.55-1.18,1.55t-1.18-1.55l.16-10.39-.16-10.39q0-1.55,1.18-1.55t1.18,1.55Z"/><path class="cls-1" d="M176,183.9a17.32,17.32,0,0,0,.34,3.8q.34,1.47.81,1.66a1.35,1.35,0,0,0,.45.12,1.08,1.08,0,0,1,.37.09.26.26,0,0,1,.11.25,2,2,0,0,1-.45,1.36,1.68,1.68,0,0,1-1.35.53q-.9,0-1.4-1.15a7.47,7.47,0,0,1-.5-2.95,7.57,7.57,0,0,1-2.28,2.91,5.34,5.34,0,0,1-3.38,1.18,4.65,4.65,0,0,1-3.24-1.24,8.33,8.33,0,0,1-2.48-6.48,9.32,9.32,0,0,1,2-5.89,6.09,6.09,0,0,1,5-2.51,5.73,5.73,0,0,1,4,1.58q0-1.58,1.18-1.58,1.43,0,1.43,2.19A42.18,42.18,0,0,1,176,183.9Zm-1.8.28-.15-4.77a5.58,5.58,0,0,0-3.89-1.8,4.34,4.34,0,0,0-3.49,1.83,6.82,6.82,0,0,0-1.46,4.39,8.43,8.43,0,0,0,.95,4.22,3,3,0,0,0,2.68,1.66,4.24,4.24,0,0,0,3.16-1.55A10.49,10.49,0,0,0,174.24,184.18Z"/><path class="cls-1" d="M184.94,177.79l-.06,7.35a18,18,0,0,0,.23,3.69,1.12,1.12,0,0,0,1.23.87,2.69,2.69,0,0,0,1.13-.33,2.74,2.74,0,0,1,.88-.33.57.57,0,0,1,.65.64q0,.64-1.15,1.33a4.34,4.34,0,0,1-2.26.7q-2.7,0-2.7-4l0-10q-1,.09-1.43.09-1.55,0-1.55-1t1.55-1l1.36.06-.06-3.47q0-1.55,1.18-1.55t1.18,1.55l-.09,3.5,2.51-.12q1.55,0,1.55,1.05t-1.55,1Z"/><path class="cls-1" d="M198.94,175.44a5.88,5.88,0,0,1,4.06,1.4,4.63,4.63,0,0,1,1.57,3.63,3.73,3.73,0,0,1-1.94,3.4,9.1,9.1,0,0,1-4.76,1.16,20.64,20.64,0,0,1-3.94-.47,6.13,6.13,0,0,0,1.63,3.74,4.29,4.29,0,0,0,3.21,1.57,6.25,6.25,0,0,0,2-.29,5,5,0,0,0,1.36-.64,4.12,4.12,0,0,1,1.63-1,.84.84,0,0,1,.62.23.78.78,0,0,1,.23.57q0,.87-1.78,2a7.14,7.14,0,0,1-3.86,1.12,6.32,6.32,0,0,1-5.12-2.26,8.94,8.94,0,0,1-2-5.46q-1.64-.5-1.64-1.61a1,1,0,0,1,.26-.73.87.87,0,0,1,.64-.26,2.19,2.19,0,0,1,.93.28,9.12,9.12,0,0,1,2.59-4.59A6.23,6.23,0,0,1,198.94,175.44Zm-1.18,7.63a6.76,6.76,0,0,0,3.35-.71,2.15,2.15,0,0,0,1.26-1.92,3,3,0,0,0-.82-2.09,3,3,0,0,0-2.34-.88,4.47,4.47,0,0,0-3.44,1.53,7.33,7.33,0,0,0-1.8,3.58A13.57,13.57,0,0,0,197.76,183.06Z"/><path class="cls-1" d="M222.2,175.44a6.59,6.59,0,0,1,5.22,2.37,9.27,9.27,0,0,1,0,11.66,6.91,6.91,0,0,1-10.45,0,9.3,9.3,0,0,1,0-11.66A6.6,6.6,0,0,1,222.2,175.44ZM225.76,188a7.27,7.27,0,0,0,.06-8.77,4.42,4.42,0,0,0-3.58-1.8,4.56,4.56,0,0,0-3.64,1.83,7.27,7.27,0,0,0-.06,8.77,4.42,4.42,0,0,0,3.58,1.8A4.56,4.56,0,0,0,225.76,188Z"/><path class="cls-1" d="M238.2,188.6c.11.22.2.33.26.33s.15-.11.26-.33.26-.56.45-1,.35-.9.48-1.27l.6-1.64.53-1.52q.5-1.36,1.24-3.71t.9-2.71q.43-1.12,1.21-1.12a1.14,1.14,0,0,1,.79.29.93.93,0,0,1,.33.71,3.39,3.39,0,0,1-.26,1.12q-.26.7-1,2.48t-2,5.38a48.25,48.25,0,0,1-1.94,4.87,1.94,1.94,0,0,1-1.72,1.27,1.76,1.76,0,0,1-1.63-1.12q-.22-.43-1.61-4.11t-1.86-4.85l-.73-1.83q-.26-.65-.48-1.3a6.55,6.55,0,0,1-.46-1.81,1.06,1.06,0,0,1,.31-.81,1.08,1.08,0,0,1,.77-.29q.84,0,1.27,1.08.15.37.91,2.71t1.1,3.26q.34.91.71,2l.57,1.64q.2.59.48,1.3T238.2,188.6Z"/><path class="cls-1" d="M255.5,175.44a5.88,5.88,0,0,1,4.06,1.4,4.63,4.63,0,0,1,1.57,3.63,3.73,3.73,0,0,1-1.94,3.4,9.1,9.1,0,0,1-4.76,1.16,20.64,20.64,0,0,1-3.94-.47,6.13,6.13,0,0,0,1.63,3.74,4.29,4.29,0,0,0,3.21,1.57,6.25,6.25,0,0,0,2-.29,5,5,0,0,0,1.36-.64,4.12,4.12,0,0,1,1.63-1,.84.84,0,0,1,.62.23.78.78,0,0,1,.23.57q0,.87-1.78,2a7.14,7.14,0,0,1-3.86,1.12,6.32,6.32,0,0,1-5.12-2.26,8.94,8.94,0,0,1-2-5.46q-1.64-.5-1.64-1.61a1,1,0,0,1,.26-.73.87.87,0,0,1,.64-.26,2.19,2.19,0,0,1,.93.28,9.12,9.12,0,0,1,2.59-4.59A6.23,6.23,0,0,1,255.5,175.44Zm-1.18,7.63a6.76,6.76,0,0,0,3.35-.71,2.15,2.15,0,0,0,1.26-1.92,3,3,0,0,0-.82-2.09,3,3,0,0,0-2.34-.88,4.47,4.47,0,0,0-3.44,1.53,7.33,7.33,0,0,0-1.8,3.58A13.57,13.57,0,0,0,254.32,183.06Z"/><path class="cls-1" d="M267.26,184.3l.09,5.83q0,1.58-1.18,1.58-1.43,0-1.43-2.19a42.12,42.12,0,0,1,.62-6.12,32.67,32.67,0,0,0-.26-3.57q-.26-2.26-.26-2.82a1.61,1.61,0,0,1,.33-1,1.12,1.12,0,0,1,1.77,0,1.54,1.54,0,0,1,.33.95q0,.51,0,1.3t0,1.32a7.45,7.45,0,0,1,1.94-2.79,4,4,0,0,1,2.71-1.21,3.52,3.52,0,0,1,2.15.57,1.58,1.58,0,0,1,.76,1.22,1.46,1.46,0,0,1-.34,1,1.14,1.14,0,0,1-.88.37,1.84,1.84,0,0,1-1.18-.57,1.79,1.79,0,0,0-1-.57q-1,0-2.39,2.2A12.22,12.22,0,0,0,267.26,184.3Z"/><path class="cls-1" d="M288.35,177.79l-.06,7.35a18,18,0,0,0,.23,3.69,1.12,1.12,0,0,0,1.23.87,2.69,2.69,0,0,0,1.13-.33,2.74,2.74,0,0,1,.88-.33.57.57,0,0,1,.65.64q0,.64-1.15,1.33a4.34,4.34,0,0,1-2.26.7q-2.7,0-2.7-4l0-10q-1,.09-1.43.09-1.55,0-1.55-1t1.55-1l1.36.06-.06-3.47q0-1.55,1.18-1.55t1.18,1.55l-.09,3.5,2.51-.12q1.55,0,1.55,1.05t-1.55,1Z"/><path class="cls-1" d="M308.44,181.64l-.15,4.87q0,.87,0,1.32a3.09,3.09,0,0,0,.19.93.94.94,0,0,0,.42.59,1.77,1.77,0,0,0,.51.14,1.08,1.08,0,0,1,.37.09.26.26,0,0,1,.11.25,1.89,1.89,0,0,1-.51,1.35,1.59,1.59,0,0,1-1.19.54,1.65,1.65,0,0,1-1.63-.93,6.48,6.48,0,0,1-.45-2.73l.12-5.71a5.89,5.89,0,0,0-.9-3.41,2.87,2.87,0,0,0-2.5-1.3,4.13,4.13,0,0,0-3.08,1.77,10.15,10.15,0,0,0-2.08,4l.09,6.73q0,1.58-1.18,1.58-1.43,0-1.43-2.19a42.12,42.12,0,0,1,.62-6.12q0-2.11-.28-8t-.28-6.31a1.42,1.42,0,0,1,.33-.88,1.14,1.14,0,0,1,1.77,0,1.8,1.8,0,0,1,.33,1.13v10.14q2.26-3.94,5.58-3.94a4.58,4.58,0,0,1,3.84,1.77A6.8,6.8,0,0,1,308.44,181.64Z"/><path class="cls-1" d="M320.58,175.44a5.88,5.88,0,0,1,4.06,1.4,4.63,4.63,0,0,1,1.57,3.63,3.73,3.73,0,0,1-1.94,3.4,9.1,9.1,0,0,1-4.76,1.16,20.64,20.64,0,0,1-3.94-.47,6.13,6.13,0,0,0,1.63,3.74,4.29,4.29,0,0,0,3.21,1.57,6.25,6.25,0,0,0,2-.29,5,5,0,0,0,1.36-.64,4.12,4.12,0,0,1,1.63-1,.84.84,0,0,1,.62.23.78.78,0,0,1,.23.57q0,.87-1.78,2a7.14,7.14,0,0,1-3.86,1.12,6.32,6.32,0,0,1-5.12-2.26,8.94,8.94,0,0,1-2-5.46q-1.64-.5-1.64-1.61a1,1,0,0,1,.26-.73.87.87,0,0,1,.64-.26,2.19,2.19,0,0,1,.93.28,9.12,9.12,0,0,1,2.59-4.59A6.23,6.23,0,0,1,320.58,175.44Zm-1.18,7.63a6.76,6.76,0,0,0,3.35-.71,2.15,2.15,0,0,0,1.26-1.92,3,3,0,0,0-.82-2.09,3,3,0,0,0-2.34-.88A4.47,4.47,0,0,0,317.4,179a7.33,7.33,0,0,0-1.8,3.58A13.57,13.57,0,0,0,319.4,183.06Z"/><path class="cls-1" d="M332.35,184.3l.09,5.83q0,1.58-1.18,1.58-1.43,0-1.43-2.19a42.12,42.12,0,0,1,.62-6.12,32.67,32.67,0,0,0-.26-3.57q-.26-2.26-.26-2.82a1.61,1.61,0,0,1,.33-1,1.12,1.12,0,0,1,1.77,0,1.54,1.54,0,0,1,.33.95q0,.51,0,1.3t0,1.32a7.45,7.45,0,0,1,1.94-2.79,4,4,0,0,1,2.71-1.21,3.52,3.52,0,0,1,2.15.57,1.58,1.58,0,0,1,.76,1.22,1.46,1.46,0,0,1-.34,1,1.14,1.14,0,0,1-.88.37,1.84,1.84,0,0,1-1.18-.57,1.79,1.79,0,0,0-1-.57q-1,0-2.39,2.2A12.22,12.22,0,0,0,332.35,184.3Z"/><path class="cls-1" d="M349,175.44a5.88,5.88,0,0,1,4.06,1.4,4.63,4.63,0,0,1,1.57,3.63,3.73,3.73,0,0,1-1.94,3.4,9.1,9.1,0,0,1-4.76,1.16,20.64,20.64,0,0,1-3.94-.47,6.13,6.13,0,0,0,1.63,3.74,4.29,4.29,0,0,0,3.21,1.57,6.25,6.25,0,0,0,2-.29,5,5,0,0,0,1.36-.64,4.12,4.12,0,0,1,1.63-1,.84.84,0,0,1,.62.23.78.78,0,0,1,.23.57q0,.87-1.78,2a7.14,7.14,0,0,1-3.86,1.12,6.32,6.32,0,0,1-5.12-2.26,8.94,8.94,0,0,1-2-5.46q-1.64-.5-1.64-1.61a1,1,0,0,1,.26-.73.87.87,0,0,1,.64-.26,2.19,2.19,0,0,1,.93.28,9.12,9.12,0,0,1,2.59-4.59A6.23,6.23,0,0,1,349,175.44Zm-1.18,7.63a6.76,6.76,0,0,0,3.35-.71,2.15,2.15,0,0,0,1.26-1.92,3,3,0,0,0-.82-2.09,3,3,0,0,0-2.34-.88,4.47,4.47,0,0,0-3.44,1.53,7.33,7.33,0,0,0-1.8,3.58A13.57,13.57,0,0,0,347.83,183.06Z"/><g class="cls-11"><path d="M583.32,150a45.92,45.92,0,0,0,9.72-5c7-4.68,11.58-10.38,12.61-15.63a67.29,67.29,0,0,0,.4-25.27A43.36,43.36,0,0,0,593.3,80.22c-8.92-8.43-24.95-13.69-49-16.08-16-1.58-45.71-4.53-60.34,14.86-8.15,10.79-12.38,26.59-10.77,40.23C475,134.35,488.77,141.09,502,145.7c6.7,2.32,9.72,11.61,11,15.58.65,2,.94,2.9,2,2.57l.25-.08.18-.18c4.72-4.73,13-12.43,15-13,7.44-1.91,13.63-1.22,22.2-.27,5.67.63,12.1,1.34,20.63,1.56A27.85,27.85,0,0,0,583.32,150ZM501.86,68.45C516,63.27,533.24,65,544,66c23.63,2.34,39.29,7.43,47.88,15.56,6.65,6.29,17,20.83,11.81,47.49C602,138,586,150.33,573.44,150c-8.44-.22-14.82-.92-20.45-1.55-8.78-1-15.13-1.68-22.93.32-2.82.73-11.51,9.1-14.92,12.47l-.2-.6c-1.37-4.23-4.59-14.13-12.19-16.76-22.67-7.86-26.68-17-27.62-24.92-1.56-13.19,2.52-28.45,10.39-38.87A34.88,34.88,0,0,1,501.86,68.45Z"/></g><path class="cls-12" d="M584.53,147.56a45.92,45.92,0,0,0,9.72-5c7-4.68,11.58-10.38,12.61-15.63a67.29,67.29,0,0,0,.4-25.27,43.36,43.36,0,0,0-12.74-23.92c-8.92-8.43-24.95-13.69-49-16.08-16-1.58-45.71-4.53-60.34,14.86-8.15,10.79-12.38,26.59-10.77,40.23,1.78,15.11,15.59,21.86,28.87,26.46,6.7,2.32,9.72,11.61,11,15.58.65,2,.94,2.9,2,2.57l.25-.08.18-.18c4.72-4.73,13-12.43,15-13,7.44-1.91,13.63-1.22,22.2-.27,5.67.63,12.1,1.34,20.63,1.56A27.85,27.85,0,0,0,584.53,147.56ZM503.07,66c14.19-5.17,31.39-3.47,42.16-2.4,23.63,2.34,39.29,7.43,47.88,15.56,6.65,6.29,17,20.83,11.81,47.49-1.75,8.91-17.7,21.22-30.27,20.9-8.44-.22-14.82-.92-20.45-1.55-8.78-1-15.13-1.68-22.93.32-2.82.72-11.51,9.1-14.92,12.47l-.2-.6c-1.37-4.23-4.59-14.13-12.19-16.76-22.67-7.86-26.68-17-27.62-24.92-1.56-13.19,2.52-28.45,10.39-38.87A34.88,34.88,0,0,1,503.07,66Z"/><path d="M505.57,115.69l.11-10.26q0-2,0-5.78t0-4.23a4.35,4.35,0,0,1-.58.07q-1.08,0-1.08-1.19a1.84,1.84,0,0,1,.94-1.46,7.06,7.06,0,0,1,2.27-1,21.05,21.05,0,0,1,5-.68,12.9,12.9,0,0,1,4.14.65,8.57,8.57,0,0,1,3,1.66,5.89,5.89,0,0,1,2.16,4.32A6.64,6.64,0,0,1,517.6,104a8.16,8.16,0,0,1,4.21,2.75,7,7,0,0,1,1.66,4.52,6.65,6.65,0,0,1-3.13,5.89,14.94,14.94,0,0,1-8.35,2.07,19.56,19.56,0,0,1-6-.77q-2.36-.77-2.36-2a1,1,0,0,1,.27-.72,1,1,0,0,1,.74-.29A2,2,0,0,1,505.57,115.69Zm6.3-22.1a13.77,13.77,0,0,0-3.49.5q-.11,1.91-.11,9a5.84,5.84,0,0,1,2.47-.36,17.63,17.63,0,0,1,3.29.29,4.8,4.8,0,0,0,1.82-.56,6,6,0,0,0,2-1.78,4.61,4.61,0,0,0,1-2.9,3.68,3.68,0,0,0-1.71-2.93A8.73,8.73,0,0,0,511.87,93.59Zm0,23.22a11.86,11.86,0,0,0,6.37-1.49,4.76,4.76,0,0,0,2.38-4.27,4.51,4.51,0,0,0-1.89-3.73,9,9,0,0,0-4.05-1.82,30.65,30.65,0,0,1-4.27.54,8.78,8.78,0,0,1-2.14-.25q0,7.92.14,10.69A18.34,18.34,0,0,0,511.87,116.81Z"/><path d="M536.3,100.14a6.82,6.82,0,0,1,4.72,1.62,5.38,5.38,0,0,1,1.82,4.21,4.33,4.33,0,0,1-2.25,3.94,10.57,10.57,0,0,1-5.53,1.35,24,24,0,0,1-4.57-.54,7.12,7.12,0,0,0,1.89,4.34,5,5,0,0,0,3.73,1.82,7.23,7.23,0,0,0,2.27-.34,5.76,5.76,0,0,0,1.58-.74,4.79,4.79,0,0,1,1.89-1.12,1,1,0,0,1,.72.27.91.91,0,0,1,.27.67q0,1-2.07,2.3a8.29,8.29,0,0,1-4.48,1.3,7.34,7.34,0,0,1-5.94-2.63,10.37,10.37,0,0,1-2.38-6.34q-1.91-.58-1.91-1.87a1.14,1.14,0,0,1,.31-.85,1,1,0,0,1,.74-.31,2.55,2.55,0,0,1,1.08.32,10.59,10.59,0,0,1,3-5.33A7.23,7.23,0,0,1,536.3,100.14ZM534.93,109a7.85,7.85,0,0,0,3.89-.83,2.5,2.5,0,0,0,1.46-2.23,3.45,3.45,0,0,0-1-2.43,3.53,3.53,0,0,0-2.72-1,5.19,5.19,0,0,0-4,1.78,8.51,8.51,0,0,0-2.09,4.16A15.77,15.77,0,0,0,534.93,109Z"/><path d="M549.82,105.18l.18,12.06q0,1.8-1.37,1.8t-1.37-1.8l.18-12.06-.18-12.06q0-1.8,1.37-1.8t1.37,1.8Z"/><path d="M557.88,105.18l.18,12.06q0,1.8-1.37,1.8t-1.37-1.8l.18-12.06-.18-12.06q0-1.8,1.37-1.8t1.37,1.8Z"/><path d="M570.86,100.14a7.66,7.66,0,0,1,6.07,2.75,10.76,10.76,0,0,1,0,13.54,8,8,0,0,1-12.13,0,10.79,10.79,0,0,1,0-13.54A7.67,7.67,0,0,1,570.86,100.14ZM575,114.76a8.44,8.44,0,0,0,.07-10.19,5.13,5.13,0,0,0-4.16-2.09,5.3,5.3,0,0,0-4.23,2.12,8.44,8.44,0,0,0-.07,10.19,5.13,5.13,0,0,0,4.16,2.09A5.3,5.3,0,0,0,575,114.76Z"/></g></g></svg>