<svg xmlns="http://www.w3.org/2000/svg" xmlns:xlink="http://www.w3.org/1999/xlink" viewBox="0 0 1000 878.75"><defs><style>.cls-1{fill:none;}.cls-2{isolation:isolate;}.cls-3{fill:#f8faff;}.cls-4{fill:#fff;}.cls-5{fill:#dce8ff;}.cls-11,.cls-6{fill:#1c2260;}.cls-7{fill:#2d3d8e;}.cls-8{fill:#ffc23f;}.cls-9{fill:#feda8c;}.cls-10{clip-path:url(#clip-path);}.cls-11{fill-rule:evenodd;}.cls-12{opacity:0.2;mix-blend-mode:multiply;}</style><clipPath id="clip-path"><path class="cls-1" d="M443,535.63c7-28.42,9.54-58.86,37.13-102,22-34.5,71.92-24.5,84.57-9.66C610,477,661.11,682.18,634.45,760.7c-3,8.75-48,10-59.83,3.45-7.15-3.95-13.75-25.53-26.13-30.59-9.92-4.06-26.38-9.48-41.72-1.38-8.71,4.6-22.12,24-29.8,28.06-11.64,6.14-41.32,12-49.52,1.84C394.59,721.28,429.12,592.11,443,535.63Z"/></clipPath></defs><title>Bearie</title><g class="cls-2"><g id="Layer_1" data-name="Layer 1"><path class="cls-3" d="M165.29,615.16c74.61-17.67,228.14-2.07,294.88-7.24,66-5.11,172.38-43.34,321.16-106.2,111.86-47.27,226.27,149,212.7,253.66-22.06,170.16-200,94.81-310.38,104-194.35,16.16-247,19.57-375,12.6C136.91,862.63,48.7,842,31.37,749.08,21.16,694.32,105.42,629.34,165.29,615.16Z"/><path class="cls-4" d="M416.68,876.11c-33,0-66.73-1.14-108.06-3.39-99-5.38-156-14.12-196.79-30.14-23.5-9.23-41.34-21-54.54-35.9C43.69,791.29,35,772.5,30.63,749.22c-2.45-13.17.33-27.47,8.27-42.52,7.05-13.36,18.34-27.31,32.64-40.35,27.2-24.8,63.05-44.69,93.57-51.92l.17.72-.17-.72c46.93-11.12,124.54-9.1,193-7.33,39.69,1,77.18,2,102,.08C519.93,602.55,615.91,570.81,781,501c33.75-14.26,70.5-7.41,106.3,19.8,16.36,12.44,32,28.7,46.54,48.34a336.45,336.45,0,0,1,35.9,61.62c20.31,45,29.42,90.48,25,124.69-4,30.63-12.92,54.24-27.38,72.17-12.83,15.92-29.67,26.9-51.47,33.56-40.24,12.29-90.57,7.48-139.24,2.82-33.49-3.21-65.12-6.23-93-3.92C554.08,870.89,487.18,876.11,416.68,876.11ZM277.77,607.2c-42.91,0-83.46,1.85-112.31,8.68-30.29,7.17-65.89,26.93-92.91,51.57C58.38,680.37,47.2,694.19,40.22,707.4c-7.78,14.74-10.52,28.72-8.13,41.55,4.29,23,12.9,41.57,26.31,56.75,13,14.75,30.69,26.36,54,35.5,40.66,16,97.54,24.67,196.33,30,129.6,7.05,184.7,3.21,374.88-12.6,28-2.32,59.68.71,93.24,3.92,48.53,4.64,98.71,9.45,138.67-2.76,21.51-6.57,38.11-17.39,50.75-33.07,14.27-17.71,23.12-41.08,27.06-71.43,4.4-34-4.66-79.11-24.87-123.89C947.89,585.88,918,546,886.44,522c-35.35-26.87-71.59-33.65-104.82-19.61C616.33,572.25,520.21,604,460.22,608.67c-24.88,1.92-62.41,1-102.14-.08C331.91,607.91,304.38,607.2,277.77,607.2Z"/><path class="cls-5" d="M661.16,821.49c-32.94-4.34-57.05-14.94-113.53-4.69-36,6.54-61.95,14-135,12.63C330.72,827.86,255.41,791.17,254,747c-1.08-34.19,84.47-50.94,172.33-32.75C541,738,544.62,728.83,610.49,713.07,657.1,701.92,798.76,696.73,769.86,759,746.13,810.14,690,825.29,661.16,821.49Z"/><path class="cls-6" d="M499.51,218s44.27-3.21,79.19,1.15c0,0-.54-26.3,18.46-19.43,6.59,2.38,10.92,13.93,13,23.1,7.75,34.47,21.9,142.81,21.9,142.81s37.79,220.45,40.38,268.44c2.52,46.76,7.25,127-23.35,138.92-19.69,7.67-77.85,6.42-86.09.92s-13.07-22.5-19.46-26.59c-8.82-5.65-26.86-5.42-35.29.92-6.1,4.58-15.48,18.82-21.27,22.47-10.6,6.69-58.32,16.31-76.88,4.17-24.76-16.19-39-47.84-34.31-108.31,5.68-72.84,14.7-127.91,14.7-127.91s45.77-227.4,75.17-320.19c2.29-7.22,9-26.22,19-25.45C493.41,193.74,497.11,205,499.51,218Z"/><path class="cls-4" d="M437.18,781c-9.59,0-20.24-1.26-27.24-5.85-13.26-8.67-22.52-21-28.31-37.68-6.4-18.43-8.4-41.61-6.11-70.86,5.62-72,14.62-127.38,14.71-127.93.46-2.28,46.11-228.48,75.17-320.22,3.13-9.88,9.81-26.35,19.21-25.62s12.89,13,15.11,25c3.43-.23,45.5-3,78.73,1.13,0-2.06.28-14,6.83-18.68,3.09-2.22,7.12-2.45,12-.7,8,2.89,12.08,18.55,13.14,23.28,7.66,34.09,21.76,141.75,21.9,142.84.38,2.19,37.83,221,40.38,268.45l.1,1.79c2.53,47,6.78,125.55-23.61,137.38-8.83,3.44-26.56,5.44-47.43,5.41-19.28,0-34.91-1.86-38.89-4.52-4.41-2.94-7.77-9-11-14.85-2.81-5.06-5.47-9.85-8.43-11.74-8.87-5.68-26.86-5.21-35,.91-2.89,2.17-6.59,6.61-10.18,10.9-4,4.74-8,9.64-11.11,11.57-5.75,3.63-21,7.58-35.56,9.19A132.51,132.51,0,0,1,437.18,781ZM484,193.28c-4,0-11.29,3.57-18.18,25.29-29.05,91.72-74.7,317.89-75.16,320.16-.09.54-9.08,55.88-14.7,127.88-2.28,29.18-.28,52.3,6.09,70.66,5.75,16.57,14.95,28.82,28.11,37.42,10.82,7.07,30.49,6.13,41.26,4.94,16.47-1.82,30.51-6.06,35.35-9.11,3-1.89,7.06-6.76,11-11.47,3.6-4.32,7.33-8.78,10.26-11,8.28-6.22,26.56-6.7,35.57-.93,3.06,2,5.75,6.8,8.6,11.92,3.22,5.8,6.56,11.8,10.87,14.68,3.85,2.57,19.73,4.39,38.62,4.44h.72c20.5,0,37.85-2,46.52-5.38,30-11.7,25.82-90.06,23.29-136.89l-.1-1.79c-2.55-47.42-40-266.2-40.38-268.41-.14-1.09-14.24-108.74-21.9-142.8-1-4.67-5.07-20.11-12.82-22.92-4.68-1.69-8.55-1.48-11.51.64-6.83,4.89-6.63,18.42-6.62,18.55v.29l-.28,0c-34.49-4.3-78.69-1.18-79.14-1.14l-.22,0,0-.22c-2.17-11.86-5.62-24.08-14.7-24.78Z"/><path class="cls-4" d="M519.58,293.49c7.47-5.27,25.62-9.47,38.86,1.36,12.56,10.28,10.85,22.69,9.11,30.41-1.66,7.33-5.75,15.18-13.24,22.45-11.18,10.84-21.15,10.13-28.71,4.58-6.63-4.86-13.24-12.25-16-31C506.7,301.42,513.74,297.61,519.58,293.49Z"/><path class="cls-4" d="M536.9,356.51a19.32,19.32,0,0,1-11.44-4c-6.38-4.68-13.28-12-16.09-31.17s3.6-23.52,9.24-27.45l.84-.59c8.12-5.73,26.17-9.25,39.16,1.37,12.06,9.87,11.25,21.56,9.2,30.65-1.83,8.1-6.43,15.9-13.31,22.57C547.89,354.28,542,356.51,536.9,356.51Zm-17.17-62.82-.84.59c-5.52,3.84-11.78,8.2-9,27,2.78,18.95,9.59,26.22,15.89,30.84s16.08,7.39,28.39-4.56c6.81-6.61,11.36-14.33,13.17-22.33,2-9,2.82-20.47-9-30.16-12.78-10.46-30.56-7-38.56-1.35Z"/><path class="cls-6" d="M525.61,297.77c5-2.6,22.69-2.38,28.88.89,4.56,2.41-1.55,19.45-13.93,20.34S520.7,300.32,525.61,297.77Z"/><path class="cls-4" d="M539.73,319.27c-8.2,0-13.71-8.58-15.3-14.2-1.06-3.75-.65-6.63,1.07-7.53,5-2.6,22.65-2.52,29.11.89,1.49.79,2,3.05,1.37,6.06-1.21,5.75-6.78,14.13-15.4,14.75C540.3,319.26,540,319.27,539.73,319.27Zm-1.71-23c-5.24,0-10.11.6-12.29,1.74h0c-1.5.78-1.81,3.45-.82,7,1.6,5.66,7.26,14.42,15.65,13.81s13.77-8.76,14.95-14.36c.58-2.78.16-4.84-1.12-5.51C551,297.09,544.25,296.25,538,296.25Z"/><path class="cls-7" d="M530.48,299c3.94-1.12,17.93-1,22.82.39,3.6,1-1.22,8.42-11,8.81S526.6,300.15,530.48,299Z"/><path class="cls-8" d="M483.63,301.58c-4.23,6.33-9.3,10.69-26.77,8.94s-24.34-6.93-23.6-15.27,11.41-12.17,28.88-10.43S488.2,294.74,483.63,301.58Z"/><path class="cls-8" d="M636.32,300.61c.48,7.29-3.34,10.63-19.5,11.7s-24.54-1.49-25-8.77,6.76-13.22,22.91-14.29S635.84,293.32,636.32,300.61Z"/><path class="cls-9" d="M486.18,295.8c-.41,2.68-8.49,7.19-26,6.3s-22.52-3.56-22.28-8.77,10.2-9.87,23.59-8.88C479,285.74,487,290.64,486.18,295.8Z"/><path class="cls-9" d="M633.67,303.51c-.36,2.34-4,6.29-18.8,5.58s-22.19-3-22-7.55,8.65-8.65,19.94-7.84C627.62,294.77,634.36,299,633.67,303.51Z"/><path class="cls-4" d="M480.6,219.64l5.11-.42c2.61-.22,5.53-.55,5.12-4.7-.55-5.63-2.45-11.91-7.35-10.62-2.45.64-5.85,5.59-6.88,10.75C476.07,217.32,477.88,219.86,480.6,219.64Z"/><path class="cls-4" d="M589.25,221.19l9.88,1.21c2.51.31,3-3.17,2.35-5.62-1.85-7.11-5.41-9.81-9.76-10-3-.16-4.81,4.81-5.13,8.89C586.38,218.29,586.59,220.86,589.25,221.19Z"/><line class="cls-6" x1="539.33" y1="316.51" x2="539.15" y2="338.33"/><rect class="cls-6" x="528.33" y="326.92" width="21.83" height="0.99" transform="translate(207.09 863.76) rotate(-89.5)"/><path class="cls-6" d="M550,343.77a44.91,44.91,0,0,1-6.28-3.2,11.39,11.39,0,0,0-6.11-2.09c-4.85-.33-8.69,3.43-8.73,3.47l-.7-.7c.17-.17,4.16-4.11,9.5-3.75a12.32,12.32,0,0,1,6.55,2.23,44.06,44.06,0,0,0,6.16,3.14Z"/><path class="cls-6" d="M635.17,387s6.46,35.81,10,57.42c0,0-26.34-21.46-47.28-44.87-11.69-13.07-48.47-52.24-44.36-67.05,6.88-24.76,42,16.85,54.33,28.54C615,367.78,635.17,387,635.17,387Z"/><path class="cls-4" d="M645.49,445l-.51-.41c-.26-.21-26.59-21.74-47.31-44.9l-3-3.31c-13.55-15-45.27-50.12-41.43-64,1.2-4.31,3.33-6.88,6.35-7.66,10.44-2.67,29.08,16.44,41.42,29.1,2.74,2.81,5.1,5.23,7,7,7.07,6.68,27.13,25.77,27.34,26l.06.06v.08c.06.36,6.5,36.06,10,57.43ZM561.75,325a8.07,8.07,0,0,0-2,.24c-2.83.73-4.85,3.19-6,7.31-3.77,13.59,27.82,48.57,41.32,63.5l3,3.32c19.1,21.35,43,41.32,46.74,44.43-3.42-20.93-9.51-54.8-9.85-56.69-1.21-1.16-20.4-19.41-27.28-25.9-1.87-1.77-4.24-4.19-7-7C589.19,342.42,572.2,325,561.75,325Z"/><path class="cls-4" d="M512.88,275.8c.46,3.24-1.69,5.09-4.84,5.53s-6.1-.69-6.55-3.93a5.76,5.76,0,1,1,11.39-1.6Z"/><path class="cls-4" d="M506.77,281.67a6.7,6.7,0,0,1-3.13-.7,4.54,4.54,0,0,1-2.4-3.53,6.23,6.23,0,0,1,1.13-4.57,5.88,5.88,0,0,1,4-2.39,6.1,6.1,0,0,1,6.8,5.28h0c.44,3.13-1.45,5.31-5.05,5.81A9.35,9.35,0,0,1,506.77,281.67Zm.37-10.75a5.39,5.39,0,0,0-4.37,2.24,5.73,5.73,0,0,0-1,4.2,4.06,4.06,0,0,0,2.14,3.16,6.89,6.89,0,0,0,4.13.56c3.34-.47,5-2.38,4.63-5.25h0A5.63,5.63,0,0,0,507.14,270.93Z"/><path class="cls-4" d="M573.81,278.33c-.52,3.1-3.34,4.38-6.65,3.83s-5.26-2.91-4.74-6a5.21,5.21,0,0,1,6.34-4.43A5.89,5.89,0,0,1,573.81,278.33Z"/><path class="cls-4" d="M568.66,282.53a9.3,9.3,0,0,1-1.54-.13c-3.49-.59-5.48-3.12-4.94-6.3a5.67,5.67,0,0,1,2.23-3.74,5.77,5.77,0,0,1,4.4-.89,6.49,6.49,0,0,1,4.11,2.45,5.72,5.72,0,0,1,1.13,4.45C573.62,281,571.56,282.53,568.66,282.53Zm-1-10.67a5,5,0,0,0-2.94.9,5.11,5.11,0,0,0-2,3.42c-.49,2.93,1.29,5.18,4.54,5.73s5.9-.85,6.36-3.62h0a5.23,5.23,0,0,0-1-4.07,6,6,0,0,0-3.8-2.26A6.6,6.6,0,0,0,567.64,271.87Z"/><g class="cls-10"><path class="cls-4" d="M442.73,535.43c7-28.33,9.54-58.65,37.13-101.68,22-34.39,71.92-24.41,84.57-9.63,45.22,52.86,96.37,257.35,69.71,335.6-3,8.72-48,10-59.83,3.44-7.15-3.93-13.75-25.45-26.13-30.49-9.92-4-26.38-9.45-41.72-1.38-8.71,4.58-22.12,23.93-29.8,28-11.64,6.12-41.32,12-49.52,1.83C394.27,720.44,428.8,591.71,442.73,535.43Z"/><path class="cls-4" d="M601.66,767.51c-11.37,0-22.5-1.4-27.48-4.13-3-1.67-5.89-6.32-9.2-11.7-4.57-7.44-9.76-15.87-16.9-18.78-10.68-4.35-26.61-9.23-41.51-1.39-4.45,2.34-10.18,8.62-15.72,14.69-5.31,5.81-10.32,11.3-14.08,13.28-6.29,3.3-16.79,6.13-26.14,7-6.73.65-18.75.84-23.68-5.27-13.49-16.69-17.1-50.41-10.74-100.24,5.33-41.76,16.53-86.59,23.94-116.25.83-3.31,1.61-6.45,2.34-9.39l.24.06-.24-.06c1.26-5.11,2.37-10.2,3.53-15.59,5.16-23.84,11-50.87,33.63-86.17,11.29-17.61,28.63-22.34,41.19-23.21,19.74-1.36,37.29,6,43.78,13.55,21.74,25.41,46,87.58,61.86,158.39,7.88,35.22,12.94,69.57,14.62,99.35,1.88,33.22-.39,59.5-6.73,78.11-.53,1.56-2.32,2.94-5.33,4.11C622.81,766.33,612.14,767.51,601.66,767.51Zm-77.75-40.65c9.14,0,17.75,2.89,24.35,5.58,7.3,3,12.53,11.48,17.14,19,3.27,5.32,6.1,9.91,9,11.52,9.48,5.21,41.53,5.51,54.44.5,2.86-1.11,4.56-2.39,5-3.8,6.32-18.55,8.58-44.77,6.7-77.92-1.68-29.75-6.73-64.08-14.61-99.27-15.83-70.74-40.07-132.82-61.76-158.17-6.41-7.49-23.78-14.73-43.36-13.38-12.44.86-29.63,5.54-40.81,23-22.58,35.23-28.42,62.2-33.56,86-1.17,5.39-2.27,10.49-3.53,15.6-.73,2.94-1.51,6.08-2.34,9.39-7.41,29.65-18.6,74.47-23.93,116.2-6.35,49.69-2.77,83.29,10.63,99.87,7.85,9.71,37,4.51,49.21-1.9,3.68-1.93,8.66-7.39,13.94-13.17,5.57-6.1,11.33-12.41,15.86-14.79A37.2,37.2,0,0,1,523.91,726.86Z"/></g><path class="cls-6" d="M427.82,368.42s-11,43.33-15.73,65.68c0,0,36.75,54.88,54.25,75.19,9.7,11.26,32.21,37.14,44.93,28.88,12.56-8.15-9.63-50.43-9.63-50.43Z"/><path class="cls-4" d="M505.65,540c-13.15,0-31.16-20.91-39.5-30.58-17.31-20.09-53.9-74.66-54.26-75.21l-.06-.09,0-.1c4.68-22.1,15.63-65.25,15.74-65.69l.14-.57.31.5L501.85,487.6a181.78,181.78,0,0,1,9.55,22.21c5.32,15.5,5.32,25.11,0,28.56A10.35,10.35,0,0,1,505.65,540Zm-93.3-106c1.67,2.49,37.2,55.39,54.17,75.08,8.73,10.14,31.93,37.06,44.61,28.84,12.23-7.93-9.49-49.69-9.71-50.11L427.92,369C426.61,374.22,416.75,413.31,412.35,434Z"/><path class="cls-11" d="M626.89,191.29c-1.58-.31-1-2.79-.41-4.78.77-2.5,3-4,4.94-5.2,1.75-1.11,3.06-4,2.39-5.76-1-2.61-4-4.49-9-2-1.81.92-3.75,4.53-2.78,6.94a1.92,1.92,0,0,1-.79,2.32c-.7.34-1.42-.32-2.09-1.21a9.27,9.27,0,0,1,0-6.12,11.61,11.61,0,0,1,4.75-4.85c2.46-1.38,8.13-1.81,10.55.77a7.68,7.68,0,0,1,2.29,5.94c-.08,2.5-1,4-3,5.8-1,.91-2.42,1.38-3.4,2.51a9.12,9.12,0,0,0-1.44,3C628.27,190.6,628.31,191.57,626.89,191.29Z"/><path class="cls-6" d="M627.33,192.08a3,3,0,0,1-.58-.06,1.86,1.86,0,0,1-1.27-.88c-.69-1.16-.24-3.1.29-4.85.87-2.83,3.4-4.43,5.25-5.61,1.54-1,2.61-3.48,2.09-4.87a4,4,0,0,0-2.29-2.38c-1.49-.58-3.45-.3-5.65.82-1.51.77-3.25,4-2.43,6a2.65,2.65,0,0,1-1.16,3.26c-1.42.69-2.62-.9-3-1.43l-.07-.12a9.93,9.93,0,0,1,0-6.74,12.39,12.39,0,0,1,5.07-5.2c2.8-1.57,8.84-1.88,11.45.91a8.42,8.42,0,0,1,2.49,6.47,8.18,8.18,0,0,1-3.24,6.33,10.55,10.55,0,0,1-1.54,1.08,7.39,7.39,0,0,0-1.79,1.36,7.67,7.67,0,0,0-1.2,2.5l-.09.28c-.12.34-.21.65-.3.92C629,191,628.66,192.08,627.33,192.08Zm1.83-20.43a6,6,0,0,1,2.21.39,5.47,5.47,0,0,1,3.14,3.24c.85,2.25-.75,5.43-2.68,6.65-1.75,1.11-3.92,2.49-4.63,4.79s-.64,3.31-.44,3.65a.37.37,0,0,0,.28.18h0c.5.1.5.1.87-1.13.09-.29.19-.62.31-1l.09-.27a8.82,8.82,0,0,1,1.49-3,8.63,8.63,0,0,1,2.14-1.65,9.29,9.29,0,0,0,1.33-.92c1.95-1.73,2.66-3.11,2.74-5.26a7,7,0,0,0-2.09-5.4c-2-2.18-7.3-1.94-9.64-.63a11,11,0,0,0-4.43,4.5,8.63,8.63,0,0,0,0,5.43c.6.79,1,1,1.12.92a1.2,1.2,0,0,0,.43-1.37c-1.16-2.88,1.07-6.83,3.14-7.88A10.33,10.33,0,0,1,629.16,171.66Z"/><path class="cls-11" d="M628.29,196.69c-.14,1.26-.86,2-2.43,2.12a2.13,2.13,0,0,1-2.18-2.14,2.38,2.38,0,0,1,2.74-2.71A2.54,2.54,0,0,1,628.29,196.69Z"/><path class="cls-6" d="M625.67,199.56a2.49,2.49,0,0,1-1.65-.61,3.3,3.3,0,0,1-1.08-2.24,3.59,3.59,0,0,1,1-2.72,3.12,3.12,0,0,1,2.59-.78,2.71,2.71,0,0,1,1.76,1.05,3.42,3.42,0,0,1,.77,2.51h0c-.19,1.67-1.23,2.6-3.1,2.78Zm.39-4.88a1.56,1.56,0,0,0-1.12.39,2.1,2.1,0,0,0-.52,1.56,1.84,1.84,0,0,0,.56,1.19,1,1,0,0,0,.8.25c1.34-.12,1.67-.67,1.76-1.46h0a1.93,1.93,0,0,0-.44-1.41,1.3,1.3,0,0,0-.75-.51Z"/><path class="cls-11" d="M639.73,203.84a14.73,14.73,0,0,1,5-2.48,15.31,15.31,0,0,1,12.61,3c.24.19,4.22,3.6,5.13,5.92a16.75,16.75,0,0,1,.88,4.22c0,.22-.66,5.81-3,7.77a7.87,7.87,0,0,1-4.82,2.09c-2.08.09-4.17-.45-6.2-.1a7.17,7.17,0,0,0-3.56,3,14.75,14.75,0,0,1-2.9,3.84c-.2.19-1.62-.38-1.43-1.48.45-2.49,1.33-3.59,3-5.74a10.07,10.07,0,0,1,3.82-2.65,18.3,18.3,0,0,1,3.92-.22,22.68,22.68,0,0,1,2.6.21c1.28.14,4.41-1.36,4.91-3.67a10.61,10.61,0,0,0,.25-5.26,9.35,9.35,0,0,0-3.17-4.76,28.32,28.32,0,0,0-4.9-3,11.15,11.15,0,0,0-5.09-.91c-5.74.68-6.67,5.22-6.59,6.1a4.42,4.42,0,0,0,2.76,4,5.1,5.1,0,0,0,3.12,0c.25-.05,2.14-.62,2.51.11.54,1.69-.18,1.71-1.16,2.59a10.75,10.75,0,0,1-3.26.62,8.9,8.9,0,0,1-4.29-1.57,8.59,8.59,0,0,1-2.64-7.1A9.31,9.31,0,0,1,639.73,203.84Z"/><path class="cls-6" d="M642.74,232a2.2,2.2,0,0,1-2-2.4c.47-2.6,1.41-3.84,3-5.88l.14-.18a10.49,10.49,0,0,1,4.12-2.88l.13,0a15,15,0,0,1,3.38-.24h.69a21.59,21.59,0,0,1,2.32.17l.37,0c.92.1,3.69-1.2,4.11-3.09a10,10,0,0,0,.26-4.9,8.62,8.62,0,0,0-2.93-4.39,28.07,28.07,0,0,0-4.68-2.9,10.55,10.55,0,0,0-4.75-.87c-5.15.61-6,4.59-5.94,5.3a3.69,3.69,0,0,0,2.36,3.42,4.46,4.46,0,0,0,2.52,0l.21,0c.78-.2,2.62-.66,3.22.53l0,.11c.55,1.72,0,2.31-.87,3-.15.12-.32.25-.5.41l-.1.09-.12,0a11.46,11.46,0,0,1-3.53.67h0a9.66,9.66,0,0,1-4.75-1.73,9.26,9.26,0,0,1-2.91-7.78,10,10,0,0,1,2.79-5.06h0a15.36,15.36,0,0,1,5.28-2.63,13.46,13.46,0,0,1,4.07-.29l.61,0a15.65,15.65,0,0,1,8.58,3.45s4.34,3.64,5.36,6.23a12.37,12.37,0,0,1,.78,3.37c0,.33.08.66.14,1s-.65,6.28-3.25,8.47a8.51,8.51,0,0,1-5.27,2.26,21.58,21.58,0,0,1-2.67-.11,13.73,13.73,0,0,0-3.44,0,6.56,6.56,0,0,0-3,2.65,15.64,15.64,0,0,1-3.05,4A.9.9,0,0,1,642.74,232Zm5.73-9.94a9.44,9.44,0,0,0-3.46,2.39l-.14.18c-1.53,2-2.3,3-2.7,5.24a.37.37,0,0,0,.08.31,1,1,0,0,0,.35.28,14.47,14.47,0,0,0,2.52-3.42c.72-1.34,2.75-3.18,4.08-3.41a15.07,15.07,0,0,1,3.81,0,20.33,20.33,0,0,0,2.49.1,7.11,7.11,0,0,0,4.37-1.91c2-1.66,2.69-6.48,2.73-7.14-.06-.34-.1-.67-.14-1a10.94,10.94,0,0,0-.69-3c-.79-2-4.39-5.2-4.9-5.61a14,14,0,0,0-7.78-3.13l-.54,0a12.16,12.16,0,0,0-3.65.24,14.07,14.07,0,0,0-4.67,2.32,8.64,8.64,0,0,0-2.28,4.13,7.92,7.92,0,0,0,2.37,6.43,8.21,8.21,0,0,0,3.8,1.4h0a10.26,10.26,0,0,0,2.87-.52c.17-.15.34-.28.49-.39.54-.41.61-.46.4-1.15a3.68,3.68,0,0,0-1.54.19l-.17,0-.11,0a5.46,5.46,0,0,1-3.5-.09,5.18,5.18,0,0,1-3.16-4.61c-.08-1,.86-6.14,7.25-6.9a11.85,11.85,0,0,1,5.44.95,28.55,28.55,0,0,1,5.12,3.15,10.06,10.06,0,0,1,3.41,5.13,11.34,11.34,0,0,1-.24,5.62c-.61,2.76-4.12,4.43-5.72,4.25l-.37,0a18.23,18.23,0,0,0-2.14-.16h-.71A13.92,13.92,0,0,0,648.46,222Z"/><path class="cls-11" d="M640.15,232.57c1,.82,1.07,1.65.32,2.86a1.8,1.8,0,0,1-2.55.38c-1.4-.92-1.34-1.72-1-2.53a2.14,2.14,0,0,1,1.35-1.15A2.12,2.12,0,0,1,640.15,232.57Z"/><path class="cls-6" d="M639.08,236.91a2.89,2.89,0,0,1-1.57-.48c-1.9-1.24-1.65-2.55-1.3-3.43l0-.1a2.8,2.8,0,0,1,4.36-.9h0a2.64,2.64,0,0,1,.47,3.82,2.28,2.28,0,0,1-1.45,1A2.6,2.6,0,0,1,639.08,236.91Zm-1.51-3.3c-.19.47-.31.88.75,1.57a1.36,1.36,0,0,0,1,.21.78.78,0,0,0,.51-.36c.6-1,.42-1.39-.18-1.9h0a1.37,1.37,0,0,0-1.24-.28C638.1,232.93,637.86,233.14,637.58,233.61Z"/><g class="cls-12"><path d="M25.38,85c33.12-36.85,125-48.65,183.95-45.19C267.58,43.18,372.74,53.35,397,94.25c12.77,21.56,10.57,43.14,9.77,68.32-1.23,38.89-5,58.67-5.25,66.67-.41,11.11,7.68,26.55,4,26.2-13.93-1.31-14.93-8.91-32.53-11.69-42.11-6.65-88.44,8.33-157.42,10.19-62.33,1.67-149.55,5.56-185-22.48C-2.52,205.28-2.81,116.33,25.38,85Z"/><path d="M405.58,256.69h-.23c-7.08-.66-11-2.91-15.11-5.29a44.61,44.61,0,0,0-17.5-6.41c-23.77-3.75-49.34-.51-79,3.25-22.69,2.88-48.42,6.15-78.24,6.95l-9,.25c-31.1.87-66.35,1.86-98.51-.71-37.49-3-63.08-10.28-78.25-22.29C16,221.53,6.72,198.93,4.3,170.43c-3-34.92,5.14-69.6,20.15-86.3l.92.83-.92-.83c19.11-21.27,55.67-32.46,83-38.1a414.2,414.2,0,0,1,102-7.51C316.64,44.82,380.11,63.36,398,93.62c11.77,19.86,11,39.41,10.19,62-.09,2.29-.17,4.61-.25,7-.86,27.06-2.95,45.13-4.2,55.93-.56,4.85-1,8.35-1.05,10.75-.2,5.37,1.68,11.83,3.18,17,1.66,5.72,2.34,8.3,1.21,9.67A2,2,0,0,1,405.58,256.69Zm-55.81-15.86a149.37,149.37,0,0,1,23.36,1.7,47.3,47.3,0,0,1,18.35,6.71c4,2.29,7.43,4.28,13.73,4.93,0-1.21-.91-4.48-1.68-7.16-1.55-5.37-3.49-12-3.28-17.81.09-2.49.5-6,1.07-10.94,1.24-10.76,3.32-28.77,4.18-55.73.08-2.35.16-4.68.25-7,.83-22.24,1.55-41.44-9.84-60.68-10.4-17.56-37.41-31.26-80.27-40.72C286.93,47.82,252.13,43.52,209.25,41a411.64,411.64,0,0,0-101.33,7.46C81,54,45,65,26.3,85.79,11.72,102,3.87,135.95,6.77,170.22,9.13,198,18.08,220,31.32,230.49c14.77,11.69,39.93,18.81,76.91,21.76,32,2.55,67.2,1.57,98.24.7l9-.25c29.7-.8,55.36-4.05,78-6.93C313.89,243.18,332.4,240.83,349.78,240.83Z"/></g><path class="cls-4" d="M22.89,82.48C56,45.63,147.93,33.83,206.84,37.29,265.1,40.7,370.26,50.87,394.49,91.77c12.77,21.56,10.57,43.14,9.77,68.32-1.23,38.89-5,58.67-5.25,66.67-.41,11.11,7.68,26.55,4,26.2-13.93-1.31-14.93-8.91-32.53-11.69C328.35,234.63,282,249.61,213,251.46,150.7,253.13,63.48,257,28.07,229-5,202.8-5.29,113.85,22.89,82.48Z"/><path class="cls-6" d="M403.1,254.21h-.23c-7.08-.66-11-2.91-15.11-5.29a44.61,44.61,0,0,0-17.5-6.41c-23.77-3.75-49.34-.51-79,3.25-22.69,2.88-48.42,6.15-78.24,6.95l-9,.25c-31.1.87-66.35,1.86-98.51-.71C68.07,249.26,42.47,242,27.3,230,13.52,219,4.24,196.45,1.82,168-1.14,133,7,98.36,22,81.65l.92.83L22,81.65c19.11-21.27,55.67-32.46,83-38.1a414.21,414.21,0,0,1,102-7.51c107.25,6.29,170.72,24.83,188.64,55.09,11.77,19.86,11,39.41,10.19,62-.09,2.29-.17,4.61-.25,7-.86,27.06-2.95,45.13-4.2,55.93-.56,4.85-1,8.35-1.05,10.75-.2,5.37,1.68,11.83,3.18,17,1.66,5.72,2.34,8.3,1.21,9.67A2,2,0,0,1,403.1,254.21ZM347.3,238.35a149.37,149.37,0,0,1,23.36,1.7A47.3,47.3,0,0,1,389,246.76c4,2.29,7.43,4.28,13.73,4.93,0-1.21-.91-4.48-1.68-7.16-1.55-5.37-3.49-12-3.28-17.81.09-2.49.5-6,1.07-10.94C400.08,205,402.17,187,403,160.05c.08-2.35.16-4.68.25-7,.83-22.24,1.55-41.44-9.84-60.68C383,74.85,356,61.15,313.16,51.68,284.45,45.34,249.65,41,206.77,38.53A411.63,411.63,0,0,0,105.45,46c-26.94,5.57-63,16.56-81.63,37.33C9.24,99.54,1.39,133.47,4.29,167.74,6.65,195.56,15.6,217.53,28.84,228c14.77,11.69,39.93,18.81,76.91,21.76,32,2.55,67.2,1.57,98.24.7l9-.25c29.7-.8,55.36-4.05,78-6.93C311.41,240.7,329.91,238.35,347.3,238.35Z"/><path class="cls-6" d="M64.81,104.78l2.62-.15a1.73,1.73,0,0,1,1.09.31,1,1,0,0,1,.4.82,1,1,0,0,1-.42.83,1.69,1.69,0,0,1-1.07.33l-3.84-.18-3.93.15q-1.49,0-1.49-1.13t1.49-1.13q.33,0,2.71.15.15-6.7.15-9.18t-.15-9.18l-2.71.12q-1.43,0-1.43-1.1a1,1,0,0,1,.39-.85,1.61,1.61,0,0,1,1-.31l3.93.15q1,0,2.35-.09t1.74-.09a1.36,1.36,0,0,1,.83.34,1,1,0,0,1,.43.85,1,1,0,0,1-.42.82,1.44,1.44,0,0,1-.88.31q-.46,0-2.84-.15-.15,6.85-.15,9.26T64.81,104.78Z"/><path class="cls-6" d="M74.84,91.86l2.89-.06a1.34,1.34,0,0,1,.8.24.83.83,0,0,1,.33.71q0,.89-1.13.89l-2.89-.06v2q0,4.11.09,6.91t.09,3.26a1.44,1.44,0,0,1-.31.88,1.07,1.07,0,0,1-1.7,0,1.44,1.44,0,0,1-.31-.88q0-.46,0-1.86.15-4.2.15-8.31v-2l-1.52.06q-1.13,0-1.13-.89a.83.83,0,0,1,.33-.71,1.33,1.33,0,0,1,.8-.24l1.49.06V89.33a5.94,5.94,0,0,1,1.09-4,3.29,3.29,0,0,1,2.52-1.22,4.62,4.62,0,0,1,2.37.55q.94.55.94,1.18,0,1-.83,1a2.21,2.21,0,0,1-1-.36,2.45,2.45,0,0,0-1.22-.36q-1.85,0-1.85,3.48Z"/><path class="cls-6" d="M98.93,99.54l-.09-6.46q0-1.52,1.13-1.52,1.37,0,1.37,2.23a42.28,42.28,0,0,1-.63,5.75q.36,3.63.36,5.42a9.7,9.7,0,0,1-1.91,6.27,6.49,6.49,0,0,1-5.36,2.37,8.18,8.18,0,0,1-3.48-.76q-1.64-.76-1.64-1.52t.68-.76a7.15,7.15,0,0,1,1.65.55,7.33,7.33,0,0,0,2.78.55,4.84,4.84,0,0,0,4-1.79,7.06,7.06,0,0,0,1.46-4.61q0-1-.09-2Q96.93,107,93.6,107a4.32,4.32,0,0,1-3.69-1.77,7.08,7.08,0,0,1-1.31-4.33l.18-4.5a9.83,9.83,0,0,0-.24-2.22,7.47,7.47,0,0,1-.24-1.47,1.16,1.16,0,0,1,.36-.82,1.22,1.22,0,0,1,.92-.37Q91,91.56,91,94l-.24,6.55a5.72,5.72,0,0,0,.86,3.29,2.74,2.74,0,0,0,2.4,1.27,4,4,0,0,0,3-1.71A9.88,9.88,0,0,0,98.93,99.54Z"/><path class="cls-6" d="M111.74,91.41a6.33,6.33,0,0,1,5,2.28,8.9,8.9,0,0,1,0,11.19,6.64,6.64,0,0,1-10,0,8.93,8.93,0,0,1,0-11.19A6.34,6.34,0,0,1,111.74,91.41Zm3.42,12.09a7,7,0,0,0,.06-8.43,4.24,4.24,0,0,0-3.44-1.73,4.38,4.38,0,0,0-3.5,1.76,7,7,0,0,0-.06,8.43,4.24,4.24,0,0,0,3.44,1.73A4.38,4.38,0,0,0,115.17,103.5Z"/><path class="cls-6" d="M124.59,94l-.24,6.55a5.72,5.72,0,0,0,.86,3.29,2.74,2.74,0,0,0,2.4,1.27,4,4,0,0,0,3-1.71,9.88,9.88,0,0,0,2-3.86l-.09-6.46q0-1.52,1.13-1.52,1.37,0,1.37,2.1a40.47,40.47,0,0,1-.6,5.88,16.63,16.63,0,0,0,.33,3.65q.33,1.41.77,1.59a1.29,1.29,0,0,0,.43.12,1,1,0,0,1,.36.09.25.25,0,0,1,.1.24,1.8,1.8,0,0,1-.49,1.31,1.65,1.65,0,0,1-1.24.51q-1.88,0-1.88-3.81-2.2,3.81-5.54,3.81a4.32,4.32,0,0,1-3.69-1.77,7.08,7.08,0,0,1-1.31-4.33l.18-4.5a9.83,9.83,0,0,0-.24-2.22,7.47,7.47,0,0,1-.24-1.47,1.16,1.16,0,0,1,.36-.82,1.22,1.22,0,0,1,.92-.37Q124.59,91.56,124.59,94Z"/><path class="cls-6" d="M157.84,103.68q.74,0,.74.79t-1.73,1.76a7.33,7.33,0,0,1-3.63,1,6.73,6.73,0,0,1-5.21-2.31,8.49,8.49,0,0,1,0-11.16,7.11,7.11,0,0,1,5.52-2.31,6.43,6.43,0,0,1,3.32.85q1.44.85,1.44,1.74a1.1,1.1,0,0,1-.3.79.92.92,0,0,1-.68.31,1.45,1.45,0,0,1-.89-.45,4.87,4.87,0,0,0-3.16-1.31,4.67,4.67,0,0,0-3.59,1.73,6.1,6.1,0,0,0-1.53,4.2,6.17,6.17,0,0,0,1.55,4.23,4.91,4.91,0,0,0,3.84,1.76,5.83,5.83,0,0,0,3.42-1.19A1.79,1.79,0,0,1,157.84,103.68Z"/><path class="cls-6" d="M174.43,97.37l-.15,4.67q0,.83,0,1.27a3,3,0,0,0,.18.89.9.9,0,0,0,.4.57,1.69,1.69,0,0,0,.49.13,1,1,0,0,1,.36.09.25.25,0,0,1,.1.24,1.81,1.81,0,0,1-.49,1.29,1.53,1.53,0,0,1-1.15.52,1.58,1.58,0,0,1-1.56-.89,6.22,6.22,0,0,1-.43-2.62l.12-5.48a5.65,5.65,0,0,0-.86-3.27,2.75,2.75,0,0,0-2.4-1.25,4,4,0,0,0-3,1.7,9.75,9.75,0,0,0-2,3.84l.09,6.46q0,1.52-1.13,1.52-1.37,0-1.37-2.1a40.4,40.4,0,0,1,.6-5.88q0-2-.27-7.64t-.27-6.06a1.36,1.36,0,0,1,.31-.85,1.1,1.1,0,0,1,1.7,0,1.73,1.73,0,0,1,.31,1.09v9.74q2.17-3.78,5.36-3.78a4.39,4.39,0,0,1,3.69,1.7A6.52,6.52,0,0,1,174.43,97.37Z"/><path class="cls-6" d="M185.28,91.41a6.33,6.33,0,0,1,5,2.28,8.9,8.9,0,0,1,0,11.19,6.64,6.64,0,0,1-10,0,8.93,8.93,0,0,1,0-11.19A6.34,6.34,0,0,1,185.28,91.41Zm3.42,12.09a7,7,0,0,0,.06-8.43,4.24,4.24,0,0,0-3.44-1.73,4.38,4.38,0,0,0-3.5,1.76,7,7,0,0,0-.06,8.43,4.24,4.24,0,0,0,3.44,1.73A4.38,4.38,0,0,0,188.7,103.5Z"/><path class="cls-6" d="M202,91.41a6.33,6.33,0,0,1,5,2.28,8.9,8.9,0,0,1,0,11.19,6.64,6.64,0,0,1-10,0,8.93,8.93,0,0,1,0-11.19A6.34,6.34,0,0,1,202,91.41Zm3.42,12.09a7,7,0,0,0,.06-8.43,4.24,4.24,0,0,0-3.44-1.73,4.38,4.38,0,0,0-3.5,1.76,7,7,0,0,0-.06,8.43,4.24,4.24,0,0,0,3.44,1.73A4.38,4.38,0,0,0,205.43,103.5Z"/><path class="cls-6" d="M222.74,102.46a4,4,0,0,1-1.65,3.3,6.27,6.27,0,0,1-4,1.28,7.42,7.42,0,0,1-4-1.06q-1.7-1.06-1.7-2.1a1,1,0,0,1,.27-.73.82.82,0,0,1,.61-.28,1,1,0,0,1,.55.13,3.37,3.37,0,0,1,.57.52q.36.39.64.65a3.74,3.74,0,0,0,1.16.6,4.67,4.67,0,0,0,1.62.33,5,5,0,0,0,2.69-.67,2.17,2.17,0,0,0,1.06-2q0-1.55-3-2.59-1.22-.42-2.46-.91a6.12,6.12,0,0,1-2.1-1.35,2.81,2.81,0,0,1-.86-2.05,3.57,3.57,0,0,1,1.46-2.81,5.42,5.42,0,0,1,3.57-1.21,6.58,6.58,0,0,1,3.35.73q1.23.73,1.24,1.53,0,1-1,1a1.5,1.5,0,0,1-.89-.33,4.71,4.71,0,0,0-2.68-1,3.48,3.48,0,0,0-2.08.58,1.65,1.65,0,0,0-.8,1.34,1.53,1.53,0,0,0,.86,1.29,11.22,11.22,0,0,0,2.1,1q1.23.45,2.49,1a6.08,6.08,0,0,1,2.11,1.52A3.27,3.27,0,0,1,222.74,102.46Z"/><path class="cls-6" d="M233.09,91.41a5.64,5.64,0,0,1,3.9,1.34,4.45,4.45,0,0,1,1.5,3.48,3.58,3.58,0,0,1-1.86,3.26,8.74,8.74,0,0,1-4.57,1.12,19.83,19.83,0,0,1-3.78-.45,5.89,5.89,0,0,0,1.56,3.59,4.12,4.12,0,0,0,3.08,1.5,6,6,0,0,0,1.88-.28,4.76,4.76,0,0,0,1.31-.61,4,4,0,0,1,1.56-.92.81.81,0,0,1,.6.22.75.75,0,0,1,.22.55q0,.83-1.71,1.91a6.86,6.86,0,0,1-3.71,1.07,6.07,6.07,0,0,1-4.91-2.17,8.58,8.58,0,0,1-2-5.24q-1.58-.48-1.58-1.55a.94.94,0,0,1,.25-.7.83.83,0,0,1,.61-.25,2.11,2.11,0,0,1,.89.27,8.75,8.75,0,0,1,2.49-4.41A6,6,0,0,1,233.09,91.41ZM232,98.74a6.5,6.5,0,0,0,3.21-.68,2.07,2.07,0,0,0,1.21-1.85,2.85,2.85,0,0,0-.79-2,2.92,2.92,0,0,0-2.25-.85,4.29,4.29,0,0,0-3.3,1.47,7,7,0,0,0-1.73,3.44A13,13,0,0,0,232,98.74Z"/><path class="cls-6" d="M260.94,99.54a16.63,16.63,0,0,0,.33,3.65q.33,1.41.77,1.59a1.29,1.29,0,0,0,.43.12,1,1,0,0,1,.36.09.25.25,0,0,1,.1.24,2,2,0,0,1-.43,1.31,1.61,1.61,0,0,1-1.3.51q-.86,0-1.34-1.1a7.17,7.17,0,0,1-.48-2.83,7.27,7.27,0,0,1-2.19,2.8A5.13,5.13,0,0,1,254,107a4.47,4.47,0,0,1-3.11-1.19,8,8,0,0,1-2.38-6.22A9,9,0,0,1,250.34,94a5.84,5.84,0,0,1,4.82-2.41A5.5,5.5,0,0,1,259,93.08q0-1.52,1.13-1.52,1.37,0,1.37,2.1A40.47,40.47,0,0,1,260.94,99.54Zm-1.73.27-.15-4.58a5.36,5.36,0,0,0-3.74-1.73A4.17,4.17,0,0,0,252,95.25a6.55,6.55,0,0,0-1.4,4.21,8.09,8.09,0,0,0,.91,4,2.83,2.83,0,0,0,2.58,1.59,4.07,4.07,0,0,0,3-1.49A10.09,10.09,0,0,0,259.21,99.81Z"/><path class="cls-6" d="M278.8,97.37l-.15,4.67q0,.83,0,1.27a3,3,0,0,0,.18.89.9.9,0,0,0,.4.57,1.69,1.69,0,0,0,.49.13,1,1,0,0,1,.36.09.25.25,0,0,1,.1.24,1.81,1.81,0,0,1-.49,1.29,1.53,1.53,0,0,1-1.15.52,1.58,1.58,0,0,1-1.56-.89,6.22,6.22,0,0,1-.43-2.62l.12-5.48a5.65,5.65,0,0,0-.86-3.27,2.75,2.75,0,0,0-2.4-1.25,4,4,0,0,0-3,1.7,9.75,9.75,0,0,0-2,3.84l.09,6.46q0,1.52-1.13,1.52-1.37,0-1.37-2.1a40.4,40.4,0,0,1,.6-5.88,32.23,32.23,0,0,0-.25-3.45q-.25-2.2-.25-2.72a1.46,1.46,0,0,1,.31-.92,1.1,1.1,0,0,1,1.7,0,1.44,1.44,0,0,1,.31.91q0,.51,0,1.24t0,1.24q2.17-3.78,5.36-3.78a4.39,4.39,0,0,1,3.69,1.7A6.52,6.52,0,0,1,278.8,97.37Z"/><path class="cls-6" d="M289.65,91.41a6.33,6.33,0,0,1,5,2.28,8.9,8.9,0,0,1,0,11.19,6.64,6.64,0,0,1-10,0,8.93,8.93,0,0,1,0-11.19A6.34,6.34,0,0,1,289.65,91.41Zm3.42,12.09a7,7,0,0,0,.06-8.43,4.24,4.24,0,0,0-3.44-1.73,4.38,4.38,0,0,0-3.5,1.76,7,7,0,0,0-.06,8.43,4.24,4.24,0,0,0,3.44,1.73A4.38,4.38,0,0,0,293.07,103.5Z"/><path class="cls-6" d="M303.24,93.68l-.06,7.06a17.28,17.28,0,0,0,.22,3.54,1.08,1.08,0,0,0,1.18.83,2.58,2.58,0,0,0,1.09-.31,2.63,2.63,0,0,1,.85-.31.55.55,0,0,1,.63.61q0,.61-1.1,1.28a4.17,4.17,0,0,1-2.17.67q-2.59,0-2.59-3.81l0-9.56q-1,.09-1.37.09-1.49,0-1.49-1t1.49-1l1.31.06-.06-3.33q0-1.49,1.13-1.49t1.13,1.49l-.09,3.36,2.41-.12q1.49,0,1.49,1t-1.49,1Z"/><path class="cls-6" d="M322.53,97.37l-.15,4.67q0,.83,0,1.27a3,3,0,0,0,.18.89.9.9,0,0,0,.4.57,1.69,1.69,0,0,0,.49.13,1,1,0,0,1,.36.09.25.25,0,0,1,.1.24,1.81,1.81,0,0,1-.49,1.29,1.53,1.53,0,0,1-1.15.52,1.58,1.58,0,0,1-1.56-.89,6.22,6.22,0,0,1-.43-2.62l.12-5.48a5.65,5.65,0,0,0-.86-3.27,2.75,2.75,0,0,0-2.4-1.25,4,4,0,0,0-3,1.7,9.75,9.75,0,0,0-2,3.84l.09,6.46q0,1.52-1.13,1.52-1.37,0-1.37-2.1a40.4,40.4,0,0,1,.6-5.88q0-2-.27-7.64t-.27-6.06a1.36,1.36,0,0,1,.31-.85,1.1,1.1,0,0,1,1.7,0,1.73,1.73,0,0,1,.31,1.09v9.74q2.17-3.78,5.36-3.78a4.39,4.39,0,0,1,3.69,1.7A6.52,6.52,0,0,1,322.53,97.37Z"/><path class="cls-6" d="M334.19,91.41a5.64,5.64,0,0,1,3.9,1.34,4.45,4.45,0,0,1,1.5,3.48,3.58,3.58,0,0,1-1.86,3.26,8.74,8.74,0,0,1-4.57,1.12,19.83,19.83,0,0,1-3.78-.45,5.89,5.89,0,0,0,1.56,3.59,4.12,4.12,0,0,0,3.08,1.5,6,6,0,0,0,1.88-.28,4.76,4.76,0,0,0,1.31-.61,4,4,0,0,1,1.56-.92.81.81,0,0,1,.6.22.75.75,0,0,1,.22.55q0,.83-1.71,1.91a6.86,6.86,0,0,1-3.71,1.07,6.07,6.07,0,0,1-4.91-2.17,8.58,8.58,0,0,1-2-5.24q-1.58-.48-1.58-1.55a.94.94,0,0,1,.25-.7.83.83,0,0,1,.61-.25,2.11,2.11,0,0,1,.89.27A8.75,8.75,0,0,1,330,93.14,6,6,0,0,1,334.19,91.41Zm-1.13,7.32a6.5,6.5,0,0,0,3.21-.68,2.07,2.07,0,0,0,1.21-1.85,2.85,2.85,0,0,0-.79-2,2.92,2.92,0,0,0-2.25-.85,4.29,4.29,0,0,0-3.3,1.47,7,7,0,0,0-1.73,3.44A13,13,0,0,0,333.06,98.74Z"/><path class="cls-6" d="M345.49,99.93l.09,5.6q0,1.52-1.13,1.52-1.37,0-1.37-2.1a40.4,40.4,0,0,1,.6-5.88,31.43,31.43,0,0,0-.25-3.42q-.25-2.17-.25-2.71a1.55,1.55,0,0,1,.31-1,1.07,1.07,0,0,1,1.7,0,1.48,1.48,0,0,1,.31.91q0,.49,0,1.25t0,1.27a7.15,7.15,0,0,1,1.86-2.68,3.85,3.85,0,0,1,2.6-1.16,3.38,3.38,0,0,1,2.07.55,1.52,1.52,0,0,1,.73,1.18,1.4,1.4,0,0,1-.33,1,1.1,1.1,0,0,1-.85.36,1.76,1.76,0,0,1-1.13-.55,1.72,1.72,0,0,0-1-.55q-1,0-2.29,2.11A11.73,11.73,0,0,0,345.49,99.93Z"/><path class="cls-6" d="M64,129.4l-.06,7.06a17.28,17.28,0,0,0,.22,3.54,1.08,1.08,0,0,0,1.18.83,2.58,2.58,0,0,0,1.09-.31,2.63,2.63,0,0,1,.85-.31.55.55,0,0,1,.63.61q0,.61-1.1,1.28a4.17,4.17,0,0,1-2.17.67Q62,142.77,62,139l0-9.56q-1,.09-1.37.09-1.49,0-1.49-1t1.49-1l1.31.06-.06-3.33q0-1.49,1.13-1.49t1.13,1.49l-.09,3.36,2.41-.12q1.49,0,1.49,1t-1.49,1Z"/><path class="cls-6" d="M77.45,127.14a5.64,5.64,0,0,1,3.9,1.34,4.45,4.45,0,0,1,1.5,3.48A3.58,3.58,0,0,1,81,135.22a8.74,8.74,0,0,1-4.57,1.12,19.83,19.83,0,0,1-3.78-.45,5.89,5.89,0,0,0,1.56,3.59,4.12,4.12,0,0,0,3.08,1.5,6,6,0,0,0,1.88-.28,4.76,4.76,0,0,0,1.31-.61,4,4,0,0,1,1.56-.92.81.81,0,0,1,.6.22.75.75,0,0,1,.22.55q0,.83-1.71,1.91a6.86,6.86,0,0,1-3.71,1.07,6.07,6.07,0,0,1-4.91-2.17,8.58,8.58,0,0,1-2-5.24Q69,135,69,134a.94.94,0,0,1,.25-.7.83.83,0,0,1,.61-.25,2.11,2.11,0,0,1,.89.27,8.75,8.75,0,0,1,2.49-4.41A6,6,0,0,1,77.45,127.14Zm-1.13,7.32a6.5,6.5,0,0,0,3.21-.68,2.07,2.07,0,0,0,1.21-1.85,2.85,2.85,0,0,0-.79-2,2.92,2.92,0,0,0-2.25-.85,4.29,4.29,0,0,0-3.3,1.47A7,7,0,0,0,72.67,134,13,13,0,0,0,76.32,134.46Z"/><path class="cls-6" d="M107.95,133.09l-.15,4.67q0,.83,0,1.27a3,3,0,0,0,.18.89.9.9,0,0,0,.4.57,1.69,1.69,0,0,0,.49.13,1,1,0,0,1,.36.09.25.25,0,0,1,.1.24,1.81,1.81,0,0,1-.49,1.29,1.53,1.53,0,0,1-1.15.52,1.58,1.58,0,0,1-1.56-.89,6.22,6.22,0,0,1-.43-2.62l.12-5.48a6.06,6.06,0,0,0-.79-3.27,2.47,2.47,0,0,0-2.2-1.25,3.66,3.66,0,0,0-2.75,1.7,10.07,10.07,0,0,0-1.88,3.84l.09,6.46q0,1.52-1.13,1.52-1.37,0-1.37-2.1a40.4,40.4,0,0,1,.6-5.88q0-5.54-3-5.54a3.65,3.65,0,0,0-2.74,1.7,10.06,10.06,0,0,0-1.88,3.84l.09,6.46q0,1.52-1.13,1.52-1.37,0-1.37-2.1a40.4,40.4,0,0,1,.6-5.88,32.23,32.23,0,0,0-.25-3.45q-.25-2.2-.25-2.72a1.46,1.46,0,0,1,.31-.92,1.1,1.1,0,0,1,1.7,0,1.44,1.44,0,0,1,.31.91q0,.51,0,1.24t0,1.24q2-3.78,5.06-3.78a4.08,4.08,0,0,1,2.87,1,5.33,5.33,0,0,1,1.53,2.75q2-3.78,5.06-3.78a4,4,0,0,1,3.47,1.7A6.79,6.79,0,0,1,107.95,133.09Z"/><path class="cls-6" d="M112.92,136.81l0-1.13v-.48a36,36,0,0,0-.27-3.66q-.27-2.41-.27-2.93a1.46,1.46,0,0,1,.31-.92,1.1,1.1,0,0,1,1.7,0,1.44,1.44,0,0,1,.31.91q0,.51,0,1.27t0,1.27a9.47,9.47,0,0,1,2.2-2.83,4.78,4.78,0,0,1,3.16-1,4.84,4.84,0,0,1,3.33,1.25,7.1,7.1,0,0,1,2,2.89,9.53,9.53,0,0,1,.6,3.27,8.68,8.68,0,0,1-2,5.66,6.2,6.2,0,0,1-5,2.41,7,7,0,0,1-4.23-1.46q-.06,3.6-.06,5.34a5,5,0,0,1-.3,2.2,1,1,0,0,1-.92.46,1.24,1.24,0,0,1-1-.52,2.42,2.42,0,0,1-.4-1.5q0-1,.12-2.34t.36-3.57q.24-2.22.39-4Zm9.42,2.26a6.3,6.3,0,0,0,1.44-4.12,7.54,7.54,0,0,0-1-4,3.19,3.19,0,0,0-2.83-1.68q-3.13,0-5.15,5.15v4.73a5.88,5.88,0,0,0,4.23,1.73A4.25,4.25,0,0,0,122.34,139.08Z"/><path class="cls-6" d="M131.71,131.31l.15,10q0,1.49-1.13,1.49t-1.13-1.49l.15-10-.15-10q0-1.49,1.13-1.49t1.13,1.49Z"/><path class="cls-6" d="M148,135.27a16.63,16.63,0,0,0,.33,3.65q.33,1.41.77,1.59a1.29,1.29,0,0,0,.43.12,1,1,0,0,1,.36.09.25.25,0,0,1,.1.24,2,2,0,0,1-.43,1.31,1.61,1.61,0,0,1-1.3.51q-.86,0-1.34-1.1a7.17,7.17,0,0,1-.48-2.83,7.27,7.27,0,0,1-2.19,2.8,5.13,5.13,0,0,1-3.25,1.13,4.47,4.47,0,0,1-3.11-1.19,8,8,0,0,1-2.38-6.22,9,9,0,0,1,1.88-5.66,5.84,5.84,0,0,1,4.82-2.41,5.5,5.5,0,0,1,3.87,1.52q0-1.52,1.13-1.52,1.37,0,1.37,2.1A40.47,40.47,0,0,1,148,135.27Zm-1.73.27-.15-4.58a5.36,5.36,0,0,0-3.74-1.73A4.17,4.17,0,0,0,139,131a6.55,6.55,0,0,0-1.4,4.21,8.09,8.09,0,0,0,.91,4,2.83,2.83,0,0,0,2.58,1.59,4.07,4.07,0,0,0,3-1.49A10.09,10.09,0,0,0,146.23,135.53Z"/><path class="cls-6" d="M156.51,129.4l-.06,7.06a17.28,17.28,0,0,0,.22,3.54,1.08,1.08,0,0,0,1.18.83,2.58,2.58,0,0,0,1.09-.31,2.63,2.63,0,0,1,.85-.31.55.55,0,0,1,.63.61q0,.61-1.1,1.28a4.17,4.17,0,0,1-2.17.67q-2.59,0-2.59-3.81l0-9.56q-1,.09-1.37.09-1.49,0-1.49-1t1.49-1l1.31.06-.06-3.33q0-1.49,1.13-1.49t1.13,1.49l-.09,3.36,2.41-.12q1.49,0,1.49,1t-1.49,1Z"/><path class="cls-6" d="M169.95,127.14a5.64,5.64,0,0,1,3.9,1.34,4.45,4.45,0,0,1,1.5,3.48,3.58,3.58,0,0,1-1.86,3.26,8.74,8.74,0,0,1-4.57,1.12,19.83,19.83,0,0,1-3.78-.45,5.89,5.89,0,0,0,1.56,3.59,4.12,4.12,0,0,0,3.08,1.5,6,6,0,0,0,1.88-.28,4.76,4.76,0,0,0,1.31-.61,4,4,0,0,1,1.56-.92.81.81,0,0,1,.6.22.75.75,0,0,1,.22.55q0,.83-1.71,1.91a6.86,6.86,0,0,1-3.71,1.07,6.07,6.07,0,0,1-4.91-2.17,8.58,8.58,0,0,1-2-5.24q-1.58-.48-1.58-1.55a.94.94,0,0,1,.25-.7.83.83,0,0,1,.61-.25,2.11,2.11,0,0,1,.89.27,8.75,8.75,0,0,1,2.49-4.41A6,6,0,0,1,169.95,127.14Zm-1.13,7.32a6.5,6.5,0,0,0,3.21-.68,2.07,2.07,0,0,0,1.21-1.85,2.85,2.85,0,0,0-.79-2,2.92,2.92,0,0,0-2.25-.85,4.29,4.29,0,0,0-3.3,1.47,7,7,0,0,0-1.73,3.44A13,13,0,0,0,168.82,134.46Z"/><path class="cls-6" d="M190.71,140.09q.27,0,1.93-5.66t1.85-6.07a1.41,1.41,0,0,1,1.32-1.07,1.3,1.3,0,0,1,1.27,1q.33,1,.89,3.13t.83,3q1.64,5.6,1.92,5.6t2-5.57q.39-1.28,1-3.48t.71-2.59q.36-1.16,1.1-1.16a1.13,1.13,0,0,1,.76.27.82.82,0,0,1,.31.64,3,3,0,0,1-.07.68q-.07.31-.27.89t-.4,1.24q-.21.66-.61,1.83t-1.38,4.27q-1,3.1-1.55,4.52a1.63,1.63,0,0,1-1.64,1.13q-1.19,0-1.73-1.55-1.07-3.1-2.05-6.53t-1.22-3.44q-.21,0-.55,1.18l-.54,1.85q-.19.67-.25.91a52.18,52.18,0,0,1-2.14,6.55,1.7,1.7,0,0,1-1.64,1q-1.13,0-1.7-1.64-.21-.59-.85-2.56t-1-3.17q-.4-1.21-.8-2.34l-.64-1.79q-.24-.65-.45-1.28a6.15,6.15,0,0,1-.39-1.64,1,1,0,0,1,.31-.77,1.06,1.06,0,0,1,.76-.3q.86,0,1.19,1,.12.36.79,2.6t1,3.16l.58,1.86q.3,1,.49,1.55t.43,1.28Q190.56,140.09,190.71,140.09Z"/><path class="cls-6" d="M222,133.09l-.15,4.67q0,.83,0,1.27a3,3,0,0,0,.18.89.9.9,0,0,0,.4.57,1.69,1.69,0,0,0,.49.13,1,1,0,0,1,.36.09.25.25,0,0,1,.1.24,1.81,1.81,0,0,1-.49,1.29,1.53,1.53,0,0,1-1.15.52,1.58,1.58,0,0,1-1.56-.89,6.22,6.22,0,0,1-.43-2.62l.12-5.48a5.65,5.65,0,0,0-.86-3.27,2.75,2.75,0,0,0-2.4-1.25,4,4,0,0,0-3,1.7,9.75,9.75,0,0,0-2,3.84l.09,6.46q0,1.52-1.13,1.52-1.37,0-1.37-2.1a40.4,40.4,0,0,1,.6-5.88q0-2-.27-7.64t-.27-6.06a1.36,1.36,0,0,1,.31-.85,1.1,1.1,0,0,1,1.7,0,1.73,1.73,0,0,1,.31,1.09v9.74q2.17-3.78,5.36-3.78a4.39,4.39,0,0,1,3.69,1.7A6.52,6.52,0,0,1,222,133.09Z"/><path class="cls-6" d="M228,120.89a1.07,1.07,0,0,1,.92.4,1.66,1.66,0,0,1,.3,1,2.15,2.15,0,0,1-.42,1.22,1.23,1.23,0,0,1-1,.61,1.1,1.1,0,0,1-.94-.42,1.79,1.79,0,0,1-.31-1.1,1.84,1.84,0,0,1,.43-1.21A1.33,1.33,0,0,1,228,120.89Zm.83,14.14.15,6.25q0,1.49-1.13,1.49t-1.13-1.49l.15-6.25-.15-6.25q0-1.49,1.13-1.49t1.13,1.49Z"/><path class="cls-6" d="M235.46,131.31l.15,10q0,1.49-1.13,1.49t-1.13-1.49l.15-10-.15-10q0-1.49,1.13-1.49t1.13,1.49Z"/><path class="cls-6" d="M247,127.14a5.64,5.64,0,0,1,3.9,1.34,4.45,4.45,0,0,1,1.5,3.48,3.58,3.58,0,0,1-1.86,3.26,8.74,8.74,0,0,1-4.57,1.12,19.83,19.83,0,0,1-3.78-.45,5.89,5.89,0,0,0,1.56,3.59,4.12,4.12,0,0,0,3.08,1.5,6,6,0,0,0,1.88-.28,4.76,4.76,0,0,0,1.31-.61,4,4,0,0,1,1.56-.92.81.81,0,0,1,.6.22.75.75,0,0,1,.22.55q0,.83-1.71,1.91a6.86,6.86,0,0,1-3.71,1.07,6.07,6.07,0,0,1-4.91-2.17,8.58,8.58,0,0,1-2-5.24q-1.58-.48-1.58-1.55a.94.94,0,0,1,.25-.7.83.83,0,0,1,.61-.25,2.11,2.11,0,0,1,.89.27,8.75,8.75,0,0,1,2.49-4.41A6,6,0,0,1,247,127.14Zm-1.13,7.32a6.5,6.5,0,0,0,3.21-.68,2.07,2.07,0,0,0,1.21-1.85,2.85,2.85,0,0,0-.79-2,2.92,2.92,0,0,0-2.25-.85,4.29,4.29,0,0,0-3.3,1.47,7,7,0,0,0-1.73,3.44A13,13,0,0,0,245.86,134.46Z"/><path class="cls-6" d="M270.12,127.14a5.64,5.64,0,0,1,3.9,1.34,4.45,4.45,0,0,1,1.5,3.48,3.58,3.58,0,0,1-1.86,3.26,8.74,8.74,0,0,1-4.57,1.12,19.83,19.83,0,0,1-3.78-.45,5.89,5.89,0,0,0,1.56,3.59A4.12,4.12,0,0,0,270,141a6,6,0,0,0,1.88-.28,4.76,4.76,0,0,0,1.31-.61,4,4,0,0,1,1.56-.92.81.81,0,0,1,.6.22.75.75,0,0,1,.22.55q0,.83-1.71,1.91a6.86,6.86,0,0,1-3.71,1.07,6.07,6.07,0,0,1-4.91-2.17,8.58,8.58,0,0,1-2-5.24q-1.58-.48-1.58-1.55a.94.94,0,0,1,.25-.7.83.83,0,0,1,.61-.25,2.11,2.11,0,0,1,.89.27,8.75,8.75,0,0,1,2.49-4.41A6,6,0,0,1,270.12,127.14ZM269,134.46a6.5,6.5,0,0,0,3.21-.68,2.07,2.07,0,0,0,1.21-1.85,2.85,2.85,0,0,0-.79-2,2.92,2.92,0,0,0-2.25-.85,4.29,4.29,0,0,0-3.3,1.47,7,7,0,0,0-1.73,3.44A13,13,0,0,0,269,134.46Z"/><path class="cls-6" d="M292.76,140.57q.77,0,.77.45a2.08,2.08,0,0,1-.4,1.16,1.42,1.42,0,0,1-1.27.6,1.5,1.5,0,0,1-1.35-1,9,9,0,0,1-.7-3q-2.17,4-5.51,4a4.84,4.84,0,0,1-3.33-1.25,7.09,7.09,0,0,1-2-2.89,9.53,9.53,0,0,1-.6-3.27,8.68,8.68,0,0,1,2-5.66,6.2,6.2,0,0,1,5-2.41,7,7,0,0,1,4.23,1.46q.06-4.14.06-6.06a5.86,5.86,0,0,1,.28-2.38,1,1,0,0,1,.92-.46,1.26,1.26,0,0,1,1,.52,2.48,2.48,0,0,1,.4,1.53q0,1-.12,2.49t-.36,3.9q-.24,2.43-.39,4.39a46.5,46.5,0,0,0,.27,5.69Q292,140.42,292.76,140.57Zm-3.16-4.88v-4.73a5.88,5.88,0,0,0-4.23-1.73A4.25,4.25,0,0,0,282,131a6.29,6.29,0,0,0-1.44,4.12,7.53,7.53,0,0,0,1,4,3.19,3.19,0,0,0,2.83,1.68Q287.58,140.83,289.61,135.68Z"/><path class="cls-6" d="M298,120.89a1.07,1.07,0,0,1,.92.4,1.66,1.66,0,0,1,.3,1,2.15,2.15,0,0,1-.42,1.22,1.23,1.23,0,0,1-1,.61,1.1,1.1,0,0,1-.94-.42,1.79,1.79,0,0,1-.31-1.1,1.84,1.84,0,0,1,.43-1.21A1.33,1.33,0,0,1,298,120.89Zm.83,14.14.15,6.25q0,1.49-1.13,1.49t-1.13-1.49l.15-6.25-.15-6.25q0-1.49,1.13-1.49t1.13,1.49Z"/><path class="cls-6" d="M306.61,129.4l-.06,7.06a17.28,17.28,0,0,0,.22,3.54,1.08,1.08,0,0,0,1.18.83,2.58,2.58,0,0,0,1.09-.31,2.63,2.63,0,0,1,.85-.31.55.55,0,0,1,.63.61q0,.61-1.1,1.28a4.17,4.17,0,0,1-2.17.67q-2.59,0-2.59-3.81l0-9.56q-1,.09-1.37.09-1.49,0-1.49-1t1.49-1l1.31.06-.06-3.33q0-1.49,1.13-1.49t1.13,1.49l-.09,3.36,2.41-.12q1.49,0,1.49,1t-1.49,1Z"/><path class="cls-6" d="M314.67,120.89a1.07,1.07,0,0,1,.92.4,1.66,1.66,0,0,1,.3,1,2.15,2.15,0,0,1-.42,1.22,1.23,1.23,0,0,1-1,.61,1.1,1.1,0,0,1-.94-.42,1.79,1.79,0,0,1-.31-1.1,1.84,1.84,0,0,1,.43-1.21A1.33,1.33,0,0,1,314.67,120.89Zm.83,14.14.15,6.25q0,1.49-1.13,1.49t-1.13-1.49l.15-6.25-.15-6.25q0-1.49,1.13-1.49t1.13,1.49Z"/><path class="cls-6" d="M332.63,133.09l-.15,4.67q0,.83,0,1.27a3,3,0,0,0,.18.89.9.9,0,0,0,.4.57,1.69,1.69,0,0,0,.49.13,1,1,0,0,1,.36.09.25.25,0,0,1,.1.24,1.81,1.81,0,0,1-.49,1.29,1.53,1.53,0,0,1-1.15.52,1.58,1.58,0,0,1-1.56-.89,6.22,6.22,0,0,1-.43-2.62l.12-5.48a5.65,5.65,0,0,0-.86-3.27,2.75,2.75,0,0,0-2.4-1.25,4,4,0,0,0-3,1.7,9.75,9.75,0,0,0-2,3.84l.09,6.46q0,1.52-1.13,1.52-1.37,0-1.37-2.1a40.4,40.4,0,0,1,.6-5.88,32.23,32.23,0,0,0-.25-3.45q-.25-2.2-.25-2.72a1.46,1.46,0,0,1,.31-.92,1.1,1.1,0,0,1,1.7,0,1.44,1.44,0,0,1,.31.91q0,.51,0,1.24t0,1.24q2.17-3.78,5.36-3.78a4.39,4.39,0,0,1,3.69,1.7A6.52,6.52,0,0,1,332.63,133.09Z"/><path class="cls-6" d="M347.18,128.69q.06-1.4,1.13-1.4,1.37,0,1.37,2.1a40.47,40.47,0,0,1-.6,5.88q.36,3.63.36,5.42a10,10,0,0,1-1.83,6.27,6.12,6.12,0,0,1-5.14,2.37,8.18,8.18,0,0,1-3.48-.76q-1.64-.76-1.64-1.52t.69-.76a6.47,6.47,0,0,1,1.53.55,7.21,7.21,0,0,0,2.9.55,4.47,4.47,0,0,0,3.75-1.79A7.38,7.38,0,0,0,347.6,141a14.4,14.4,0,0,0-.15-2.14,6.74,6.74,0,0,1-2.13,2.77,4.86,4.86,0,0,1-3,1.16,5,5,0,0,1-2.66-.68,5.48,5.48,0,0,1-1.79-1.79,9.9,9.9,0,0,1-1.34-5.2,8.25,8.25,0,0,1,2-5.39,6.2,6.2,0,0,1,5-2.43A5.65,5.65,0,0,1,347.18,128.69Zm.06,6.82v-4.56a4.91,4.91,0,0,0-3.62-1.73,4.39,4.39,0,0,0-3.45,1.77,6.36,6.36,0,0,0-1.47,4.2,8,8,0,0,0,.92,4,2.83,2.83,0,0,0,2.55,1.61,4,4,0,0,0,3-1.52A10.08,10.08,0,0,0,347.24,135.5Z"/><path class="cls-6" d="M67.91,171l-.09-6.46Q67.82,163,69,163q1.37,0,1.37,2.23a42.28,42.28,0,0,1-.63,5.75q.36,3.63.36,5.42a9.7,9.7,0,0,1-1.91,6.27A6.49,6.49,0,0,1,62.79,185a8.18,8.18,0,0,1-3.48-.76q-1.64-.76-1.64-1.52t.68-.76a7.15,7.15,0,0,1,1.65.55,7.33,7.33,0,0,0,2.78.55,4.84,4.84,0,0,0,4-1.79,7.06,7.06,0,0,0,1.46-4.61q0-1-.09-2-2.2,3.81-5.54,3.81a4.32,4.32,0,0,1-3.69-1.77,7.08,7.08,0,0,1-1.31-4.33l.18-4.5a9.83,9.83,0,0,0-.24-2.22,7.47,7.47,0,0,1-.24-1.47,1.16,1.16,0,0,1,.36-.82,1.22,1.22,0,0,1,.92-.37q1.37,0,1.37,2.44L59.69,172a5.72,5.72,0,0,0,.86,3.29,2.74,2.74,0,0,0,2.4,1.27,4,4,0,0,0,3-1.71A9.88,9.88,0,0,0,67.91,171Z"/><path class="cls-6" d="M80.72,162.86a6.33,6.33,0,0,1,5,2.28,8.9,8.9,0,0,1,0,11.19,6.64,6.64,0,0,1-10,0,8.93,8.93,0,0,1,0-11.19A6.34,6.34,0,0,1,80.72,162.86ZM84.15,175a7,7,0,0,0,.06-8.43,4.24,4.24,0,0,0-3.44-1.73,4.38,4.38,0,0,0-3.5,1.76,7,7,0,0,0-.06,8.43,4.24,4.24,0,0,0,3.44,1.73A4.38,4.38,0,0,0,84.15,175Z"/><path class="cls-6" d="M93.57,165.45,93.33,172a5.72,5.72,0,0,0,.86,3.29,2.74,2.74,0,0,0,2.4,1.27,4,4,0,0,0,3-1.71,9.88,9.88,0,0,0,2-3.86l-.09-6.46q0-1.52,1.13-1.52,1.37,0,1.37,2.1a40.47,40.47,0,0,1-.6,5.88,16.63,16.63,0,0,0,.33,3.65q.33,1.41.77,1.59a1.29,1.29,0,0,0,.43.12,1,1,0,0,1,.36.09.25.25,0,0,1,.1.24,1.8,1.8,0,0,1-.49,1.31,1.65,1.65,0,0,1-1.24.51q-1.88,0-1.88-3.81-2.2,3.81-5.54,3.81a4.32,4.32,0,0,1-3.69-1.77,7.08,7.08,0,0,1-1.31-4.33l.18-4.5a9.83,9.83,0,0,0-.24-2.22,7.47,7.47,0,0,1-.24-1.47,1.16,1.16,0,0,1,.36-.82,1.22,1.22,0,0,1,.92-.37Q93.57,163,93.57,165.45Z"/><path class="cls-6" d="M110.9,171.38,111,177q0,1.52-1.13,1.52-1.37,0-1.37-2.1a40.4,40.4,0,0,1,.6-5.88,31.43,31.43,0,0,0-.25-3.42q-.25-2.17-.25-2.71a1.55,1.55,0,0,1,.31-1,1.07,1.07,0,0,1,1.7,0,1.48,1.48,0,0,1,.31.91q0,.49,0,1.25t0,1.27a7.15,7.15,0,0,1,1.86-2.68,3.85,3.85,0,0,1,2.6-1.16,3.38,3.38,0,0,1,2.07.55,1.52,1.52,0,0,1,.73,1.18,1.4,1.4,0,0,1-.33,1,1.1,1.1,0,0,1-.85.36,1.76,1.76,0,0,1-1.13-.55,1.72,1.72,0,0,0-1-.55q-1,0-2.29,2.11A11.73,11.73,0,0,0,110.9,171.38Z"/><path class="cls-6" d="M128.19,172.54l0-1.13v-.48a36,36,0,0,0-.27-3.66q-.27-2.41-.27-2.93a1.46,1.46,0,0,1,.31-.92,1.1,1.1,0,0,1,1.7,0,1.44,1.44,0,0,1,.31.91q0,.51,0,1.27t0,1.27a9.47,9.47,0,0,1,2.2-2.83,4.78,4.78,0,0,1,3.16-1,4.84,4.84,0,0,1,3.33,1.25,7.1,7.1,0,0,1,2,2.89,9.53,9.53,0,0,1,.6,3.27,8.68,8.68,0,0,1-2,5.66,6.2,6.2,0,0,1-5,2.41A7,7,0,0,1,130,177q-.06,3.6-.06,5.34a5,5,0,0,1-.3,2.2,1,1,0,0,1-.92.46,1.24,1.24,0,0,1-1-.52,2.42,2.42,0,0,1-.4-1.5q0-1,.12-2.34t.36-3.57q.24-2.22.39-4Zm9.42,2.26a6.3,6.3,0,0,0,1.44-4.12,7.54,7.54,0,0,0-1-4,3.19,3.19,0,0,0-2.83-1.68q-3.13,0-5.15,5.15v4.73a5.88,5.88,0,0,0,4.23,1.73A4.25,4.25,0,0,0,137.62,174.8Z"/><path class="cls-6" d="M156.56,171a16.63,16.63,0,0,0,.33,3.65q.33,1.41.77,1.59a1.29,1.29,0,0,0,.43.12,1,1,0,0,1,.36.09.25.25,0,0,1,.1.24,2,2,0,0,1-.43,1.31,1.61,1.61,0,0,1-1.3.51q-.86,0-1.34-1.1a7.17,7.17,0,0,1-.48-2.83,7.27,7.27,0,0,1-2.19,2.8,5.13,5.13,0,0,1-3.25,1.13,4.47,4.47,0,0,1-3.11-1.19,8,8,0,0,1-2.38-6.22,9,9,0,0,1,1.88-5.66,5.84,5.84,0,0,1,4.82-2.41,5.5,5.5,0,0,1,3.87,1.52q0-1.52,1.13-1.52,1.37,0,1.37,2.1A40.47,40.47,0,0,1,156.56,171Zm-1.73.27-.15-4.58a5.36,5.36,0,0,0-3.74-1.73,4.17,4.17,0,0,0-3.35,1.76,6.55,6.55,0,0,0-1.4,4.21,8.09,8.09,0,0,0,.91,4,2.83,2.83,0,0,0,2.58,1.59,4.07,4.07,0,0,0,3-1.49A10.09,10.09,0,0,0,154.84,171.26Z"/><path class="cls-6" d="M171.63,164.41q.06-1.4,1.13-1.4,1.37,0,1.37,2.1a40.47,40.47,0,0,1-.6,5.88q.36,3.63.36,5.42a10,10,0,0,1-1.83,6.27,6.12,6.12,0,0,1-5.14,2.37,8.18,8.18,0,0,1-3.48-.76q-1.64-.76-1.64-1.52t.69-.76a6.47,6.47,0,0,1,1.53.55,7.21,7.21,0,0,0,2.9.55,4.47,4.47,0,0,0,3.75-1.79,7.38,7.38,0,0,0,1.37-4.61,14.4,14.4,0,0,0-.15-2.14,6.74,6.74,0,0,1-2.13,2.77,4.86,4.86,0,0,1-3,1.16,5,5,0,0,1-2.66-.68,5.48,5.48,0,0,1-1.79-1.79,9.9,9.9,0,0,1-1.34-5.2,8.25,8.25,0,0,1,2-5.39,6.2,6.2,0,0,1,5-2.43A5.65,5.65,0,0,1,171.63,164.41Zm.06,6.82v-4.56a4.91,4.91,0,0,0-3.62-1.73,4.39,4.39,0,0,0-3.45,1.77,6.36,6.36,0,0,0-1.47,4.2,8,8,0,0,0,.92,4,2.83,2.83,0,0,0,2.55,1.61,4,4,0,0,0,3-1.52A10.08,10.08,0,0,0,171.69,171.23Z"/><path class="cls-6" d="M185.34,162.86a5.64,5.64,0,0,1,3.9,1.34,4.45,4.45,0,0,1,1.5,3.48,3.58,3.58,0,0,1-1.86,3.26,8.74,8.74,0,0,1-4.57,1.12,19.83,19.83,0,0,1-3.78-.45,5.89,5.89,0,0,0,1.56,3.59,4.12,4.12,0,0,0,3.08,1.5,6,6,0,0,0,1.88-.28,4.76,4.76,0,0,0,1.31-.61,4,4,0,0,1,1.56-.92.81.81,0,0,1,.6.22.75.75,0,0,1,.22.55q0,.83-1.71,1.91a6.86,6.86,0,0,1-3.71,1.07,6.07,6.07,0,0,1-4.91-2.17,8.58,8.58,0,0,1-2-5.24q-1.58-.48-1.58-1.55a.94.94,0,0,1,.25-.7.83.83,0,0,1,.61-.25,2.11,2.11,0,0,1,.89.27,8.75,8.75,0,0,1,2.49-4.41A6,6,0,0,1,185.34,162.86Zm-1.13,7.32a6.5,6.5,0,0,0,3.21-.68,2.07,2.07,0,0,0,1.21-1.85,2.85,2.85,0,0,0-.79-2,2.92,2.92,0,0,0-2.25-.85,4.29,4.29,0,0,0-3.3,1.47,7,7,0,0,0-1.73,3.44A13,13,0,0,0,184.21,170.19Z"/><path class="cls-6" d="M196.69,176.74a8.7,8.7,0,0,1-1,4q-1,2-2,2a.6.6,0,0,1-.42-.16.51.51,0,0,1-.18-.39,3.84,3.84,0,0,1,.55-1.16,3.43,3.43,0,0,0,.55-1.7A6.3,6.3,0,0,0,194,178a5.4,5.4,0,0,1-.12-1.15,1.9,1.9,0,0,1,.43-1.16,1.3,1.3,0,0,1,1.07-.57,1.11,1.11,0,0,1,1,.46A1.88,1.88,0,0,1,196.69,176.74Z"/><path class="cls-6" d="M219.44,171a16.63,16.63,0,0,0,.33,3.65q.33,1.41.77,1.59a1.29,1.29,0,0,0,.43.12,1,1,0,0,1,.36.09.25.25,0,0,1,.1.24A2,2,0,0,1,221,178a1.61,1.61,0,0,1-1.3.51q-.86,0-1.34-1.1a7.17,7.17,0,0,1-.48-2.83,7.27,7.27,0,0,1-2.19,2.8,5.13,5.13,0,0,1-3.25,1.13,4.47,4.47,0,0,1-3.11-1.19,8,8,0,0,1-2.38-6.22,9,9,0,0,1,1.88-5.66,5.84,5.84,0,0,1,4.82-2.41,5.5,5.5,0,0,1,3.87,1.52q0-1.52,1.13-1.52,1.37,0,1.37,2.1A40.47,40.47,0,0,1,219.44,171Zm-1.73.27-.15-4.58a5.36,5.36,0,0,0-3.74-1.73,4.17,4.17,0,0,0-3.35,1.76,6.55,6.55,0,0,0-1.4,4.21,8.09,8.09,0,0,0,.91,4,2.83,2.83,0,0,0,2.58,1.59,4.07,4.07,0,0,0,3-1.49A10.09,10.09,0,0,0,217.71,171.26Z"/><path class="cls-6" d="M226.85,167l.15,10q0,1.49-1.13,1.49T224.74,177l.15-10-.15-10q0-1.49,1.13-1.49t1.13,1.49Z"/><path class="cls-6" d="M233.52,167l.15,10q0,1.49-1.13,1.49T231.41,177l.15-10-.15-10q0-1.49,1.13-1.49t1.13,1.49Z"/><path class="cls-6" d="M248.41,165.13l-.06,7.06a17.28,17.28,0,0,0,.22,3.54,1.08,1.08,0,0,0,1.18.83,2.58,2.58,0,0,0,1.09-.31,2.63,2.63,0,0,1,.85-.31.55.55,0,0,1,.63.61q0,.61-1.1,1.28a4.17,4.17,0,0,1-2.17.67q-2.59,0-2.59-3.81l0-9.56q-1,.09-1.37.09-1.49,0-1.49-1t1.49-1l1.31.06-.06-3.33q0-1.49,1.13-1.49t1.13,1.49l-.09,3.36,2.41-.12q1.49,0,1.49,1t-1.49,1Z"/><path class="cls-6" d="M267.7,168.82l-.15,4.67q0,.83,0,1.27a3,3,0,0,0,.18.89.9.9,0,0,0,.4.57,1.69,1.69,0,0,0,.49.13,1,1,0,0,1,.36.09.25.25,0,0,1,.1.24,1.81,1.81,0,0,1-.49,1.29,1.53,1.53,0,0,1-1.15.52,1.58,1.58,0,0,1-1.56-.89,6.22,6.22,0,0,1-.43-2.62l.12-5.48a5.65,5.65,0,0,0-.86-3.27,2.75,2.75,0,0,0-2.4-1.25,4,4,0,0,0-3,1.7,9.75,9.75,0,0,0-2,3.84l.09,6.46q0,1.52-1.13,1.52-1.37,0-1.37-2.1a40.4,40.4,0,0,1,.6-5.88q0-2-.27-7.64t-.27-6.06a1.36,1.36,0,0,1,.31-.85,1.1,1.1,0,0,1,1.7,0,1.73,1.73,0,0,1,.31,1.09v9.74q2.17-3.78,5.36-3.78a4.39,4.39,0,0,1,3.69,1.7A6.52,6.52,0,0,1,267.7,168.82Z"/><path class="cls-6" d="M279.35,162.86a5.64,5.64,0,0,1,3.9,1.34,4.45,4.45,0,0,1,1.5,3.48,3.58,3.58,0,0,1-1.86,3.26,8.74,8.74,0,0,1-4.57,1.12,19.83,19.83,0,0,1-3.78-.45,5.89,5.89,0,0,0,1.56,3.59,4.12,4.12,0,0,0,3.08,1.5,6,6,0,0,0,1.88-.28,4.76,4.76,0,0,0,1.31-.61,4,4,0,0,1,1.56-.92.81.81,0,0,1,.6.22.75.75,0,0,1,.22.55q0,.83-1.71,1.91a6.86,6.86,0,0,1-3.71,1.07,6.07,6.07,0,0,1-4.91-2.17,8.58,8.58,0,0,1-2-5.24q-1.58-.48-1.58-1.55a.94.94,0,0,1,.25-.7.83.83,0,0,1,.61-.25,2.11,2.11,0,0,1,.89.27,8.75,8.75,0,0,1,2.49-4.41A6,6,0,0,1,279.35,162.86Zm-1.13,7.32a6.5,6.5,0,0,0,3.21-.68,2.07,2.07,0,0,0,1.21-1.85,2.85,2.85,0,0,0-.79-2,2.92,2.92,0,0,0-2.25-.85,4.29,4.29,0,0,0-3.3,1.47,7,7,0,0,0-1.73,3.44A13,13,0,0,0,278.22,170.19Z"/><path class="cls-6" d="M309.08,176.29q.77,0,.77.45a2.08,2.08,0,0,1-.4,1.16,1.42,1.42,0,0,1-1.27.6,1.5,1.5,0,0,1-1.35-1,9,9,0,0,1-.7-3q-2.17,4-5.51,4a4.84,4.84,0,0,1-3.33-1.25,7.09,7.09,0,0,1-2-2.89,9.53,9.53,0,0,1-.6-3.27,8.68,8.68,0,0,1,2-5.66,6.2,6.2,0,0,1,5-2.41,7,7,0,0,1,4.23,1.46q.06-4.14.06-6.06a5.86,5.86,0,0,1,.28-2.38,1,1,0,0,1,.92-.46,1.26,1.26,0,0,1,1,.52,2.48,2.48,0,0,1,.4,1.53q0,1-.12,2.49t-.36,3.9q-.24,2.43-.39,4.39a46.5,46.5,0,0,0,.27,5.69Q308.3,176.14,309.08,176.29Zm-3.16-4.88v-4.73a5.88,5.88,0,0,0-4.23-1.73,4.25,4.25,0,0,0-3.35,1.76,6.29,6.29,0,0,0-1.44,4.12,7.53,7.53,0,0,0,1,4,3.19,3.19,0,0,0,2.83,1.68Q303.9,176.56,305.92,171.41Z"/><path class="cls-6" d="M324.71,171a16.63,16.63,0,0,0,.33,3.65q.33,1.41.77,1.59a1.29,1.29,0,0,0,.43.12,1,1,0,0,1,.36.09.25.25,0,0,1,.1.24,2,2,0,0,1-.43,1.31,1.61,1.61,0,0,1-1.3.51q-.86,0-1.34-1.1a7.17,7.17,0,0,1-.48-2.83,7.27,7.27,0,0,1-2.19,2.8,5.13,5.13,0,0,1-3.25,1.13,4.47,4.47,0,0,1-3.11-1.19,8,8,0,0,1-2.38-6.22,9,9,0,0,1,1.88-5.66,5.84,5.84,0,0,1,4.82-2.41,5.5,5.5,0,0,1,3.87,1.52q0-1.52,1.13-1.52,1.37,0,1.37,2.1A40.47,40.47,0,0,1,324.71,171Zm-1.73.27-.15-4.58a5.36,5.36,0,0,0-3.74-1.73,4.17,4.17,0,0,0-3.35,1.76,6.55,6.55,0,0,0-1.4,4.21,8.09,8.09,0,0,0,.91,4,2.83,2.83,0,0,0,2.58,1.59,4.07,4.07,0,0,0,3-1.49A10.09,10.09,0,0,0,323,171.26Z"/><path class="cls-6" d="M333.25,165.13l-.06,7.06a17.28,17.28,0,0,0,.22,3.54,1.08,1.08,0,0,0,1.18.83,2.58,2.58,0,0,0,1.09-.31,2.63,2.63,0,0,1,.85-.31.55.55,0,0,1,.63.61q0,.61-1.1,1.28a4.17,4.17,0,0,1-2.17.67q-2.59,0-2.59-3.81l0-9.56q-1,.09-1.37.09-1.49,0-1.49-1t1.49-1l1.31.06-.06-3.33q0-1.49,1.13-1.49T333.4,160l-.09,3.36,2.41-.12q1.49,0,1.49,1t-1.49,1Z"/><path class="cls-6" d="M351.74,171a16.63,16.63,0,0,0,.33,3.65q.33,1.41.77,1.59a1.29,1.29,0,0,0,.43.12,1,1,0,0,1,.36.09.25.25,0,0,1,.1.24,2,2,0,0,1-.43,1.31,1.61,1.61,0,0,1-1.3.51q-.86,0-1.34-1.1a7.17,7.17,0,0,1-.48-2.83,7.27,7.27,0,0,1-2.19,2.8,5.13,5.13,0,0,1-3.25,1.13,4.47,4.47,0,0,1-3.11-1.19,8,8,0,0,1-2.38-6.22,9,9,0,0,1,1.88-5.66A5.84,5.84,0,0,1,346,163a5.5,5.5,0,0,1,3.87,1.52q0-1.52,1.13-1.52,1.37,0,1.37,2.1A40.47,40.47,0,0,1,351.74,171Zm-1.73.27-.15-4.58a5.36,5.36,0,0,0-3.74-1.73,4.17,4.17,0,0,0-3.35,1.76,6.55,6.55,0,0,0-1.4,4.21,8.09,8.09,0,0,0,.91,4,2.83,2.83,0,0,0,2.58,1.59,4.07,4.07,0,0,0,3-1.49A10.09,10.09,0,0,0,350,171.26Z"/><path class="cls-6" d="M130,211.54q.27,0,1.93-5.66t1.85-6.07a1.41,1.41,0,0,1,1.32-1.07,1.3,1.3,0,0,1,1.27,1q.33,1,.89,3.13t.83,3q1.64,5.6,1.92,5.6t2-5.57q.39-1.28,1-3.48t.71-2.59q.36-1.16,1.1-1.16a1.13,1.13,0,0,1,.76.27.82.82,0,0,1,.31.64,3,3,0,0,1-.07.68q-.07.31-.27.89t-.4,1.24q-.21.66-.61,1.83t-1.38,4.27q-1,3.1-1.55,4.52a1.63,1.63,0,0,1-1.64,1.13q-1.19,0-1.73-1.55-1.07-3.1-2.05-6.53t-1.22-3.44q-.21,0-.55,1.18l-.54,1.85q-.19.67-.25.91a52.18,52.18,0,0,1-2.14,6.55,1.7,1.7,0,0,1-1.64,1q-1.13,0-1.7-1.64-.21-.59-.85-2.56t-1-3.17q-.4-1.21-.8-2.34l-.64-1.79q-.24-.65-.45-1.28a6.15,6.15,0,0,1-.39-1.64,1,1,0,0,1,.31-.77,1.06,1.06,0,0,1,.76-.3q.86,0,1.19,1,.12.36.79,2.6t1,3.16l.58,1.86q.3,1,.49,1.55t.43,1.28Q129.86,211.54,130,211.54Z"/><path class="cls-6" d="M150.07,192.34a1.07,1.07,0,0,1,.92.4,1.66,1.66,0,0,1,.3,1,2.15,2.15,0,0,1-.42,1.22,1.23,1.23,0,0,1-1,.61,1.1,1.1,0,0,1-.94-.42,1.79,1.79,0,0,1-.31-1.1,1.84,1.84,0,0,1,.43-1.21A1.33,1.33,0,0,1,150.07,192.34Zm.83,14.14.15,6.25q0,1.49-1.13,1.49t-1.13-1.49l.15-6.25-.15-6.25q0-1.49,1.13-1.49t1.13,1.49Z"/><path class="cls-6" d="M157.58,202.76l.15,10q0,1.49-1.13,1.49t-1.13-1.49l.15-10-.15-10q0-1.49,1.13-1.49t1.13,1.49Z"/><path class="cls-6" d="M164.25,202.76l.15,10q0,1.49-1.13,1.49t-1.13-1.49l.15-10-.15-10q0-1.49,1.13-1.49t1.13,1.49Z"/><path class="cls-6" d="M188.72,206.15a9,9,0,0,1-1.88,5.66,5.84,5.84,0,0,1-4.82,2.41,5.5,5.5,0,0,1-3.87-1.52q0,1.52-1.13,1.52-1.37,0-1.37-2.1a40.4,40.4,0,0,1,.6-5.88q0-2-.27-7.64t-.27-6.06a1.36,1.36,0,0,1,.31-.85,1.1,1.1,0,0,1,1.7,0,1.73,1.73,0,0,1,.31,1.09v9.41a7.07,7.07,0,0,1,2.16-2.49,5.19,5.19,0,0,1,3.1-1,4.29,4.29,0,0,1,3,1.19A8,8,0,0,1,188.72,206.15Zm-6.86,6.13a4.17,4.17,0,0,0,3.35-1.76,6.55,6.55,0,0,0,1.4-4.21,8.1,8.1,0,0,0-.91-4,2.83,2.83,0,0,0-2.58-1.59,4.07,4.07,0,0,0-3,1.49A10.08,10.08,0,0,0,178,206l.15,4.58A5.36,5.36,0,0,0,181.85,212.28Z"/><path class="cls-6" d="M199.3,198.59a5.64,5.64,0,0,1,3.9,1.34,4.45,4.45,0,0,1,1.5,3.48,3.58,3.58,0,0,1-1.86,3.26,8.74,8.74,0,0,1-4.57,1.12,19.83,19.83,0,0,1-3.78-.45,5.89,5.89,0,0,0,1.56,3.59,4.12,4.12,0,0,0,3.08,1.5,6,6,0,0,0,1.88-.28,4.76,4.76,0,0,0,1.31-.61,4,4,0,0,1,1.56-.92.81.81,0,0,1,.6.22.75.75,0,0,1,.22.55q0,.83-1.71,1.91a6.86,6.86,0,0,1-3.71,1.07,6.07,6.07,0,0,1-4.91-2.17,8.58,8.58,0,0,1-2-5.24q-1.58-.48-1.58-1.55a.94.94,0,0,1,.25-.7.83.83,0,0,1,.61-.25,2.11,2.11,0,0,1,.89.27,8.75,8.75,0,0,1,2.49-4.41A6,6,0,0,1,199.3,198.59Zm-1.13,7.32a6.5,6.5,0,0,0,3.21-.68,2.07,2.07,0,0,0,1.21-1.85,2.85,2.85,0,0,0-.79-2,2.92,2.92,0,0,0-2.25-.85,4.29,4.29,0,0,0-3.3,1.47,7,7,0,0,0-1.73,3.44A13,13,0,0,0,198.17,205.91Z"/><path class="cls-6" d="M225.33,200.14q.06-1.4,1.13-1.4,1.37,0,1.37,2.1a40.47,40.47,0,0,1-.6,5.88q.36,3.63.36,5.42a10,10,0,0,1-1.83,6.27,6.12,6.12,0,0,1-5.14,2.37,8.18,8.18,0,0,1-3.48-.76q-1.64-.76-1.64-1.52t.69-.76a6.47,6.47,0,0,1,1.53.55,7.21,7.21,0,0,0,2.9.55,4.47,4.47,0,0,0,3.75-1.79,7.38,7.38,0,0,0,1.37-4.61,14.4,14.4,0,0,0-.15-2.14,6.74,6.74,0,0,1-2.13,2.77,4.86,4.86,0,0,1-3,1.16,5,5,0,0,1-2.66-.68,5.48,5.48,0,0,1-1.79-1.79,9.9,9.9,0,0,1-1.34-5.2,8.25,8.25,0,0,1,2-5.39,6.2,6.2,0,0,1,5-2.43A5.65,5.65,0,0,1,225.33,200.14Zm.06,6.82V202.4a4.91,4.91,0,0,0-3.62-1.73,4.39,4.39,0,0,0-3.45,1.77,6.36,6.36,0,0,0-1.47,4.2,8,8,0,0,0,.92,4,2.83,2.83,0,0,0,2.55,1.61,4,4,0,0,0,3-1.52A10.08,10.08,0,0,0,225.39,207Z"/><path class="cls-6" d="M238.24,198.59a6.33,6.33,0,0,1,5,2.28,8.9,8.9,0,0,1,0,11.19,6.64,6.64,0,0,1-10,0,8.93,8.93,0,0,1,0-11.19A6.34,6.34,0,0,1,238.24,198.59Zm3.42,12.09a7,7,0,0,0,.06-8.43,4.24,4.24,0,0,0-3.44-1.73,4.38,4.38,0,0,0-3.5,1.76,7,7,0,0,0-.06,8.43,4.24,4.24,0,0,0,3.44,1.73A4.38,4.38,0,0,0,241.66,210.68Z"/><path class="cls-6" d="M261.35,204.54l-.15,4.67q0,.83,0,1.27a3,3,0,0,0,.18.89.9.9,0,0,0,.4.57,1.69,1.69,0,0,0,.49.13,1,1,0,0,1,.36.09.25.25,0,0,1,.1.24,1.81,1.81,0,0,1-.49,1.29,1.53,1.53,0,0,1-1.15.52,1.58,1.58,0,0,1-1.56-.89,6.22,6.22,0,0,1-.43-2.62l.12-5.48a5.65,5.65,0,0,0-.86-3.27,2.75,2.75,0,0,0-2.4-1.25,4,4,0,0,0-3,1.7,9.75,9.75,0,0,0-2,3.84l.09,6.46q0,1.52-1.13,1.52-1.37,0-1.37-2.1a40.4,40.4,0,0,1,.6-5.88,32.23,32.23,0,0,0-.25-3.45q-.25-2.2-.25-2.72a1.46,1.46,0,0,1,.31-.92,1.1,1.1,0,0,1,1.7,0,1.44,1.44,0,0,1,.31.91q0,.51,0,1.24t0,1.24q2.17-3.78,5.36-3.78a4.39,4.39,0,0,1,3.69,1.7A6.52,6.52,0,0,1,261.35,204.54Z"/><path class="cls-6" d="M273,198.59a5.64,5.64,0,0,1,3.9,1.34,4.45,4.45,0,0,1,1.5,3.48,3.58,3.58,0,0,1-1.86,3.26,8.74,8.74,0,0,1-4.57,1.12,19.83,19.83,0,0,1-3.78-.45,5.89,5.89,0,0,0,1.56,3.59,4.12,4.12,0,0,0,3.08,1.5,6,6,0,0,0,1.88-.28,4.76,4.76,0,0,0,1.31-.61,4,4,0,0,1,1.56-.92.81.81,0,0,1,.6.22.75.75,0,0,1,.22.55q0,.83-1.71,1.91a6.86,6.86,0,0,1-3.71,1.07,6.07,6.07,0,0,1-4.91-2.17,8.58,8.58,0,0,1-2-5.24q-1.58-.48-1.58-1.55a.94.94,0,0,1,.25-.7.83.83,0,0,1,.61-.25,2.11,2.11,0,0,1,.89.27,8.75,8.75,0,0,1,2.49-4.41A6,6,0,0,1,273,198.59Zm-1.13,7.32a6.5,6.5,0,0,0,3.21-.68,2.07,2.07,0,0,0,1.21-1.85,2.85,2.85,0,0,0-.79-2,2.92,2.92,0,0,0-2.25-.85A4.29,4.29,0,0,0,270,202a7,7,0,0,0-1.73,3.44A13,13,0,0,0,271.88,205.91Z"/><path class="cls-6" d="M283.58,210.94a1.09,1.09,0,0,1,.94.45,1.89,1.89,0,0,1,.33,1.15,2,2,0,0,1-.43,1.27,1.28,1.28,0,0,1-1,.57,1.07,1.07,0,0,1-.94-.48,2,2,0,0,1-.33-1.15,2,2,0,0,1,.43-1.24A1.28,1.28,0,0,1,283.58,210.94Zm.88-11,.09,6.31q0,1.49-1.07,1.49t-1.07-1.49l.09-6.31q0-1.76-.1-4.39t-.1-2.81q0-1.49,1.19-1.49t1.19,1.49q0,.18-.1,2.81T284.46,200Z"/><g class="cls-12"><path d="M698.83,324.78c-4.18-4.43-16.55-9.59-21-12-.53-.29,19.18-10.06,19.49-13.14,1.18-11.64-1-32.46,9.81-47.22,15-20.55,42.18-29.35,69.4-32.11,41.75-4.23,123.93-5.53,164.77,3.31,20.36,4.41,44.44,19.84,53.23,38.88,7.25,15.71,4.11,52-2.62,68.29C977.77,365,925.67,361.27,913,362c-47,2.73-120,1.43-164.48-3C716.9,355.89,705.7,332.05,698.83,324.78Z"/></g><path class="cls-9" d="M696.35,322.3c-4.18-4.43-16.55-9.59-21-12-.53-.29,19.18-10.06,19.49-13.14,1.18-11.64-1-32.46,9.81-47.22,15-20.55,42.18-29.35,69.4-32.11,41.75-4.23,123.93-5.53,164.77,3.31C959.19,225.5,983.26,240.94,992,260c7.25,15.71,4.11,52-2.62,68.29-14.14,34.23-66.24,30.52-78.89,31.26-47,2.73-120,1.43-164.48-3C714.42,353.41,703.22,329.57,696.35,322.3Z"/><path class="cls-6" d="M745.42,253.78l-.15-8.51q-1.43,0-1.43-1.13t2-1.52a17.82,17.82,0,0,1,4.44-.51,11.27,11.27,0,0,1,4.7,1,10.1,10.1,0,0,1,3.63,2.68,12.31,12.31,0,0,1,2.86,8.1,11.61,11.61,0,0,1-2.77,7.74,9.54,9.54,0,0,1-3.5,2.58,12,12,0,0,1-4.94,1,14.44,14.44,0,0,1-4.64-.64q-1.86-.64-1.86-1.65a.84.84,0,0,1,.22-.6.79.79,0,0,1,.61-.24,1.63,1.63,0,0,1,.77.21Zm11.43-6.58a7.81,7.81,0,0,0-2.89-2.14,10.07,10.07,0,0,0-6.25-.53q-.15,2.29-.15,8.56t.18,9.84a14.12,14.12,0,0,0,2.5.15,8.16,8.16,0,0,0,6.55-2.71,9.74,9.74,0,0,0,2.32-6.57A10,10,0,0,0,756.85,247.2Z"/><path class="cls-6" d="M771.51,249.4a6.33,6.33,0,0,1,5,2.28,8.9,8.9,0,0,1,0,11.19,6.64,6.64,0,0,1-10,0,8.93,8.93,0,0,1,0-11.19A6.34,6.34,0,0,1,771.51,249.4Zm3.43,12.09a7,7,0,0,0,.06-8.43,4.24,4.24,0,0,0-3.44-1.73,4.38,4.38,0,0,0-3.5,1.76,7,7,0,0,0-.06,8.43,4.24,4.24,0,0,0,3.44,1.73A4.38,4.38,0,0,0,774.94,261.48Z"/><path class="cls-6" d="M799.42,257.52l-.09-6.46q0-1.52,1.13-1.52,1.37,0,1.37,2.23a42.31,42.31,0,0,1-.62,5.75q.36,3.63.36,5.42a9.69,9.69,0,0,1-1.9,6.27,6.49,6.49,0,0,1-5.36,2.37,8.18,8.18,0,0,1-3.48-.76q-1.64-.76-1.64-1.52t.68-.76a7.15,7.15,0,0,1,1.65.55,7.33,7.33,0,0,0,2.78.55,4.84,4.84,0,0,0,4-1.79,7.06,7.06,0,0,0,1.46-4.61q0-1-.09-2-2.2,3.81-5.54,3.81a4.32,4.32,0,0,1-3.69-1.77,7.08,7.08,0,0,1-1.31-4.33l.18-4.5a9.83,9.83,0,0,0-.24-2.22,7.44,7.44,0,0,1-.24-1.47,1.16,1.16,0,0,1,.36-.82,1.22,1.22,0,0,1,.92-.37q1.37,0,1.37,2.44l-.24,6.55a5.72,5.72,0,0,0,.86,3.29,2.74,2.74,0,0,0,2.4,1.26,4,4,0,0,0,3-1.71A9.88,9.88,0,0,0,799.42,257.52Z"/><path class="cls-6" d="M812.24,249.38a6.33,6.33,0,0,1,5,2.28,8.9,8.9,0,0,1,0,11.19,6.64,6.64,0,0,1-10,0,8.93,8.93,0,0,1,0-11.19A6.34,6.34,0,0,1,812.24,249.38Zm3.43,12.09a7,7,0,0,0,.06-8.43,4.24,4.24,0,0,0-3.44-1.73,4.38,4.38,0,0,0-3.5,1.76,7,7,0,0,0-.06,8.43,4.24,4.24,0,0,0,3.44,1.73A4.38,4.38,0,0,0,815.67,261.47Z"/><path class="cls-6" d="M825.09,252l-.24,6.55a5.72,5.72,0,0,0,.86,3.29,2.74,2.74,0,0,0,2.4,1.26,4,4,0,0,0,3-1.71,9.88,9.88,0,0,0,2-3.86L833,251q0-1.52,1.13-1.52,1.37,0,1.37,2.1a40.5,40.5,0,0,1-.59,5.88,16.61,16.61,0,0,0,.33,3.65q.33,1.41.77,1.59a1.29,1.29,0,0,0,.43.12,1,1,0,0,1,.36.09.25.25,0,0,1,.1.24,1.8,1.8,0,0,1-.49,1.31,1.65,1.65,0,0,1-1.24.51q-1.88,0-1.88-3.81-2.2,3.81-5.54,3.81a4.32,4.32,0,0,1-3.69-1.77,7.08,7.08,0,0,1-1.31-4.33l.18-4.5a9.82,9.82,0,0,0-.24-2.22,7.44,7.44,0,0,1-.24-1.47,1.16,1.16,0,0,1,.36-.82,1.22,1.22,0,0,1,.92-.37Q825.08,249.53,825.09,252Z"/><path class="cls-6" d="M851.88,262.32q.27,0,1.93-5.66t1.84-6.07a1.41,1.41,0,0,1,1.32-1.07,1.3,1.3,0,0,1,1.27,1q.33,1,.89,3.13t.83,3q1.64,5.6,1.92,5.6t1.95-5.57q.39-1.28,1-3.48t.71-2.59q.36-1.16,1.1-1.16a1.13,1.13,0,0,1,.76.27.82.82,0,0,1,.31.64,3,3,0,0,1-.07.68q-.07.31-.27.89t-.4,1.24q-.21.66-.61,1.83T865,259.34q-1,3.1-1.55,4.53A1.63,1.63,0,0,1,861.8,265q-1.19,0-1.73-1.55-1.07-3.1-2.06-6.53t-1.22-3.44q-.21,0-.55,1.18l-.54,1.85q-.19.67-.25.91a52.18,52.18,0,0,1-2.14,6.55,1.7,1.7,0,0,1-1.64,1q-1.13,0-1.7-1.64-.21-.59-.85-2.56t-1-3.17q-.4-1.21-.8-2.34l-.64-1.79q-.24-.65-.45-1.28a6.14,6.14,0,0,1-.39-1.64,1,1,0,0,1,.31-.77,1.06,1.06,0,0,1,.76-.3q.86,0,1.19,1,.12.36.79,2.6t1,3.16l.58,1.86q.3,1,.49,1.55t.43,1.28Q851.73,262.32,851.88,262.32Z"/><path class="cls-6" d="M882.37,257.49a16.61,16.61,0,0,0,.33,3.65q.33,1.41.77,1.59a1.29,1.29,0,0,0,.43.12,1,1,0,0,1,.36.09.25.25,0,0,1,.1.24,2,2,0,0,1-.43,1.31,1.61,1.61,0,0,1-1.3.51q-.86,0-1.34-1.1a7.17,7.17,0,0,1-.48-2.83,7.27,7.27,0,0,1-2.19,2.8,5.13,5.13,0,0,1-3.25,1.13,4.47,4.47,0,0,1-3.11-1.19,8,8,0,0,1-2.38-6.22,9,9,0,0,1,1.87-5.66,5.84,5.84,0,0,1,4.82-2.41,5.5,5.5,0,0,1,3.87,1.52q0-1.52,1.13-1.52,1.37,0,1.37,2.1A40.5,40.5,0,0,1,882.37,257.49Zm-1.73.27-.15-4.58a5.36,5.36,0,0,0-3.74-1.73,4.17,4.17,0,0,0-3.35,1.76,6.55,6.55,0,0,0-1.4,4.21,8.09,8.09,0,0,0,.91,4,2.83,2.83,0,0,0,2.58,1.59,4.07,4.07,0,0,0,3-1.49A10.09,10.09,0,0,0,880.64,257.76Z"/><path class="cls-6" d="M900.23,255.31l-.15,4.67q0,.83,0,1.27a3,3,0,0,0,.18.89.91.91,0,0,0,.4.57,1.7,1.7,0,0,0,.49.13,1,1,0,0,1,.36.09.25.25,0,0,1,.1.24,1.81,1.81,0,0,1-.49,1.3A1.53,1.53,0,0,1,900,265a1.58,1.58,0,0,1-1.56-.89,6.22,6.22,0,0,1-.43-2.62l.12-5.48a5.65,5.65,0,0,0-.86-3.27,2.75,2.75,0,0,0-2.4-1.25,4,4,0,0,0-3,1.7,9.75,9.75,0,0,0-2,3.84l.09,6.46q0,1.52-1.13,1.52-1.37,0-1.37-2.1a40.42,40.42,0,0,1,.59-5.88,32.14,32.14,0,0,0-.25-3.45q-.25-2.2-.25-2.72a1.47,1.47,0,0,1,.31-.92,1.1,1.1,0,0,1,1.7,0,1.44,1.44,0,0,1,.31.91q0,.51,0,1.24t0,1.24q2.17-3.78,5.36-3.78a4.39,4.39,0,0,1,3.69,1.7A6.52,6.52,0,0,1,900.23,255.31Z"/><path class="cls-6" d="M907.88,251.62l-.06,7.06a17.25,17.25,0,0,0,.22,3.54,1.08,1.08,0,0,0,1.18.83,2.58,2.58,0,0,0,1.09-.31,2.62,2.62,0,0,1,.85-.31.55.55,0,0,1,.63.61q0,.61-1.1,1.28a4.17,4.17,0,0,1-2.17.67q-2.59,0-2.59-3.81l0-9.56q-1,.09-1.37.09-1.49,0-1.49-1t1.49-1l1.31.06-.06-3.33q0-1.49,1.13-1.49t1.13,1.49l-.09,3.36,2.41-.12q1.49,0,1.49,1t-1.49,1Z"/><path class="cls-6" d="M925,251.61l-.06,7.06a17.24,17.24,0,0,0,.22,3.54,1.08,1.08,0,0,0,1.18.83,2.58,2.58,0,0,0,1.09-.31,2.63,2.63,0,0,1,.85-.31.55.55,0,0,1,.63.61q0,.61-1.1,1.28a4.17,4.17,0,0,1-2.17.67q-2.59,0-2.59-3.81l0-9.56q-1,.09-1.37.09-1.49,0-1.49-1t1.49-1l1.31.06-.06-3.33q0-1.49,1.13-1.49t1.13,1.49l-.09,3.36,2.41-.12q1.49,0,1.49,1t-1.49,1Z"/><path class="cls-6" d="M938,249.34a6.33,6.33,0,0,1,5,2.28,8.9,8.9,0,0,1,0,11.19,6.64,6.64,0,0,1-10,0,8.93,8.93,0,0,1,0-11.19A6.34,6.34,0,0,1,938,249.34Zm3.43,12.09a7,7,0,0,0,.06-8.43,4.24,4.24,0,0,0-3.44-1.73,4.38,4.38,0,0,0-3.5,1.76,7,7,0,0,0-.06,8.43,4.24,4.24,0,0,0,3.44,1.73A4.38,4.38,0,0,0,941.39,261.43Z"/><path class="cls-6" d="M734.14,297.4q.74,0,.74.79t-1.73,1.76a7.33,7.33,0,0,1-3.63,1,6.73,6.73,0,0,1-5.21-2.31,8.49,8.49,0,0,1,0-11.16,7.11,7.11,0,0,1,5.52-2.31,6.43,6.43,0,0,1,3.32.85q1.44.85,1.44,1.74a1.1,1.1,0,0,1-.3.79.92.92,0,0,1-.68.31,1.45,1.45,0,0,1-.89-.45,4.87,4.87,0,0,0-3.16-1.31A4.67,4.67,0,0,0,726,288.8a6.1,6.1,0,0,0-1.53,4.2,6.17,6.17,0,0,0,1.55,4.23,4.91,4.91,0,0,0,3.84,1.76,5.83,5.83,0,0,0,3.42-1.19A1.79,1.79,0,0,1,734.14,297.4Z"/><path class="cls-6" d="M740.45,293.65l.09,5.6q0,1.52-1.13,1.52-1.37,0-1.37-2.1a40.35,40.35,0,0,1,.59-5.88,31.5,31.5,0,0,0-.25-3.42q-.25-2.17-.25-2.71a1.54,1.54,0,0,1,.31-1,1.07,1.07,0,0,1,1.7,0,1.48,1.48,0,0,1,.31.91q0,.49,0,1.25t0,1.27a7.15,7.15,0,0,1,1.86-2.68,3.85,3.85,0,0,1,2.6-1.16,3.38,3.38,0,0,1,2.07.55,1.52,1.52,0,0,1,.73,1.18,1.4,1.4,0,0,1-.33,1,1.1,1.1,0,0,1-.85.36,1.76,1.76,0,0,1-1.13-.55,1.72,1.72,0,0,0-1-.55q-1,0-2.29,2.11A11.73,11.73,0,0,0,740.45,293.65Z"/><path class="cls-6" d="M756.45,285.13a5.64,5.64,0,0,1,3.9,1.34,4.45,4.45,0,0,1,1.5,3.48,3.58,3.58,0,0,1-1.86,3.26,8.74,8.74,0,0,1-4.57,1.12,19.86,19.86,0,0,1-3.78-.44,5.89,5.89,0,0,0,1.56,3.59,4.12,4.12,0,0,0,3.08,1.5,6,6,0,0,0,1.88-.28,4.78,4.78,0,0,0,1.31-.61,4,4,0,0,1,1.56-.92.81.81,0,0,1,.6.22.75.75,0,0,1,.22.55q0,.83-1.71,1.91a6.86,6.86,0,0,1-3.71,1.07,6.07,6.07,0,0,1-4.91-2.17,8.58,8.58,0,0,1-2-5.24Q748,293,748,291.95a.94.94,0,0,1,.25-.7.83.83,0,0,1,.61-.25,2.11,2.11,0,0,1,.89.27,8.75,8.75,0,0,1,2.48-4.41A6,6,0,0,1,756.45,285.13Zm-1.13,7.32a6.5,6.5,0,0,0,3.21-.69,2.07,2.07,0,0,0,1.21-1.85,2.85,2.85,0,0,0-.79-2,2.92,2.92,0,0,0-2.25-.85,4.29,4.29,0,0,0-3.3,1.47,7,7,0,0,0-1.73,3.44A13,13,0,0,0,755.32,292.45Z"/><path class="cls-6" d="M777.21,293.25a16.64,16.64,0,0,0,.33,3.65q.33,1.41.77,1.59a1.28,1.28,0,0,0,.43.12,1,1,0,0,1,.36.09.25.25,0,0,1,.1.24,2,2,0,0,1-.43,1.31,1.61,1.61,0,0,1-1.3.51q-.86,0-1.34-1.1a7.18,7.18,0,0,1-.48-2.83,7.27,7.27,0,0,1-2.19,2.8,5.13,5.13,0,0,1-3.24,1.13,4.47,4.47,0,0,1-3.11-1.19,8,8,0,0,1-2.38-6.22,9,9,0,0,1,1.87-5.66,5.84,5.84,0,0,1,4.82-2.41,5.5,5.5,0,0,1,3.87,1.52q0-1.52,1.13-1.52,1.37,0,1.37,2.1A40.49,40.49,0,0,1,777.21,293.25Zm-1.73.27-.15-4.58a5.36,5.36,0,0,0-3.74-1.73,4.17,4.17,0,0,0-3.35,1.76,6.55,6.55,0,0,0-1.4,4.21,8.09,8.09,0,0,0,.91,4,2.83,2.83,0,0,0,2.58,1.59,4.07,4.07,0,0,0,3-1.49A10.08,10.08,0,0,0,775.49,293.52Z"/><path class="cls-6" d="M785.76,287.38l-.06,7.06a17.29,17.29,0,0,0,.22,3.54,1.08,1.08,0,0,0,1.18.83,2.58,2.58,0,0,0,1.09-.31,2.63,2.63,0,0,1,.85-.31.55.55,0,0,1,.63.61q0,.61-1.1,1.28a4.17,4.17,0,0,1-2.17.67q-2.59,0-2.59-3.81l0-9.56q-1,.09-1.37.09-1.49,0-1.49-1t1.49-1l1.31.06-.06-3.33q0-1.49,1.13-1.49t1.13,1.49l-.09,3.36,2.41-.12q1.49,0,1.49,1t-1.49,1Z"/><path class="cls-6" d="M799.2,285.11a5.64,5.64,0,0,1,3.9,1.34,4.45,4.45,0,0,1,1.5,3.48,3.58,3.58,0,0,1-1.86,3.26,8.74,8.74,0,0,1-4.57,1.12,19.86,19.86,0,0,1-3.78-.45,5.89,5.89,0,0,0,1.56,3.59A4.13,4.13,0,0,0,799,299a6,6,0,0,0,1.88-.28,4.77,4.77,0,0,0,1.31-.61,4,4,0,0,1,1.56-.92.8.8,0,0,1,.6.22.75.75,0,0,1,.22.55q0,.83-1.71,1.91a6.87,6.87,0,0,1-3.71,1.07,6.07,6.07,0,0,1-4.91-2.17,8.58,8.58,0,0,1-2-5.24q-1.58-.48-1.58-1.55a.94.94,0,0,1,.25-.7.83.83,0,0,1,.61-.25,2.11,2.11,0,0,1,.89.27,8.75,8.75,0,0,1,2.48-4.41A6,6,0,0,1,799.2,285.11Zm-1.13,7.32a6.5,6.5,0,0,0,3.21-.69,2.07,2.07,0,0,0,1.21-1.85,2.85,2.85,0,0,0-.79-2,2.92,2.92,0,0,0-2.25-.85,4.29,4.29,0,0,0-3.3,1.47,7,7,0,0,0-1.73,3.44A13,13,0,0,0,798.07,292.44Z"/><path class="cls-6" d="M827,293.23a16.65,16.65,0,0,0,.33,3.65q.33,1.41.77,1.59a1.31,1.31,0,0,0,.43.12,1,1,0,0,1,.36.09.25.25,0,0,1,.1.24,2,2,0,0,1-.43,1.31,1.61,1.61,0,0,1-1.3.51q-.86,0-1.34-1.1a7.18,7.18,0,0,1-.48-2.83,7.27,7.27,0,0,1-2.19,2.8,5.12,5.12,0,0,1-3.24,1.13,4.47,4.47,0,0,1-3.11-1.19,8,8,0,0,1-2.38-6.22,9,9,0,0,1,1.87-5.66,5.84,5.84,0,0,1,4.82-2.41,5.5,5.5,0,0,1,3.87,1.52q0-1.52,1.13-1.52,1.37,0,1.37,2.1A40.49,40.49,0,0,1,827,293.23Zm-1.73.27-.15-4.58a5.36,5.36,0,0,0-3.74-1.73,4.17,4.17,0,0,0-3.35,1.76,6.55,6.55,0,0,0-1.4,4.21,8.09,8.09,0,0,0,.91,4,2.83,2.83,0,0,0,2.58,1.59,4.07,4.07,0,0,0,3-1.49A10.09,10.09,0,0,0,825.32,293.5Z"/><path class="cls-6" d="M852,291.05l-.15,4.67c0,.56,0,1,0,1.26a3,3,0,0,0,.18.89.9.9,0,0,0,.4.56,1.7,1.7,0,0,0,.49.13,1,1,0,0,1,.36.09.25.25,0,0,1,.1.24,1.82,1.82,0,0,1-.49,1.3,1.53,1.53,0,0,1-1.15.52,1.58,1.58,0,0,1-1.56-.89,6.22,6.22,0,0,1-.43-2.62l.12-5.48a5.66,5.66,0,0,0-.86-3.27,2.75,2.75,0,0,0-2.4-1.25,4,4,0,0,0-3,1.7,9.75,9.75,0,0,0-2,3.84l.09,6.46q0,1.52-1.13,1.52-1.37,0-1.37-2.1a40.35,40.35,0,0,1,.59-5.88,32.3,32.3,0,0,0-.25-3.45q-.25-2.2-.25-2.72a1.46,1.46,0,0,1,.31-.92,1.1,1.1,0,0,1,1.7,0,1.44,1.44,0,0,1,.31.91q0,.51,0,1.24t0,1.24q2.17-3.78,5.36-3.78a4.39,4.39,0,0,1,3.69,1.7A6.52,6.52,0,0,1,852,291.05Z"/><path class="cls-6" d="M863.65,285.09a5.64,5.64,0,0,1,3.9,1.34,4.45,4.45,0,0,1,1.5,3.48,3.58,3.58,0,0,1-1.86,3.26,8.74,8.74,0,0,1-4.57,1.12,19.83,19.83,0,0,1-3.78-.45,5.89,5.89,0,0,0,1.56,3.59,4.13,4.13,0,0,0,3.08,1.5,6,6,0,0,0,1.88-.28,4.74,4.74,0,0,0,1.31-.61,4,4,0,0,1,1.56-.92.81.81,0,0,1,.6.22.75.75,0,0,1,.22.55q0,.83-1.71,1.91a6.86,6.86,0,0,1-3.71,1.07,6.07,6.07,0,0,1-4.91-2.17,8.58,8.58,0,0,1-2-5.24q-1.58-.48-1.58-1.55a.94.94,0,0,1,.25-.7A.83.83,0,0,1,856,291a2.11,2.11,0,0,1,.89.27,8.75,8.75,0,0,1,2.48-4.41A6,6,0,0,1,863.65,285.09Zm-1.13,7.32a6.5,6.5,0,0,0,3.21-.69,2.07,2.07,0,0,0,1.21-1.85,2.85,2.85,0,0,0-.79-2,2.92,2.92,0,0,0-2.25-.85,4.29,4.29,0,0,0-3.3,1.47,7,7,0,0,0-1.73,3.44A13,13,0,0,0,862.52,292.42Z"/><path class="cls-6" d="M877.33,298q.27,0,1.93-5.66t1.84-6.07a1.41,1.41,0,0,1,1.32-1.07,1.3,1.3,0,0,1,1.27,1q.33,1,.89,3.13t.83,3q1.64,5.6,1.92,5.6t1.95-5.57q.39-1.28,1-3.48t.71-2.59q.36-1.16,1.1-1.16a1.13,1.13,0,0,1,.76.27.82.82,0,0,1,.31.64,2.94,2.94,0,0,1-.07.68q-.07.31-.27.89t-.4,1.24q-.21.66-.61,1.83t-1.38,4.27q-1,3.1-1.55,4.53a1.63,1.63,0,0,1-1.64,1.13q-1.19,0-1.73-1.55-1.07-3.09-2.06-6.53t-1.22-3.44q-.21,0-.55,1.18l-.54,1.85q-.19.67-.25.91a52.23,52.23,0,0,1-2.14,6.55,1.7,1.7,0,0,1-1.64,1q-1.13,0-1.7-1.64-.21-.59-.85-2.56t-1-3.17q-.4-1.21-.8-2.34l-.64-1.79q-.24-.65-.45-1.28a6.17,6.17,0,0,1-.39-1.64,1,1,0,0,1,.31-.77,1.06,1.06,0,0,1,.76-.3q.86,0,1.19,1,.12.36.79,2.6t1,3.16l.58,1.86q.3,1,.49,1.55t.43,1.28Q877.18,298,877.33,298Z"/><path class="cls-6" d="M903.5,294.76l0-1.13v-.48a36,36,0,0,0-.27-3.66q-.27-2.41-.27-2.93a1.46,1.46,0,0,1,.31-.92,1.1,1.1,0,0,1,1.7,0,1.44,1.44,0,0,1,.31.91q0,.51,0,1.27t0,1.27a9.47,9.47,0,0,1,2.2-2.83,4.78,4.78,0,0,1,3.16-1,4.84,4.84,0,0,1,3.33,1.25,7.1,7.1,0,0,1,2,2.89,9.53,9.53,0,0,1,.6,3.27,8.69,8.69,0,0,1-2,5.66,6.2,6.2,0,0,1-5,2.41,7,7,0,0,1-4.23-1.46q-.06,3.6-.06,5.34a5,5,0,0,1-.3,2.2,1,1,0,0,1-.92.46,1.24,1.24,0,0,1-1-.52,2.42,2.42,0,0,1-.4-1.5q0-1,.12-2.34t.36-3.57q.24-2.22.39-4Zm9.42,2.26a6.3,6.3,0,0,0,1.44-4.12,7.54,7.54,0,0,0-1-4,3.19,3.19,0,0,0-2.83-1.68q-3.13,0-5.15,5.15V297a5.88,5.88,0,0,0,4.23,1.72A4.25,4.25,0,0,0,912.92,297Z"/><path class="cls-6" d="M931.87,293.2a16.65,16.65,0,0,0,.33,3.65q.33,1.41.77,1.59a1.28,1.28,0,0,0,.43.12,1,1,0,0,1,.36.09.25.25,0,0,1,.1.24,2,2,0,0,1-.43,1.31,1.61,1.61,0,0,1-1.3.51q-.86,0-1.34-1.1a7.18,7.18,0,0,1-.48-2.83,7.27,7.27,0,0,1-2.19,2.8,5.13,5.13,0,0,1-3.24,1.13,4.47,4.47,0,0,1-3.11-1.19,8,8,0,0,1-2.38-6.22,9,9,0,0,1,1.87-5.66,5.84,5.84,0,0,1,4.82-2.41,5.5,5.5,0,0,1,3.87,1.52q0-1.52,1.13-1.52,1.37,0,1.37,2.1A40.49,40.49,0,0,1,931.87,293.2Zm-1.73.27-.15-4.58a5.36,5.36,0,0,0-3.74-1.73,4.17,4.17,0,0,0-3.35,1.76,6.55,6.55,0,0,0-1.4,4.21,8.09,8.09,0,0,0,.91,4,2.83,2.83,0,0,0,2.58,1.59,4.07,4.07,0,0,0,3-1.49A10.09,10.09,0,0,0,930.14,293.47Z"/><path class="cls-6" d="M946.93,286.61q.06-1.4,1.13-1.4,1.37,0,1.37,2.1a40.48,40.48,0,0,1-.59,5.88q.36,3.63.36,5.42a10,10,0,0,1-1.83,6.27,6.12,6.12,0,0,1-5.14,2.37,8.17,8.17,0,0,1-3.48-.76q-1.64-.76-1.64-1.52t.68-.76a6.45,6.45,0,0,1,1.53.55,7.2,7.2,0,0,0,2.9.55,4.47,4.47,0,0,0,3.75-1.79,7.38,7.38,0,0,0,1.37-4.61,14.39,14.39,0,0,0-.15-2.14,6.74,6.74,0,0,1-2.13,2.77,4.86,4.86,0,0,1-3,1.16,5,5,0,0,1-2.66-.68,5.49,5.49,0,0,1-1.79-1.79,9.9,9.9,0,0,1-1.34-5.19,8.25,8.25,0,0,1,2-5.39,6.2,6.2,0,0,1,5-2.43A5.65,5.65,0,0,1,946.93,286.61Zm.06,6.82v-4.56a4.91,4.91,0,0,0-3.62-1.73,4.39,4.39,0,0,0-3.45,1.77,6.36,6.36,0,0,0-1.47,4.2,8,8,0,0,0,.92,4,2.82,2.82,0,0,0,2.55,1.61,4,4,0,0,0,3-1.52A10.08,10.08,0,0,0,947,293.43Z"/><path class="cls-6" d="M960.64,285.06a5.65,5.65,0,0,1,3.9,1.34,4.45,4.45,0,0,1,1.5,3.48,3.58,3.58,0,0,1-1.86,3.26,8.74,8.74,0,0,1-4.57,1.12,19.83,19.83,0,0,1-3.78-.45,5.89,5.89,0,0,0,1.56,3.59,4.13,4.13,0,0,0,3.08,1.5,6,6,0,0,0,1.88-.28,4.75,4.75,0,0,0,1.31-.61,4,4,0,0,1,1.56-.92.81.81,0,0,1,.6.22.75.75,0,0,1,.22.55q0,.83-1.71,1.91a6.85,6.85,0,0,1-3.71,1.07,6.07,6.07,0,0,1-4.91-2.17,8.58,8.58,0,0,1-2-5.24q-1.58-.48-1.58-1.55a.94.94,0,0,1,.25-.7.83.83,0,0,1,.61-.25,2.11,2.11,0,0,1,.89.27,8.75,8.75,0,0,1,2.48-4.41A6,6,0,0,1,960.64,285.06Zm-1.13,7.32a6.5,6.5,0,0,0,3.21-.69,2.07,2.07,0,0,0,1.21-1.85,2.85,2.85,0,0,0-.79-2,2.92,2.92,0,0,0-2.25-.85,4.29,4.29,0,0,0-3.3,1.47,7,7,0,0,0-1.73,3.44A13,13,0,0,0,959.51,292.39Z"/><path class="cls-6" d="M792.16,314.59a1.07,1.07,0,0,1,.92.4,1.65,1.65,0,0,1,.3,1,2.16,2.16,0,0,1-.42,1.22,1.23,1.23,0,0,1-1,.61,1.1,1.1,0,0,1-.94-.42,1.79,1.79,0,0,1-.31-1.1,1.84,1.84,0,0,1,.43-1.21A1.33,1.33,0,0,1,792.16,314.59Zm.84,14.14.15,6.25q0,1.49-1.13,1.49T790.89,335l.15-6.25-.15-6.25q0-1.49,1.13-1.49t1.13,1.49Z"/><path class="cls-6" d="M810.12,326.79l-.15,4.67q0,.83,0,1.27a3,3,0,0,0,.18.89.9.9,0,0,0,.4.56,1.69,1.69,0,0,0,.49.13,1,1,0,0,1,.36.09.25.25,0,0,1,.1.24,1.81,1.81,0,0,1-.49,1.3,1.53,1.53,0,0,1-1.15.52,1.58,1.58,0,0,1-1.56-.89,6.23,6.23,0,0,1-.43-2.62l.12-5.48a5.65,5.65,0,0,0-.86-3.27,2.75,2.75,0,0,0-2.4-1.25,4,4,0,0,0-3,1.7,9.75,9.75,0,0,0-2,3.84l.09,6.46q0,1.52-1.13,1.52-1.37,0-1.37-2.1a40.43,40.43,0,0,1,.59-5.88,32.15,32.15,0,0,0-.25-3.45q-.25-2.2-.25-2.72a1.46,1.46,0,0,1,.31-.92,1.1,1.1,0,0,1,1.7,0,1.44,1.44,0,0,1,.31.91q0,.51,0,1.24t0,1.24q2.17-3.78,5.36-3.78a4.39,4.39,0,0,1,3.69,1.7A6.52,6.52,0,0,1,810.12,326.79Z"/><path class="cls-6" d="M825,331.88a4,4,0,0,1-1.65,3.3,6.27,6.27,0,0,1-4,1.28,7.42,7.42,0,0,1-4-1.06q-1.7-1.06-1.7-2.1a1,1,0,0,1,.27-.73.82.82,0,0,1,.61-.28,1,1,0,0,1,.55.13,3.37,3.37,0,0,1,.57.52q.36.39.64.65a3.74,3.74,0,0,0,1.16.6,4.67,4.67,0,0,0,1.62.33,5,5,0,0,0,2.69-.67,2.17,2.17,0,0,0,1.06-2q0-1.55-3-2.59-1.22-.42-2.46-.91a6.11,6.11,0,0,1-2.1-1.35,2.8,2.8,0,0,1-.86-2.05,3.57,3.57,0,0,1,1.46-2.81,5.42,5.42,0,0,1,3.57-1.21,6.58,6.58,0,0,1,3.35.73q1.23.73,1.24,1.53,0,1-1,1a1.5,1.5,0,0,1-.89-.33,4.7,4.7,0,0,0-2.68-1,3.47,3.47,0,0,0-2.08.58,1.65,1.65,0,0,0-.8,1.34,1.53,1.53,0,0,0,.86,1.29,11.17,11.17,0,0,0,2.1,1q1.24.45,2.49,1a6.08,6.08,0,0,1,2.11,1.52A3.27,3.27,0,0,1,825,331.88Z"/><path class="cls-6" d="M831.58,323.09l-.06,7.06a17.28,17.28,0,0,0,.22,3.54,1.08,1.08,0,0,0,1.18.83,2.58,2.58,0,0,0,1.09-.31,2.63,2.63,0,0,1,.85-.31.55.55,0,0,1,.63.61q0,.61-1.1,1.28a4.16,4.16,0,0,1-2.17.67q-2.59,0-2.59-3.81l0-9.56q-1,.09-1.37.09-1.49,0-1.49-1t1.49-1l1.31.06-.06-3.33q0-1.49,1.13-1.49t1.13,1.49l-.09,3.36,2.41-.12q1.49,0,1.49,1t-1.49,1Z"/><path class="cls-6" d="M845,320.82a5.64,5.64,0,0,1,3.9,1.34,4.45,4.45,0,0,1,1.5,3.48,3.58,3.58,0,0,1-1.86,3.26A8.74,8.74,0,0,1,844,330a19.85,19.85,0,0,1-3.78-.45,5.89,5.89,0,0,0,1.56,3.59,4.13,4.13,0,0,0,3.08,1.5,6,6,0,0,0,1.88-.28,4.75,4.75,0,0,0,1.31-.61,4,4,0,0,1,1.56-.92.81.81,0,0,1,.6.22.75.75,0,0,1,.22.55q0,.83-1.71,1.91A6.86,6.86,0,0,1,845,336.6a6.07,6.07,0,0,1-4.91-2.17,8.58,8.58,0,0,1-2-5.24q-1.58-.47-1.58-1.55a.94.94,0,0,1,.25-.7.83.83,0,0,1,.61-.25,2.11,2.11,0,0,1,.89.27,8.75,8.75,0,0,1,2.48-4.41A6,6,0,0,1,845,320.82Zm-1.13,7.32a6.5,6.5,0,0,0,3.21-.69,2.07,2.07,0,0,0,1.2-1.85,2.85,2.85,0,0,0-.79-2,2.92,2.92,0,0,0-2.25-.85,4.29,4.29,0,0,0-3.3,1.47,7,7,0,0,0-1.73,3.44A13,13,0,0,0,843.9,328.15Z"/><path class="cls-6" d="M865.79,328.94a16.62,16.62,0,0,0,.33,3.65q.33,1.41.77,1.59a1.29,1.29,0,0,0,.43.12,1,1,0,0,1,.36.09.25.25,0,0,1,.1.24,2,2,0,0,1-.43,1.31,1.61,1.61,0,0,1-1.29.51q-.86,0-1.34-1.1a7.17,7.17,0,0,1-.48-2.83,7.28,7.28,0,0,1-2.19,2.8,5.13,5.13,0,0,1-3.24,1.13,4.47,4.47,0,0,1-3.11-1.19,8,8,0,0,1-2.38-6.22,8.94,8.94,0,0,1,1.87-5.66A5.84,5.84,0,0,1,860,321a5.5,5.5,0,0,1,3.87,1.52q0-1.52,1.13-1.52,1.37,0,1.37,2.1A40.49,40.49,0,0,1,865.79,328.94Zm-1.73.27-.15-4.58a5.36,5.36,0,0,0-3.74-1.73,4.17,4.17,0,0,0-3.35,1.76,6.55,6.55,0,0,0-1.4,4.21,8.1,8.1,0,0,0,.91,4,2.83,2.83,0,0,0,2.58,1.59,4.07,4.07,0,0,0,3-1.49A10.09,10.09,0,0,0,864.06,329.21Z"/><path class="cls-6" d="M884.55,334.24q.77,0,.77.45a2.07,2.07,0,0,1-.4,1.16,1.42,1.42,0,0,1-1.26.6,1.5,1.5,0,0,1-1.36-1,9,9,0,0,1-.7-3q-2.17,4-5.51,4a4.84,4.84,0,0,1-3.33-1.25,7.09,7.09,0,0,1-2-2.89,9.51,9.51,0,0,1-.6-3.27,8.68,8.68,0,0,1,2-5.66,6.2,6.2,0,0,1,5-2.41,7,7,0,0,1,4.23,1.46q.06-4.14.06-6.06a5.85,5.85,0,0,1,.28-2.38,1,1,0,0,1,.92-.46,1.26,1.26,0,0,1,1,.52,2.48,2.48,0,0,1,.4,1.53q0,1-.12,2.49t-.36,3.9q-.24,2.43-.39,4.39a46.43,46.43,0,0,0,.27,5.69Q883.77,334.09,884.55,334.24Zm-3.16-4.88v-4.73a5.88,5.88,0,0,0-4.23-1.72,4.25,4.25,0,0,0-3.35,1.76,6.3,6.3,0,0,0-1.44,4.12,7.53,7.53,0,0,0,1,4,3.19,3.19,0,0,0,2.83,1.68Q879.37,334.51,881.39,329.36Z"/><path class="cls-6" d="M896.36,323.16q-.77.83-1.55,1.61a5.24,5.24,0,0,0-1.84,3.59q0,1.74-1,1.74t-1.1-1.67a6.19,6.19,0,0,1,1.84-4.26q.77-.83,1.55-1.61a5.49,5.49,0,0,0,1.85-3.72,3.26,3.26,0,0,0-1-2.43,3,3,0,0,0-2.11-1,4,4,0,0,0-1.8.36,3,3,0,0,0-1,.77q-.83,1.13-1.34,1.13a.92.92,0,0,1-1-1q0-1,1.53-2.13a5.76,5.76,0,0,1,3.41-1.09,5.41,5.41,0,0,1,4,1.53,5.23,5.23,0,0,1,1.53,3.85A6.05,6.05,0,0,1,896.36,323.16Zm-4.36,10a1.1,1.1,0,0,1,.94.45,1.89,1.89,0,0,1,.33,1.15,2,2,0,0,1-.43,1.27,1.28,1.28,0,0,1-1,.57,1.07,1.07,0,0,1-.94-.48,2.07,2.07,0,0,1,.1-2.38A1.28,1.28,0,0,1,892,333.16Z"/><g class="cls-12"><path d="M648.89,162c-3.88,2.29-2.41-1.7-2.55-3.47-.46-6.25,1.95-22.45-24.83-29.57-31.87-8.47-33.12-75.76-20-91.83,16.24-19.83,39.53-31.89,91.3-34.73C713.44,1.29,825.46.19,838.72,51c6,22.82,7.2,66.88-31.64,83.44S682.59,137.69,669,147.16C660.39,153.15,648.89,162,648.89,162Z"/><path d="M647.07,163a1.06,1.06,0,0,1-.59-.16c-.7-.45-.58-1.66-.46-2.83a8.88,8.88,0,0,0,.07-1.4c0-.61-.06-1.32-.08-2.08-.19-7.3-.54-20.89-24.57-27.28-13.3-3.54-20.13-16.77-23.51-27.26-7.93-24.55-4.67-55.09,3.42-65a78.77,78.77,0,0,1,32.42-23.81c14.79-6,34.11-9.64,59.05-11,1.56-.09,38.62-2,75.75,4.82,18.27,3.37,33.34,8.29,44.77,14.62C827.28,29.34,835.89,39.22,839,51c1.81,6.93,5.53,25.12,1,44.19-4.5,18.89-15.52,32.19-32.76,39.54-22.2,9.46-59.89,9.17-90.17,8.94-22.59-.17-42.1-.32-47.88,3.7-8.5,5.92-20,14.78-20.09,14.87l0,0A4.2,4.2,0,0,1,647.07,163ZM707.36,2.36c-8.49,0-13.92.28-14.5.32C668,4,648.71,7.63,634,13.65a78.29,78.29,0,0,0-32.23,23.66c-4,4.9-6.86,15.11-7.61,27.31-.79,12.78.77,26.34,4.28,37.2,3.35,10.37,10.08,23.45,23.17,26.93,24.38,6.48,24.74,20.31,24.93,27.74,0,.78,0,1.46.08,2.05a9.24,9.24,0,0,1-.08,1.49c-.1,1-.21,2.08.23,2.37.23.14.76.16,2-.57.44-.34,11.71-9,20.1-14.88,5.91-4.11,24.55-4,48.16-3.79,30.24.23,67.87.52,90-8.9,17.08-7.28,28-20.47,32.47-39.2,4.52-19,.82-37.05-1-43.95-3-11.63-11.57-21.41-25.37-29.06-11.39-6.31-26.4-11.21-44.62-14.57C745.14,3.18,721.81,2.36,707.36,2.36Z"/></g><path class="cls-6" d="M646.41,159.55c-3.88,2.29-2.41-1.7-2.55-3.47-.46-6.25,1.95-22.45-24.83-29.57-31.87-8.47-33.12-75.76-20-91.83C615.31,14.85,638.6,2.79,690.37-.06,711-1.19,823-2.29,836.24,48.57c6,22.82,7.2,66.88-31.64,83.44s-124.49,3.2-138.09,12.67C657.9,150.67,646.41,159.55,646.41,159.55Z"/><path class="cls-4" d="M644.59,160.49a1.06,1.06,0,0,1-.59-.16c-.7-.45-.58-1.66-.46-2.83a8.88,8.88,0,0,0,.07-1.4c0-.61-.06-1.32-.08-2.08-.19-7.3-.54-20.89-24.57-27.28-13.3-3.54-20.13-16.77-23.51-27.26-7.93-24.55-4.67-55.09,3.42-65A78.77,78.77,0,0,1,631.3,10.71c14.79-6,34.11-9.64,59.05-11,1.56-.09,38.62-2,75.75,4.82,18.27,3.37,33.34,8.29,44.77,14.62,13.93,7.72,22.54,17.6,25.61,29.37,1.81,6.93,5.53,25.12,1,44.19-4.5,18.89-15.52,32.19-32.76,39.54-22.2,9.46-59.89,9.17-90.17,8.94-22.59-.17-42.09-.32-47.88,3.7-8.5,5.92-20,14.78-20.09,14.87l0,0A4.2,4.2,0,0,1,644.59,160.49ZM704.88-.13c-8.49,0-13.92.28-14.5.32-24.89,1.37-44.15,5-58.89,11a78.29,78.29,0,0,0-32.23,23.66c-4,4.9-6.86,15.11-7.61,27.31-.79,12.78.77,26.34,4.28,37.2,3.35,10.37,10.08,23.45,23.17,26.93,24.38,6.48,24.74,20.31,24.93,27.74,0,.78,0,1.46.08,2.05a9.24,9.24,0,0,1-.08,1.49c-.1,1-.21,2.08.23,2.37.23.14.76.16,2-.57.44-.34,11.71-9,20.1-14.88,5.91-4.11,24.55-4,48.16-3.79,30.24.23,67.87.52,90-8.9,17.08-7.28,28-20.47,32.47-39.2,4.52-19,.82-37.05-1-43.95C833,37,824.43,27.22,810.63,19.57,799.24,13.26,784.23,8.36,766,5,742.66.7,719.33-.13,704.88-.13Z"/><path class="cls-4" d="M646.78,39.65l1.31,0a1.69,1.69,0,0,1,1.07.34,1,1,0,0,1,.41.84q0,1.13-2.1,1.11l.68,2.15q.22.69.59,1.73a13.07,13.07,0,0,1,.75,2.57,1.14,1.14,0,0,1-.28.74.91.91,0,0,1-.75.32,1.43,1.43,0,0,1-1.3-1.06q-.41-1.14-1-3.17t-1-3.43q-3.57-.13-5-.14t-3.34.05q-1.91,6.17-2,6.5-.43,1.1-1.17,1.09a.92.92,0,0,1-.71-.31,1,1,0,0,1-.26-.73,5.33,5.33,0,0,1,.28-1.34q.28-.91.85-2.51t.91-2.67h-.54q-1.43,0-1.42-1.12t1.44-1.09q.68,0,1.22,0,.09-.24,4-11.36.64-1.78,1.74-1.77a1.49,1.49,0,0,1,1.14.44A3.51,3.51,0,0,1,643,28q.26.67.87,2.58Q645.74,36.57,646.78,39.65Zm-9.26,0q1.67.11,3.56.13t3.44-.05q-3-9.88-3.32-9.89t-2.85,7.35Z"/><path class="cls-4" d="M655.12,42.39l0,5.6q0,1.52-1.15,1.51-1.37,0-1.35-2.11a40.4,40.4,0,0,1,.66-5.87,31.51,31.51,0,0,0-.22-3.43q-.23-2.18-.22-2.71a1.54,1.54,0,0,1,.32-.95,1.07,1.07,0,0,1,1.7,0,1.48,1.48,0,0,1,.3.91q0,.49,0,1.25t0,1.27A7.14,7.14,0,0,1,657,35.2a3.85,3.85,0,0,1,2.62-1.13,3.38,3.38,0,0,1,2.06.57,1.52,1.52,0,0,1,.72,1.18,1.4,1.4,0,0,1-.34,1,1.1,1.1,0,0,1-.85.35,1.76,1.76,0,0,1-1.13-.56,1.72,1.72,0,0,0-1-.56q-1,0-2.31,2.09A11.72,11.72,0,0,0,655.12,42.39Z"/><path class="cls-4" d="M671.21,34a5.65,5.65,0,0,1,3.89,1.38,4.45,4.45,0,0,1,1.47,3.5,3.58,3.58,0,0,1-1.89,3.24,8.74,8.74,0,0,1-4.58,1.07,19.84,19.84,0,0,1-3.78-.49,5.89,5.89,0,0,0,1.53,3.6,4.13,4.13,0,0,0,3.07,1.54,6,6,0,0,0,1.88-.26,4.76,4.76,0,0,0,1.32-.6,4,4,0,0,1,1.57-.91.8.8,0,0,1,.59.23.75.75,0,0,1,.22.55q0,.83-1.73,1.89a6.86,6.86,0,0,1-3.72,1,6.07,6.07,0,0,1-4.89-2.22,8.58,8.58,0,0,1-1.91-5.26q-1.57-.49-1.56-1.56a.94.94,0,0,1,.26-.7.83.83,0,0,1,.61-.25,2.11,2.11,0,0,1,.89.28A8.75,8.75,0,0,1,667,35.72,6,6,0,0,1,671.21,34ZM670,41.35a6.49,6.49,0,0,0,3.22-.65,2.07,2.07,0,0,0,1.22-1.83,2.85,2.85,0,0,0-.77-2,2.92,2.92,0,0,0-2.24-.87,4.29,4.29,0,0,0-3.32,1.44,7,7,0,0,0-1.76,3.42A13,13,0,0,0,670,41.35Z"/><path class="cls-4" d="M697.54,42.44l0-6.46q0-1.52,1.15-1.51,1.37,0,1.35,2.25a42.25,42.25,0,0,1-.68,5.74q.32,3.64.3,5.42a9.7,9.7,0,0,1-2,6.25,6.49,6.49,0,0,1-5.38,2.31,8.18,8.18,0,0,1-3.47-.8q-1.63-.78-1.62-1.54t.69-.75a7.14,7.14,0,0,1,1.65.57,7.33,7.33,0,0,0,2.78.58,4.84,4.84,0,0,0,4-1.74,7.06,7.06,0,0,0,1.51-4.6q0-1-.07-2-2.24,3.79-5.58,3.75a4.32,4.32,0,0,1-3.67-1.81,7.08,7.08,0,0,1-1.26-4.34l.22-4.49a9.84,9.84,0,0,0-.21-2.22,7.45,7.45,0,0,1-.22-1.48,1.16,1.16,0,0,1,.37-.82,1.22,1.22,0,0,1,.93-.36q1.37,0,1.34,2.46l-.31,6.55a5.72,5.72,0,0,0,.83,3.3A2.74,2.74,0,0,0,692.53,48a4,4,0,0,0,3-1.68A9.88,9.88,0,0,0,697.54,42.44Z"/><path class="cls-4" d="M710.44,34.45a6.33,6.33,0,0,1,5,2.33,8.25,8.25,0,0,1,1.91,5.6A8.29,8.29,0,0,1,715.29,48a6.64,6.64,0,0,1-10-.07,8.25,8.25,0,0,1-1.91-5.6,8.33,8.33,0,0,1,2-5.59A6.34,6.34,0,0,1,710.44,34.45Zm3.3,12.12a7,7,0,0,0,.15-8.42,4.25,4.25,0,0,0-3.42-1.76,4.38,4.38,0,0,0-3.52,1.72,7,7,0,0,0-.15,8.42,4.24,4.24,0,0,0,3.42,1.76A4.38,4.38,0,0,0,713.74,46.57Z"/><path class="cls-4" d="M723.26,37.17,723,43.72a5.72,5.72,0,0,0,.83,3.3,2.74,2.74,0,0,0,2.38,1.29,4,4,0,0,0,3-1.68,9.88,9.88,0,0,0,2-3.83l0-6.46q0-1.52,1.15-1.51,1.37,0,1.35,2.11a40.47,40.47,0,0,1-.66,5.87,16.62,16.62,0,0,0,.29,3.65q.31,1.42.76,1.6a1.29,1.29,0,0,0,.43.12,1,1,0,0,1,.36.09.25.25,0,0,1,.1.24,1.8,1.8,0,0,1-.5,1.3,1.65,1.65,0,0,1-1.24.49q-1.88,0-1.84-3.83-2.24,3.79-5.58,3.75a4.32,4.32,0,0,1-3.67-1.81,7.08,7.08,0,0,1-1.26-4.34l.22-4.49a9.84,9.84,0,0,0-.21-2.22,7.45,7.45,0,0,1-.22-1.48,1.16,1.16,0,0,1,.37-.82,1.22,1.22,0,0,1,.93-.36Q723.28,34.73,723.26,37.17Z"/><path class="cls-4" d="M755.53,46a4,4,0,0,1-1.69,3.29,6.27,6.27,0,0,1-4,1.24,7.42,7.42,0,0,1-4-1.1q-1.69-1.07-1.68-2.12a1,1,0,0,1,.28-.73.82.82,0,0,1,.61-.28,1,1,0,0,1,.55.14,3.37,3.37,0,0,1,.56.53q.35.39.63.66a3.74,3.74,0,0,0,1.15.61,4.67,4.67,0,0,0,1.62.34,5,5,0,0,0,2.7-.64A2.17,2.17,0,0,0,753.39,46q0-1.55-3-2.62-1.22-.43-2.45-.93A6.12,6.12,0,0,1,745.91,41a2.8,2.8,0,0,1-.84-2.06,3.57,3.57,0,0,1,1.49-2.8A5.42,5.42,0,0,1,750.14,35a6.58,6.58,0,0,1,3.34.76q1.23.74,1.22,1.55,0,1-1.05,1a1.5,1.5,0,0,1-.89-.34,4.7,4.7,0,0,0-2.67-1,3.47,3.47,0,0,0-2.09.56,1.65,1.65,0,0,0-.82,1.33,1.53,1.53,0,0,0,.85,1.3,11.2,11.2,0,0,0,2.09,1q1.23.46,2.48,1a6.08,6.08,0,0,1,2.1,1.54A3.27,3.27,0,0,1,755.53,46Z"/><path class="cls-4" d="M761.27,37.57,761,44.11a5.72,5.72,0,0,0,.83,3.3,2.74,2.74,0,0,0,2.38,1.29,4,4,0,0,0,3-1.68,9.88,9.88,0,0,0,2-3.83l0-6.46q0-1.52,1.15-1.51,1.37,0,1.35,2.11A40.47,40.47,0,0,1,771,43.2a16.62,16.62,0,0,0,.29,3.65q.31,1.42.76,1.6a1.29,1.29,0,0,0,.43.12,1,1,0,0,1,.36.09.25.25,0,0,1,.1.24,1.8,1.8,0,0,1-.5,1.3,1.65,1.65,0,0,1-1.24.49q-1.88,0-1.84-3.83-2.24,3.79-5.58,3.75a4.32,4.32,0,0,1-3.67-1.81,7.08,7.08,0,0,1-1.26-4.34l.22-4.49a9.84,9.84,0,0,0-.21-2.22,7.45,7.45,0,0,1-.22-1.48,1.16,1.16,0,0,1,.37-.82,1.22,1.22,0,0,1,.93-.36Q761.3,35.12,761.27,37.57Z"/><path class="cls-4" d="M778.54,43.67l0,5.6q0,1.52-1.15,1.51-1.37,0-1.35-2.11a40.4,40.4,0,0,1,.66-5.87,31.52,31.52,0,0,0-.22-3.43q-.23-2.18-.22-2.71a1.54,1.54,0,0,1,.32-.95,1.07,1.07,0,0,1,1.7,0,1.48,1.48,0,0,1,.3.91q0,.49,0,1.25t0,1.27a7.14,7.14,0,0,1,1.89-2.66,3.85,3.85,0,0,1,2.62-1.13,3.38,3.38,0,0,1,2.06.57,1.52,1.52,0,0,1,.72,1.18,1.4,1.4,0,0,1-.34,1,1.1,1.1,0,0,1-.85.35,1.76,1.76,0,0,1-1.13-.56,1.72,1.72,0,0,0-1-.56q-1,0-2.31,2.09A11.72,11.72,0,0,0,778.54,43.67Z"/><path class="cls-4" d="M794.63,35.32a5.65,5.65,0,0,1,3.89,1.38A4.45,4.45,0,0,1,800,40.2a3.58,3.58,0,0,1-1.89,3.24,8.74,8.74,0,0,1-4.58,1.07,19.82,19.82,0,0,1-3.78-.49,5.89,5.89,0,0,0,1.53,3.6,4.12,4.12,0,0,0,3.07,1.54,6,6,0,0,0,1.88-.26,4.77,4.77,0,0,0,1.32-.6,4,4,0,0,1,1.57-.91.8.8,0,0,1,.59.23.75.75,0,0,1,.22.55q0,.83-1.73,1.89a6.86,6.86,0,0,1-3.72,1,6.07,6.07,0,0,1-4.89-2.22,8.58,8.58,0,0,1-1.91-5.26q-1.57-.49-1.56-1.56a.94.94,0,0,1,.26-.7.83.83,0,0,1,.61-.25,2.11,2.11,0,0,1,.89.28A8.75,8.75,0,0,1,790.38,37,6,6,0,0,1,794.63,35.32Zm-1.21,7.31a6.5,6.5,0,0,0,3.22-.65,2.07,2.07,0,0,0,1.22-1.83,2.85,2.85,0,0,0-.77-2,2.92,2.92,0,0,0-2.24-.87,4.29,4.29,0,0,0-3.32,1.44,7,7,0,0,0-1.76,3.42A13,13,0,0,0,793.42,42.63Z"/><path class="cls-4" d="M648.91,77.66l0-6.46q0-1.52,1.15-1.51,1.37,0,1.35,2.25a42.33,42.33,0,0,1-.68,5.74q.32,3.64.3,5.42a9.7,9.7,0,0,1-2,6.25,6.49,6.49,0,0,1-5.38,2.31,8.18,8.18,0,0,1-3.47-.8q-1.63-.78-1.62-1.54t.69-.75a7.15,7.15,0,0,1,1.65.57,7.32,7.32,0,0,0,2.78.58,4.84,4.84,0,0,0,4-1.75,7.06,7.06,0,0,0,1.51-4.6q0-1-.07-2-2.24,3.79-5.58,3.75a4.32,4.32,0,0,1-3.67-1.81A7.07,7.07,0,0,1,638.57,79l.23-4.49a9.84,9.84,0,0,0-.22-2.22,7.45,7.45,0,0,1-.22-1.48,1.16,1.16,0,0,1,.37-.81,1.22,1.22,0,0,1,.93-.36Q641,69.6,641,72l-.31,6.55a5.72,5.72,0,0,0,.83,3.3,2.74,2.74,0,0,0,2.38,1.29,4,4,0,0,0,3-1.68A9.88,9.88,0,0,0,648.91,77.66Z"/><path class="cls-4" d="M661.81,69.67a6.33,6.33,0,0,1,5,2.33,8.9,8.9,0,0,1-.15,11.19,6.63,6.63,0,0,1-10-.07,8.93,8.93,0,0,1,.13-11.19A6.34,6.34,0,0,1,661.81,69.67Zm3.3,12.12a7,7,0,0,0,.15-8.42,4.24,4.24,0,0,0-3.42-1.76,4.38,4.38,0,0,0-3.52,1.72,7,7,0,0,0-.15,8.42,4.24,4.24,0,0,0,3.42,1.76A4.38,4.38,0,0,0,665.11,81.79Z"/><path class="cls-4" d="M674.63,72.39l-.31,6.55a5.72,5.72,0,0,0,.83,3.3,2.74,2.74,0,0,0,2.38,1.29,4,4,0,0,0,3-1.68,9.88,9.88,0,0,0,2-3.83l0-6.46q0-1.52,1.15-1.51,1.37,0,1.35,2.11a40.48,40.48,0,0,1-.66,5.87,16.62,16.62,0,0,0,.29,3.65q.31,1.42.76,1.6a1.29,1.29,0,0,0,.43.12,1,1,0,0,1,.36.09.25.25,0,0,1,.1.24,1.8,1.8,0,0,1-.5,1.3,1.65,1.65,0,0,1-1.24.49q-1.88,0-1.84-3.83-2.24,3.79-5.58,3.75a4.32,4.32,0,0,1-3.67-1.81,7.07,7.07,0,0,1-1.26-4.34l.23-4.49a9.83,9.83,0,0,0-.22-2.22,7.45,7.45,0,0,1-.22-1.48,1.16,1.16,0,0,1,.37-.81,1.22,1.22,0,0,1,.93-.36Q674.66,69.95,674.63,72.39Z"/><path class="cls-4" d="M701.32,83q.27,0,2-5.64t1.91-6.05a1.41,1.41,0,0,1,1.34-1.06,1.3,1.3,0,0,1,1.25,1.06q.32,1,.86,3.13t.8,3q1.58,5.61,1.86,5.62t2-5.55q.4-1.28,1-3.47t.74-2.58q.37-1.16,1.11-1.15a1.13,1.13,0,0,1,.76.28.82.82,0,0,1,.31.64,2.94,2.94,0,0,1-.08.68q-.08.31-.28.89l-.41,1.23q-.22.65-.63,1.82t-1.43,4.26q-1,3.09-1.6,4.51a1.63,1.63,0,0,1-1.65,1.11q-1.19,0-1.71-1.57-1-3.11-2-6.56t-1.19-3.45q-.21,0-.56,1.17l-.56,1.84q-.2.67-.26.91a52.09,52.09,0,0,1-2.21,6.53,1.7,1.7,0,0,1-1.65,1q-1.13,0-1.68-1.66-.2-.6-.82-2.57t-1-3.18q-.39-1.21-.78-2.35l-.62-1.79q-.23-.66-.43-1.28a6.18,6.18,0,0,1-.37-1.64,1,1,0,0,1,.32-.77,1.06,1.06,0,0,1,.76-.29q.86,0,1.18,1.05.12.36.76,2.61t.92,3.17l.56,1.87q.29,1,.48,1.55t.42,1.28Q701.17,83,701.32,83Z"/><path class="cls-4" d="M731.85,78.52a16.62,16.62,0,0,0,.29,3.65q.31,1.42.76,1.6a1.29,1.29,0,0,0,.43.12,1,1,0,0,1,.36.09.25.25,0,0,1,.1.24,2,2,0,0,1-.45,1.31A1.61,1.61,0,0,1,732,86q-.86,0-1.33-1.12a7.17,7.17,0,0,1-.45-2.83A7.27,7.27,0,0,1,728,84.86a5.12,5.12,0,0,1-3.26,1.1,4.47,4.47,0,0,1-3.1-1.22,8,8,0,0,1-2.32-6.25,9,9,0,0,1,1.93-5.64,5.84,5.84,0,0,1,4.85-2.36A5.5,5.5,0,0,1,730,72q0-1.52,1.15-1.51,1.37,0,1.35,2.11A40.48,40.48,0,0,1,731.85,78.52Zm-1.73.25-.1-4.59a5.36,5.36,0,0,0-3.72-1.77,4.17,4.17,0,0,0-3.37,1.72,6.55,6.55,0,0,0-1.44,4.2,8.09,8.09,0,0,0,.87,4.06A2.83,2.83,0,0,0,724.92,84,4.07,4.07,0,0,0,728,82.56,10.09,10.09,0,0,0,730.12,78.77Z"/><path class="cls-4" d="M749.73,76.54l-.2,4.67q0,.83,0,1.27a3,3,0,0,0,.17.9.9.9,0,0,0,.4.57,1.68,1.68,0,0,0,.49.14,1,1,0,0,1,.36.09.25.25,0,0,1,.1.24,1.81,1.81,0,0,1-.5,1.29,1.53,1.53,0,0,1-1.15.51,1.58,1.58,0,0,1-1.55-.91,6.23,6.23,0,0,1-.4-2.62l.18-5.48a5.65,5.65,0,0,0-.83-3.28,2.75,2.75,0,0,0-2.38-1.28,4,4,0,0,0-3,1.67,9.75,9.75,0,0,0-2,3.82l0,6.46q0,1.52-1.15,1.51-1.37,0-1.35-2.11a40.41,40.41,0,0,1,.66-5.87,32.15,32.15,0,0,0-.22-3.46q-.23-2.21-.22-2.73a1.46,1.46,0,0,1,.32-.92,1.1,1.1,0,0,1,1.7,0,1.44,1.44,0,0,1,.3.91q0,.51,0,1.24t0,1.24q2.21-3.76,5.4-3.72a4.39,4.39,0,0,1,3.67,1.74A6.52,6.52,0,0,1,749.73,76.54Z"/><path class="cls-4" d="M757.42,72.92,757.29,80a17.29,17.29,0,0,0,.19,3.54,1.08,1.08,0,0,0,1.17.85,2.58,2.58,0,0,0,1.09-.3,2.64,2.64,0,0,1,.85-.3.55.55,0,0,1,.62.62q0,.61-1.11,1.27a4.16,4.16,0,0,1-2.18.65q-2.59,0-2.55-3.84l.07-9.56q-1,.08-1.37.08-1.49,0-1.48-1t1.5-1l1.31.07,0-3.33q0-1.49,1.15-1.48t1.12,1.5l-.13,3.36,2.41-.09q1.49,0,1.48,1t-1.5.94Z"/><path class="cls-4" d="M774.54,73.1l-.13,7.05a17.29,17.29,0,0,0,.19,3.55,1.08,1.08,0,0,0,1.17.85,2.58,2.58,0,0,0,1.09-.3,2.63,2.63,0,0,1,.85-.3.55.55,0,0,1,.62.62q0,.61-1.11,1.27a4.17,4.17,0,0,1-2.18.65q-2.59,0-2.55-3.84l.07-9.56q-1,.08-1.37.07-1.49,0-1.48-1t1.5-1l1.31.07,0-3.33q0-1.49,1.15-1.48t1.12,1.5l-.13,3.36,2.41-.09q1.49,0,1.48,1t-1.5.94Z"/><path class="cls-4" d="M787.53,71a6.33,6.33,0,0,1,5,2.33,8.9,8.9,0,0,1-.15,11.19,6.64,6.64,0,0,1-10-.07,8.93,8.93,0,0,1,.13-11.19A6.34,6.34,0,0,1,787.53,71Zm3.3,12.12a7,7,0,0,0,.15-8.42,4.25,4.25,0,0,0-3.42-1.76A4.38,4.38,0,0,0,784,74.63a7,7,0,0,0-.15,8.42,4.25,4.25,0,0,0,3.42,1.76A4.38,4.38,0,0,0,790.83,83.1Z"/><path class="cls-4" d="M680.64,119q.77,0,.77.45a2.08,2.08,0,0,1-.41,1.16,1.42,1.42,0,0,1-1.27.58,1.5,1.5,0,0,1-1.34-1,9,9,0,0,1-.67-3q-2.22,4-5.55,3.93a4.83,4.83,0,0,1-3.32-1.29,7.09,7.09,0,0,1-2-2.91,9.54,9.54,0,0,1-.56-3.28,8.68,8.68,0,0,1,2-5.64,6.2,6.2,0,0,1,5.06-2.36,7,7,0,0,1,4.21,1.5q.1-4.14.12-6.06a5.87,5.87,0,0,1,.31-2.38,1,1,0,0,1,.93-.45,1.26,1.26,0,0,1,1,.53,2.48,2.48,0,0,1,.39,1.54q0,1-.14,2.48t-.4,3.9q-.26,2.42-.43,4.39a46.46,46.46,0,0,0,.21,5.69Q679.86,118.86,680.64,119Zm-3.1-4.92,0-4.73a5.88,5.88,0,0,0-4.21-1.77,4.25,4.25,0,0,0-3.37,1.72,6.3,6.3,0,0,0-1.49,4.11,7.53,7.53,0,0,0,1,4.06,3.19,3.19,0,0,0,2.81,1.71Q675.46,119.23,677.53,114.1Z"/><path class="cls-4" d="M690.88,105.7a6.33,6.33,0,0,1,5,2.33,8.9,8.9,0,0,1-.15,11.19,6.64,6.64,0,0,1-10-.07,8.93,8.93,0,0,1,.13-11.19A6.34,6.34,0,0,1,690.88,105.7Zm3.3,12.12a7,7,0,0,0,.15-8.42,4.24,4.24,0,0,0-3.42-1.76,4.38,4.38,0,0,0-3.52,1.72,7,7,0,0,0-.15,8.42,4.24,4.24,0,0,0,3.42,1.76A4.38,4.38,0,0,0,694.18,117.82Z"/><path class="cls-4" d="M711.74,108.18l-.13,7.05a17.28,17.28,0,0,0,.19,3.54,1.08,1.08,0,0,0,1.17.85,2.58,2.58,0,0,0,1.09-.3,2.63,2.63,0,0,1,.85-.3.55.55,0,0,1,.62.62q0,.61-1.11,1.27a4.17,4.17,0,0,1-2.18.65q-2.59,0-2.55-3.84l.07-9.56q-1,.08-1.37.08-1.49,0-1.48-1t1.5-1l1.31.07,0-3.34q0-1.49,1.15-1.48t1.12,1.5l-.12,3.36,2.41-.09q1.49,0,1.48,1t-1.5.94Z"/><path class="cls-4" d="M731,112.07l-.2,4.67q0,.83,0,1.26a3,3,0,0,0,.17.9.9.9,0,0,0,.4.57,1.69,1.69,0,0,0,.49.14,1,1,0,0,1,.36.09.25.25,0,0,1,.1.24,1.81,1.81,0,0,1-.5,1.29,1.53,1.53,0,0,1-1.15.51,1.58,1.58,0,0,1-1.55-.91,6.22,6.22,0,0,1-.4-2.62l.18-5.48a5.66,5.66,0,0,0-.83-3.28,2.76,2.76,0,0,0-2.38-1.28,4,4,0,0,0-3,1.67,9.75,9.75,0,0,0-2,3.82l0,6.46q0,1.52-1.15,1.51-1.37,0-1.35-2.11a40.41,40.41,0,0,1,.66-5.87q0-2-.19-7.64t-.2-6.06a1.37,1.37,0,0,1,.32-.85,1.1,1.1,0,0,1,1.7,0,1.73,1.73,0,0,1,.3,1.09l-.1,9.73q2.21-3.76,5.4-3.72a4.39,4.39,0,0,1,3.67,1.74A6.52,6.52,0,0,1,731,112.07Z"/><path class="cls-4" d="M737.08,99.92a1.07,1.07,0,0,1,.92.41,1.66,1.66,0,0,1,.29,1,2.16,2.16,0,0,1-.43,1.22,1.23,1.23,0,0,1-1,.6,1.1,1.1,0,0,1-.93-.43,1.79,1.79,0,0,1-.3-1.1,1.84,1.84,0,0,1,.44-1.2A1.33,1.33,0,0,1,737.08,99.92Zm.69,14.15.08,6.25q0,1.49-1.15,1.48t-1.12-1.5l.21-6.25-.08-6.25q0-1.49,1.15-1.48t1.12,1.5Z"/><path class="cls-4" d="M752.47,117.38a4,4,0,0,1-1.69,3.29,6.27,6.27,0,0,1-4,1.24,7.42,7.42,0,0,1-4-1.1q-1.69-1.07-1.68-2.12a1,1,0,0,1,.28-.73.82.82,0,0,1,.61-.28,1,1,0,0,1,.55.14,3.38,3.38,0,0,1,.56.53q.35.39.63.66a3.74,3.74,0,0,0,1.15.61,4.66,4.66,0,0,0,1.62.34,5,5,0,0,0,2.7-.64,2.17,2.17,0,0,0,1.08-1.94q0-1.55-2.95-2.62-1.22-.43-2.45-.93a6.13,6.13,0,0,1-2.09-1.38,2.81,2.81,0,0,1-.84-2.06,3.57,3.57,0,0,1,1.49-2.8,5.42,5.42,0,0,1,3.59-1.17,6.58,6.58,0,0,1,3.34.76q1.23.74,1.22,1.55,0,1-1.05,1a1.5,1.5,0,0,1-.89-.34,4.71,4.71,0,0,0-2.67-1,3.48,3.48,0,0,0-2.09.56,1.65,1.65,0,0,0-.82,1.33,1.53,1.53,0,0,0,.85,1.3,11.21,11.21,0,0,0,2.09,1q1.23.46,2.48,1a6.08,6.08,0,0,1,2.1,1.54A3.27,3.27,0,0,1,752.47,117.38Z"/><path class="cls-4" d="M763.3,108.8q-.78.83-1.56,1.59a5.24,5.24,0,0,0-1.88,3.57q0,1.74-1.06,1.73T757.71,114a6.19,6.19,0,0,1,1.89-4.24q.78-.82,1.56-1.59a5.49,5.49,0,0,0,1.88-3.7,3.26,3.26,0,0,0-1-2.44,3,3,0,0,0-2.1-1,4,4,0,0,0-1.8.34,3,3,0,0,0-1.05.76q-.85,1.12-1.35,1.12a.92.92,0,0,1-1-1q0-1,1.56-2.11a5.76,5.76,0,0,1,3.42-1.05,5.42,5.42,0,0,1,4,1.58,5.23,5.23,0,0,1,1.49,3.87A6,6,0,0,1,763.3,108.8Zm-4.47,10a1.09,1.09,0,0,1,.93.46,1.89,1.89,0,0,1,.31,1.15,2,2,0,0,1-.44,1.26,1.28,1.28,0,0,1-1,.55,1.07,1.07,0,0,1-.93-.49,2,2,0,0,1-.32-1.15,2,2,0,0,1,.44-1.23A1.28,1.28,0,0,1,758.84,118.76Z"/></g></g></svg>